<svg width="72" height="81" fill="none" xmlns="http://www.w3.org/2000/svg"><path d="M6.265 70.85c.11.008.224.002.337-.02.86-.166 1.688-.335 2.48-.508a1.251 1.251 0 00-.534-2.444c-.774.169-1.58.334-2.42.497a1.251 1.251 0 00.137 2.474zm7.083-1.663a1.23 1.23 0 00.448-.046c1.753-.508 3.27-1.04 4.64-1.628a1.25 1.25 0 10-.987-2.298c-1.274.547-2.696 1.045-4.348 1.525a1.25 1.25 0 00.247 2.447zm8.638-3.896a1.24 1.24 0 00.846-.244c1.466-1.093 2.623-2.332 3.54-3.792a1.251 1.251 0 00-2.118-1.33c-.749 1.193-1.703 2.212-2.917 3.116a1.25 1.25 0 00.649 2.25zm5.053-7.83a1.25 1.25 0 001.307-.927c.361-1.36.645-2.9.894-4.848a1.25 1.25 0 00-2.48-.318c-.234 1.837-.498 3.274-.83 4.525a1.25 1.25 0 001.11 1.567zm1.351-9.433a1.25 1.25 0 001.345-1.134l.117-1.323c.096-1.09.197-2.23.311-3.423a1.251 1.251 0 00-1.126-1.364c-.645-.054-1.297.44-1.363 1.126a464.186 464.186 0 00-.311 3.44l-.118 1.32a1.251 1.251 0 001.145 1.358zm.936-9.498a1.25 1.25 0 001.34-1.096c.195-1.623.404-3.156.639-4.688a1.248 1.248 0 00-1.046-1.425 1.244 1.244 0 00-1.425 1.045c-.24 1.56-.452 3.12-.65 4.77a1.251 1.251 0 001.091 1.39l.05.004zm1.454-9.43a1.251 1.251 0 001.326-1.01 30.18 30.18 0 011.187-4.417 1.25 1.25 0 10-2.356-.837 32.796 32.796 0 00-1.287 4.783 1.25 1.25 0 001.13 1.481zm3.223-8.924c.465.037.932-.188 1.181-.619a21.77 21.77 0 012.646-3.64 1.25 1.25 0 00-1.857-1.673 24.327 24.327 0 00-2.95 4.059 1.25 1.25 0 00.98 1.873zm6.341-7.032c.287.023.583-.052.835-.235a24.117 24.117 0 013.904-2.297 1.25 1.25 0 00-1.065-2.262 26.61 26.61 0 00-4.309 2.537 1.25 1.25 0 00.635 2.257zm8.573-4.09c.146.01.298-.003.448-.047a35.928 35.928 0 014.507-.987 1.25 1.25 0 00-.382-2.47 38.4 38.4 0 00-4.82 1.057 1.25 1.25 0 00.247 2.446zm9.416-1.495c.053.004.106.005.16.002a51.176 51.176 0 014.665-.003 1.25 1.25 0 001.303-1.193c.031-.69-.505-1.258-1.194-1.304a53.705 53.705 0 00-4.893.004 1.249 1.249 0 00-.04 2.494zm12.121.839a1.25 1.25 0 00.365-2.468c-.04-.008-.98-.211-2.563-.425a1.234 1.234 0 00-1.406 1.071 1.249 1.249 0 001.072 1.406c1.473.199 2.356.39 2.365.392.055.012.11.02.167.024zM6.342 62.207a1.25 1.25 0 001.258-.778l.561-1.39a1.25 1.25 0 00-2.317-.938l-.562 1.39a1.25 1.25 0 001.06 1.716zm-2.587 6.399c.53.042 1.048-.26 1.258-.778l1.293-3.2a1.25 1.25 0 10-2.317-.936l-1.294 3.199a1.25 1.25 0 001.06 1.715zm-.418 5.021a1.25 1.25 0 00.456-2.444l-.121-.037.047-.117a1.25 1.25 0 00-2.317-.937L.326 72.756l2.753.822a1.2 1.2 0 00.258.049zm5.759 1.72a1.25 1.25 0 00.457-2.445l-2.88-.86a1.25 1.25 0 00-.715 2.395l2.88.86c.084.027.171.043.258.05zm4.317 1.289a1.25 1.25 0 00.456-2.443l-1.437-.43a1.25 1.25 0 00-.715 2.395l1.437.43c.086.025.173.041.259.048z" fill="#E86D6F"/></svg>