<svg width="23" height="23" fill="none" xmlns="http://www.w3.org/2000/svg"><path d="M17.969 6.11a1.08 1.08 0 01-1.079-1.08 1.08 1.08 0 011.078-1.078 1.08 1.08 0 011.078 1.078 1.08 1.08 0 01-1.078 1.078zm0-1.438a.36.36 0 100 .719.36.36 0 000-.72z" fill="url(#paint0_linear)"/><path d="M5.031 6.11a1.08 1.08 0 01-1.078-1.08 1.08 1.08 0 011.078-1.078A1.08 1.08 0 016.11 5.031 1.08 1.08 0 015.031 6.11zm0-1.438a.36.36 0 100 .719.36.36 0 000-.72z" fill="url(#paint1_linear)"/><path d="M13.077 8.984h-2.584L9.66 5.228l1.064-.71-.778-2.721h1.798l1.636 4.09-1.092.728.79 2.37zm-.581-3.371l-1.24-3.097h-.358l.66 2.31-1.091.727.602 2.713h1.01l-.647-1.944 1.064-.71z" fill="url(#paint2_linear)"/><path d="M22.64 14.734c0 .793-.644 1.438-1.437 1.438h-2.156a.72.72 0 000 1.437h2.156a1.439 1.439 0 010 2.875H8.247a1.624 1.624 0 01-1.609 1.438c-.995 0-1.993.235-2.883.68l-.076.039H1.797v-.72H.359v-.718h1.438v-2.156H.359v-.719h1.438v-.719h1.882l.075.038a6.48 6.48 0 002.884.681c.833 0 1.513.63 1.609 1.438h12.956a.72.72 0 000-1.438h-2.156a1.439 1.439 0 01-1.438-1.437 1.44 1.44 0 011.438-1.438h2.156a.72.72 0 000-1.437h-3.67a4.666 4.666 0 01-3.937 2.156H6.98a4.685 4.685 0 01-4.394-3.084L.48 7.261a2.537 2.537 0 012.279-3.3A2.517 2.517 0 015.03 2.515c1.001 0 1.865.589 2.27 1.437h.965V1.438A1.08 1.08 0 019.344.359h4.312a1.08 1.08 0 011.078 1.079v2.515h.965a2.516 2.516 0 012.27-1.437c1 0 1.864.589 2.27 1.437h.605a1.8 1.8 0 011.797 1.797v2.904c0 1.195-.85 2.232-2.023 2.467l-1.694.339-.989 1.837h3.268a1.44 1.44 0 011.438 1.437zM2.517 21.922h.718v-3.594h-.718v3.594zm5.03-1.967a.91.91 0 00-.908-.908 7.212 7.212 0 01-2.685-.524v3.204a7.21 7.21 0 012.685-.524.91.91 0 00.909-.908v-.34zM1.458 5.391h1.087a2.525 2.525 0 01-.028-.36c0-.11.009-.217.023-.323-.44.088-.818.339-1.082.683zm3.574-2.157a1.8 1.8 0 00-1.797 1.797c0 .991.806 1.797 1.797 1.797.991 0 1.797-.806 1.797-1.797a1.8 1.8 0 00-1.797-1.797zM15.7 6.11h-.965v3.235a1.08 1.08 0 01-1.078 1.078h-.36v.36h3.235v-3.69a2.53 2.53 0 01-.832-.983zm-3.48 5.75a.36.36 0 00.36-.359v-1.078h-2.157V11.5c0 .198.16.36.36.36h1.437zm1.078-.359a1.08 1.08 0 01-1.078 1.078h-.36v1.438h1.966c.652 0 1.254-.354 1.571-.924l.884-1.592h-2.983zm-2.156 1.078h-.36A1.08 1.08 0 019.703 11.5H4.672v.66l.209.627c.245.735.93 1.229 1.704 1.229h4.556v-1.438zm-6.47-1.797h5.032v-.36h-.36a1.08 1.08 0 01-1.077-1.077V6.109H7.3a2.516 2.516 0 01-2.27 1.438c-.122 0-.241-.012-.36-.029v3.263zm2.847-6.11c.017.119.029.238.029.36s-.012.242-.029.36h.748v-.72h-.748zm6.498-3.234a.36.36 0 00-.36-.359H9.344a.36.36 0 00-.36.36v7.906c0 .198.161.36.36.36h4.312a.36.36 0 00.36-.36V1.438zm.718 3.235v.719h.748a2.523 2.523 0 01-.029-.36c0-.122.012-.241.029-.36h-.748zm3.235-1.438c-.991 0-1.797.806-1.797 1.797 0 .991.806 1.797 1.797 1.797a1.8 1.8 0 001.797-1.797 1.8 1.8 0 00-1.797-1.797zm2.875 1.438h-.388c.017.118.028.237.028.36 0 .121-.012.24-.028.359h1.4a1.077 1.077 0 00-1.012-.72zm1.078 3.982V7.581a2.12 2.12 0 00-.36-.034 2.158 2.158 0 00-2.156 2.156c0 .307.07.609.197.888l.874-.175a1.802 1.802 0 001.445-1.762zm-3.036 2.08a2.854 2.854 0 01-.198-1.03 2.878 2.878 0 012.875-2.876c.12 0 .24.011.359.026V6.11h-1.684a2.516 2.516 0 01-2.988 1.332v3.793l-1.226 2.207a2.518 2.518 0 01-2.199 1.293h-7.24a2.512 2.512 0 01-2.386-1.72l-.246-.737V7.301a2.528 2.528 0 01-1.191-1.192H1.119a1.808 1.808 0 00.041.92l2.102 5.815a3.964 3.964 0 003.718 2.61h6.616a3.95 3.95 0 003.48-2.08l1.375-2.553.435-.087z" fill="url(#paint3_linear)"/><path d="M5.39 10.063h.72v-.72h-.72v.72z" fill="url(#paint4_linear)"/><path d="M5.39 8.625h.72v-.719h-.72v.719z" fill="url(#paint5_linear)"/><defs><linearGradient id="paint0_linear" x1="17.969" y1="6.109" x2="17.969" y2="3.953" gradientUnits="userSpaceOnUse"><stop stop-color="#EB7070"/><stop offset="1" stop-color="#2B5878"/></linearGradient><linearGradient id="paint1_linear" x1="5.031" y1="6.109" x2="5.031" y2="3.953" gradientUnits="userSpaceOnUse"><stop stop-color="#EB7070"/><stop offset="1" stop-color="#2B5878"/></linearGradient><linearGradient id="paint2_linear" x1="11.519" y1="8.984" x2="11.519" y2="1.797" gradientUnits="userSpaceOnUse"><stop stop-color="#EB7070"/><stop offset="1" stop-color="#2B5878"/></linearGradient><linearGradient id="paint3_linear" x1="11.5" y1="22.641" x2="11.5" y2=".359" gradientUnits="userSpaceOnUse"><stop stop-color="#EB7070"/><stop offset="1" stop-color="#2B5878"/></linearGradient><linearGradient id="paint4_linear" x1="5.75" y1="10.063" x2="5.75" y2="9.344" gradientUnits="userSpaceOnUse"><stop stop-color="#EB7070"/><stop offset="1" stop-color="#2B5878"/></linearGradient><linearGradient id="paint5_linear" x1="5.75" y1="8.625" x2="5.75" y2="7.906" gradientUnits="userSpaceOnUse"><stop stop-color="#EB7070"/><stop offset="1" stop-color="#2B5878"/></linearGradient></defs></svg>