<svg width="22" height="21" fill="none" xmlns="http://www.w3.org/2000/svg"><path d="M20.625 4.922h-2.406V2.953h.687V.328H.344v2.625h.687v17.719H18.22v-5.906h2.406c.569 0 1.031-.442 1.031-.985V5.906c0-.542-.462-.984-1.031-.984zm-3.094 0h-.343c-.57 0-1.032.442-1.032.984v3.61h-3.28a1.91 1.91 0 00.53-1.313c0-.581-.267-1.102-.687-1.463V2.953h4.812v1.969zm1.8 6.562l-.425.675-.424-.675h.848zm-1.454-.656h-.61.001-3.518c-.569 0-1.031.442-1.031.985v7.71c0 .271-.23.491-.512.493H12.2a.504.504 0 01-.512-.492v-4.758H11v4.758c0 .27-.23.49-.512.492h-.007a.504.504 0 01-.512-.492v-7.711H9.28v3.281c-.379 0-.687-.294-.687-.656v-2.626c0-.904.77-1.64 1.719-1.64h7.562c.19 0 .344.147.344.328 0 .18-.154.327-.342.328zm-10.49 9.188a.504.504 0 01-.512-.492v-4.758h-.688v4.758c0 .27-.23.49-.512.492h-.007a.504.504 0 01-.512-.492v-8.696h2.407c.183 0 .363.032.536.085-.124.277-.193.58-.193.9v7.711c0 .27-.23.49-.512.492h-.007zm4.644-17.063V6.35a2.141 2.141 0 00-.687-.115c-1.138 0-2.063.883-2.063 1.97 0 .525.219 1.002.571 1.355a2.43 2.43 0 00-1.384.782 2.521 2.521 0 00-.448-.122c.354-.354.574-.832.574-1.36 0-1.085-.925-1.968-2.063-1.968-.528 0-1.01.192-1.375.505V2.953h6.875zm.688 5.25c0 .724-.617 1.313-1.375 1.313-.759 0-1.375-.589-1.375-1.313s.616-1.312 1.375-1.312c.758 0 1.375.588 1.375 1.312zm-7.563.656c0-.723.617-1.312 1.375-1.312.759 0 1.375.589 1.375 1.312 0 .724-.616 1.313-1.375 1.313-.758 0-1.375-.589-1.375-1.313zm3.438 10.665v-3.956c.203.113.436.182.687.182v3.774c0 .176.046.342.12.492h-.928c.075-.15.12-.316.12-.492zM1.03.984h17.19v1.313H1.03V.984zm.688 1.97h2.75v17.062h-2.75V2.953zM17.53 20.015h-4.245c.075-.15.12-.316.12-.492v-7.711c0-.181.155-.328.344-.328h2.406v2.296c0 .543.463.985 1.032.985h.343v5.25zm3.438-6.235a.337.337 0 01-.344.328h-3.438a.337.337 0 01-.343-.328v-2.296h.837l1.225 1.95 1.639-2.607h-1.702a.932.932 0 00.063-.328c0-.542-.462-.984-1.031-.984h-1.031v-3.61c0-.18.154-.328.343-.328h3.438c.19 0 .344.147.344.328v7.875z" fill="url(#paint0_linear)"/><path d="M17.268 8.86h3.276l-1.638-2.607-1.638 2.606zm1.214-.657l.424-.675.424.675h-.848z" fill="url(#paint1_linear)"/><path d="M2.406 3.61h.688v.656h-.688v-.657z" fill="url(#paint2_linear)"/><path d="M2.406 4.922h.688v.656h-.688v-.656z" fill="url(#paint3_linear)"/><path d="M2.406 6.234h.688v.657h-.688v-.657z" fill="url(#paint4_linear)"/><path d="M16.156 3.61h.688v.656h-.688v-.657z" fill="url(#paint5_linear)"/><path d="M14.781 3.61h.688v.656h-.688v-.657z" fill="url(#paint6_linear)"/><path d="M13.406 3.61h.688v.656h-.688v-.657z" fill="url(#paint7_linear)"/><path d="M16.156 18.703h.688v.656h-.688v-.656z" fill="url(#paint8_linear)"/><path d="M16.156 15.422h.688v2.625h-.688v-2.625z" fill="url(#paint9_linear)"/><defs><linearGradient id="paint0_linear" x1="11" y1=".328" x2="11" y2="20.672" gradientUnits="userSpaceOnUse"><stop stop-color="#EB7070"/><stop offset="1" stop-color="#2B5878"/></linearGradient><linearGradient id="paint1_linear" x1="18.906" y1="6.253" x2="18.906" y2="8.859" gradientUnits="userSpaceOnUse"><stop stop-color="#EB7070"/><stop offset="1" stop-color="#2B5878"/></linearGradient><linearGradient id="paint2_linear" x1="2.75" y1="3.609" x2="2.75" y2="4.266" gradientUnits="userSpaceOnUse"><stop stop-color="#EB7070"/><stop offset="1" stop-color="#2B5878"/></linearGradient><linearGradient id="paint3_linear" x1="2.75" y1="4.922" x2="2.75" y2="5.578" gradientUnits="userSpaceOnUse"><stop stop-color="#EB7070"/><stop offset="1" stop-color="#2B5878"/></linearGradient><linearGradient id="paint4_linear" x1="2.75" y1="6.234" x2="2.75" y2="6.891" gradientUnits="userSpaceOnUse"><stop stop-color="#EB7070"/><stop offset="1" stop-color="#2B5878"/></linearGradient><linearGradient id="paint5_linear" x1="16.5" y1="3.609" x2="16.5" y2="4.266" gradientUnits="userSpaceOnUse"><stop stop-color="#EB7070"/><stop offset="1" stop-color="#2B5878"/></linearGradient><linearGradient id="paint6_linear" x1="15.125" y1="3.609" x2="15.125" y2="4.266" gradientUnits="userSpaceOnUse"><stop stop-color="#EB7070"/><stop offset="1" stop-color="#2B5878"/></linearGradient><linearGradient id="paint7_linear" x1="13.75" y1="3.609" x2="13.75" y2="4.266" gradientUnits="userSpaceOnUse"><stop stop-color="#EB7070"/><stop offset="1" stop-color="#2B5878"/></linearGradient><linearGradient id="paint8_linear" x1="16.5" y1="18.703" x2="16.5" y2="19.359" gradientUnits="userSpaceOnUse"><stop stop-color="#EB7070"/><stop offset="1" stop-color="#2B5878"/></linearGradient><linearGradient id="paint9_linear" x1="16.5" y1="15.422" x2="16.5" y2="18.047" gradientUnits="userSpaceOnUse"><stop stop-color="#EB7070"/><stop offset="1" stop-color="#2B5878"/></linearGradient></defs></svg>