<svg width="22" height="22" fill="none" xmlns="http://www.w3.org/2000/svg"><path d="M21.542 5.042a.459.459 0 00-.46.458v3.667h-.915V8.25c0-1.01-.823-1.833-1.834-1.833a1.83 1.83 0 00-1.375.622 1.826 1.826 0 00-2.75 0 1.826 1.826 0 00-2.75 0 1.827 1.827 0 00-2.75 0 1.827 1.827 0 00-2.75 0 1.827 1.827 0 00-1.375-.622c-.852 0-1.571.585-1.775 1.375H1.375a.458.458 0 00-.458.458v.917H.458a.458.458 0 100 .916h.459V11c0 .253.205.458.458.458H2.75v8.709c0 1.01.822 1.833 1.833 1.833.548 0 1.04-.242 1.375-.623a1.83 1.83 0 002.75 0 1.83 1.83 0 002.75 0 1.83 1.83 0 002.75 0 1.832 1.832 0 002.75 0 1.832 1.832 0 003.21-1.21V10.083h1.374A.458.458 0 0022 9.625V5.5a.458.458 0 00-.458-.458zm-18.792 5.5h-.917V8.708h.917v1.834zm2.75 9.625a.917.917 0 01-1.833 0V8.25c0-.505.411-.917.916-.917.506 0 .917.412.917.917v11.917zm2.75 0a.917.917 0 01-1.833 0V8.25c0-.505.411-.917.916-.917.506 0 .917.412.917.917v11.917zm2.75 0a.917.917 0 01-1.833 0V8.25a.917.917 0 011.833 0v11.917zm2.75 0a.917.917 0 01-1.833 0V8.25a.918.918 0 011.833 0v11.917zm2.75 0a.917.917 0 01-1.833 0V8.25a.917.917 0 011.833 0v11.917zm2.75 0a.917.917 0 01-1.833 0V8.25a.918.918 0 011.833 0v11.917z" fill="url(#paint0_linear)"/><path d="M15.334 4.455c-.056-.195-.021-.337.116-.475.372-.374.495-.86.346-1.367A1.875 1.875 0 0015.479 2a.459.459 0 10-.707.584.953.953 0 01.145.286c.054.188.02.326-.117.463a1.35 1.35 0 00-.347 1.375c.1.348.293.594.315.621a.459.459 0 00.714-.575.996.996 0 01-.148-.3z" fill="url(#paint1_linear)"/><path d="M11.544 4.151c-.106-.422-.021-.782.258-1.098.49-.553.646-1.233.45-1.964-.136-.513-.4-.87-.429-.908A.46.46 0 0011 .458c0 .104.034.2.093.276h-.001c.002.002.193.262.281.615.106.422.021.782-.258 1.097-.49.554-.646 1.234-.45 1.965.136.513.4.87.428.908h.001a.459.459 0 00.73-.553 1.932 1.932 0 01-.28-.615z" fill="url(#paint2_linear)"/><path d="M8.149 4.754a1.011 1.011 0 01-.148-.3c-.056-.194-.022-.336.115-.474.373-.374.496-.86.347-1.367A1.838 1.838 0 008.145 2a.458.458 0 10-.706.584.96.96 0 01.144.286.42.42 0 01-.116.463 1.348 1.348 0 00-.347 1.375c.1.348.293.594.315.621a.458.458 0 10.713-.575z" fill="url(#paint3_linear)"/><defs><linearGradient id="paint0_linear" x1="11" y1="5.042" x2="11" y2="22" gradientUnits="userSpaceOnUse"><stop stop-color="#EB7070"/><stop offset="1" stop-color="#2B5878"/></linearGradient><linearGradient id="paint1_linear" x1="15.125" y1="1.833" x2="15.125" y2="5.5" gradientUnits="userSpaceOnUse"><stop stop-color="#EB7070"/><stop offset="1" stop-color="#2B5878"/></linearGradient><linearGradient id="paint2_linear" x1="11.459" y1="0" x2="11.459" y2="5.5" gradientUnits="userSpaceOnUse"><stop stop-color="#EB7070"/><stop offset="1" stop-color="#2B5878"/></linearGradient><linearGradient id="paint3_linear" x1="7.792" y1="1.833" x2="7.792" y2="5.5" gradientUnits="userSpaceOnUse"><stop stop-color="#EB7070"/><stop offset="1" stop-color="#2B5878"/></linearGradient></defs></svg>