<svg width="25" height="23" fill="none" xmlns="http://www.w3.org/2000/svg"><path d="M6.255 9.11a5.334 5.334 0 00.486 2.468c.358.78.899 1.477 1.584 2.042.667.551 1.05 1.305 1.05 2.07v1.2h.781v-.718h4.297v-.719h-1.562v-1.815a4.442 4.442 0 002.78-1.272 3.786 3.786 0 001.126-2.663.345.345 0 00-.115-.254.408.408 0 00-.276-.105c-.69 0-1.37.154-1.982.448a4.202 4.202 0 00-1.533 1.24v-1.35a3.63 3.63 0 002.228-1.059 3.1 3.1 0 00.897-2.154.346.346 0 00-.115-.254.409.409 0 00-.276-.106 3.755 3.755 0 00-1.831.476c-.552.31-1 .755-1.294 1.284a3.36 3.36 0 00-1.294-1.284 3.748 3.748 0 00-1.831-.476.409.409 0 00-.276.106.345.345 0 00-.115.254c.002.795.32 1.562.897 2.154a3.63 3.63 0 002.228 1.059v1.35a4.202 4.202 0 00-1.533-1.24 4.595 4.595 0 00-1.982-.448.408.408 0 00-.277.105.345.345 0 00-.114.254 3.789 3.789 0 001.125 2.663 4.447 4.447 0 002.781 1.272v1.815h-1.962c-.07-.884-.536-1.736-1.3-2.368a5.052 5.052 0 01-1.386-1.787 4.667 4.667 0 01-.426-2.16c.112-2.583 2.398-4.7 5.205-4.82a5.833 5.833 0 013.206.786 5.153 5.153 0 012.121 2.347 4.65 4.65 0 01.256 3.043 4.971 4.971 0 01-1.704 2.619 3.408 3.408 0 00-1.213 1.913l.767.136a2.696 2.696 0 01.964-1.51c.97-.789 1.65-1.834 1.946-2.993a5.32 5.32 0 00-.292-3.478c-.487-1.103-1.334-2.04-2.424-2.682a6.667 6.667 0 00-3.663-.899c-3.208.136-5.821 2.556-5.95 5.51zm9.736.975a3.146 3.146 0 01-1.006 1.904 3.65 3.65 0 01-2.07.926 3.146 3.146 0 011.006-1.904 3.65 3.65 0 012.07-.926zm-.79-3.227a2.456 2.456 0 01-.768 1.389c-.41.376-.938.624-1.51.707.09-.526.36-1.012.77-1.388a2.832 2.832 0 011.508-.708zm-5.403 0c.572.084 1.1.331 1.51.708.409.376.678.862.768 1.388a2.832 2.832 0 01-1.509-.707 2.457 2.457 0 01-.769-1.389zm-.79 3.227a3.65 3.65 0 012.07.926 3.146 3.146 0 011.007 1.904 3.65 3.65 0 01-2.07-.926 3.146 3.146 0 01-1.006-1.904z" fill="url(#paint0_linear)"/><path d="M23.828 16.531h-3.906a.408.408 0 00-.276.106.345.345 0 00-.115.254v.33l-.172-.127a4.817 4.817 0 00-2.66-.918 4.874 4.874 0 00-2.735.703l-2.636.012c-.239 0-.474.05-.688.147a1.545 1.545 0 00-.548.411 1.388 1.388 0 00-.295.591c-.048.216-.041.438.019.65l-2.841-1.236a1.726 1.726 0 00-1.318-.014 1.612 1.612 0 00-.548.36 1.457 1.457 0 00-.339.537c-.124.347-.106.724.05 1.06.157.336.442.608.802.764l4.347 1.88c.365.158.762.24 1.164.24h12.695a.408.408 0 00.276-.105.345.345 0 00.115-.254V16.89a.345.345 0 00-.115-.254.408.408 0 00-.276-.106zm-13.526 4.86l-4.348-1.88a.812.812 0 01-.416-.397.72.72 0 01-.026-.551.773.773 0 01.3-.381.882.882 0 01.83-.077l3.738 1.626a.413.413 0 00.167.035h3.162a.409.409 0 00.277-.106.346.346 0 00.114-.254.346.346 0 00-.114-.254.408.408 0 00-.277-.105h-2.38a.817.817 0 01-.553-.21.69.69 0 01-.23-.509.69.69 0 01.23-.508.817.817 0 01.552-.21h2.735a.417.417 0 00.216-.06l.118-.073a4.041 4.041 0 012.269-.583 3.994 3.994 0 012.205.761l.66.486v3.422h-8.398a2.11 2.11 0 01-.831-.171zm13.136.172h-3.125V17.25h3.125v4.313z" fill="url(#paint1_linear)"/><path d="M21.094 20.125h.781v.719h-.781v-.719z" fill="url(#paint2_linear)"/><path d="M12.11.719h.78v1.437h-.78V.72z" fill="url(#paint3_linear)"/><path d="M8.553 1.511l.722-.275.598 1.329-.721.275-.599-1.329z" fill="url(#paint4_linear)"/><path d="M5.594 3.5l.552-.509L7.25 4.008l-.553.508-1.104-1.017z" fill="url(#paint5_linear)"/><path d="M17.744 14.68l.553-.508L19.4 15.19l-.552.508-1.105-1.017z" fill="url(#paint6_linear)"/><path d="M3.69 6.375l.3-.664 1.444.55-.3.665-1.443-.55z" fill="url(#paint7_linear)"/><path d="M19.574 12.425l.3-.664 1.443.55-.299.665-1.444-.55z" fill="url(#paint8_linear)"/><path d="M3.125 8.984h1.563v.72H3.125v-.72z" fill="url(#paint9_linear)"/><path d="M20.313 8.984h1.562v.72h-1.563v-.72z" fill="url(#paint10_linear)"/><path d="M3.692 12.314l1.444-.55.3.664-1.445.55-.299-.664z" fill="url(#paint11_linear)"/><path d="M19.573 6.259l1.444-.55.299.663-1.444.55-.3-.663z" fill="url(#paint12_linear)"/><path d="M5.592 15.188l1.105-1.017.552.508-1.104 1.017-.553-.508z" fill="url(#paint13_linear)"/><path d="M17.746 4.009l1.105-1.017.552.509-1.105 1.016-.552-.508z" fill="url(#paint14_linear)"/><path d="M15.134 2.565l.598-1.328.722.275-.598 1.328-.722-.275z" fill="url(#paint15_linear)"/><defs><linearGradient id="paint0_linear" x1="12.499" y1="3.594" x2="12.499" y2="16.891" gradientUnits="userSpaceOnUse"><stop stop-color="#EB7070"/><stop offset="1" stop-color="#2B5878"/></linearGradient><linearGradient id="paint1_linear" x1="14.454" y1="16.172" x2="14.454" y2="22.281" gradientUnits="userSpaceOnUse"><stop stop-color="#EB7070"/><stop offset="1" stop-color="#2B5878"/></linearGradient><linearGradient id="paint2_linear" x1="21.484" y1="20.125" x2="21.484" y2="20.844" gradientUnits="userSpaceOnUse"><stop stop-color="#EB7070"/><stop offset="1" stop-color="#2B5878"/></linearGradient><linearGradient id="paint3_linear" x1="12.5" y1=".719" x2="12.5" y2="2.156" gradientUnits="userSpaceOnUse"><stop stop-color="#EB7070"/><stop offset="1" stop-color="#2B5878"/></linearGradient><linearGradient id="paint4_linear" x1="8.914" y1="1.374" x2="9.432" y2="2.733" gradientUnits="userSpaceOnUse"><stop stop-color="#EB7070"/><stop offset="1" stop-color="#2B5878"/></linearGradient><linearGradient id="paint5_linear" x1="5.87" y1="3.245" x2="6.883" y2="4.346" gradientUnits="userSpaceOnUse"><stop stop-color="#EB7070"/><stop offset="1" stop-color="#2B5878"/></linearGradient><linearGradient id="paint6_linear" x1="18.02" y1="14.426" x2="19.033" y2="15.527" gradientUnits="userSpaceOnUse"><stop stop-color="#EB7070"/><stop offset="1" stop-color="#2B5878"/></linearGradient><linearGradient id="paint7_linear" x1="3.84" y1="6.043" x2="5.247" y2="6.677" gradientUnits="userSpaceOnUse"><stop stop-color="#EB7070"/><stop offset="1" stop-color="#2B5878"/></linearGradient><linearGradient id="paint8_linear" x1="19.724" y1="12.093" x2="21.13" y2="12.727" gradientUnits="userSpaceOnUse"><stop stop-color="#EB7070"/><stop offset="1" stop-color="#2B5878"/></linearGradient><linearGradient id="paint9_linear" x1="3.906" y1="8.984" x2="3.906" y2="9.703" gradientUnits="userSpaceOnUse"><stop stop-color="#EB7070"/><stop offset="1" stop-color="#2B5878"/></linearGradient><linearGradient id="paint10_linear" x1="21.094" y1="8.984" x2="21.094" y2="9.703" gradientUnits="userSpaceOnUse"><stop stop-color="#EB7070"/><stop offset="1" stop-color="#2B5878"/></linearGradient><linearGradient id="paint11_linear" x1="4.414" y1="12.039" x2="4.673" y2="12.718" gradientUnits="userSpaceOnUse"><stop stop-color="#EB7070"/><stop offset="1" stop-color="#2B5878"/></linearGradient><linearGradient id="paint12_linear" x1="20.295" y1="5.983" x2="20.554" y2="6.663" gradientUnits="userSpaceOnUse"><stop stop-color="#EB7070"/><stop offset="1" stop-color="#2B5878"/></linearGradient><linearGradient id="paint13_linear" x1="6.145" y1="14.679" x2="6.651" y2="15.23" gradientUnits="userSpaceOnUse"><stop stop-color="#EB7070"/><stop offset="1" stop-color="#2B5878"/></linearGradient><linearGradient id="paint14_linear" x1="18.298" y1="3.501" x2="18.804" y2="4.051" gradientUnits="userSpaceOnUse"><stop stop-color="#EB7070"/><stop offset="1" stop-color="#2B5878"/></linearGradient><linearGradient id="paint15_linear" x1="15.433" y1="1.901" x2="16.136" y2="2.218" gradientUnits="userSpaceOnUse"><stop stop-color="#EB7070"/><stop offset="1" stop-color="#2B5878"/></linearGradient></defs></svg>