<svg width="22" height="22" fill="none" xmlns="http://www.w3.org/2000/svg"><path d="M14.099 17.231c-1.328 0-2.408 1.005-2.408 2.241 0 .587.346.937.925.937.267 0 .558-.067.84-.133.234-.054.476-.11.643-.11.145 0 .375.054.597.105.29.068.591.138.868.138.59 0 .942-.35.942-.937 0-1.236-1.08-2.241-2.407-2.241zm1.615 2.385s-.033.024-.15.024c-.188 0-.445-.06-.694-.118-.276-.064-.537-.125-.771-.125-.255 0-.54.066-.816.13-.24.055-.488.113-.666.113-.1 0-.132-.02-.132-.018-.002-.003-.024-.039-.024-.15 0-.811.735-1.472 1.638-1.472.903 0 1.638.66 1.638 1.472 0 .094-.018.137-.023.144z" fill="url(#paint0_linear)"/><path d="M12.901 16.496c0-.677-.47-1.228-1.047-1.228-.578 0-1.048.55-1.048 1.228 0 .678.47 1.229 1.048 1.229.577 0 1.047-.552 1.047-1.229zm-1.325 0c0-.262.146-.459.278-.459.13 0 .277.197.277.46 0 .262-.146.458-.277.458-.131 0-.278-.196-.278-.459z" fill="url(#paint1_linear)"/><path d="M14.169 16.965c.577 0 1.047-.552 1.047-1.229s-.47-1.228-1.047-1.228c-.578 0-1.048.55-1.048 1.228 0 .677.47 1.229 1.048 1.229zm0-1.688c.13 0 .278.197.278.46 0 .262-.147.458-.278.458-.131 0-.278-.196-.278-.459 0-.262.147-.459.278-.459z" fill="url(#paint2_linear)"/><path d="M16.484 15.268c-.578 0-1.048.55-1.048 1.228 0 .678.47 1.229 1.048 1.229.577 0 1.047-.552 1.047-1.229s-.47-1.228-1.047-1.228zm0 1.687c-.131 0-.278-.196-.278-.459 0-.262.147-.459.278-.459.131 0 .278.197.278.46 0 .262-.147.458-.278.458z" fill="url(#paint3_linear)"/><path d="M17.405 5.975h-.407V4.866a.929.929 0 00-.928-.928h-1.516V2.852h.633a.929.929 0 00.928-.928V.928A.929.929 0 0015.187 0H11.3c-.543 0-1.364 0-2.056.512-.788.584-1.171 1.643-1.171 3.238 0 .212.172.384.385.384H9.8a.385.385 0 00.385-.384c0-.38.133-.624.418-.77a1.305 1.305 0 01.54-.128h2.641v1.086h-1.517a.929.929 0 00-.927.928v1.11h-.408a2.787 2.787 0 00-2.784 2.783v12.856c0 .213.172.385.385.385h11.272a.385.385 0 00.384-.385V8.76a2.787 2.787 0 00-2.784-2.784zm-6.27-3.893c-.531 0-1.488.28-1.684 1.283h-.6C8.969.77 10.31.77 11.3.77h3.886c.088 0 .159.07.159.158v.996a.159.159 0 01-.159.158h-4.05zm.974 2.784c0-.087.071-.158.159-.158h3.802c.087 0 .158.07.158.158v1.11H12.11v-1.11zm-1.177 1.879h6.473c1.111 0 2.015.904 2.015 2.014v1.055c-.786-.055-2.797-.019-4.553 1.506-1.065.926-2.301 1.36-3.48 1.224-.988-.114-1.865-.636-2.47-1.469V8.76c0-1.11.904-2.014 2.015-2.014zM8.918 21.23v-9.005a4.24 4.24 0 002.381 1.084c.172.02.344.03.517.03 1.232 0 2.477-.5 3.556-1.438 1.576-1.368 3.434-1.36 4.048-1.313V21.23H8.918z" fill="url(#paint4_linear)"/><path d="M4.64 7.379a1.337 1.337 0 000-2.67 1.335 1.335 0 000 2.67zm0-1.902a.566.566 0 110 1.133.566.566 0 01.001-1.133z" fill="url(#paint5_linear)"/><path d="M4.98 10.842a2.289 2.289 0 00-2.286 2.286 2.289 2.289 0 002.286 2.286 2.289 2.289 0 002.286-2.286 2.289 2.289 0 00-2.286-2.286zm0 3.802c-.837 0-1.517-.68-1.517-1.516 0-.837.68-1.517 1.517-1.517a1.518 1.518 0 010 3.033z" fill="url(#paint6_linear)"/><path d="M3.1 17.586c-.71 0-1.29.58-1.29 1.29a1.291 1.291 0 002.581 0c0-.71-.579-1.29-1.29-1.29zm0 1.811a.521.521 0 11.002-1.042.521.521 0 01-.001 1.042z" fill="url(#paint7_linear)"/><defs><linearGradient id="paint0_linear" x1="14.099" y1="17.231" x2="14.099" y2="20.409" gradientUnits="userSpaceOnUse"><stop stop-color="#EB7070"/><stop offset="1" stop-color="#2B5878"/></linearGradient><linearGradient id="paint1_linear" x1="11.854" y1="15.268" x2="11.854" y2="17.725" gradientUnits="userSpaceOnUse"><stop stop-color="#EB7070"/><stop offset="1" stop-color="#2B5878"/></linearGradient><linearGradient id="paint2_linear" x1="14.169" y1="14.508" x2="14.169" y2="16.965" gradientUnits="userSpaceOnUse"><stop stop-color="#EB7070"/><stop offset="1" stop-color="#2B5878"/></linearGradient><linearGradient id="paint3_linear" x1="16.484" y1="15.268" x2="16.484" y2="17.725" gradientUnits="userSpaceOnUse"><stop stop-color="#EB7070"/><stop offset="1" stop-color="#2B5878"/></linearGradient><linearGradient id="paint4_linear" x1="14.131" y1="0" x2="14.131" y2="22" gradientUnits="userSpaceOnUse"><stop stop-color="#EB7070"/><stop offset="1" stop-color="#2B5878"/></linearGradient><linearGradient id="paint5_linear" x1="4.64" y1="4.708" x2="4.64" y2="7.379" gradientUnits="userSpaceOnUse"><stop stop-color="#EB7070"/><stop offset="1" stop-color="#2B5878"/></linearGradient><linearGradient id="paint6_linear" x1="4.98" y1="10.842" x2="4.98" y2="15.414" gradientUnits="userSpaceOnUse"><stop stop-color="#EB7070"/><stop offset="1" stop-color="#2B5878"/></linearGradient><linearGradient id="paint7_linear" x1="3.101" y1="17.586" x2="3.101" y2="20.167" gradientUnits="userSpaceOnUse"><stop stop-color="#EB7070"/><stop offset="1" stop-color="#2B5878"/></linearGradient></defs></svg>