<svg width="22" height="22" fill="none" xmlns="http://www.w3.org/2000/svg"><path d="M21.678 5.156a.322.322 0 00-.323.323V19.25h-.644V3.244a.322.322 0 00-.322-.322H1.61a.322.322 0 00-.322.322V19.25H.645v-1.396a.322.322 0 00-.645 0v1.718c0 .178.144.323.322.323h.967v.107c0 .178.144.322.322.322H4.89a.322.322 0 00.32-.364l-.009-.066h9.925a.322.322 0 000-.644H5.115l-.085-.645h11.94l-.085.645H16.5a.322.322 0 100 .645h.3l-.009.065a.323.323 0 00.32.364h3.278a.322.322 0 00.322-.322v-.107h.967a.322.322 0 00.322-.323V5.48a.322.322 0 00-.322-.323zm-3.653 7.083a.323.323 0 010-.644h2.041v.644h-2.04zm-.897-8.673l1.413 5.751a.322.322 0 00.626-.153l-1.375-5.598h.926l.275 3.186a.322.322 0 00.643-.055l-.271-3.13h.701v7.383h-1.75l-1.813-7.384h.625zm-14.493 0l-.27 3.13a.322.322 0 00.642.056l.275-3.186h.926L2.833 9.164a.322.322 0 00.626.153l1.413-5.75h.625L3.683 10.95h-1.75V3.566h.702zm1.34 8.673H1.934v-.644h2.04a.323.323 0 010 .644zm-2.041 7.44v-6.795h1.69l.898 6.796H1.934zm2.334-6.841a.968.968 0 00.062-1.82l1.831-7.452h4.517v14.395H4.945l-.677-5.123zm7.054 5.123V3.566h4.517l1.83 7.452a.968.968 0 00.063 1.82l-.677 5.123h-5.733zm8.744 1.719h-2.588l.898-6.796h1.69v6.796z" fill="url(#paint0_linear)"/><path d="M21.678 1.633H.322A.322.322 0 000 1.955V16.48a.322.322 0 10.645 0V2.277h20.71v1.827a.322.322 0 00.645 0V1.955a.322.322 0 00-.322-.322z" fill="url(#paint1_linear)"/><defs><linearGradient id="paint0_linear" x1="11" y1="2.922" x2="11" y2="20.324" gradientUnits="userSpaceOnUse"><stop stop-color="#EB7070"/><stop offset="1" stop-color="#2B5878"/></linearGradient><linearGradient id="paint1_linear" x1="11" y1="1.633" x2="11" y2="16.801" gradientUnits="userSpaceOnUse"><stop stop-color="#EB7070"/><stop offset="1" stop-color="#2B5878"/></linearGradient></defs></svg>