<svg width="23" height="23" fill="none" xmlns="http://www.w3.org/2000/svg"><g clip-path="url(#clip0)"><path d="M5.475 9.27a1.021 1.021 0 11-2.042-.011 1.021 1.021 0 012.042.01z" fill="url(#paint0_linear)"/><path d="M10.322 20.245a.73.73 0 100-1.46.73.73 0 000 1.46z" fill="url(#paint1_linear)"/><path d="M1.893 20.107a.906.906 0 100-1.813.906.906 0 000 1.813z" fill="url(#paint2_linear)"/><path d="M19.672 10.186h-5.39c-1.29 0-2.34 1.05-2.34 2.341v7.77h3.926l2.248-6.065a.368.368 0 11.692.256l-2.338 6.305a.369.369 0 01-.345.24H9.512a.884.884 0 00-.624 1.508.893.893 0 00.624.275h12.133a.369.369 0 00.368-.369v-9.92c0-1.29-1.05-2.341-2.34-2.341z" fill="url(#paint3_linear)"/><path d="M16.977 9.188a4.6 4.6 0 004.594-4.594A4.6 4.6 0 0016.977 0a4.6 4.6 0 00-4.594 4.594 4.6 4.6 0 004.594 4.594z" fill="url(#paint4_linear)"/><path d="M5.398 22.117a.838.838 0 11-.833-.841c.462.002.835.38.833.841z" fill="url(#paint5_linear)"/><path d="M10.3 11.361a.368.368 0 00-.412.135l-.886 1.229-.412-1.004a.369.369 0 00-.333-.228h-.008a.369.369 0 00-.335.214l-.617 1.334a1.74 1.74 0 00-1.785.893l-2.444.09a.369.369 0 00-.352.412c.208 1.736 1.4 3.047 3.011 3.362l-.963 2.833A1.496 1.496 0 015.76 23h2.548a1.623 1.623 0 01.888-2.672 1.378 1.378 0 01-.264-.82 1.392 1.392 0 011.39-1.382h.007c.076 0 .152.008.226.02v-6.434a.368.368 0 00-.255-.35z" fill="url(#paint6_linear)"/><path d="M1.876 22.994L3.2 23a.758.758 0 00-1.324-.006z" fill="url(#paint7_linear)"/></g><defs><linearGradient id="paint0_linear" x1="4.454" y1="8.244" x2="4.454" y2="10.285" gradientUnits="userSpaceOnUse"><stop stop-color="#EB7070"/><stop offset="1" stop-color="#2B5878"/></linearGradient><linearGradient id="paint1_linear" x1="10.322" y1="18.784" x2="10.322" y2="20.245" gradientUnits="userSpaceOnUse"><stop stop-color="#EB7070"/><stop offset="1" stop-color="#2B5878"/></linearGradient><linearGradient id="paint2_linear" x1="1.893" y1="18.294" x2="1.893" y2="20.107" gradientUnits="userSpaceOnUse"><stop stop-color="#EB7070"/><stop offset="1" stop-color="#2B5878"/></linearGradient><linearGradient id="paint3_linear" x1="15.322" y1="10.186" x2="15.322" y2="22.816" gradientUnits="userSpaceOnUse"><stop stop-color="#EB7070"/><stop offset="1" stop-color="#2B5878"/></linearGradient><linearGradient id="paint4_linear" x1="16.977" y1="0" x2="16.977" y2="9.188" gradientUnits="userSpaceOnUse"><stop stop-color="#EB7070"/><stop offset="1" stop-color="#2B5878"/></linearGradient><linearGradient id="paint5_linear" x1="4.561" y1="21.276" x2="4.561" y2="22.949" gradientUnits="userSpaceOnUse"><stop stop-color="#EB7070"/><stop offset="1" stop-color="#2B5878"/></linearGradient><linearGradient id="paint6_linear" x1="6.634" y1="11.344" x2="6.634" y2="23" gradientUnits="userSpaceOnUse"><stop stop-color="#EB7070"/><stop offset="1" stop-color="#2B5878"/></linearGradient><linearGradient id="paint7_linear" x1="2.538" y1="22.608" x2="2.538" y2="23" gradientUnits="userSpaceOnUse"><stop stop-color="#EB7070"/><stop offset="1" stop-color="#2B5878"/></linearGradient><clipPath id="clip0"><path fill="#fff" d="M0 0h23v23H0z"/></clipPath></defs></svg>