<svg width="25" height="24" fill="none" xmlns="http://www.w3.org/2000/svg"><g clip-path="url(#clip0)"><path d="M4.587 1.612c-.69 0-1.25.537-1.25 1.199s.56 1.2 1.25 1.2 1.25-.538 1.25-1.2c0-.662-.56-1.2-1.25-1.2zm0 1.599a.408.408 0 01-.416-.4c0-.22.186-.4.416-.4.23 0 .417.18.417.4 0 .22-.187.4-.417.4z" fill="url(#paint0_linear)"/><path d="M20.413 1.612c-.69 0-1.25.537-1.25 1.199s.56 1.2 1.25 1.2 1.249-.538 1.249-1.2c0-.662-.56-1.2-1.25-1.2zm0 1.599a.408.408 0 01-.417-.4c0-.22.187-.4.417-.4.23 0 .416.18.416.4 0 .22-.186.4-.416.4z" fill="url(#paint1_linear)"/><path d="M24.974 10.687L22.86 4.309c.303-.446.466-.966.468-1.498C23.335 1.265 22.035.007 20.425 0c-1.61-.007-2.92 1.24-2.928 2.786-.005 1.17.748 2.22 1.888 2.632l.755 3.985a2.538 2.538 0 00-.977-.195 2.52 2.52 0 00-2.162 1.199h-2.305a3.135 3.135 0 001.136-2.399V6.41c0-1.766-1.492-3.198-3.332-3.198-1.84 0-3.332 1.432-3.332 3.198v1.6c0 .919.415 1.793 1.136 2.398H7.997a2.52 2.52 0 00-2.161-1.2c-.336 0-.669.067-.977.196l.755-3.985c1.502-.548 2.258-2.161 1.687-3.603C6.732.372 5.052-.353 3.55.195 2.418.607 1.67 1.649 1.672 2.81c.002.532.164 1.052.467 1.498L.026 10.687a.385.385 0 00-.02.12v3.998c0 .22.187.4.417.4h5.483l1.603 8.467c.036.19.209.328.41.328h9.162a.412.412 0 00.41-.328l1.603-8.468h5.483c.23 0 .416-.179.416-.4v-3.997a.383.383 0 00-.02-.12zm-5.113-5.95c-.902-.24-1.529-1.027-1.53-1.926 0-1.104.931-2 2.082-2 1.15 0 2.082.896 2.082 2 .013 1.092-.899 1.987-2.036 2-.099 0-.198-.005-.296-.018a2.233 2.233 0 01-.302-.056zm-9.86 3.271V6.41c0-1.325 1.119-2.399 2.499-2.399 1.38 0 2.499 1.074 2.499 2.399v1.6c0 1.324-1.12 2.398-2.5 2.398-1.379 0-2.498-1.074-2.498-2.399zM4.587.812c1.15.004 2.079.903 2.074 2.007-.004.895-.626 1.678-1.524 1.918-1.11.29-2.257-.34-2.559-1.406a1.924 1.924 0 01-.073-.52c.001-1.104.933-1.998 2.082-2zM12.084 23.2h-1.25a.613.613 0 01-.625-.6c0-.33.28-.599.625-.599h1.25v1.2zm0-1.999h-1.875a.613.613 0 01-.624-.6c0-.33.28-.599.624-.599h1.875v1.2zm0-1.999h-1.875a.613.613 0 01-.624-.6c0-.33.28-.599.624-.599h1.875v1.2zm2.082 3.998h-1.25v-1.199h1.25c.345 0 .624.268.624.6 0 .33-.28.6-.624.6zm.624-1.999h-1.874v-1.199h1.874c.345 0 .625.268.625.6 0 .33-.28.6-.625.6zm-1.874-1.999v-1.199h1.874c.345 0 .625.269.625.6 0 .33-.28.6-.625.6h-1.874zm11.245-4.797h-5.414a.412.412 0 00-.41.328L16.734 23.2h-1.257c.22-.426.19-.931-.075-1.332.728-.32 1.048-1.147.714-1.846-.075-.157-.18-.3-.309-.42.461-.424.574-1.09.276-1.633a1.902 1.902 0 001.373-.987l-.746-.357c-.183.356-.563.58-.977.578h-2.817v-3.67l3.832-.735-.167-.784-4.086.785-4.502-.787-.149.787 4.24.74v3.664H9.267a1.087 1.087 0 01-.973-.578l-.746.357c.27.519.777.884 1.37.987a1.334 1.334 0 00.274 1.633 1.354 1.354 0 00-.031 1.97c.125.123.273.224.437.296a1.31 1.31 0 00-.075 1.332H8.266l-1.603-8.467a.412.412 0 00-.41-.328H.84v-3.536l1.943-5.862c.07.054.142.104.217.15l.013.008c.083.051.168.098.255.14l.06.029c.078.036.157.068.238.098l.05.018c.203.069.414.116.627.14h.016c.096.01.192.015.289.015.013 0 .027.003.041.003.015 0 .03-.003.044-.003h.102l-.878 4.632a.401.401 0 00.336.464.426.426 0 00.389-.132 1.702 1.702 0 012.33-.185c.196.159.35.359.45.585a.42.42 0 00.382.24h9.514a.418.418 0 00.381-.24c.36-.806 1.333-1.178 2.172-.832.235.097.444.245.61.432.15.167.412.185.586.041a.39.39 0 00.138-.373l-.877-4.631c.036.002.07 0 .106 0 .013 0 .026.003.04.003.013 0 .022 0 .034-.002a2.95 2.95 0 00.95-.16l.022-.008c.09-.032.178-.068.264-.109l.045-.02c.091-.045.18-.094.267-.148L22 5.16c.075-.047.147-.097.218-.15l1.943 5.86v3.536z" fill="url(#paint2_linear)"/><path d="M5.519 12.406a1.09 1.09 0 01-.973-.579l-.746.358c.324.626.99 1.022 1.719 1.02h1.15v-.8H5.52z" fill="url(#paint3_linear)"/><path d="M20.458 11.827a1.088 1.088 0 01-.977.579h-1.15v.8h1.15a1.923 1.923 0 001.723-1.021l-.746-.358z" fill="url(#paint4_linear)"/></g><defs><linearGradient id="paint0_linear" x1="4.587" y1="1.612" x2="4.587" y2="4.01" gradientUnits="userSpaceOnUse"><stop stop-color="#EB7070"/><stop offset="1" stop-color="#2B5878"/></linearGradient><linearGradient id="paint1_linear" x1="20.413" y1="1.612" x2="20.413" y2="4.01" gradientUnits="userSpaceOnUse"><stop stop-color="#EB7070"/><stop offset="1" stop-color="#2B5878"/></linearGradient><linearGradient id="paint2_linear" x1="12.5" y1="0" x2="12.5" y2="24" gradientUnits="userSpaceOnUse"><stop stop-color="#EB7070"/><stop offset="1" stop-color="#2B5878"/></linearGradient><linearGradient id="paint3_linear" x1="5.235" y1="11.827" x2="5.235" y2="13.206" gradientUnits="userSpaceOnUse"><stop stop-color="#EB7070"/><stop offset="1" stop-color="#2B5878"/></linearGradient><linearGradient id="paint4_linear" x1="19.767" y1="11.827" x2="19.767" y2="13.206" gradientUnits="userSpaceOnUse"><stop stop-color="#EB7070"/><stop offset="1" stop-color="#2B5878"/></linearGradient><clipPath id="clip0"><path fill="#fff" d="M0 0h25v24H0z"/></clipPath></defs></svg>