<svg width="72" height="81" viewBox="0 0 72 81" fill="none" xmlns="http://www.w3.org/2000/svg">
<path d="M6.2651 70.8494C6.37475 70.8582 6.48858 70.8523 6.6017 70.8302C7.46268 70.6644 8.28984 70.4948 9.08219 70.3215C9.75712 70.1739 10.1836 69.5078 10.037 68.8329C9.88936 68.158 9.22418 67.7326 8.54842 67.8781C7.77448 68.0469 6.96774 68.2121 6.1271 68.3746C5.44946 68.5059 5.00581 69.1606 5.13609 69.8392C5.2464 70.4038 5.71884 70.8057 6.2651 70.8494Z" fill="#E86D6F"/>
<path d="M13.3483 69.1873C13.4948 69.199 13.6464 69.185 13.7964 69.1409C15.5485 68.633 17.0658 68.1004 18.4351 67.5127C19.0698 67.2405 19.3634 66.5056 19.0912 65.8708C18.8189 65.2361 18.0839 64.9435 17.4493 65.2148C16.1746 65.7618 14.7533 66.26 13.1007 66.7397C12.4373 66.9324 12.0558 67.6252 12.2485 68.2887C12.3969 68.8031 12.8459 69.1471 13.3483 69.1873ZM21.9856 65.2909C22.2777 65.3143 22.5789 65.2361 22.8318 65.0466C24.2977 63.9541 25.4552 62.7145 26.3716 61.2549C26.7384 60.6703 26.5624 59.8988 25.9779 59.531C25.3932 59.1652 24.6218 59.3402 24.254 59.9248C23.5054 61.1178 22.5511 62.137 21.3371 63.041C20.7833 63.4541 20.6696 64.2365 21.0817 64.7902C21.3063 65.0921 21.6387 65.2631 21.9856 65.2909ZM27.0395 57.4601C27.6306 57.5074 28.1886 57.1277 28.3465 56.5344C28.7071 55.1749 28.9909 53.6346 29.2401 51.6863C29.328 51.0011 28.8434 50.3755 28.1592 50.2876C27.4846 50.1935 26.8484 50.6843 26.7605 51.3685C26.5263 53.2046 26.2618 54.6421 25.93 55.8926C25.7532 56.5596 26.1508 57.2445 26.8179 57.4213C26.8915 57.4413 26.9657 57.4542 27.0395 57.4601ZM28.3902 48.0278C29.0731 48.0825 29.6743 47.5768 29.735 46.8935L29.8519 45.5706C29.9482 44.4808 30.0494 43.3412 30.163 42.1475C30.228 41.4605 29.7241 40.8504 29.0372 40.7843C28.3915 40.7297 27.74 41.2233 27.674 41.9102C27.56 43.1089 27.4593 44.2545 27.3626 45.3503L27.2449 46.6701C27.1839 47.3574 27.691 47.9648 28.3783 48.0269C28.3833 48.0273 28.3873 48.0276 28.3902 48.0278ZM29.3259 38.5302C29.9908 38.5834 30.5851 38.1023 30.6657 37.4336C30.8607 35.811 31.0697 34.2778 31.3047 32.7456C31.4095 32.0628 30.9419 31.4245 30.259 31.3207C29.5683 31.2152 28.9379 31.6834 28.8341 32.3663C28.5949 33.9262 28.3818 35.4862 28.1835 37.1356C28.1016 37.8213 28.5905 38.4433 29.2751 38.5261C29.292 38.5275 29.309 38.5288 29.3259 38.5302ZM30.7799 29.1001C31.4068 29.1503 31.9839 28.721 32.1057 28.0897C32.4035 26.5375 32.8023 25.0516 33.2928 23.6733C33.5244 23.0227 33.1844 22.3073 32.5338 22.0767C31.885 21.8472 31.1678 22.185 30.9371 22.8357C30.405 24.333 29.9722 25.9426 29.6504 27.6193C29.5209 28.2971 29.965 28.9527 30.6429 29.0821C30.6884 29.0898 30.735 29.0965 30.7799 29.1001ZM34.0031 20.1758C34.4676 20.213 34.9351 19.9876 35.1842 19.5571C35.9464 18.2437 36.837 17.0188 37.8301 15.9166C38.2915 15.4037 38.2504 14.6129 37.7376 14.1516C37.2258 13.6902 36.434 13.7312 35.9726 14.244C34.8639 15.4745 33.8717 16.8407 33.0224 18.3026C32.6756 18.8999 32.8783 19.6645 33.4755 20.0112C33.6434 20.1069 33.8237 20.1615 34.0031 20.1758ZM40.3442 13.1443C40.6313 13.1673 40.9273 13.0916 41.1787 12.9091C42.3685 12.0443 43.6823 11.2716 45.0833 10.6123C45.7078 10.3182 45.9761 9.5732 45.682 8.94875C45.3879 8.32329 44.6428 8.057 44.0184 8.35013C42.4766 9.07644 41.0259 9.92942 39.7093 10.8874C39.1511 11.2932 39.0274 12.0748 39.4331 12.633C39.6553 12.9407 39.9924 13.1161 40.3442 13.1443ZM48.9169 9.05316C49.0635 9.06488 49.2151 9.05093 49.3651 9.00676C50.7855 8.59476 52.3018 8.26267 53.8721 8.02017C54.5538 7.91421 55.0211 7.27647 54.9163 6.59392C54.8104 5.9113 54.1705 5.44577 53.49 5.54981C51.815 5.80901 50.1924 6.1647 48.6693 6.6066C48.0058 6.79929 47.6244 7.49206 47.817 8.15555C47.9656 8.66804 48.4146 9.01295 48.9169 9.05316ZM58.3332 7.55859C58.386 7.56282 58.4391 7.56406 58.4935 7.56139C60.008 7.48998 61.5771 7.48816 63.1576 7.55846C63.8463 7.58951 64.4308 7.05443 64.461 6.36464C64.492 5.67592 63.9557 5.10732 63.2671 5.06124C61.6117 4.98795 59.9653 4.98961 58.3743 5.06492C57.6845 5.09699 57.152 5.68338 57.1852 6.37222C57.2156 7.00767 57.7152 7.50913 58.3332 7.55859Z" fill="#E86D6F"/>
<path d="M70.4537 8.39822C71.0677 8.44737 71.6394 8.03566 71.7731 7.41736C71.9194 6.74288 71.4921 6.07767 70.8187 5.93048C70.7792 5.92231 69.8385 5.71861 68.2565 5.50472C67.5533 5.4043 66.9424 5.89212 66.8505 6.57597C66.7577 7.25974 67.2369 7.88999 67.9218 7.98191C69.3946 8.18104 70.2782 8.37214 70.2871 8.37386C70.3422 8.3863 70.3978 8.39376 70.4537 8.39822Z" fill="#E86D6F"/>
<path d="M6.34159 62.2069C6.87189 62.2494 7.38961 61.9477 7.59967 61.4288L8.1614 60.0382C8.42031 59.3978 8.11041 58.6698 7.47102 58.4109C6.83071 58.151 6.10259 58.4619 5.84375 59.1013L5.28203 60.4919C5.02311 61.1323 5.33302 61.8604 5.97241 62.1192C6.09382 62.1691 6.21798 62.197 6.34159 62.2069Z" fill="#E86D6F"/>
<path d="M3.75485 68.606C4.28416 68.6484 4.80287 68.3468 5.01294 67.8279L6.30627 64.6289C6.56518 63.9885 6.25627 63.2605 5.61588 63.0016C4.97673 62.7398 4.24753 63.0516 3.98862 63.692L2.69529 66.891C2.43638 67.5314 2.74529 68.2594 3.38568 68.5183C3.50609 68.568 3.63125 68.5961 3.75485 68.606Z" fill="#E86D6F"/>
<path d="M3.33695 73.6267C3.91211 73.6727 4.46053 73.3133 4.63296 72.7382C4.83134 72.0769 4.45468 71.3807 3.79332 71.1833L3.67187 71.1465L3.7194 71.0289C3.97832 70.3885 3.66841 69.6605 3.02902 69.4016C2.38855 69.1437 1.66068 69.4516 1.40176 70.092L0.325835 72.7557L3.07901 73.5779C3.16322 73.6037 3.25022 73.6197 3.33695 73.6267Z" fill="#E86D6F"/>
<path d="M9.09622 75.3466C9.67138 75.3926 10.2208 75.0333 10.3922 74.4582C10.5896 73.7968 10.214 73.1006 9.55268 72.9022L6.67314 72.0418C6.01661 71.8468 5.31559 72.22 5.1182 72.8814C4.91982 73.5427 5.29647 74.2389 5.95775 74.4373L8.83729 75.2978C8.92249 75.3237 9.00949 75.3397 9.09622 75.3466Z" fill="#E86D6F"/>
<path d="M13.413 76.636C13.9882 76.6821 14.5376 76.3227 14.7091 75.7476C14.9074 75.0863 14.5308 74.39 13.8694 74.1927L12.4321 73.7636C11.7768 73.5657 11.0736 73.9408 10.8771 74.6032C10.6787 75.2645 11.0554 75.9608 11.7168 76.1582L13.1541 76.5872C13.2403 76.6132 13.3273 76.6292 13.413 76.636Z" fill="#E86D6F"/>
</svg>
