<svg width="420" height="69" fill="none" xmlns="http://www.w3.org/2000/svg"><path opacity=".25" fill-rule="evenodd" clip-rule="evenodd" d="M23.361 10.548c29.893-3.87 55.02-1.72 78.848 3.01L100.043.229l2.167 13.329c12.698 2.492 24.992 5.654 37.373 8.839 26.059 6.702 52.507 13.504 83.932 14.378 50.688 1.29 77.982-9.889 77.982-9.889s-41.591 3.87-81.015-5.59c-8.763-2.102-16.969-4.289-24.981-6.425C167.469 7.4 141.824.563 103.076.23h-3.033c-47.655 0-76.682 10.32-76.682 10.32zM-55.92 32.044s36.825-15.048 88.38-13.758c32.058.86 51.12 4.73 71.916 10.319 4.558 1.092 9.229 2.297 14.18 3.574h.002l.002.001c8.697 2.243 18.255 4.709 29.572 7.174 23.596 5.341 49.17 6.364 68.784 6.444l2.7-.425c17.762-.43 29.893-1.72 29.893-1.72s-19.929 6.88-47.223 10.32c-12.997 1.72-27.727 3.44-47.655 2.58h-6.066c-16.029-.86-29.893-3.01-40.723-5.16h-.001c-3.731-1.01-7.197-1.757-10.397-2.446l-.007-.002h-.004c-.883-.19-1.746-.377-2.588-.563-4.138-1.033-8.127-2.039-11.99-3.012C30.483 32.173 1.371 24.837-55.92 32.044zm238.71 32.247s-57.62 6.88-113.507-6.45a2870.17 2870.17 0 01-22.43-5.418C-.734 40.783-24.97 34.856-83.214 42.363-125.237 47.523-143 58.702-143 58.702c70.6-11.633 112.9-2.16 152.37 6.68 23.26 5.21 45.538 10.199 72.044 10.518 62.386.43 101.377-11.61 101.377-11.61zm302.83-51.165c28.594 1.72 42.89 5.16 41.591 5.16-29.894-1.29-50.689 0-68.884 3.01-51.659 7-92.389 20.015-133.323 33.095-44.546 14.234-89.334 28.545-148.712 35.267-32.492 3.44-51.121 4.3-74.082 4.3-42.024.43-63.252-8.17-63.252-8.17 6.601.346 11.53.621 15.41.838 6.562.367 10.118.566 13.677.647 4.212.096 8.429.027 17.635-.123h.006l4.393-.071c39.857-.86 70.184-4.73 110.907-15.909 19.779-5.51 36.083-11.433 52.614-17.44h.001c24.748-8.99 50.005-18.166 88.186-26.415l.007-.001a837.975 837.975 0 0125.121-5.158c21.659-3.87 42.886-6.879 63.679-8.169h.006c19.062-1.72 37.691-2.15 55.02-.86zm-31.626 18.49c27.727-5.16 56.754-8.17 83.181-9.89 40.724-2.58 45.489 0 45.489 0s-25.994 3.44-46.356 6.02C489.444 33.947 461.055 44.62 432.78 55.25c-10.932 4.11-21.847 8.214-33.806 12.05-39.425 12.9-81.881 22.79-139.068 25.8-7.365.43-38.991.43-51.988-4.3 18.196.43 29.027 0 53.721-3.44 39.291-5.768 70.598-16.613 102.556-27.684 27.594-9.559 55.674-19.286 89.799-26.06z" fill="#0C2537"/></svg>