<svg width="404" height="65" fill="none" xmlns="http://www.w3.org/2000/svg"><path opacity=".1" fill-rule="evenodd" clip-rule="evenodd" d="M113.633 7.048c20.418-2.643 37.582-1.174 53.857 2.056L166.01 0l1.48 9.104c8.674 1.703 17.071 3.863 25.528 6.038 17.8 4.578 35.865 9.224 57.33 9.82 34.622.882 53.265-6.754 53.265-6.754s-28.408 2.643-55.337-3.818c-5.986-1.436-11.591-2.93-17.063-4.389C212.066 4.898 194.548.228 168.082 0h-2.072c-32.551 0-52.377 7.048-52.377 7.048zM59.48 21.731s25.153-10.278 60.367-9.397c21.898.587 34.919 3.23 49.123 7.048 3.113.746 6.304 1.57 9.686 2.442h.003c5.94 1.533 12.469 3.216 20.199 4.9 16.117 3.648 33.585 4.347 46.982 4.402l1.844-.29c12.133-.294 20.419-1.175 20.419-1.175s-13.613 4.7-32.256 7.049c-8.877 1.174-18.938 2.35-32.551 1.762h-4.143c-10.949-.588-20.418-2.056-27.816-3.525-2.548-.69-4.915-1.2-7.101-1.67h-.001a377.64 377.64 0 01-1.775-.386c-2.826-.706-5.552-1.393-8.191-2.058-35.771-9.014-55.656-14.025-94.79-9.102zm163.05 22.026s-39.357 4.7-77.531-4.405c-5.525-1.305-10.591-2.545-15.321-3.701C97.175 27.7 80.62 23.652 40.837 28.78 12.133 32.304 0 39.94 0 39.94c48.223-7.946 77.117-1.475 104.076 4.563 15.888 3.558 31.105 6.966 49.21 7.184 42.612.293 69.245-7.93 69.245-7.93zM429.378 8.81c19.531 1.175 29.296 3.525 28.409 3.525-20.419-.881-34.623 0-47.051 2.055-35.286 4.782-63.106 13.672-91.066 22.606-30.428 9.723-61.02 19.498-101.578 24.09-22.194 2.349-34.918 2.936-50.602 2.936-28.704.294-43.204-5.58-43.204-5.58 4.51.236 7.877.424 10.527.572 4.481.251 6.91.387 9.341.442 2.877.066 5.757.019 12.046-.084h.019l2.985-.049c27.225-.587 47.939-3.23 75.756-10.866 13.509-3.763 24.646-7.81 35.938-11.912 16.904-6.141 34.156-12.409 60.235-18.043l.007-.001a572.45 572.45 0 0117.157-3.523c14.794-2.643 29.292-4.698 43.494-5.58h.006c13.02-1.175 25.745-1.469 37.581-.588zm-21.602 12.63c18.939-3.525 38.766-5.58 56.817-6.755 27.816-1.762 31.071 0 31.071 0s-17.755 2.35-31.663 4.111c-32.011 4.236-51.402 11.527-70.715 18.788-7.467 2.807-14.923 5.61-23.091 8.23-26.929 8.811-55.929 15.566-94.99 17.622-5.031.293-26.633.293-35.511-2.937 12.429.293 19.827 0 36.694-2.35 26.838-3.94 48.222-11.348 70.051-18.91 18.848-6.529 38.028-13.173 61.337-17.8z" fill="#0C2537"/></svg>