<svg width="128" height="113" fill="none" xmlns="http://www.w3.org/2000/svg"><path d="M89.925 22.853h-1.367v-7.014C85.138 11.012 76.778.075 72.294 0c-4.332.15-25.991 10.182-28.195 15.16l-.228 79.269c.456 0 .912-.076 1.292-.076 2.66-3.544 22.343-7.09 26.903-7.09 4.408-.225 9.576 1.886 11.628 4.224-2.508-1.659-7.144-2.941-11.324-2.715-4.408 0-24.243 2.64-27.207 5.581h.152c2.508-.075 4.864.076 7.296.378 5.623-1.282 16.491-2.338 20.291-2.49 3.04-.15 8.968 1.51 10.792 3.244-1.444-.679-7.6-1.886-10.944-1.735-7.22.302-8.816.603-18.467 1.282.76.151 1.823.377 2.66.528 4.635 1.132 11.475 3.319 15.883 3.319 7.752.754 14.136-.528 21.66-1.509l-.077-2.413c-2.812-3.394-5.092-3.092-5.852-3.017v-1.885c1.14.377 3.496 1.13 5.852 4.826l.076-4.676c-2.812-3.394-5.016-3.47-5.852-3.62V84.7c1.14.377 3.572 1.659 5.852 5.355v-4.978c-2.812-3.394-5.168-3.47-5.927-3.847v-1.886c1.443 1.056 3.571 1.962 5.927 5.657v-4.827c-2.812-3.394-5.168-3.997-5.927-4.299V73.99c1.443 1.055 3.647 2.413 5.927 6.109v-5.28c-2.812-3.394-5.168-3.922-5.927-4.299v-1.885c1.443 1.055 3.647 2.338 5.927 6.033v-5.28c-2.812-3.393-5.168-3.921-5.927-4.298v-1.886c1.443 1.056 3.571 2.338 5.927 6.034v-5.355c-2.812-3.394-5.168-3.847-5.927-4.224v-1.885c1.443 1.056 3.647 2.262 5.927 6.033v-4.902c-2.812-3.394-5.168-4.224-5.927-4.6v-1.886c1.443 1.056 3.647 2.64 5.927 6.335v-4.752c-2.812-3.394-5.168-4.751-5.927-5.128v-1.886c1.443 1.056 3.647 3.168 5.927 6.864v-5.28c-2.812-3.394-5.168-4.752-5.927-5.129v-1.81c1.443 1.056 3.647 3.168 5.927 6.864v-5.28c-2.812-3.394-5.168-4.752-5.927-5.129v-1.885c1.443 1.056 3.647 3.167 5.927 6.863v-5.28c-2.812-3.393-5.168-4.75-5.927-5.128v-1.886c1.443 1.056 3.647 3.168 5.927 6.864v-5.28c-2.812-3.394-5.168-4.751-5.927-5.129v-1.885c1.443 1.056 3.647 3.168 5.927 6.863v-5.28c-1.824-1.96-3.42-3.318-4.56-4.072zM72.598 83.342c-4.408 0-24.471 3.997-27.283 6.939 2.508-3.545 22.647-8.674 27.283-8.674 3.8 0 8.056 2.49 10.412 5.053-2.736-1.885-6.232-3.318-10.412-3.318zm-.152-5.28c-4.408 0-24.471 5.355-27.207 8.297 2.508-3.545 22.647-10.031 27.207-10.031 3.8 0 7.448 1.659 11.02 6.184-2.584-2.263-6.84-4.45-11.02-4.45zm-.076-5.581c-4.408 0-24.547 6.788-27.283 9.73 2.508-3.545 22.647-11.465 27.283-11.465 3.8 0 8.664 4.224 12.16 8.75-3.496-3.998-7.98-7.015-12.16-7.015zm0-4.6c-4.408 0-24.547 6.787-27.283 9.729 2.508-3.545 22.647-11.465 27.283-11.465 3.8 0 8.664 4.224 12.16 8.75-3.496-3.998-7.98-7.015-12.16-7.015zm0-4.526c-4.408 0-24.547 6.788-27.283 9.73C47.595 69.54 67.734 61.62 72.37 61.62c3.8 0 8.664 4.224 12.16 8.75-3.496-4.074-7.98-7.015-12.16-7.015zm0-5.506c-4.408 0-24.547 7.693-27.283 10.635 2.508-3.545 22.647-12.37 27.283-12.37 3.8 0 8.664 5.054 12.16 9.579-3.496-3.922-7.98-7.844-12.16-7.844zm0-4.6c-4.408 0-24.547 7.692-27.283 10.634 2.508-3.545 22.647-12.37 27.283-12.37 3.8 0 8.664 5.054 12.16 9.58-3.496-3.923-7.98-7.845-12.16-7.845zm0-4.602c-4.408 0-24.547 7.694-27.283 10.635 2.508-3.545 22.647-12.37 27.283-12.37 3.8 0 8.664 5.054 12.16 9.58-3.496-3.922-7.98-7.844-12.16-7.844zm0-4.525c-4.408 0-24.547 7.693-27.283 10.635 2.508-3.545 22.647-12.37 27.283-12.37 3.8 0 8.664 5.054 12.16 9.58-3.496-3.998-7.98-7.845-12.16-7.845zm0-4.6c-4.408 0-24.547 7.693-27.283 10.634 2.508-3.545 22.647-12.37 27.283-12.37 3.8 0 8.664 5.054 12.16 9.58-3.496-3.998-7.98-7.845-12.16-7.845zm0-4.601c-4.408 0-24.547 7.693-27.283 10.634 2.508-3.545 22.647-12.37 27.283-12.37 3.8 0 8.664 5.054 12.16 9.58-3.496-3.998-7.98-7.844-12.16-7.844zm0-4.601c-4.408 0-24.547 7.693-27.283 10.634 2.508-3.544 22.647-12.369 27.283-12.369 3.8 0 8.664 5.053 12.16 9.579-3.496-3.998-7.98-7.844-12.16-7.844zm0-4.6c-4.408 0-24.547 7.692-27.283 10.634 2.508-3.545 22.647-12.37 27.283-12.37 3.8 0 8.664 5.054 12.16 9.579-3.496-3.922-7.98-7.844-12.16-7.844zm0-4.602c-4.408 0-24.547 7.693-27.283 10.635 2.508-3.545 22.647-12.37 27.283-12.37 3.8 0 8.664 5.054 12.16 9.58-3.496-3.923-7.98-7.845-12.16-7.845zm0-4.751c-4.408 0-24.547 7.844-27.36 10.86 2.509-3.544 22.648-12.369 27.284-12.369 3.8 0 8.664 5.053 12.16 9.579-3.42-3.998-7.828-8.07-12.084-8.07zm-.076-5.582c-4.408 0-24.471 8.825-27.207 11.766 2.508-3.544 22.571-13.35 27.207-13.35 3.8 0 8.74 6.034 12.312 10.56-3.572-3.922-8.132-8.976-12.312-8.976zm-.304-4.827c-4.408 0-24.167 9.127-26.98 12.068C47.52 14.481 67.355 4.45 71.99 4.45c3.8 0 9.044 6.335 12.54 10.86-3.496-4.072-8.284-9.352-12.54-9.352zM29.887 98.05c5.244-.68 9.652-.302 13.832.527l-.38-2.338c-8.36 0-13.452 1.81-13.452 1.81z" fill="#fff"/><path d="M78.678 100.915s-7.296.679-14.212-.98c-6.915-1.66-11.855-3.62-20.595-3.696h-.532l.38 2.338c6.916 1.358 13.148 3.847 21.28 4.073 8.891.226 13.679-1.735 13.679-1.735zm-47.195-1.508c-9.043-.226-15.503 2.413-15.503 2.413 10.791-1.357 15.883.227 26.447 2.866.684.151 1.444.302 2.28.528l-.608-3.997c-3.648-.981-6.992-1.66-12.616-1.81zm21.432 6.712c3.496.151 6.08-.15 8.36-.452 4.787-.604 8.283-1.81 8.283-1.81s-2.128.226-5.244.301l-12.463 1.961h1.064z" fill="#fff"/><path d="M51.775 103.103c-3.116-.679-5.472-1.358-7.676-1.886l.608 3.997c1.9.378 4.332.755 7.144.905l12.463-1.885c-3.496 0-8.207-.151-12.54-1.131zm6.08 4.374s-10.108 1.207-19.912-1.131c-11.171-2.64-15.047-4.224-26.75-2.716-7.373.905-10.489 2.866-10.489 2.866 19.684-3.243 26.828 2.866 39.367 3.017 10.944.076 17.784-2.036 17.784-2.036z" fill="#fff"/><path d="M118.272 99.407c.228 0-2.279-.604-7.295-.905-3.04-.227-6.308-.151-9.652.15l-15.58 2.339c-11.171 2.413-16.035 5.279-24.699 7.693-7.143 1.961-12.463 2.64-19.455 2.79-4.712.076-3.192.076-8.968-.226 0 0 3.724 1.509 11.096 1.433 4.028 0 7.296-.151 12.995-.754 19.988-2.263 30.552-9.428 49.475-11.992 3.192-.528 6.84-.755 12.083-.528z" fill="#fff"/><path d="M90.153 100.086c-1.596.301-3.04.603-4.407.905l15.579-2.338c-3.648.226-7.372.754-11.172 1.433zm29.867-.076c-4.635.302-9.727.83-14.591 1.735-12.92 2.564-20.9 7.542-33.743 9.428-4.332.603-6.232.679-9.424.603 2.28.83 7.828.83 9.12.754 10.032-.528 17.48-2.262 24.395-4.525 7.524-2.414 12.692-5.43 24.091-6.939 3.572-.452 8.132-1.056 8.132-1.056s-.836-.452-7.98 0z" fill="#fff"/></svg>