<svg width="12" height="12" fill="none" xmlns="http://www.w3.org/2000/svg"><path d="M6 0a6 6 0 00-6 6 6 6 0 006 6 6 6 0 006-6 6 6 0 00-6-6zm.404 6.52A.405.405 0 016 6.922H3.23a.405.405 0 01-.403-.404c0-.222.182-.404.404-.404h2.365V2.308c0-.222.182-.404.404-.404.222 0 .404.182.404.404v4.211z" fill="url(#paint0_linear)"/><defs><linearGradient id="paint0_linear" x1="6" y1="0" x2="6" y2="12" gradientUnits="userSpaceOnUse"><stop stop-color="#EB7070"/><stop offset="1" stop-color="#2B5878"/></linearGradient></defs></svg>