<svg viewBox="0 0 29 28" xmlns="http://www.w3.org/2000/svg"><path d="M28.014 1.585l-9.558 9.558H25.5a.929.929 0 010 1.857h-9.286a.925.925 0 01-.181-.018c-.029-.006-.054-.016-.081-.024-.031-.01-.062-.016-.093-.029a.711.711 0 01-.09-.048c-.024-.012-.047-.022-.07-.037a.93.93 0 01-.257-.257c-.015-.023-.025-.048-.038-.072-.017-.029-.034-.057-.047-.088-.013-.03-.02-.063-.03-.094-.008-.026-.018-.052-.023-.08a.926.926 0 01-.018-.181V2.786a.929.929 0 011.857 0V9.83L26.7.272a.925.925 0 011.313 0 .928.928 0 010 1.313zM12.5 26a.929.929 0 01-.929-.928v-7.044l-9.558 9.558A.928.928 0 11.7 26.273l9.558-9.558H3.214a.929.929 0 010-1.858H12.5c.06 0 .121.007.181.019.029.005.054.016.081.024a.822.822 0 01.093.028c.032.013.06.032.09.048.024.013.047.023.07.037.101.069.19.156.257.258.015.023.025.047.038.07.017.03.034.059.047.09.013.03.02.062.03.094.008.026.018.052.023.079.012.06.018.121.018.182v9.286A.929.929 0 0112.5 26z"/></svg>