<svg width="32" height="30" fill="none" xmlns="http://www.w3.org/2000/svg"><path d="M30.966 10.564l-9.593-1.369L17.084.66a1.191 1.191 0 00-.547-.538 1.225 1.225 0 00-1.621.538l-4.289 8.535-9.593 1.369c-.264.037-.506.16-.691.345a1.177 1.177 0 00.023 1.68l6.94 6.643-1.64 9.38a1.179 1.179 0 00.481 1.162 1.222 1.222 0 001.273.089L16 25.434l8.58 4.429c.235.122.507.163.768.119a1.19 1.19 0 00.986-1.37l-1.64-9.38 6.94-6.643c.19-.182.314-.42.352-.679.102-.649-.36-1.25-1.02-1.346zm-9.193 7.734l1.364 7.8L16 22.418l-7.137 3.684 1.364-7.8-5.773-5.527 7.98-1.14L16 4.54l3.567 7.096 7.98 1.139-5.774 5.523z" fill="#fff"/></svg>