<svg width="21" height="18" fill="none" xmlns="http://www.w3.org/2000/svg"><path d="M20.077 1.73c.487 0 .897.432.897.946 0 .513-.41.946-.897.946H18.41a.851.851 0 00-.743.432 2.497 2.497 0 01-2.18 1.297c-.923 0-1.718-.513-2.18-1.297a.883.883 0 00-.743-.432H.897C.41 3.622 0 3.189 0 2.676c0-.514.41-.946.897-.946H12.59a.85.85 0 00.743-.433A2.497 2.497 0 0115.513 0c.923 0 1.718.514 2.18 1.297a.88.88 0 00.743.433h1.64zm-4.564 10.919c-.923 0-1.718.513-2.18 1.297a.883.883 0 01-.743.432H.897c-.487 0-.897.433-.897.946 0 .514.41.946.897.946H12.59a.85.85 0 01.743.433A2.497 2.497 0 0015.513 18c.923 0 1.718-.514 2.18-1.297a.883.883 0 01.743-.433h1.667c.487 0 .897-.432.897-.946 0-.513-.41-.946-.897-.946h-1.667a.851.851 0 01-.744-.432c-.461-.784-1.256-1.297-2.18-1.297zM5.718 6.324c-.923 0-1.718.514-2.18 1.298a.883.883 0 01-.743.432H.897C.41 8.054 0 8.486 0 9s.41.946.897.946h1.898a.85.85 0 01.743.432 2.497 2.497 0 002.18 1.298c.923 0 1.718-.514 2.18-1.298a.883.883 0 01.743-.432h11.462c.487 0 .897-.432.897-.946s-.41-.946-.897-.946H8.64a.851.851 0 01-.744-.432c-.461-.784-1.256-1.298-2.179-1.298z" fill="#fff"/></svg>