<svg viewBox="0 0 16 16" xmlns="http://www.w3.org/2000/svg"><path d="M12.68 8.707V1.359a.453.453 0 00-.453-.453V0c.73 0 1.325.575 1.357 1.297L14.49.39l.213.214-1.119 1.119v.479L15.251.535l.214.214-1.88 1.88v.478l1.666-1.666.214.214-1.88 1.88v.478l1.666-1.666.214.213-1.88 1.88v.479l1.666-1.667.214.214-1.88 1.88v.478l1.666-1.666.214.214-1.88 1.88v.478l1.666-1.666.214.213-1.88 1.88v.479l1.666-1.666.214.213-1.88 1.88v.478l1.666-1.666.214.214-1.88 1.88v.478l1.666-1.666.214.213-1.88 1.88v.479l1.666-1.666.214.213-1.88 1.88v.478l1.666-1.666.214.214-1.88 1.88v.478l1.666-1.666.214.213-1.88 1.88v.479l1.666-1.667.214.214-1.88 1.88v.478l1.666-1.666.214.214-1.88 1.88v.239c0 .09-.009.18-.026.265l1.692-1.692.214.213-2.182 2.182-.053-.053a1.355 1.355 0 01-1.003.443v-.905c.25 0 .453-.203.453-.453V9.94L9.348 6.86l-4.06 5.363a.453.453 0 01-.628.092l-1.637-1.2-2.187 3.458a.453.453 0 11-.766-.484l2.447-3.868a.453.453 0 01.65-.123l1.669 1.223 4.091-5.405a.453.453 0 01.668-.06l3.085 2.85z"/><path d="M4.528 7.547a2.415 2.415 0 110-4.83 2.415 2.415 0 010 4.83zm0-.906a1.51 1.51 0 100-3.019 1.51 1.51 0 000 3.02zm10.723 7.479l.214.214-1.578 1.578-.214-.214 1.578-1.578z"/><path d="M1.359.906a.453.453 0 00-.453.453v13.283c0 .25.203.453.453.453h13.283c.25 0 .453-.203.453-.453V1.359a.453.453 0 00-.453-.453H1.359zm0-.906h13.283C15.392 0 16 .608 16 1.359v13.283c0 .75-.608 1.358-1.358 1.358H1.359C.609 16 0 15.392 0 14.642V1.359C0 .609.608 0 1.36 0z"/></svg>