<svg width="220" height="103" fill="none" xmlns="http://www.w3.org/2000/svg"><path d="M81.553 20.89h-1.25v-6.412C77.177 10.065 69.536.068 65.437 0c-3.96.138-23.757 9.307-25.772 13.857l-.208 72.457c.417 0 .834-.07 1.18-.07 2.432-3.24 20.424-6.48 24.592-6.48 4.029-.206 8.753 1.724 10.628 3.861-2.292-1.516-6.53-2.689-10.35-2.482-4.03 0-22.16 2.413-24.87 5.102h.14c2.292-.069 4.446.069 6.669.345 5.14-1.172 15.074-2.138 18.547-2.275 2.779-.138 8.197 1.378 9.864 2.964-1.32-.62-6.946-1.724-10.003-1.586-6.6.276-8.058.552-16.88 1.172.695.138 1.667.345 2.431.483 4.238 1.034 10.49 3.033 14.519 3.033 7.085.69 12.92-.482 19.797-1.379l-.069-2.206c-2.57-3.102-4.654-2.826-5.349-2.757v-1.724c1.042.345 3.196 1.034 5.349 4.413l.07-4.275c-2.57-3.102-4.585-3.171-5.35-3.309V77.42c1.043.345 3.266 1.517 5.35 4.895v-4.55c-2.57-3.102-4.724-3.171-5.419-3.516v-1.723c1.32.965 3.265 1.792 5.419 5.17v-4.412c-2.57-3.102-4.724-3.654-5.419-3.93v-1.723c1.32.965 3.335 2.206 5.419 5.584V68.39c-2.57-3.102-4.724-3.585-5.419-3.93v-1.723c1.32.965 3.335 2.137 5.419 5.515v-4.826c-2.57-3.102-4.724-3.584-5.419-3.93v-1.723c1.32.965 3.265 2.138 5.419 5.516v-4.895c-2.57-3.102-4.724-3.516-5.419-3.86V52.81c1.32.965 3.335 2.068 5.419 5.515v-4.481c-2.57-3.103-4.724-3.86-5.419-4.206v-1.723c1.32.965 3.335 2.413 5.419 5.79v-4.342c-2.57-3.103-4.724-4.344-5.419-4.688V42.95c1.32.965 3.335 2.896 5.419 6.274v-4.826c-2.57-3.103-4.724-4.343-5.419-4.688v-1.655c1.32.965 3.335 2.896 5.419 6.274v-4.826c-2.57-3.102-4.724-4.343-5.419-4.688v-1.723c1.32.965 3.335 2.895 5.419 6.273V34.54c-2.57-3.102-4.724-4.343-5.419-4.688v-1.723c1.32.965 3.335 2.895 5.419 6.273v-4.825c-2.57-3.103-4.724-4.344-5.419-4.688v-1.724c1.32.965 3.335 2.896 5.419 6.274v-4.826c-1.668-1.793-3.126-3.034-4.168-3.723zM65.716 76.18c-4.029 0-22.368 3.653-24.938 6.342 2.292-3.24 20.7-7.928 24.938-7.928 3.474 0 7.364 2.275 9.517 4.619-2.5-1.724-5.696-3.033-9.517-3.033zm-.139-4.826c-4.029 0-22.368 4.895-24.869 7.583 2.293-3.24 20.701-9.169 24.87-9.169 3.473 0 6.807 1.517 10.072 5.653-2.362-2.068-6.252-4.067-10.073-4.067zm-.07-5.102c-4.028 0-22.437 6.205-24.938 8.894 2.293-3.24 20.701-10.48 24.939-10.48 3.473 0 7.919 3.861 11.114 7.998-3.195-3.654-7.294-6.412-11.114-6.412zm0-4.205c-4.028 0-22.437 6.204-24.938 8.893 2.293-3.24 20.701-10.479 24.939-10.479 3.473 0 7.919 3.86 11.114 7.997-3.195-3.654-7.294-6.411-11.114-6.411zm0-4.137c-4.028 0-22.437 6.205-24.938 8.894 2.293-3.24 20.701-10.48 24.939-10.48 3.473 0 7.919 3.861 11.114 7.998-3.195-3.723-7.294-6.412-11.114-6.412zm0-5.032c-4.028 0-22.437 7.032-24.938 9.72 2.293-3.24 20.701-11.306 24.939-11.306 3.473 0 7.919 4.619 11.114 8.755-3.195-3.584-7.294-7.17-11.114-7.17zm0-4.206c-4.028 0-22.437 7.032-24.938 9.72 2.293-3.24 20.701-11.305 24.939-11.305 3.473 0 7.919 4.619 11.114 8.755-3.195-3.585-7.294-7.17-11.114-7.17zm0-4.205c-4.028 0-22.437 7.032-24.938 9.72 2.293-3.24 20.701-11.306 24.939-11.306 3.473 0 7.919 4.62 11.114 8.756-3.195-3.585-7.294-7.17-11.114-7.17zm0-4.137c-4.028 0-22.437 7.032-24.938 9.721 2.293-3.24 20.701-11.306 24.939-11.306 3.473 0 7.919 4.619 11.114 8.755-3.195-3.654-7.294-7.17-11.114-7.17zm0-4.205c-4.028 0-22.437 7.032-24.938 9.72 2.293-3.24 20.701-11.306 24.939-11.306 3.473 0 7.919 4.62 11.114 8.756-3.195-3.654-7.294-7.17-11.114-7.17zm0-4.205c-4.028 0-22.437 7.032-24.938 9.72 2.293-3.24 20.701-11.306 24.939-11.306 3.473 0 7.919 4.619 11.114 8.755-3.195-3.653-7.294-7.17-11.114-7.17zm0-4.206c-4.028 0-22.437 7.032-24.938 9.72 2.293-3.24 20.701-11.305 24.939-11.305 3.473 0 7.919 4.619 11.114 8.755-3.195-3.654-7.294-7.17-11.114-7.17zm0-4.205c-4.028 0-22.437 7.032-24.938 9.72 2.293-3.24 20.701-11.306 24.939-11.306 3.473 0 7.919 4.62 11.114 8.756-3.195-3.585-7.294-7.17-11.114-7.17zm0-4.206c-4.028 0-22.437 7.032-24.938 9.721 2.293-3.24 20.701-11.306 24.939-11.306 3.473 0 7.919 4.619 11.114 8.755-3.195-3.585-7.294-7.17-11.114-7.17zm0-4.343c-4.028 0-22.437 7.17-25.007 9.928 2.292-3.24 20.7-11.307 24.938-11.307 3.474 0 7.92 4.62 11.115 8.756-3.126-3.654-7.155-7.377-11.045-7.377zm-.069-5.101c-4.029 0-22.368 8.066-24.869 10.754 2.293-3.24 20.632-12.202 24.87-12.202 3.473 0 7.988 5.515 11.253 9.652-3.265-3.585-7.433-8.204-11.254-8.204zm-.278-4.413c-4.029 0-22.09 8.342-24.66 11.03 2.292-3.24 20.423-12.408 24.66-12.408 3.474 0 8.267 5.79 11.462 9.927-3.195-3.723-7.571-8.549-11.462-8.549zM26.675 89.623c4.793-.62 8.822-.276 12.643.483l-.347-2.138c-7.642 0-12.296 1.655-12.296 1.655zm44.598 2.62s-6.67.62-12.99-.896c-6.322-1.517-10.837-3.31-18.826-3.379h-.486l.347 2.138c6.322 1.24 12.018 3.516 19.45 3.722 8.128.207 12.505-1.585 12.505-1.585zm-43.139-1.379c-8.267-.207-14.171 2.206-14.171 2.206 9.864-1.24 14.518.207 24.174 2.62.625.138 1.32.276 2.084.482l-.556-3.653c-3.334-.897-6.39-1.517-11.531-1.655zM47.723 97c3.196.138 5.558-.138 7.642-.414 4.376-.552 7.572-1.655 7.572-1.655s-1.945.207-4.794.276L46.751 97h.972z" fill="#fff"/><path d="M46.681 94.242c-2.848-.62-5.001-1.24-7.016-1.723l.556 3.653c1.737.345 3.96.69 6.53.828l11.392-1.724c-3.195 0-7.502-.138-11.462-1.034zm5.558 3.998s-9.24 1.104-18.2-1.033c-10.212-2.413-13.755-3.861-24.453-2.482C2.848 95.552 0 97.345 0 97.345c17.992-2.965 24.522 2.62 35.984 2.757 10.003.069 16.255-1.861 16.255-1.861z" fill="#fff"/><path d="M107.464 90.864c.209 0-2.084-.552-6.668-.827-2.779-.207-5.766-.138-8.823.137l-14.24 2.138c-10.212 2.206-14.658 4.826-22.577 7.032-6.53 1.792-11.392 2.413-17.783 2.55-4.307.069-2.918.069-8.197-.206 0 0 3.404 1.378 10.142 1.31 3.682 0 6.669-.138 11.879-.69 18.27-2.068 27.925-8.618 45.222-10.962 2.918-.482 6.252-.689 11.045-.482z" fill="#fff"/><path d="M81.762 91.484c-1.459.276-2.779.552-4.03.828l14.242-2.137c-3.335.206-6.739.689-10.212 1.31zm27.3-.069c-4.237.276-8.892.759-13.337 1.586-11.81 2.344-19.104 6.894-30.843 8.618-3.96.551-5.697.62-8.614.551 2.084.759 7.155.759 8.336.69 9.17-.483 15.977-2.069 22.298-4.137 6.878-2.206 11.601-4.963 22.021-6.342 3.265-.414 7.433-.966 7.433-.966s-.764-.413-7.294 0zm7.711-52.808c.973-1.034 1.459-2.551 1.459-4.55 0-.965-.07-1.793-.278-2.551-.208-.758-.486-1.448-.903-2a3.96 3.96 0 00-1.806-1.31c-.764-.275-1.737-.482-2.987-.482h-8.545v-7.239H115.8v-1.861h-14.379v21.51h11.184c1.876 0 3.265-.483 4.168-1.517zm-12.99-.345v-8.755h8.683c.764 0 1.389.206 1.876.62.486.414.833.896 1.042 1.586.208.69.347 1.447.347 2.344 0 .827-.069 1.585-.278 2.206-.208.62-.556 1.103-.972 1.517-.487.344-1.112.551-1.876.551h-8.822v-.069zm34.316 0h-13.06v-8.686h9.239v-1.862h-9.239v-7.239h13.06v-1.861h-15.421v21.51h15.421v-1.862zm21.049-12.685c0-.965-.07-1.792-.278-2.62-.209-.827-.556-1.585-1.042-2.206-.487-.62-1.112-1.172-1.945-1.517-.834-.344-1.876-.551-3.126-.551h-10.073v21.44h2.362v-7.928h7.919c1.181 0 2.153-.206 2.918-.551a5.301 5.301 0 001.945-1.517 5.61 5.61 0 001.042-2.137c.208-.758.278-1.517.278-2.413zm-2.988 2.413a3.763 3.763 0 01-1.25 1.655c-.556.413-1.32.62-2.153.62h-7.711v-9.79h7.85c.833 0 1.458.207 2.014.62.556.415.973.966 1.25 1.724.278.759.417 1.655.417 2.758 0 .896-.139 1.724-.417 2.413zm23.272 10.272h-13.129v-8.686h9.308v-1.862h-9.308v-7.239h13.129v-1.861H164.01v21.51h15.422v-1.862zm7.571-17.787h11.601v-1.861h-13.962v21.51h2.361v-19.65zm-64.951 53.981l.626-6.618h-4.168V48.19h-13.338c-.139 2.62-.347 5.101-.625 7.376a45.8 45.8 0 01-1.25 6.55c-.556 2.068-1.181 3.93-1.946 5.722h-3.334l.625 6.618h2.015v-4.757h19.381v4.757h2.014zm-5.835-6.618h-12.226c.486-1.38.973-2.758 1.32-4.206.347-1.447.695-2.964.973-4.48.277-1.517.486-3.034.625-4.55.139-1.518.278-3.034.347-4.551h8.961v17.787zm24.036-10.686h-12.018V48.19h-2.292V69.7h2.292V59.15h12.018V69.7h2.292V48.19h-2.292v8.963zm11.809-8.962H149.7V69.7h2.362V48.19zm6.46 21.51h2.362V50.05h11.948v19.648h2.293V48.19h-16.603V69.7zm37.859-9.997c.487-.62.834-1.31 1.042-2.138a9.291 9.291 0 00.348-2.481c0-.966-.07-1.793-.278-2.62-.209-.827-.556-1.586-1.042-2.206-.486-.62-1.112-1.172-1.945-1.517-.834-.345-1.876-.551-3.126-.551h-10.073V69.7h2.362v-7.93h7.919c1.181 0 2.154-.206 2.918-.55.764-.345 1.389-.828 1.875-1.517zm-2.848-.483c-.555.414-1.32.62-2.153.62h-7.711v-9.789h7.85c.833 0 1.459.207 2.014.62.556.414.973.966 1.251 1.724.278.758.416 1.654.416 2.758 0 .896-.138 1.723-.416 2.413-.278.689-.695 1.24-1.251 1.654zm25.286 10.48c-.556-1.173-1.111-2.483-1.667-3.793-.556-1.378-1.181-2.757-1.737-4.205s-1.181-2.965-1.736-4.481c-.556-1.517-1.181-3.034-1.737-4.55-.556-1.517-1.112-2.965-1.598-4.413h-3.959c-1.598 3.585-3.057 7.17-4.446 10.755-1.39 3.585-2.779 7.17-4.029 10.755h2.292c.347-1.103.764-2.206 1.112-3.31.416-1.102.764-2.205 1.18-3.308h10.976c.486 1.172.903 2.344 1.389 3.447.487 1.103.904 2.206 1.32 3.24h2.64v-.138zm-15.63-8.48c.695-1.862 1.459-3.723 2.223-5.585.764-1.861 1.528-3.791 2.362-5.653h.972c.626 1.861 1.32 3.792 1.945 5.722a250.43 250.43 0 002.084 5.584h-9.586v-.069zM98.99 83.212c.138-.345.277-.552.416-.759.14-.207.278-.345.417-.482.139-.138.347-.207.486-.276.209-.07.348-.07.556-.138v2.758h.556v-2.758c.208 0 .417.069.556.069.208.069.347.138.486.276s.278.275.417.482c.139.207.277.483.416.759.139.344.348.689.487 1.172h.625c-.209-.414-.347-.828-.486-1.103a3.734 3.734 0 00-.417-.759c-.139-.207-.278-.413-.348-.551-.138-.138-.208-.276-.347-.345-.139-.069-.208-.138-.347-.207-.139-.069-.209-.069-.347-.138.069-.069.277-.207.486-.413.208-.207.486-.483.764-.828.278-.344.625-.758.972-1.24h-.694c-.209.344-.417.62-.695.896-.208.275-.417.551-.625.758-.208.207-.417.414-.556.62-.139.138-.347.276-.417.414v-2.62h-.416v2.62c-.139-.069-.278-.207-.417-.414a5.487 5.487 0 01-.556-.62c-.208-.207-.417-.483-.625-.758a33.907 33.907 0 00-.695-.897h-.694c.347.483.694.897.972 1.241.278.345.556.62.764.828.209.206.348.344.486.413-.138 0-.208.07-.347.138-.139.069-.208.138-.347.207-.14.069-.209.207-.348.345-.138.138-.208.275-.347.551-.07.138-.139.276-.278.414l.14.965c.138-.207.208-.414.347-.62z" fill="#fff"/><path d="M97.878 84.315h.625c.07-.207.14-.345.209-.483l-.14-.965c-.069.138-.138.207-.138.344-.209.345-.417.69-.556 1.104zm9.517-5.515v5.584h.764c.347-.483.695-.966.973-1.517.347-.552.625-1.034.972-1.586.348-.551.625-1.103.903-1.586v4.758h.556v-5.585h-.695c-.416.828-.903 1.655-1.389 2.482-.486.827-1.042 1.655-1.528 2.482v-4.964h-.556V78.8zm7.086.482h1.945v5.033h.625v-5.033h1.875v-.483h-4.445v.483zm7.78 1.448l-.417 1.861c-.139.62-.347 1.172-.486 1.724h.625c.139-.276.208-.62.278-.966.069-.344.208-.689.278-1.034l.208-1.034c.07-.345.139-.69.139-1.034.07-.345.07-.69.07-.965h2.361v5.102h.556v-5.585H122.4c0 .69-.07 1.31-.139 1.93zm11.601-1.172c-.139-.207-.278-.414-.487-.552-.208-.138-.416-.207-.694-.276-.278-.069-.556-.069-.903-.069-.348 0-.625 0-.903.07-.278.068-.487.137-.695.275a1.283 1.283 0 00-.486.552c-.139.206-.209.482-.278.827-.07.345-.07.69-.07 1.172 0 .483 0 .827.07 1.172.069.345.139.62.278.827.139.207.278.414.486.552.208.138.417.206.695.275.278.07.555.07.903.07.347 0 .694 0 .903-.07.278-.069.486-.137.694-.275a1.28 1.28 0 00.487-.552c.139-.207.208-.482.278-.827.069-.345.069-.758.069-1.172 0-.483 0-.827-.069-1.172 0-.345-.139-.62-.278-.827zm-.278 2.964a8.63 8.63 0 01-.209.69.705.705 0 01-.347.413.792.792 0 01-.556.207c-.208.069-.486.069-.764.069s-.555 0-.764-.07a4.678 4.678 0 01-.556-.206c-.139-.138-.277-.276-.347-.413-.069-.207-.139-.414-.208-.69-.07-.276-.07-.62-.07-.965 0-.414 0-.758.07-1.034.069-.276.139-.483.208-.69a.709.709 0 01.347-.413c.139-.07.348-.138.556-.207.209-.069.486-.069.764-.069s.556 0 .764.069c.209.069.417.138.556.207a.705.705 0 01.347.413c.07.207.139.414.209.69.069.276.069.62.069 1.034 0 .413 0 .69-.069.965zm7.919-.689c-.069-.138-.208-.207-.417-.276a1.394 1.394 0 00-.625-.138c.278 0 .417-.069.625-.138.139-.069.278-.138.348-.276.069-.137.138-.206.138-.344 0-.138.07-.276 0-.483 0-.207 0-.345-.069-.483-.069-.137-.069-.275-.208-.413-.07-.138-.209-.207-.417-.276-.209-.069-.417-.138-.695-.138h-2.709v5.584h2.779c.486 0 .764-.138 1.042-.413.208-.276.347-.69.347-1.172 0-.207 0-.345-.07-.552.07-.276 0-.413-.069-.482zm-3.334-2.551h2.084c.208 0 .347.069.486.138a.378.378 0 01.208.344c.07.138.07.276.07.483v.345c0 .138-.07.207-.139.275l-.209.207c-.069.07-.208.07-.347.07h-2.084v-1.862h-.069zm2.848 4.067c-.07.138-.139.276-.278.414-.139.069-.278.138-.486.138h-2.223v-2.275h2.153c.209 0 .348.069.486.138.139.069.209.207.278.413.07.207.07.345.07.62.139.208.069.346 0 .552zm6.182-2.068c-.486.828-1.042 1.655-1.528 2.482v-4.964h-.556v5.584h.764c.348-.482.695-.965.973-1.516.347-.552.625-1.034.972-1.586.348-.551.626-1.103.903-1.586v4.758h.556v-5.585h-.694c-.417.759-.904 1.586-1.39 2.413zm8.684-3.102c.208-.138.277-.414.277-.758h-.416c0 .137 0 .275-.07.344-.069.07-.139.138-.208.138-.07 0-.209.07-.348.07-.139 0-.277 0-.347-.07-.069 0-.139-.069-.208-.138-.07-.069-.07-.207-.07-.344h-.417c0 .344.07.62.278.758.209.138.417.276.764.276.278-.07.556-.138.765-.276zm-.834 3.102c-.486.828-1.042 1.655-1.528 2.482v-4.964h-.556v5.584h.764c.347-.482.695-.965.973-1.516.347-.552.625-1.034.972-1.586.347-.551.625-1.103.903-1.586v4.758h.556v-5.585h-.695c-.417.759-.903 1.586-1.389 2.413zm11.045 1.172c-.139-.207-.278-.413-.417-.551l-.347-.345c-.139-.069-.278-.138-.347-.207-.139-.069-.278-.069-.417-.138.139-.069.278-.207.556-.413l.833-.828c.348-.344.695-.758 1.112-1.24h-.834c-.278.344-.556.62-.764.896-.278.275-.486.551-.764.758l-.625.62c-.209.207-.348.276-.487.414V78.73h-.555v5.585h.555v-2.758c.209 0 .487.069.695.069.208.069.417.138.556.276.208.138.347.275.486.482.139.207.347.483.486.759.209.344.348.689.556 1.172h.695l-.556-1.103a7.507 7.507 0 00-.417-.759zm8.267-2.895c-.139-.207-.278-.414-.487-.552-.208-.138-.417-.207-.694-.276-.278-.069-.556-.069-.903-.069-.348 0-.626 0-.904.07-.277.068-.486.137-.694.275a1.27 1.27 0 00-.486.552c-.139.206-.209.482-.278.827-.07.345-.07.69-.07 1.172 0 .483 0 .827.07 1.172.069.345.139.62.278.827.138.207.277.414.486.552.208.138.417.206.694.275.278.07.556.07.904.07.347 0 .694 0 .903-.07.277-.069.486-.137.694-.275a1.28 1.28 0 00.487-.552c.138-.207.208-.482.277-.827.07-.345.07-.758.07-1.172 0-.483 0-.827-.07-1.172-.069-.345-.139-.62-.277-.827zm-.278 2.964a8.63 8.63 0 01-.209.69.705.705 0 01-.347.413.792.792 0 01-.556.207c-.208.069-.486.069-.764.069s-.556 0-.764-.07a4.678 4.678 0 01-.556-.206c-.139-.138-.278-.276-.347-.413a8.63 8.63 0 01-.209-.69c-.069-.276-.069-.62-.069-.965 0-.414 0-.758.069-1.034.07-.276.139-.483.209-.69a.705.705 0 01.347-.413c.139-.07.348-.138.556-.207.208-.069.486-.069.764-.069s.556 0 .764.069c.209.069.417.138.556.207a.705.705 0 01.347.413c.07.207.139.414.209.69.069.276.069.62.069 1.034 0 .413-.069.69-.069.965zm7.502-1.654c-.347.689-.625 1.378-.903 2.068-.278-.69-.556-1.38-.903-2.069-.278-.689-.625-1.378-.973-2.068h-.764v5.584h.556V79.42c.347.69.625 1.448.973 2.137.347.69.625 1.448.903 2.137h.416c.278-.69.626-1.379.903-2.137.348-.69.626-1.448.973-2.206v4.895h.556V78.66h-.834a16.32 16.32 0 01-.903 2.207zm5.419 3.447h.555v-5.033h2.987v5.033h.556v-5.516h-4.098v5.516zm8.127-3.585l-.417 1.861c-.139.62-.347 1.172-.486 1.724h.625c.139-.276.209-.62.278-.966.069-.344.208-.689.278-1.034l.208-1.034c.07-.345.139-.69.139-1.034.07-.345.07-.69.07-.965h2.362v5.102h.555v-5.585h-3.473c.069.69 0 1.31-.139 1.93zm7.225 3.585h3.89V83.9h-3.265v-2.275h2.292v-.483h-2.292v-1.861h3.265v-.483h-3.89v5.516zm9.933-1.862c-.139-.207-.278-.413-.417-.551a81.381 81.381 0 00-.347-.345c-.139-.069-.278-.138-.347-.207-.139-.069-.278-.069-.417-.138.139-.069.278-.207.556-.413l.833-.828c.348-.344.695-.758 1.112-1.24h-.764c-.278.344-.556.62-.764.896-.278.275-.487.551-.765.758l-.625.62c-.208.207-.347.276-.486.414V78.73h-.556v5.585h.556v-2.758c.208 0 .486.069.695.069.208.069.416.138.555.276.209.138.348.275.487.482.139.207.347.483.486.759.208.344.347.689.556 1.172h.694l-.555-1.103c-.139-.276-.278-.552-.487-.759zm7.225 1.379c-.139 0-.209.069-.348.069-.139 0-.277 0-.347.069h-.347c-.278 0-.556 0-.764-.069a4.777 4.777 0 01-.556-.207c-.139-.069-.278-.276-.347-.413a8.604 8.604 0 01-.209-.69c-.069-.276-.069-.62-.069-1.034 0-.414 0-.758.069-1.034.07-.276.139-.483.209-.69.069-.206.208-.275.347-.413.139-.07.347-.138.556-.207.208-.069.486-.069.764-.069h.347c.139 0 .278 0 .347.069.139 0 .209.069.348.069.139 0 .208.069.278.069l.208-.552c-.139-.069-.278-.069-.486-.138-.209 0-.348-.069-.556-.069h-.556c-.347 0-.625 0-.903.07-.278.068-.486.137-.694.275a1.278 1.278 0 00-.487.552c-.139.207-.208.482-.278.827-.069.345-.069.69-.069 1.172 0 .483 0 .827.069 1.172.07.345.139.62.278.827.139.207.278.414.487.552.208.138.416.207.694.276.278.069.556.069.903.069h.556c.208 0 .347-.07.556-.07.208 0 .347-.068.486-.137l-.208-.483c-.07.07-.139.07-.278.138z" fill="#fff"/></svg>