<svg viewBox="0 0 27 27" fill="none" xmlns="http://www.w3.org/2000/svg"><g clip-path="url(#clip0)"><path d="M26.624 22.452l-3.807 3.777c-.562.576-1.307.771-2.032.772-3.208-.096-6.24-1.672-8.73-3.29-4.086-2.973-7.836-6.66-10.19-11.114C.964 10.73-.094 8.346.006 6.261c.01-.785.22-1.554.773-2.06L4.585.396c.79-.672 1.555-.44 2.06.343l3.063 5.808c.322.688.138 1.425-.343 1.916L7.962 9.865a.689.689 0 00-.143.4c.538 2.082 2.167 4.001 3.606 5.322 1.44 1.32 2.987 3.11 4.995 3.533.248.069.552.093.73-.072l1.631-1.66c.563-.425 1.375-.634 1.975-.285h.029l5.524 3.261c.81.508.895 1.49.315 2.088z" fill="#fff"/></g><defs><clipPath id="clip0"><path fill="#fff" d="M0 0h27v27H0z"/></clipPath></defs></svg>