<svg viewBox="0 0 18 18" xmlns="http://www.w3.org/2000/svg"><path d="M.433 7.108a6.674 6.674 0 0010.77 5.271l.902.902-1.368 1.368a.18.18 0 000 .25l.874.874a.179.179 0 00.25 0l1.368-1.368.986.986-1.368 1.368a.18.18 0 000 .25l.873.874a.18.18 0 00.25 0l1.369-1.368 1.433 1.434a.176.176 0 00.248 0l.93-.929a.176.176 0 000-.248l-5.569-5.568a6.676 6.676 0 001.401-4.096 6.674 6.674 0 10-13.349 0zm10.214-3.54a4.967 4.967 0 011.466 3.54c0 1.337-.52 2.595-1.466 3.539a4.966 4.966 0 01-3.54 1.466 4.967 4.967 0 01-3.538-1.466 4.967 4.967 0 01-1.467-3.54c0-1.336.52-2.594 1.467-3.539a4.967 4.967 0 013.539-1.466c1.337 0 2.595.52 3.539 1.466z"/></svg>