<svg width="10" height="32" viewBox="0 0 10 32" fill="none" xmlns="http://www.w3.org/2000/svg">
<path d="M2.62627 12.9433V1.07803L1.31311 0V14.2508L2.62627 12.9433Z" fill="white"/>
<path d="M7.8859 7.72703V5.36233L6.5658 4.27734V9.04153L7.8859 7.72703Z" fill="white"/>
<path d="M5.25261 10.3278V3.21279L3.93945 2.13477V11.6423L5.25261 10.3278Z" fill="white"/>
<path d="M6.5658 19.0498V30.936L7.8859 32.0001V17.7354L6.5658 19.0498Z" fill="white"/>
<path d="M1.32007 24.3146V26.6515L2.63322 27.7226V22.9653L1.32007 24.3146Z" fill="white"/>
<path d="M3.94641 21.6578V28.7867L5.25957 29.8577V20.3433L3.94641 21.6578Z" fill="white"/>
<path d="M9.19902 16.4348V6.4126L7.88586 7.7271V17.7562L9.19902 16.4348Z" fill="white"/>
<path d="M6.56572 19.0499V9.03467L5.25256 10.3422V20.3644L6.56572 19.0499Z" fill="white"/>
<path d="M3.94646 21.665V11.6289L2.6333 12.9434V22.9795L3.94646 21.665Z" fill="white"/>
<path d="M1.31316 24.322V14.2441L0 15.5586V25.6295L1.31316 24.322Z" fill="white"/>
</svg>
