<svg width="237" height="154" viewBox="0 0 237 154" fill="none" xmlns="http://www.w3.org/2000/svg">
<path d="M204.232 79.2593L180.024 124.278L191.86 117.684L208.512 86.7902L224.963 117.45L237 124.278L212.792 79.2593H204.232Z" fill="white"/>
<path d="M98.4379 83.075C95.7407 80.5312 92.0961 79.2593 87.5041 79.2593H51.8605V118.387L59.3169 125.851V107.107H86.0663C91.4162 107.107 95.4843 105.924 98.2707 103.559C101.057 101.194 102.45 97.7799 102.45 93.3171C102.45 89.0551 101.102 85.6411 98.4045 83.075H98.4379ZM86.2001 100.413H59.3169V85.9869H85.6985C91.784 85.9869 94.8268 88.475 94.8268 93.451C94.8268 98.0923 91.9512 100.413 86.2001 100.413Z" fill="white"/>
<path d="M118.467 123.341V79.2593H111.044V115.91L118.467 123.341Z" fill="white"/>
<path d="M140.969 117.55V104.262H160.296L166.983 97.5344H140.969V85.9869H171.497L178.185 79.2593H133.513V124.278H171.731L178.419 117.55H140.969Z" fill="white"/>
<path d="M12.6391 62.2895V5.188L6.31958 0V68.582L12.6391 62.2895Z" fill="#84BC35"/>
<path d="M37.9508 37.1861V25.8059L31.5978 20.5845V43.5121L37.9508 37.1861Z" fill="#84BC35"/>
<path d="M25.2782 49.7042V15.4634L18.9586 10.2754V56.0302L25.2782 49.7042Z" fill="#84BC35"/>
<path d="M31.5978 91.6771V148.879L37.9508 154V85.3511L31.5978 91.6771Z" fill="#84BC35"/>
<path d="M6.35303 117.014V128.261L12.6726 133.415V110.521L6.35303 117.014Z" fill="#84BC35"/>
<path d="M18.9921 104.229V138.537L25.3116 143.691V97.9028L18.9921 104.229Z" fill="#84BC35"/>
<path d="M44.2704 79.0921V30.8604L37.9508 37.1864V85.4515L44.2704 79.0921Z" fill="#00B8EB"/>
<path d="M31.5978 91.6772V43.479L25.2782 49.7715V98.0032L31.5978 91.6772Z" fill="#00B8EB"/>
<path d="M18.992 104.262V55.9634L12.6725 62.2894V110.588L18.992 104.262Z" fill="#00B8EB"/>
<path d="M6.31955 117.048V68.5488L0 74.8748V123.341L6.31955 117.048Z" fill="#00B8EB"/>
</svg>
