<svg width="22" height="22" viewBox="0 0 22 22" fill="none" xmlns="http://www.w3.org/2000/svg">
<path d="M13.9334 14.3C13.9334 14.0976 13.7691 13.9333 13.5667 13.9333C13.3643 13.9333 13.2001 14.0976 13.2001 14.3V15.0334C13.2001 15.2357 13.3643 15.4 13.5667 15.4C13.7691 15.4 13.9334 15.2357 13.9334 15.0334V14.3Z" fill="url(#paint0_linear)"/>
<path d="M13.5667 18.3335C13.3643 18.3335 13.2001 18.4978 13.2001 18.7001V20.1668C13.2001 20.3692 13.3643 20.5335 13.5667 20.5335C13.7691 20.5335 13.9334 20.3692 13.9334 20.1668V18.7001C13.9334 18.4978 13.7692 18.3335 13.5667 18.3335Z" fill="url(#paint1_linear)"/>
<path d="M15.4001 9.9001C15.4001 9.69772 15.2358 9.53345 15.0334 9.53345C14.831 9.53345 14.6667 9.69772 14.6667 9.9001V10.6334C14.6667 10.8358 14.831 11.0001 15.0334 11.0001C15.2358 11.0001 15.4001 10.8358 15.4001 10.6334V9.9001Z" fill="url(#paint2_linear)"/>
<path d="M13.9334 12.1001C13.9334 11.8977 13.7691 11.7334 13.5667 11.7334C13.3643 11.7334 13.2001 11.8977 13.2001 12.1001V12.8334C13.2001 13.0358 13.3643 13.2001 13.5667 13.2001C13.7691 13.2001 13.9334 13.0358 13.9334 12.8334V12.1001Z" fill="url(#paint3_linear)"/>
<path d="M13.9334 16.5C13.9334 16.2976 13.7692 16.1333 13.5668 16.1333C13.3644 16.1333 13.2001 16.2976 13.2001 16.5V17.2333C13.2001 17.4357 13.3643 17.6 13.5667 17.6C13.7691 17.6 13.9334 17.4357 13.9334 17.2333V16.5H13.9334Z" fill="url(#paint4_linear)"/>
<path d="M15.4001 12.1001C15.4001 11.8977 15.2358 11.7334 15.0334 11.7334C14.831 11.7334 14.6667 11.8977 14.6667 12.1001V12.8334C14.6667 13.0358 14.831 13.2001 15.0334 13.2001C15.2358 13.2001 15.4001 13.0358 15.4001 12.8334V12.1001Z" fill="url(#paint5_linear)"/>
<path d="M12.4667 9.9001C12.4667 9.69772 12.3024 9.53345 12.1001 9.53345C11.8977 9.53345 11.7334 9.69772 11.7334 9.9001V10.6334C11.7334 10.8358 11.8977 11.0001 12.1001 11.0001C12.3024 11.0001 12.4667 10.8358 12.4667 10.6334V9.9001Z" fill="url(#paint6_linear)"/>
<path d="M13.9334 9.9001C13.9334 9.69772 13.7691 9.53345 13.5667 9.53345C13.3643 9.53345 13.2001 9.69772 13.2001 9.9001V10.6334C13.2001 10.8358 13.3643 11.0001 13.5667 11.0001C13.7691 11.0001 13.9334 10.8358 13.9334 10.6334V9.9001Z" fill="url(#paint7_linear)"/>
<path d="M15.4001 6.2333V5.49995C15.4001 5.29757 15.2358 5.1333 15.0334 5.1333C14.831 5.1333 14.6667 5.29757 14.6667 5.49995V6.2333C14.6667 6.43568 14.831 6.59995 15.0334 6.59995C15.2358 6.59995 15.4001 6.43568 15.4001 6.2333Z" fill="url(#paint8_linear)"/>
<path d="M12.4667 12.1001C12.4667 11.8977 12.3024 11.7334 12.1001 11.7334C11.8977 11.7334 11.7334 11.8977 11.7334 12.1001V12.8334C11.7334 13.0358 11.8977 13.2001 12.1001 13.2001C12.3024 13.2001 12.4667 13.0358 12.4667 12.8334V12.1001Z" fill="url(#paint9_linear)"/>
<path d="M16.8667 5.49995C16.8667 5.29757 16.7025 5.1333 16.5001 5.1333C16.2977 5.1333 16.1334 5.29757 16.1334 5.49995V6.2333C16.1334 6.43568 16.2977 6.59995 16.5001 6.59995C16.7025 6.59995 16.8667 6.43568 16.8667 6.2333V5.49995Z" fill="url(#paint10_linear)"/>
<path d="M12.1001 13.9333C11.8977 13.9333 11.7334 14.0976 11.7334 14.3V15.0334C11.7334 15.2357 11.8977 15.4 12.1001 15.4C12.3024 15.4 12.4667 15.2357 12.4667 15.0334V14.3C12.4667 14.0976 12.3024 13.9333 12.1001 13.9333Z" fill="url(#paint11_linear)"/>
<path d="M18.3333 16.5C18.3333 16.2976 18.1691 16.1333 17.9667 16.1333C17.7643 16.1333 17.6 16.2976 17.6 16.5V17.2333C17.6 17.4357 17.7642 17.6 17.9666 17.6C18.169 17.6 18.3333 17.4357 18.3333 17.2333V16.5H18.3333Z" fill="url(#paint12_linear)"/>
<path d="M17.9666 18.3335C17.7642 18.3335 17.6 18.4978 17.6 18.7001V20.1668C17.6 20.3692 17.7642 20.5335 17.9666 20.5335C18.169 20.5335 18.3333 20.3692 18.3333 20.1668V18.7001C18.3333 18.4978 18.1691 18.3335 17.9666 18.3335Z" fill="url(#paint13_linear)"/>
<path d="M19.4333 13.9333C19.2309 13.9333 19.0667 14.0976 19.0667 14.3V15.0334C19.0667 15.2357 19.2309 15.4 19.4333 15.4C19.6357 15.4 19.8 15.2357 19.8 15.0334V14.3C19.8 14.0976 19.6357 13.9333 19.4333 13.9333Z" fill="url(#paint14_linear)"/>
<path d="M13.5667 6.59996C13.7691 6.59996 13.9334 6.43569 13.9334 6.2333V4.68634L17.6001 3.76964V9.89996C17.6001 10.0528 17.695 10.1896 17.838 10.2435L20.5334 11.2541V15.0333C20.5334 15.2357 20.6977 15.4 20.9001 15.4C21.1025 15.4 21.2667 15.2357 21.2667 15.0333V11C21.2667 10.8471 21.1718 10.7103 21.0288 10.6564L18.3334 9.64584V2.5666C18.3334 2.36422 18.1691 2.19995 17.9667 2.19995C17.7643 2.19995 17.6001 2.36422 17.6001 2.5666V3.01357L13.4777 4.04426C13.3145 4.08495 13.2001 4.23164 13.2001 4.39991V6.23326C13.2001 6.43569 13.3643 6.59996 13.5667 6.59996Z" fill="url(#paint15_linear)"/>
<path d="M19.8 12.1001C19.8 11.8977 19.6357 11.7334 19.4333 11.7334C19.2309 11.7334 19.0667 11.8977 19.0667 12.1001V12.8334C19.0667 13.0358 19.2309 13.2001 19.4333 13.2001C19.6357 13.2001 19.8 13.0358 19.8 12.8334V12.1001Z" fill="url(#paint16_linear)"/>
<path d="M18.3334 12.1001C18.3334 11.8977 18.1691 11.7334 17.9668 11.7334C17.7644 11.7334 17.6001 11.8977 17.6001 12.1001V12.8334C17.6001 13.0358 17.7644 13.2001 17.9668 13.2001C18.1691 13.2001 18.3334 13.0358 18.3334 12.8334V12.1001Z" fill="url(#paint17_linear)"/>
<path d="M15.4001 16.5C15.4001 16.2976 15.2358 16.1333 15.0334 16.1333C14.831 16.1333 14.6667 16.2976 14.6667 16.5V17.2333C14.6667 17.4357 14.831 17.6 15.0334 17.6C15.2358 17.6 15.4001 17.4357 15.4001 17.2333V16.5Z" fill="url(#paint18_linear)"/>
<path d="M18.3334 14.3C18.3334 14.0976 18.1691 13.9333 17.9668 13.9333C17.7644 13.9333 17.6001 14.0976 17.6001 14.3V15.0334C17.6001 15.2357 17.7644 15.4 17.9668 15.4C18.1691 15.4 18.3334 15.2357 18.3334 15.0334V14.3Z" fill="url(#paint19_linear)"/>
<path d="M15.0334 18.3335C14.831 18.3335 14.6667 18.4978 14.6667 18.7001V20.1668C14.6667 20.3692 14.831 20.5335 15.0334 20.5335C15.2358 20.5335 15.4001 20.3692 15.4001 20.1668V18.7001C15.4001 18.4978 15.2358 18.3335 15.0334 18.3335Z" fill="url(#paint20_linear)"/>
<path d="M15.4001 14.3C15.4001 14.0976 15.2358 13.9333 15.0334 13.9333C14.831 13.9333 14.6667 14.0976 14.6667 14.3V15.0334C14.6667 15.2357 14.831 15.4 15.0334 15.4C15.2358 15.4 15.4001 15.2357 15.4001 15.0334V14.3Z" fill="url(#paint21_linear)"/>
<path d="M16.4999 20.5332C16.7023 20.5332 16.8666 20.3689 16.8666 20.1665V8.43317C16.8666 8.26486 16.7518 8.11821 16.589 8.07752L10.7224 6.61082C10.6135 6.58332 10.4965 6.60824 10.4078 6.67755C10.3186 6.74686 10.2666 6.85355 10.2666 6.96647V15.0331C10.2666 15.2355 10.4309 15.3998 10.6333 15.3998C10.8356 15.3998 10.9999 15.2355 10.9999 15.0331V7.43621L16.1333 8.71956V20.1665C16.1333 20.3689 16.2976 20.5332 16.4999 20.5332Z" fill="url(#paint22_linear)"/>
<path d="M8.06667 7.70015C8.06667 7.49776 7.9024 7.3335 7.70002 7.3335C7.49764 7.3335 7.33337 7.49776 7.33337 7.70015V8.43349C7.33337 8.63587 7.49764 8.80014 7.70002 8.80014C7.9024 8.80014 8.06667 8.63587 8.06667 8.43349V7.70015Z" fill="url(#paint23_linear)"/>
<path d="M8.06667 5.49995C8.06667 5.29757 7.9024 5.1333 7.70002 5.1333C7.49764 5.1333 7.33337 5.29757 7.33337 5.49995V6.2333C7.33337 6.43568 7.49764 6.59995 7.70002 6.59995C7.9024 6.59995 8.06667 6.43568 8.06667 6.2333V5.49995Z" fill="url(#paint24_linear)"/>
<path d="M5.13337 16.5C5.13337 16.2976 4.9691 16.1333 4.76672 16.1333C4.56434 16.1333 4.40002 16.2976 4.40002 16.5V17.2333C4.40002 17.4357 4.56429 17.6 4.76668 17.6C4.96906 17.6 5.13333 17.4357 5.13333 17.2333V16.5H5.13337Z" fill="url(#paint25_linear)"/>
<path d="M1.83337 13.2001C2.03575 13.2001 2.20002 13.0359 2.20002 12.8335V11.0001H5.86667V20.1668C5.86667 20.3692 6.03094 20.5334 6.23333 20.5334C6.43571 20.5334 6.59998 20.3692 6.59998 20.1668V10.6335C6.59998 10.4311 6.43571 10.2668 6.23333 10.2668H1.83333C1.63094 10.2668 1.46667 10.4311 1.46667 10.6335V12.8335C1.46667 13.0359 1.63094 13.2001 1.83337 13.2001Z" fill="url(#paint26_linear)"/>
<path d="M5.86658 7.70015V8.43349C5.86658 8.63587 6.03085 8.80014 6.23323 8.80014C6.43561 8.80014 6.59988 8.63587 6.59988 8.43349V7.70015C6.59988 7.49776 6.43561 7.3335 6.23323 7.3335C6.03085 7.3335 5.86658 7.49776 5.86658 7.70015Z" fill="url(#paint27_linear)"/>
<path d="M8.06667 3.3C8.06667 3.09762 7.9024 2.93335 7.70002 2.93335C7.49764 2.93335 7.33337 3.09762 7.33337 3.3V4.03335C7.33337 4.23573 7.49764 4.4 7.70002 4.4C7.9024 4.4 8.06667 4.23573 8.06667 4.03335V3.3Z" fill="url(#paint28_linear)"/>
<path d="M4.76668 18.3335C4.56429 18.3335 4.40002 18.4978 4.40002 18.7001V20.1668C4.40002 20.3692 4.56429 20.5335 4.76668 20.5335C4.96906 20.5335 5.13333 20.3692 5.13333 20.1668V18.7001C5.13337 18.4978 4.9691 18.3335 4.76668 18.3335Z" fill="url(#paint29_linear)"/>
<path d="M21.6333 21.2667H20.9V19.0146C21.5307 18.8507 22 18.2813 22 17.6C22 16.7911 21.3422 16.1334 20.5333 16.1334C19.7245 16.1334 19.0667 16.7912 19.0667 17.6C19.0667 18.2813 19.536 18.8507 20.1667 19.0146V21.2667H11V19.763C11.8356 19.5925 12.4667 18.8522 12.4667 17.9667C12.4667 16.9558 11.6442 16.1334 10.6333 16.1334C9.62242 16.1334 8.79996 16.9558 8.79996 17.9667C8.79996 18.8522 9.431 19.5925 10.2666 19.763V21.2667H2.2V17.563C3.03561 17.3925 3.66665 16.6522 3.66665 15.7667C3.66665 14.7558 2.84423 13.9333 1.8333 13.9333C0.822422 13.9334 0 14.7558 0 15.7667C0 16.6522 0.631039 17.3925 1.46665 17.563V21.2667H0.366652C0.16427 21.2667 0 21.431 0 21.6334C0 21.8357 0.16427 22 0.366652 22H21.6333C21.8357 22 22 21.8358 22 21.6334C22 21.431 21.8357 21.2667 21.6333 21.2667ZM0.733348 15.7667C0.733348 15.1602 1.22689 14.6667 1.83335 14.6667C2.43981 14.6667 2.93335 15.1602 2.93335 15.7667C2.93335 16.3732 2.43981 16.8667 1.83335 16.8667C1.22689 16.8667 0.733348 16.3732 0.733348 15.7667ZM9.53335 17.9667C9.53335 17.3602 10.0269 16.8667 10.6333 16.8667C11.2398 16.8667 11.7333 17.3602 11.7333 17.9667C11.7333 18.5732 11.2398 19.0667 10.6333 19.0667C10.0269 19.0667 9.53335 18.5732 9.53335 17.9667ZM19.8 17.6C19.8 17.1956 20.1289 16.8667 20.5333 16.8667C20.9378 16.8667 21.2667 17.1956 21.2667 17.6C21.2667 18.0045 20.9378 18.3334 20.5333 18.3334C20.1289 18.3334 19.8 18.0045 19.8 17.6Z" fill="url(#paint30_linear)"/>
<path d="M2.93335 18.7001V20.1668C2.93335 20.3692 3.09762 20.5335 3.3 20.5335C3.50238 20.5335 3.66665 20.3692 3.66665 20.1668V18.7001C3.66665 18.4978 3.50238 18.3335 3.3 18.3335C3.09762 18.3335 2.93335 18.4978 2.93335 18.7001Z" fill="url(#paint31_linear)"/>
<path d="M5.13333 12.1001C5.13333 11.8977 4.96906 11.7334 4.76668 11.7334C4.56429 11.7334 4.40002 11.8977 4.40002 12.1001V12.8334C4.40002 13.0358 4.56429 13.2001 4.76668 13.2001C4.96906 13.2001 5.13333 13.0358 5.13333 12.8334V12.1001Z" fill="url(#paint32_linear)"/>
<path d="M5.13333 14.3C5.13333 14.0976 4.96906 13.9333 4.76668 13.9333C4.56429 13.9333 4.40002 14.0976 4.40002 14.3V15.0334C4.40002 15.2357 4.56429 15.4 4.76668 15.4C4.96906 15.4 5.13333 15.2357 5.13333 15.0334V14.3Z" fill="url(#paint33_linear)"/>
<path d="M2.93335 12.1001V12.8334C2.93335 13.0358 3.09762 13.2001 3.3 13.2001C3.50238 13.2001 3.66665 13.0358 3.66665 12.8334V12.1001C3.66665 11.8977 3.50238 11.7334 3.3 11.7334C3.09762 11.7334 2.93335 11.8977 2.93335 12.1001Z" fill="url(#paint34_linear)"/>
<path d="M8.06667 14.3C8.06667 14.0976 7.9024 13.9333 7.70002 13.9333C7.49764 13.9333 7.33337 14.0976 7.33337 14.3V15.0334C7.33337 15.2357 7.49764 15.4 7.70002 15.4C7.9024 15.4 8.06667 15.2357 8.06667 15.0334V14.3Z" fill="url(#paint35_linear)"/>
<path d="M9.53335 9.9001C9.53335 9.69772 9.36908 9.53345 9.1667 9.53345C8.96432 9.53345 8.80005 9.69772 8.80005 9.9001V10.6334C8.80005 10.8358 8.96432 11.0001 9.1667 11.0001C9.36908 11.0001 9.53335 10.8358 9.53335 10.6334V9.9001Z" fill="url(#paint36_linear)"/>
<path d="M9.53335 7.70015C9.53335 7.49776 9.36908 7.3335 9.1667 7.3335C8.96432 7.3335 8.80005 7.49776 8.80005 7.70015V8.43349C8.80005 8.63587 8.96432 8.80014 9.1667 8.80014C9.36908 8.80014 9.53335 8.63587 9.53335 8.43349V7.70015Z" fill="url(#paint37_linear)"/>
<path d="M9.53335 12.1001C9.53335 11.8977 9.36908 11.7334 9.1667 11.7334C8.96432 11.7334 8.80005 11.8977 8.80005 12.1001V12.8334C8.80005 13.0358 8.96432 13.2001 9.1667 13.2001C9.36908 13.2001 9.53335 13.0358 9.53335 12.8334V12.1001Z" fill="url(#paint38_linear)"/>
<path d="M9.16658 13.9333C8.9642 13.9333 8.79993 14.0976 8.79993 14.3V15.0334C8.79993 15.2357 8.9642 15.4 9.16658 15.4C9.36896 15.4 9.53323 15.2357 9.53323 15.0334V14.3C9.53327 14.0976 9.369 13.9333 9.16658 13.9333Z" fill="url(#paint39_linear)"/>
<path d="M9.53335 5.49995C9.53335 5.29757 9.36908 5.1333 9.1667 5.1333C8.96432 5.1333 8.80005 5.29757 8.80005 5.49995V6.2333C8.80005 6.43568 8.96432 6.59995 9.1667 6.59995C9.36908 6.59995 9.53335 6.43568 9.53335 6.2333V5.49995Z" fill="url(#paint40_linear)"/>
<path d="M8.06667 16.5C8.06667 16.2976 7.9024 16.1333 7.70002 16.1333C7.49764 16.1333 7.33337 16.2976 7.33337 16.5V17.2333C7.33337 17.4357 7.49764 17.6 7.70002 17.6C7.9024 17.6 8.06667 17.4357 8.06667 17.2333V16.5Z" fill="url(#paint41_linear)"/>
<path d="M4.76663 9.53335C4.96902 9.53335 5.13329 9.36908 5.13329 9.16669V6.45992L6.39717 5.82815C6.52148 5.7658 6.59994 5.63896 6.59994 5.5V2.42662L8.43328 1.50996L10.2666 2.42662V5.5C10.2666 5.70238 10.4309 5.86665 10.6333 5.86665C10.8357 5.86665 11 5.70238 11 5.5V2.2C11 2.06104 10.9215 1.93415 10.7972 1.87185L8.79998 0.873383V0.366652C8.79998 0.16427 8.63571 0 8.43332 0C8.23094 0 8.06667 0.16427 8.06667 0.366652V0.873383L6.06944 1.8718C5.94514 1.93415 5.86667 2.061 5.86667 2.19996V5.27334L4.60279 5.90511C4.47849 5.96746 4.40002 6.0943 4.40002 6.23326V9.16661C4.39998 9.36908 4.56425 9.53335 4.76663 9.53335Z" fill="url(#paint42_linear)"/>
<path d="M8.06667 12.1001C8.06667 11.8977 7.9024 11.7334 7.70002 11.7334C7.49764 11.7334 7.33337 11.8977 7.33337 12.1001V12.8334C7.33337 13.0358 7.49764 13.2001 7.70002 13.2001C7.9024 13.2001 8.06667 13.0358 8.06667 12.8334V12.1001Z" fill="url(#paint43_linear)"/>
<path d="M7.70002 18.3335C7.49764 18.3335 7.33337 18.4978 7.33337 18.7001V20.1668C7.33337 20.3692 7.49764 20.5335 7.70002 20.5335C7.9024 20.5335 8.06667 20.3692 8.06667 20.1668V18.7001C8.06667 18.4978 7.9024 18.3335 7.70002 18.3335Z" fill="url(#paint44_linear)"/>
<path d="M9.53335 3.3C9.53335 3.09762 9.36908 2.93335 9.1667 2.93335C8.96432 2.93335 8.80005 3.09762 8.80005 3.3V4.03335C8.80005 4.23573 8.96432 4.4 9.1667 4.4C9.36908 4.4 9.53335 4.23573 9.53335 4.03335V3.3Z" fill="url(#paint45_linear)"/>
<path d="M8.06667 9.9001C8.06667 9.69772 7.9024 9.53345 7.70002 9.53345C7.49764 9.53345 7.33337 9.69772 7.33337 9.9001V10.6334C7.33337 10.8358 7.49764 11.0001 7.70002 11.0001C7.9024 11.0001 8.06667 10.8358 8.06667 10.6334V9.9001Z" fill="url(#paint46_linear)"/>
<defs>
<linearGradient id="paint0_linear" x1="13.5667" y1="13.9333" x2="13.5667" y2="15.4" gradientUnits="userSpaceOnUse">
<stop stop-color="#EB7070"/>
<stop offset="1" stop-color="#2B5878"/>
</linearGradient>
<linearGradient id="paint1_linear" x1="13.5667" y1="18.3335" x2="13.5667" y2="20.5335" gradientUnits="userSpaceOnUse">
<stop stop-color="#EB7070"/>
<stop offset="1" stop-color="#2B5878"/>
</linearGradient>
<linearGradient id="paint2_linear" x1="15.0334" y1="9.53345" x2="15.0334" y2="11.0001" gradientUnits="userSpaceOnUse">
<stop stop-color="#EB7070"/>
<stop offset="1" stop-color="#2B5878"/>
</linearGradient>
<linearGradient id="paint3_linear" x1="13.5667" y1="11.7334" x2="13.5667" y2="13.2001" gradientUnits="userSpaceOnUse">
<stop stop-color="#EB7070"/>
<stop offset="1" stop-color="#2B5878"/>
</linearGradient>
<linearGradient id="paint4_linear" x1="13.5668" y1="16.1333" x2="13.5668" y2="17.6" gradientUnits="userSpaceOnUse">
<stop stop-color="#EB7070"/>
<stop offset="1" stop-color="#2B5878"/>
</linearGradient>
<linearGradient id="paint5_linear" x1="15.0334" y1="11.7334" x2="15.0334" y2="13.2001" gradientUnits="userSpaceOnUse">
<stop stop-color="#EB7070"/>
<stop offset="1" stop-color="#2B5878"/>
</linearGradient>
<linearGradient id="paint6_linear" x1="12.1001" y1="9.53345" x2="12.1001" y2="11.0001" gradientUnits="userSpaceOnUse">
<stop stop-color="#EB7070"/>
<stop offset="1" stop-color="#2B5878"/>
</linearGradient>
<linearGradient id="paint7_linear" x1="13.5667" y1="9.53345" x2="13.5667" y2="11.0001" gradientUnits="userSpaceOnUse">
<stop stop-color="#EB7070"/>
<stop offset="1" stop-color="#2B5878"/>
</linearGradient>
<linearGradient id="paint8_linear" x1="15.0334" y1="5.1333" x2="15.0334" y2="6.59995" gradientUnits="userSpaceOnUse">
<stop stop-color="#EB7070"/>
<stop offset="1" stop-color="#2B5878"/>
</linearGradient>
<linearGradient id="paint9_linear" x1="12.1001" y1="11.7334" x2="12.1001" y2="13.2001" gradientUnits="userSpaceOnUse">
<stop stop-color="#EB7070"/>
<stop offset="1" stop-color="#2B5878"/>
</linearGradient>
<linearGradient id="paint10_linear" x1="16.5001" y1="5.1333" x2="16.5001" y2="6.59995" gradientUnits="userSpaceOnUse">
<stop stop-color="#EB7070"/>
<stop offset="1" stop-color="#2B5878"/>
</linearGradient>
<linearGradient id="paint11_linear" x1="12.1001" y1="13.9333" x2="12.1001" y2="15.4" gradientUnits="userSpaceOnUse">
<stop stop-color="#EB7070"/>
<stop offset="1" stop-color="#2B5878"/>
</linearGradient>
<linearGradient id="paint12_linear" x1="17.9667" y1="16.1333" x2="17.9667" y2="17.6" gradientUnits="userSpaceOnUse">
<stop stop-color="#EB7070"/>
<stop offset="1" stop-color="#2B5878"/>
</linearGradient>
<linearGradient id="paint13_linear" x1="17.9666" y1="18.3335" x2="17.9666" y2="20.5335" gradientUnits="userSpaceOnUse">
<stop stop-color="#EB7070"/>
<stop offset="1" stop-color="#2B5878"/>
</linearGradient>
<linearGradient id="paint14_linear" x1="19.4333" y1="13.9333" x2="19.4333" y2="15.4" gradientUnits="userSpaceOnUse">
<stop stop-color="#EB7070"/>
<stop offset="1" stop-color="#2B5878"/>
</linearGradient>
<linearGradient id="paint15_linear" x1="17.2334" y1="2.19995" x2="17.2334" y2="15.4" gradientUnits="userSpaceOnUse">
<stop stop-color="#EB7070"/>
<stop offset="1" stop-color="#2B5878"/>
</linearGradient>
<linearGradient id="paint16_linear" x1="19.4333" y1="11.7334" x2="19.4333" y2="13.2001" gradientUnits="userSpaceOnUse">
<stop stop-color="#EB7070"/>
<stop offset="1" stop-color="#2B5878"/>
</linearGradient>
<linearGradient id="paint17_linear" x1="17.9668" y1="11.7334" x2="17.9668" y2="13.2001" gradientUnits="userSpaceOnUse">
<stop stop-color="#EB7070"/>
<stop offset="1" stop-color="#2B5878"/>
</linearGradient>
<linearGradient id="paint18_linear" x1="15.0334" y1="16.1333" x2="15.0334" y2="17.6" gradientUnits="userSpaceOnUse">
<stop stop-color="#EB7070"/>
<stop offset="1" stop-color="#2B5878"/>
</linearGradient>
<linearGradient id="paint19_linear" x1="17.9668" y1="13.9333" x2="17.9668" y2="15.4" gradientUnits="userSpaceOnUse">
<stop stop-color="#EB7070"/>
<stop offset="1" stop-color="#2B5878"/>
</linearGradient>
<linearGradient id="paint20_linear" x1="15.0334" y1="18.3335" x2="15.0334" y2="20.5335" gradientUnits="userSpaceOnUse">
<stop stop-color="#EB7070"/>
<stop offset="1" stop-color="#2B5878"/>
</linearGradient>
<linearGradient id="paint21_linear" x1="15.0334" y1="13.9333" x2="15.0334" y2="15.4" gradientUnits="userSpaceOnUse">
<stop stop-color="#EB7070"/>
<stop offset="1" stop-color="#2B5878"/>
</linearGradient>
<linearGradient id="paint22_linear" x1="13.5666" y1="6.59985" x2="13.5666" y2="20.5332" gradientUnits="userSpaceOnUse">
<stop stop-color="#EB7070"/>
<stop offset="1" stop-color="#2B5878"/>
</linearGradient>
<linearGradient id="paint23_linear" x1="7.70002" y1="7.3335" x2="7.70002" y2="8.80014" gradientUnits="userSpaceOnUse">
<stop stop-color="#EB7070"/>
<stop offset="1" stop-color="#2B5878"/>
</linearGradient>
<linearGradient id="paint24_linear" x1="7.70002" y1="5.1333" x2="7.70002" y2="6.59995" gradientUnits="userSpaceOnUse">
<stop stop-color="#EB7070"/>
<stop offset="1" stop-color="#2B5878"/>
</linearGradient>
<linearGradient id="paint25_linear" x1="4.7667" y1="16.1333" x2="4.7667" y2="17.6" gradientUnits="userSpaceOnUse">
<stop stop-color="#EB7070"/>
<stop offset="1" stop-color="#2B5878"/>
</linearGradient>
<linearGradient id="paint26_linear" x1="4.03333" y1="10.2668" x2="4.03333" y2="20.5334" gradientUnits="userSpaceOnUse">
<stop stop-color="#EB7070"/>
<stop offset="1" stop-color="#2B5878"/>
</linearGradient>
<linearGradient id="paint27_linear" x1="6.23323" y1="7.3335" x2="6.23323" y2="8.80014" gradientUnits="userSpaceOnUse">
<stop stop-color="#EB7070"/>
<stop offset="1" stop-color="#2B5878"/>
</linearGradient>
<linearGradient id="paint28_linear" x1="7.70002" y1="2.93335" x2="7.70002" y2="4.4" gradientUnits="userSpaceOnUse">
<stop stop-color="#EB7070"/>
<stop offset="1" stop-color="#2B5878"/>
</linearGradient>
<linearGradient id="paint29_linear" x1="4.76668" y1="18.3335" x2="4.76668" y2="20.5335" gradientUnits="userSpaceOnUse">
<stop stop-color="#EB7070"/>
<stop offset="1" stop-color="#2B5878"/>
</linearGradient>
<linearGradient id="paint30_linear" x1="11" y1="13.9333" x2="11" y2="22" gradientUnits="userSpaceOnUse">
<stop stop-color="#EB7070"/>
<stop offset="1" stop-color="#2B5878"/>
</linearGradient>
<linearGradient id="paint31_linear" x1="3.3" y1="18.3335" x2="3.3" y2="20.5335" gradientUnits="userSpaceOnUse">
<stop stop-color="#EB7070"/>
<stop offset="1" stop-color="#2B5878"/>
</linearGradient>
<linearGradient id="paint32_linear" x1="4.76668" y1="11.7334" x2="4.76668" y2="13.2001" gradientUnits="userSpaceOnUse">
<stop stop-color="#EB7070"/>
<stop offset="1" stop-color="#2B5878"/>
</linearGradient>
<linearGradient id="paint33_linear" x1="4.76668" y1="13.9333" x2="4.76668" y2="15.4" gradientUnits="userSpaceOnUse">
<stop stop-color="#EB7070"/>
<stop offset="1" stop-color="#2B5878"/>
</linearGradient>
<linearGradient id="paint34_linear" x1="3.3" y1="11.7334" x2="3.3" y2="13.2001" gradientUnits="userSpaceOnUse">
<stop stop-color="#EB7070"/>
<stop offset="1" stop-color="#2B5878"/>
</linearGradient>
<linearGradient id="paint35_linear" x1="7.70002" y1="13.9333" x2="7.70002" y2="15.4" gradientUnits="userSpaceOnUse">
<stop stop-color="#EB7070"/>
<stop offset="1" stop-color="#2B5878"/>
</linearGradient>
<linearGradient id="paint36_linear" x1="9.1667" y1="9.53345" x2="9.1667" y2="11.0001" gradientUnits="userSpaceOnUse">
<stop stop-color="#EB7070"/>
<stop offset="1" stop-color="#2B5878"/>
</linearGradient>
<linearGradient id="paint37_linear" x1="9.1667" y1="7.3335" x2="9.1667" y2="8.80014" gradientUnits="userSpaceOnUse">
<stop stop-color="#EB7070"/>
<stop offset="1" stop-color="#2B5878"/>
</linearGradient>
<linearGradient id="paint38_linear" x1="9.1667" y1="11.7334" x2="9.1667" y2="13.2001" gradientUnits="userSpaceOnUse">
<stop stop-color="#EB7070"/>
<stop offset="1" stop-color="#2B5878"/>
</linearGradient>
<linearGradient id="paint39_linear" x1="9.16658" y1="13.9333" x2="9.16658" y2="15.4" gradientUnits="userSpaceOnUse">
<stop stop-color="#EB7070"/>
<stop offset="1" stop-color="#2B5878"/>
</linearGradient>
<linearGradient id="paint40_linear" x1="9.1667" y1="5.1333" x2="9.1667" y2="6.59995" gradientUnits="userSpaceOnUse">
<stop stop-color="#EB7070"/>
<stop offset="1" stop-color="#2B5878"/>
</linearGradient>
<linearGradient id="paint41_linear" x1="7.70002" y1="16.1333" x2="7.70002" y2="17.6" gradientUnits="userSpaceOnUse">
<stop stop-color="#EB7070"/>
<stop offset="1" stop-color="#2B5878"/>
</linearGradient>
<linearGradient id="paint42_linear" x1="7.7" y1="0" x2="7.7" y2="9.53335" gradientUnits="userSpaceOnUse">
<stop stop-color="#EB7070"/>
<stop offset="1" stop-color="#2B5878"/>
</linearGradient>
<linearGradient id="paint43_linear" x1="7.70002" y1="11.7334" x2="7.70002" y2="13.2001" gradientUnits="userSpaceOnUse">
<stop stop-color="#EB7070"/>
<stop offset="1" stop-color="#2B5878"/>
</linearGradient>
<linearGradient id="paint44_linear" x1="7.70002" y1="18.3335" x2="7.70002" y2="20.5335" gradientUnits="userSpaceOnUse">
<stop stop-color="#EB7070"/>
<stop offset="1" stop-color="#2B5878"/>
</linearGradient>
<linearGradient id="paint45_linear" x1="9.1667" y1="2.93335" x2="9.1667" y2="4.4" gradientUnits="userSpaceOnUse">
<stop stop-color="#EB7070"/>
<stop offset="1" stop-color="#2B5878"/>
</linearGradient>
<linearGradient id="paint46_linear" x1="7.70002" y1="9.53345" x2="7.70002" y2="11.0001" gradientUnits="userSpaceOnUse">
<stop stop-color="#EB7070"/>
<stop offset="1" stop-color="#2B5878"/>
</linearGradient>
</defs>
</svg>
