<svg width="23" height="23" viewBox="0 0 23 23" fill="none" xmlns="http://www.w3.org/2000/svg">
<path d="M17.9688 6.10938C17.3743 6.10938 16.8906 5.62566 16.8906 5.03125C16.8906 4.43684 17.3743 3.95312 17.9688 3.95312C18.5632 3.95312 19.0469 4.43684 19.0469 5.03125C19.0469 5.62566 18.5632 6.10938 17.9688 6.10938ZM17.9688 4.67188C17.7704 4.67188 17.6094 4.83288 17.6094 5.03125C17.6094 5.22962 17.7704 5.39062 17.9688 5.39062C18.1671 5.39062 18.3281 5.22962 18.3281 5.03125C18.3281 4.83288 18.1671 4.67188 17.9688 4.67188Z" fill="url(#paint0_linear)"/>
<path d="M5.03125 6.10938C4.43684 6.10938 3.95312 5.62566 3.95312 5.03125C3.95312 4.43684 4.43684 3.95312 5.03125 3.95312C5.62566 3.95312 6.10938 4.43684 6.10938 5.03125C6.10938 5.62566 5.62566 6.10938 5.03125 6.10938ZM5.03125 4.67188C4.83288 4.67188 4.67188 4.83288 4.67188 5.03125C4.67188 5.22962 4.83288 5.39062 5.03125 5.39062C5.22962 5.39062 5.39062 5.22962 5.39062 5.03125C5.39062 4.83288 5.22962 4.67188 5.03125 4.67188Z" fill="url(#paint1_linear)"/>
<path d="M13.0769 8.98438H10.4934L9.65857 5.22819L10.7234 4.51842L9.94535 1.79688H11.7433L13.3795 5.88728L12.2874 6.61538L13.0769 8.98438ZM12.4958 5.61272L11.2567 2.51562H10.8984L11.5582 4.82533L10.4668 5.55306L11.0695 8.26562H12.0797L11.4317 6.32212L12.4958 5.61272Z" fill="url(#paint2_linear)"/>
<path d="M22.6406 14.7344C22.6406 15.5272 21.9959 16.1719 21.2031 16.1719H19.0469C18.6505 16.1719 18.3281 16.4942 18.3281 16.8906C18.3281 17.287 18.6505 17.6094 19.0469 17.6094H21.2031C21.9959 17.6094 22.6406 18.2541 22.6406 19.0469C22.6406 19.8397 21.9959 20.4844 21.2031 20.4844H8.24658C8.15134 21.2915 7.47069 21.9219 6.63838 21.9219C5.64255 21.9219 4.64528 22.1573 3.75475 22.6029L3.67856 22.6406H1.79688V21.9219H0.359375V21.2031H1.79688V19.0469H0.359375V18.3281H1.79688V17.6094H3.67856L3.75439 17.6471C4.64528 18.0927 5.64255 18.3281 6.63838 18.3281C7.47069 18.3281 8.15134 18.9585 8.24658 19.7656H21.2031C21.5995 19.7656 21.9219 19.4433 21.9219 19.0469C21.9219 18.6505 21.5995 18.3281 21.2031 18.3281H19.0469C18.2541 18.3281 17.6094 17.6834 17.6094 16.8906C17.6094 16.0978 18.2541 15.4531 19.0469 15.4531H21.2031C21.5995 15.4531 21.9219 15.1308 21.9219 14.7344C21.9219 14.338 21.5995 14.0156 21.2031 14.0156H17.5321C16.6775 15.3536 15.1998 16.1719 13.5959 16.1719H6.97978C5.01867 16.1719 3.25306 14.9328 2.58606 13.0881L0.479766 7.26081C0.399984 7.01033 0.359375 6.7505 0.359375 6.48852C0.359375 5.13655 1.4242 4.03147 2.75856 3.95995C3.16178 3.10788 4.02787 2.51562 5.03125 2.51562C6.03211 2.51562 6.89569 3.10464 7.3007 3.95312H8.26562V1.4375C8.26562 0.843094 8.74934 0.359375 9.34375 0.359375H13.6562C14.2507 0.359375 14.7344 0.843094 14.7344 1.4375V3.95312H15.6993C16.104 3.10464 16.9679 2.51562 17.9688 2.51562C18.9696 2.51562 19.8332 3.10464 20.2382 3.95312H20.8438C21.8345 3.95312 22.6406 4.7592 22.6406 5.75V8.65411C22.6406 9.84867 21.7903 10.8865 20.6184 11.1209L18.9236 11.4598L17.935 13.2969H21.2031C21.9959 13.2969 22.6406 13.9416 22.6406 14.7344V14.7344ZM2.51562 21.9219H3.23438V18.3281H2.51562V21.9219ZM7.54688 19.9554C7.54688 19.4544 7.13934 19.0469 6.63838 19.0469C5.72161 19.0469 4.80413 18.8654 3.95312 18.5225V21.7275C4.80377 21.3846 5.72125 21.2031 6.63838 21.2031C7.13934 21.2031 7.54688 20.7956 7.54688 20.2946V19.9554ZM1.45727 5.39062H2.54437C2.52748 5.27275 2.51562 5.15344 2.51562 5.03125C2.51562 4.92128 2.52497 4.81419 2.53898 4.70781C2.09875 4.79586 1.72069 5.0467 1.45727 5.39062V5.39062ZM5.03125 3.23438C4.04045 3.23438 3.23438 4.04045 3.23438 5.03125C3.23438 6.02205 4.04045 6.82812 5.03125 6.82812C6.02205 6.82812 6.82812 6.02205 6.82812 5.03125C6.82812 4.04045 6.02205 3.23438 5.03125 3.23438ZM15.6993 6.10938H14.7344V9.34375C14.7344 9.93816 14.2507 10.4219 13.6562 10.4219H13.2969V10.7812H16.5312V7.09263C16.1751 6.84358 15.888 6.50469 15.6993 6.10938V6.10938ZM12.2188 11.8594C12.4171 11.8594 12.5781 11.6984 12.5781 11.5V10.4219H10.4219V11.5C10.4219 11.6984 10.5829 11.8594 10.7812 11.8594H12.2188ZM13.2969 11.5C13.2969 12.0944 12.8132 12.5781 12.2188 12.5781H11.8594V14.0156H13.8252C14.4771 14.0156 15.079 13.6616 15.396 13.0917L16.28 11.5H13.2969ZM11.1406 12.5781H10.7812C10.1868 12.5781 9.70312 12.0944 9.70312 11.5H4.67188V12.1605L4.88067 12.7869C5.12577 13.5218 5.81073 14.0156 6.58519 14.0156H11.1406V12.5781ZM4.67188 10.7812H9.70312V10.4219H9.34375C8.74934 10.4219 8.26562 9.93816 8.26562 9.34375V6.10938H7.3007C6.89605 6.95786 6.03211 7.54688 5.03125 7.54688C4.90906 7.54688 4.78975 7.53501 4.67188 7.51812V10.7812ZM7.51813 4.67188C7.53502 4.78975 7.54688 4.90906 7.54688 5.03125C7.54688 5.15344 7.53502 5.27275 7.51813 5.39062H8.26562V4.67188H7.51813ZM14.0156 1.4375C14.0156 1.23913 13.8546 1.07812 13.6562 1.07812H9.34375C9.14538 1.07812 8.98438 1.23913 8.98438 1.4375V9.34375C8.98438 9.54212 9.14538 9.70312 9.34375 9.70312H13.6562C13.8546 9.70312 14.0156 9.54212 14.0156 9.34375V1.4375ZM14.7344 4.67188V5.39062H15.4819C15.465 5.27275 15.4531 5.15344 15.4531 5.03125C15.4531 4.90906 15.465 4.78975 15.4819 4.67188H14.7344ZM17.9688 3.23438C16.978 3.23438 16.1719 4.04045 16.1719 5.03125C16.1719 6.02205 16.978 6.82812 17.9688 6.82812C18.9595 6.82812 19.7656 6.02205 19.7656 5.03125C19.7656 4.04045 18.9595 3.23438 17.9688 3.23438ZM20.8438 4.67188H20.4556C20.4725 4.78975 20.4844 4.90906 20.4844 5.03125C20.4844 5.15344 20.4725 5.27275 20.4556 5.39062H21.8558C21.707 4.97339 21.3117 4.67188 20.8438 4.67188ZM21.9219 8.65411V7.58066C21.8029 7.56017 21.6829 7.54688 21.5625 7.54688C20.3733 7.54688 19.4062 8.51395 19.4062 9.70312C19.4062 10.0097 19.4753 10.3119 19.6025 10.5911L20.4772 10.4161C21.3145 10.2487 21.9219 9.50763 21.9219 8.65411ZM18.8862 10.7342C18.7587 10.4053 18.6875 10.0568 18.6875 9.70312C18.6875 8.11792 19.9773 6.82812 21.5625 6.82812C21.6829 6.82812 21.8026 6.83927 21.9219 6.85436V6.10938H20.2382C19.8335 6.95786 18.9696 7.54688 17.9688 7.54688C17.719 7.54688 17.4778 7.50914 17.25 7.44086V11.2337L16.0242 13.4406C15.5803 14.2384 14.738 14.7344 13.8252 14.7344H6.58519C5.50059 14.7344 4.54142 14.0429 4.19894 13.0144L3.95312 12.277V7.3007C3.43203 7.05202 3.01048 6.63047 2.7618 6.10938H1.11945C1.09322 6.23192 1.07812 6.35842 1.07812 6.48852C1.07812 6.67611 1.10723 6.86263 1.16042 7.02973L3.26241 12.8441C3.82627 14.4045 5.32055 15.4531 6.97978 15.4531H13.5959C15.0524 15.4531 16.3861 14.6564 17.0768 13.3745L18.4514 10.8215L18.8862 10.7342Z" fill="url(#paint3_linear)"/>
<path d="M5.39062 10.0625H6.10938V9.34375H5.39062V10.0625Z" fill="url(#paint4_linear)"/>
<path d="M5.39062 8.625H6.10938V7.90625H5.39062V8.625Z" fill="url(#paint5_linear)"/>
<defs>
<linearGradient id="paint0_linear" x1="17.9688" y1="6.10938" x2="17.9688" y2="3.95312" gradientUnits="userSpaceOnUse">
<stop stop-color="#EB7070"/>
<stop offset="1" stop-color="#2B5878"/>
</linearGradient>
<linearGradient id="paint1_linear" x1="5.03125" y1="6.10938" x2="5.03125" y2="3.95312" gradientUnits="userSpaceOnUse">
<stop stop-color="#EB7070"/>
<stop offset="1" stop-color="#2B5878"/>
</linearGradient>
<linearGradient id="paint2_linear" x1="11.5191" y1="8.98438" x2="11.5191" y2="1.79688" gradientUnits="userSpaceOnUse">
<stop stop-color="#EB7070"/>
<stop offset="1" stop-color="#2B5878"/>
</linearGradient>
<linearGradient id="paint3_linear" x1="11.5" y1="22.6406" x2="11.5" y2="0.359375" gradientUnits="userSpaceOnUse">
<stop stop-color="#EB7070"/>
<stop offset="1" stop-color="#2B5878"/>
</linearGradient>
<linearGradient id="paint4_linear" x1="5.75" y1="10.0625" x2="5.75" y2="9.34375" gradientUnits="userSpaceOnUse">
<stop stop-color="#EB7070"/>
<stop offset="1" stop-color="#2B5878"/>
</linearGradient>
<linearGradient id="paint5_linear" x1="5.75" y1="8.625" x2="5.75" y2="7.90625" gradientUnits="userSpaceOnUse">
<stop stop-color="#EB7070"/>
<stop offset="1" stop-color="#2B5878"/>
</linearGradient>
</defs>
</svg>
