<svg width="22" height="21" viewBox="0 0 22 21" fill="none" xmlns="http://www.w3.org/2000/svg">
<path d="M20.625 4.92187H18.2188V2.95312H18.9062V0.328125H0.34375V2.95312H1.03125V20.6719H5.66844C5.66947 20.6719 5.6705 20.6722 5.67188 20.6722C5.67325 20.6722 5.67394 20.6719 5.67531 20.6719H7.38753C7.38856 20.6719 7.38959 20.6722 7.39097 20.6722C7.39234 20.6722 7.39269 20.6719 7.39406 20.6719H10.4813C10.4823 20.6719 10.4833 20.6722 10.4847 20.6722C10.4861 20.6722 10.4864 20.6719 10.4878 20.6719H12.2C12.2011 20.6719 12.2021 20.6722 12.2035 20.6722C12.2048 20.6722 12.2052 20.6719 12.2066 20.6719H18.2188V14.7656H20.625C21.1936 14.7656 21.6562 14.324 21.6562 13.7812V5.90625C21.6562 5.36353 21.1936 4.92187 20.625 4.92187ZM17.5312 4.92187H17.1875C16.6189 4.92187 16.1562 5.36353 16.1562 5.90625V9.51595H12.8765C13.2048 9.16716 13.4062 8.70778 13.4062 8.20312C13.4062 7.62201 13.1395 7.10062 12.7188 6.73969V2.95312H17.5312V4.92187ZM19.3304 11.4844L18.9062 12.1593L18.4821 11.4844H19.3304ZM17.8767 10.8281H17.2679L17.2683 10.8285H13.75C13.1814 10.8285 12.7188 11.2701 12.7188 11.8128V19.5238C12.7188 19.7941 12.4891 20.014 12.2066 20.0156H12.1997C11.9171 20.014 11.6875 19.7941 11.6875 19.5238V14.7656H11V19.5238C11 19.7941 10.7704 20.014 10.4878 20.0156H10.4809C10.1984 20.014 9.96875 19.7941 9.96875 19.5238V11.8128H9.28125V15.0941C8.90209 15.0941 8.59375 14.7997 8.59375 14.4378V13.7816V11.8128C8.59375 10.9082 9.36478 10.1722 10.3125 10.1722H17.875C18.0644 10.1722 18.2188 10.3192 18.2188 10.5003C18.2188 10.6808 18.0654 10.8271 17.8767 10.8281ZM7.38719 20.0156C7.10462 20.014 6.875 19.7941 6.875 19.5238V14.766H6.1875V19.5238C6.1875 19.7941 5.95788 20.014 5.67531 20.0156H5.66844C5.38587 20.014 5.15625 19.7941 5.15625 19.5238V18.7245V10.8281H6.53125V10.8285H7.5625C7.74572 10.8285 7.92619 10.8596 8.09875 10.9134C7.975 11.19 7.90625 11.4939 7.90625 11.8128V13.7816V14.4378V19.5238C7.90625 19.7941 7.67663 20.014 7.39406 20.0156H7.38719ZM12.0312 2.95312V6.34922C11.8157 6.27637 11.5851 6.23437 11.3438 6.23437C10.2063 6.23437 9.28125 7.11736 9.28125 8.20312C9.28125 8.72878 9.49953 9.20587 9.85222 9.55926C9.3005 9.66164 8.81547 9.94448 8.46794 10.3409C8.32356 10.2851 8.17266 10.2473 8.01969 10.2188C8.37444 9.86508 8.59375 9.38667 8.59375 8.85937C8.59375 7.77361 7.66872 6.89062 6.53125 6.89062C6.00256 6.89062 5.52166 7.08291 5.15625 7.39594V2.95312H12.0312ZM12.7188 8.20312C12.7188 8.92697 12.1021 9.51562 11.3438 9.51562C10.5854 9.51562 9.96875 8.92697 9.96875 8.20312C9.96875 7.47928 10.5854 6.89062 11.3438 6.89062C12.1021 6.89062 12.7188 7.47928 12.7188 8.20312ZM5.15625 8.85937C5.15625 8.13553 5.77294 7.54687 6.53125 7.54687C7.28956 7.54687 7.90625 8.13553 7.90625 8.85937C7.90625 9.58322 7.28956 10.1719 6.53125 10.1719C5.77294 10.1719 5.15625 9.58322 5.15625 8.85937ZM8.59375 19.5238V15.5679C8.79691 15.6808 9.02963 15.7503 9.28125 15.7503V19.5238C9.28125 19.7003 9.32662 19.866 9.40191 20.0156H8.47344C8.54837 19.866 8.59375 19.7003 8.59375 19.5238ZM1.03125 0.984375H18.2188V2.29687H1.03125V0.984375ZM1.71875 2.95312H4.46875V18.7245V19.5238V20.0156H1.71875V2.95312ZM17.5312 20.0156H13.2856C13.3609 19.866 13.4062 19.7003 13.4062 19.5238V11.8128C13.4062 11.6317 13.5606 11.4847 13.75 11.4847H16.1562V13.7812C16.1562 14.324 16.6189 14.7656 17.1875 14.7656H17.5312V20.0156ZM20.9688 13.7812C20.9688 13.9624 20.8144 14.1094 20.625 14.1094H17.1875C16.9981 14.1094 16.8438 13.9624 16.8438 13.7812V11.4847H17.6808L18.9062 13.4344L20.5446 10.8281H18.843C18.8815 10.7251 18.9062 10.6158 18.9062 10.5003C18.9062 9.95761 18.4436 9.51595 17.875 9.51595H16.8438V5.90625C16.8438 5.72512 16.9981 5.57812 17.1875 5.57812H20.625C20.8144 5.57812 20.9688 5.72512 20.9688 5.90625V13.7812Z" fill="url(#paint0_linear)"/>
<path d="M17.2678 8.85923H20.5444L18.9061 6.25293L17.2678 8.85923ZM18.4819 8.20298L18.9061 7.52802L19.3303 8.20298H18.4819Z" fill="url(#paint1_linear)"/>
<path d="M2.40625 3.60938H3.09375V4.26562H2.40625V3.60938Z" fill="url(#paint2_linear)"/>
<path d="M2.40625 4.92188H3.09375V5.57812H2.40625V4.92188Z" fill="url(#paint3_linear)"/>
<path d="M2.40625 6.23438H3.09375V6.89062H2.40625V6.23438Z" fill="url(#paint4_linear)"/>
<path d="M16.1562 3.60938H16.8438V4.26562H16.1562V3.60938Z" fill="url(#paint5_linear)"/>
<path d="M14.7812 3.60938H15.4688V4.26562H14.7812V3.60938Z" fill="url(#paint6_linear)"/>
<path d="M13.4062 3.60938H14.0938V4.26562H13.4062V3.60938Z" fill="url(#paint7_linear)"/>
<path d="M16.1562 18.7031H16.8438V19.3594H16.1562V18.7031Z" fill="url(#paint8_linear)"/>
<path d="M16.1562 15.4219H16.8438V18.0469H16.1562V15.4219Z" fill="url(#paint9_linear)"/>
<defs>
<linearGradient id="paint0_linear" x1="11" y1="0.328125" x2="11" y2="20.6722" gradientUnits="userSpaceOnUse">
<stop stop-color="#EB7070"/>
<stop offset="1" stop-color="#2B5878"/>
</linearGradient>
<linearGradient id="paint1_linear" x1="18.9061" y1="6.25293" x2="18.9061" y2="8.85923" gradientUnits="userSpaceOnUse">
<stop stop-color="#EB7070"/>
<stop offset="1" stop-color="#2B5878"/>
</linearGradient>
<linearGradient id="paint2_linear" x1="2.75" y1="3.60938" x2="2.75" y2="4.26562" gradientUnits="userSpaceOnUse">
<stop stop-color="#EB7070"/>
<stop offset="1" stop-color="#2B5878"/>
</linearGradient>
<linearGradient id="paint3_linear" x1="2.75" y1="4.92188" x2="2.75" y2="5.57812" gradientUnits="userSpaceOnUse">
<stop stop-color="#EB7070"/>
<stop offset="1" stop-color="#2B5878"/>
</linearGradient>
<linearGradient id="paint4_linear" x1="2.75" y1="6.23438" x2="2.75" y2="6.89062" gradientUnits="userSpaceOnUse">
<stop stop-color="#EB7070"/>
<stop offset="1" stop-color="#2B5878"/>
</linearGradient>
<linearGradient id="paint5_linear" x1="16.5" y1="3.60938" x2="16.5" y2="4.26562" gradientUnits="userSpaceOnUse">
<stop stop-color="#EB7070"/>
<stop offset="1" stop-color="#2B5878"/>
</linearGradient>
<linearGradient id="paint6_linear" x1="15.125" y1="3.60938" x2="15.125" y2="4.26562" gradientUnits="userSpaceOnUse">
<stop stop-color="#EB7070"/>
<stop offset="1" stop-color="#2B5878"/>
</linearGradient>
<linearGradient id="paint7_linear" x1="13.75" y1="3.60938" x2="13.75" y2="4.26562" gradientUnits="userSpaceOnUse">
<stop stop-color="#EB7070"/>
<stop offset="1" stop-color="#2B5878"/>
</linearGradient>
<linearGradient id="paint8_linear" x1="16.5" y1="18.7031" x2="16.5" y2="19.3594" gradientUnits="userSpaceOnUse">
<stop stop-color="#EB7070"/>
<stop offset="1" stop-color="#2B5878"/>
</linearGradient>
<linearGradient id="paint9_linear" x1="16.5" y1="15.4219" x2="16.5" y2="18.0469" gradientUnits="userSpaceOnUse">
<stop stop-color="#EB7070"/>
<stop offset="1" stop-color="#2B5878"/>
</linearGradient>
</defs>
</svg>
