<svg width="22" height="22" viewBox="0 0 22 22" fill="none" xmlns="http://www.w3.org/2000/svg">
<path d="M21.542 5.04175C21.2883 5.04175 21.0828 5.24684 21.0828 5.49997V9.16672H20.167V8.24994C20.167 7.23918 19.3439 6.41675 18.3328 6.41675C17.7863 6.41675 17.2949 6.65777 16.9578 7.03942C16.6221 6.65777 16.1307 6.41675 15.5828 6.41675C15.0363 6.41675 14.5449 6.65777 14.2078 7.03942C13.8722 6.65777 13.3807 6.41675 12.8328 6.41675C12.2863 6.41675 11.7949 6.65777 11.4582 7.03942C11.1222 6.65777 10.6307 6.41675 10.0832 6.41675C9.53635 6.41675 9.04457 6.65777 8.70817 7.03942C8.37215 6.65777 7.88067 6.41675 7.33316 6.41675C6.78634 6.41675 6.29456 6.65777 5.95816 7.03942C5.62214 6.65777 5.13066 6.41675 4.58315 6.41675C3.73086 6.41675 3.01178 7.00182 2.80768 7.79172H1.37501C1.12188 7.79172 0.916785 7.99681 0.916785 8.24994V9.16672H0.458221C0.205091 9.16672 0 9.37181 0 9.62494C0 9.87807 0.205091 10.0832 0.458221 10.0832H0.916785V10.9999C0.916785 11.2531 1.12188 11.4582 1.37501 11.4582H2.75001V20.167C2.75001 21.1775 3.57248 21.9999 4.58324 21.9999C5.13075 21.9999 5.62223 21.7582 5.95824 21.3769C6.2946 21.7582 6.78638 21.9999 7.33325 21.9999C7.88076 21.9999 8.37224 21.7582 8.70825 21.3769C9.04461 21.7582 9.53639 21.9999 10.0833 21.9999C10.6308 21.9999 11.1222 21.7582 11.4583 21.3769C11.795 21.7582 12.2864 21.9999 12.8329 21.9999C13.3808 21.9999 13.8723 21.7582 14.2079 21.3769C14.545 21.7582 15.0364 21.9999 15.5829 21.9999C16.1307 21.9999 16.6222 21.7582 16.9579 21.3769C17.2949 21.7582 17.7864 21.9999 18.3329 21.9999C19.344 21.9999 20.1671 21.1774 20.1671 20.167V10.0832H21.5421C21.7946 10.0832 22 9.87807 22 9.62494V5.49997C21.9999 5.24684 21.7945 5.04175 21.542 5.04175ZM2.75001 10.5417H1.83323V8.70816H2.75001V10.5417ZM5.49998 20.167C5.49998 20.6719 5.08907 21.0828 4.58319 21.0828C4.07801 21.0828 3.66675 20.6719 3.66675 20.167V10.9999V8.24994C3.66675 7.74471 4.07797 7.33315 4.58319 7.33315C5.08907 7.33315 5.49998 7.74471 5.49998 8.24994V20.167ZM8.24999 20.167C8.24995 20.6719 7.83908 21.0828 7.3332 21.0828C6.82802 21.0828 6.41676 20.6719 6.41676 20.167V8.24994C6.41676 7.74471 6.82798 7.33315 7.3332 7.33315C7.83908 7.33315 8.24999 7.74471 8.24999 8.24994V20.167V20.167ZM11 20.167C11 20.6719 10.5891 21.0828 10.0832 21.0828C9.57799 21.0828 9.16673 20.6719 9.16673 20.167V8.24994C9.16673 7.74471 9.57794 7.33315 10.0832 7.33315C10.589 7.33315 11 7.74471 11 8.24994V20.167ZM13.75 20.167C13.75 20.6719 13.3391 21.0828 12.8328 21.0828C12.328 21.0828 11.9171 20.6719 11.9171 20.167V8.24994C11.9171 7.74471 12.328 7.33315 12.8328 7.33315C13.3391 7.33315 13.75 7.74471 13.75 8.24994V20.167ZM16.4999 20.167C16.4999 20.6719 16.0891 21.0828 15.5828 21.0828C15.078 21.0828 14.6671 20.6719 14.6671 20.167V8.24994C14.6671 7.74471 15.0779 7.33315 15.5828 7.33315C16.089 7.33315 16.4999 7.74471 16.4999 8.24994V20.167ZM19.2499 20.167C19.2499 20.6719 18.839 21.0828 18.3328 21.0828C17.8279 21.0828 17.417 20.6719 17.417 20.167V8.24994C17.417 7.74471 17.8279 7.33315 18.3328 7.33315C18.839 7.33315 19.2499 7.74471 19.2499 8.24994V20.167Z" fill="url(#paint0_linear)"/>
<path d="M15.3344 4.45466C15.278 4.25962 15.3129 4.11761 15.4499 3.97963C15.8218 3.60602 15.9453 3.12094 15.7963 2.61271C15.6969 2.27162 15.5036 2.03061 15.4794 2.0004C15.4781 2.0004 15.4781 2.00006 15.4781 2.00006V1.99941C15.3934 1.89805 15.2672 1.83325 15.1249 1.83325C14.8718 1.83325 14.6671 2.03869 14.6671 2.29182C14.6671 2.40293 14.706 2.50498 14.7718 2.58422C14.7731 2.58521 14.8698 2.71046 14.9168 2.87022C14.9712 3.05787 14.937 3.19618 14.8 3.33282C14.4294 3.70571 14.3052 4.19414 14.4529 4.70774C14.5529 5.05588 14.7463 5.30226 14.7678 5.32946V5.32912C14.8524 5.43319 14.9806 5.5 15.1249 5.5C15.3781 5.5 15.5828 5.29491 15.5828 5.04178C15.5828 4.93269 15.5452 4.83265 15.4821 4.75411C15.4808 4.75277 15.3814 4.6215 15.3344 4.45466Z" fill="url(#paint1_linear)"/>
<path d="M11.5438 4.15118C11.4381 3.72854 11.5227 3.36937 11.8017 3.05346C12.2918 2.49955 12.4475 1.82046 12.2528 1.08866C12.1159 0.575698 11.8527 0.219528 11.8231 0.180598V0.181286C11.7385 0.0715003 11.6073 0 11.4583 0C11.205 0 10.9999 0.205091 10.9999 0.458221C10.9999 0.561948 11.0345 0.657296 11.0926 0.733823H11.0919C11.0939 0.736487 11.2849 0.99632 11.3732 1.34914C11.4786 1.77139 11.394 2.13061 11.1147 2.44648C10.6253 3.00039 10.4695 3.67951 10.6643 4.41132C10.8006 4.92428 11.0641 5.28045 11.0933 5.31938L11.094 5.31869C11.1775 5.42912 11.3095 5.49998 11.4582 5.49998C11.7116 5.49998 11.9171 5.29489 11.9171 5.04176C11.9171 4.93803 11.8822 4.84268 11.8245 4.76616C11.8225 4.76349 11.6315 4.50366 11.5438 4.15118Z" fill="url(#paint2_linear)"/>
<path d="M8.14866 4.75411C8.14767 4.75277 8.04863 4.6215 8.00063 4.45466C7.94455 4.25962 7.97914 4.11761 8.11643 3.97963C8.48871 3.60602 8.61156 3.12094 8.46285 2.61271C8.36316 2.27162 8.17113 2.0313 8.14526 2.0004C8.14526 2.0004 8.14526 2.00006 8.14492 2.00006L8.14457 1.99907V1.99941C8.06031 1.89805 7.93377 1.83325 7.79176 1.83325C7.53863 1.83325 7.33319 2.03869 7.33319 2.29182C7.33319 2.40293 7.37281 2.50498 7.43859 2.58422C7.43958 2.58521 7.53626 2.71046 7.58293 2.87022C7.63797 3.05787 7.60308 3.19618 7.46678 3.33282C7.09553 3.70571 6.97199 4.19414 7.11972 4.70774C7.21975 5.05588 7.41311 5.30226 7.43494 5.32946V5.32912C7.5192 5.43319 7.64742 5.5 7.7918 5.5C8.04493 5.5 8.25002 5.29491 8.25002 5.04178C8.25002 4.93269 8.21174 4.83265 8.14831 4.75411H8.14866V4.75411Z" fill="url(#paint3_linear)"/>
<defs>
<linearGradient id="paint0_linear" x1="11" y1="5.04175" x2="11" y2="21.9999" gradientUnits="userSpaceOnUse">
<stop stop-color="#EB7070"/>
<stop offset="1" stop-color="#2B5878"/>
</linearGradient>
<linearGradient id="paint1_linear" x1="15.1251" y1="1.83325" x2="15.1251" y2="5.5" gradientUnits="userSpaceOnUse">
<stop stop-color="#EB7070"/>
<stop offset="1" stop-color="#2B5878"/>
</linearGradient>
<linearGradient id="paint2_linear" x1="11.4585" y1="0" x2="11.4585" y2="5.49998" gradientUnits="userSpaceOnUse">
<stop stop-color="#EB7070"/>
<stop offset="1" stop-color="#2B5878"/>
</linearGradient>
<linearGradient id="paint3_linear" x1="7.79164" y1="1.83325" x2="7.79164" y2="5.5" gradientUnits="userSpaceOnUse">
<stop stop-color="#EB7070"/>
<stop offset="1" stop-color="#2B5878"/>
</linearGradient>
</defs>
</svg>
