<svg width="25" height="23" viewBox="0 0 25 23" fill="none" xmlns="http://www.w3.org/2000/svg">
<path d="M6.25484 9.10988C6.21682 9.95562 6.38273 10.7986 6.74067 11.5784C7.09862 12.3582 7.63971 13.0554 8.32515 13.62C8.99234 14.1712 9.37495 14.9252 9.37495 15.6891V16.8907H10.1562V16.1719H14.4531V15.4532H12.8906V13.6383C13.9574 13.5478 14.9492 13.0942 15.6717 12.3664C16.3942 11.6385 16.7954 10.6888 16.7968 9.70317C16.7968 9.60785 16.7557 9.51645 16.6824 9.44905C16.6092 9.38165 16.5098 9.34379 16.4062 9.34379C15.7159 9.34424 15.0359 9.49785 14.4239 9.79159C13.8119 10.0853 13.2859 10.5105 12.8906 11.0311V9.68196C13.7494 9.59276 14.5425 9.21598 15.1188 8.62342C15.6951 8.03085 16.0143 7.26393 16.0156 6.46879C16.0156 6.37348 15.9744 6.28207 15.9012 6.21467C15.8279 6.14728 15.7286 6.10942 15.625 6.10942C14.9786 6.11019 14.345 6.27481 13.7938 6.5852C13.2425 6.89559 12.7948 7.33974 12.5 7.86887C12.2051 7.33974 11.7574 6.89559 11.2062 6.5852C10.6549 6.27481 10.0213 6.11019 9.37495 6.10942C9.27135 6.10942 9.172 6.14728 9.09874 6.21467C9.02548 6.28207 8.98433 6.37348 8.98433 6.46879C8.98558 7.26393 9.30476 8.03085 9.88107 8.62342C10.4574 9.21598 11.2505 9.59276 12.1093 9.68196V11.0311C11.714 10.5105 11.188 10.0853 10.576 9.79159C9.96399 9.49785 9.284 9.34424 8.5937 9.34379C8.4901 9.34379 8.39075 9.38165 8.31749 9.44905C8.24423 9.51645 8.20308 9.60785 8.20308 9.70317C8.20452 10.6888 8.60576 11.6385 9.32825 12.3664C10.0507 13.0942 11.0425 13.5478 12.1093 13.6383V15.4532H10.1469C10.0761 14.5686 9.61128 13.7165 8.84698 13.0851C8.24723 12.5909 7.77377 11.9808 7.46058 11.2984C7.14738 10.6161 7.0022 9.8784 7.03545 9.13832C7.14722 6.55459 9.43335 4.43729 12.24 4.3182C13.3713 4.26827 14.4916 4.54284 15.4459 5.10397C16.4003 5.66511 17.1416 6.4851 17.5675 7.45062C17.9934 8.41614 18.0828 9.47953 17.8234 10.4938C17.564 11.5081 16.9685 12.4232 16.1193 13.1127C15.4978 13.6107 15.0715 14.2829 14.9063 15.0258L15.6734 15.162C15.8056 14.5749 16.1441 14.0441 16.6366 13.6515C17.6067 12.8634 18.2868 11.8176 18.5831 10.6586C18.8794 9.49964 18.7773 8.2846 18.2907 7.18132C17.8042 6.07803 16.9574 5.14095 15.8671 4.49947C14.7768 3.85799 13.497 3.54377 12.2043 3.60021C8.99576 3.73628 6.38272 6.15645 6.25484 9.10988V9.10988ZM15.9912 10.085C15.897 10.8055 15.5426 11.4761 14.9848 11.9892C14.427 12.5024 13.6982 12.8284 12.915 12.9151C13.0092 12.1946 13.3636 11.524 13.9214 11.0109C14.4791 10.4977 15.208 10.1717 15.9912 10.085ZM15.2015 6.85835C15.111 7.38427 14.8419 7.87032 14.4326 8.24683C14.0234 8.62334 13.495 8.87097 12.9234 8.95423C13.0139 8.42832 13.2831 7.94227 13.6923 7.56576C14.1016 7.18925 14.6299 6.94161 15.2015 6.85835V6.85835ZM9.79839 6.85835C10.37 6.94161 10.8984 7.18925 11.3076 7.56576C11.7169 7.94227 11.986 8.42832 12.0765 8.95423C11.5049 8.87097 10.9766 8.62334 10.5673 8.24683C10.1581 7.87032 9.88889 7.38427 9.79839 6.85835V6.85835ZM9.00874 10.085C9.79191 10.1717 10.5208 10.4977 11.0785 11.0109C11.6363 11.524 11.9907 12.1946 12.0849 12.9151C11.3018 12.8284 10.5729 12.5024 10.0151 11.9892C9.45734 11.4761 9.10295 10.8055 9.00874 10.085Z" fill="url(#paint0_linear)"/>
<path d="M23.8281 16.5313H19.9219C19.8183 16.5313 19.7189 16.5692 19.6457 16.6366C19.5724 16.704 19.5313 16.7954 19.5313 16.8907V17.2211L19.3588 17.0942C18.6008 16.5363 17.6695 16.2146 16.6996 16.1758C15.7297 16.1371 14.7715 16.3832 13.9637 16.8786L11.3281 16.8907C11.0894 16.8908 10.8539 16.9411 10.6396 17.0379C10.4253 17.1348 10.238 17.2755 10.092 17.4492C9.94597 17.623 9.84518 17.8252 9.79734 18.0404C9.7495 18.2556 9.75587 18.478 9.81597 18.6905L6.97461 17.454C6.76853 17.3661 6.54455 17.3194 6.31742 17.3169C6.0903 17.3145 5.86518 17.3563 5.65691 17.4397C5.44864 17.5231 5.26195 17.6462 5.10912 17.8008C4.95629 17.9554 4.8408 18.138 4.77027 18.3366C4.64579 18.6839 4.66368 19.061 4.82055 19.397C4.97743 19.7329 5.26246 20.0045 5.62193 20.1605L9.96934 22.0419C10.3336 22.199 10.7309 22.2808 11.1332 22.2813H23.8281C23.9317 22.2813 24.0311 22.2435 24.1043 22.1761C24.1776 22.1087 24.2188 22.0173 24.2188 21.9219V16.8907C24.2188 16.7954 24.1776 16.704 24.1043 16.6366C24.0311 16.5692 23.9317 16.5313 23.8281 16.5313V16.5313ZM10.3018 21.3919L5.95435 19.5104C5.76755 19.4293 5.61943 19.2882 5.53793 19.1136C5.45642 18.939 5.44715 18.743 5.51187 18.5626C5.56624 18.4096 5.67157 18.2763 5.81293 18.1815C5.95428 18.0866 6.12449 18.0352 6.29942 18.0344C6.41801 18.0346 6.53512 18.0586 6.64253 18.1049L10.3796 19.7314C10.4319 19.7541 10.489 19.7658 10.5469 19.7657H13.7095C13.8131 19.7657 13.9124 19.7278 13.9857 19.6604C14.0589 19.593 14.1001 19.5016 14.1001 19.4063C14.1001 19.311 14.0589 19.2196 13.9857 19.1522C13.9124 19.0848 13.8131 19.047 13.7095 19.047H11.3281C11.1209 19.047 10.9222 18.9712 10.7757 18.8364C10.6292 18.7016 10.5469 18.5188 10.5469 18.3282C10.5469 18.1376 10.6292 17.9548 10.7757 17.82C10.9222 17.6852 11.1209 17.6095 11.3281 17.6095H14.0625C14.1396 17.6094 14.215 17.5884 14.2792 17.5491L14.3971 17.4768C15.0669 17.066 15.8614 16.8619 16.6656 16.894C17.4699 16.9261 18.2422 17.1928 18.8708 17.6554L19.5313 18.1415V21.5626H11.1332C10.8458 21.5623 10.562 21.504 10.3018 21.3919V21.3919ZM23.4375 21.5626H20.3125V17.2501H23.4375V21.5626Z" fill="url(#paint1_linear)"/>
<path d="M21.0938 20.125H21.875V20.8438H21.0938V20.125Z" fill="url(#paint2_linear)"/>
<path d="M12.1094 0.71875H12.8906V2.15625H12.1094V0.71875Z" fill="url(#paint3_linear)"/>
<path d="M8.5531 1.51147L9.27498 1.23619L9.87345 2.56453L9.15157 2.83981L8.5531 1.51147Z" fill="url(#paint4_linear)"/>
<path d="M5.59363 3.49927L6.1459 2.99118L7.25066 4.00755L6.69838 4.51564L5.59363 3.49927Z" fill="url(#paint5_linear)"/>
<path d="M17.7444 14.6804L18.2967 14.1723L19.4014 15.1887L18.8491 15.6968L17.7444 14.6804Z" fill="url(#paint6_linear)"/>
<path d="M3.6908 6.37524L3.99001 5.71112L5.43386 6.26172L5.13464 6.92584L3.6908 6.37524Z" fill="url(#paint7_linear)"/>
<path d="M19.5742 12.4253L19.8734 11.7612L21.3173 12.3118L21.0181 12.9759L19.5742 12.4253Z" fill="url(#paint8_linear)"/>
<path d="M3.125 8.98438H4.6875V9.70312H3.125V8.98438Z" fill="url(#paint9_linear)"/>
<path d="M20.3125 8.98438H21.875V9.70312H20.3125V8.98438Z" fill="url(#paint10_linear)"/>
<path d="M3.69214 12.314L5.13598 11.7634L5.4352 12.4275L3.99136 12.9781L3.69214 12.314Z" fill="url(#paint11_linear)"/>
<path d="M19.5729 6.25879L21.0167 5.70819L21.3159 6.37232L19.8721 6.92291L19.5729 6.25879Z" fill="url(#paint12_linear)"/>
<path d="M5.59229 15.1875L6.69704 14.1711L7.24932 14.6792L6.14456 15.6956L5.59229 15.1875Z" fill="url(#paint13_linear)"/>
<path d="M17.7457 4.00879L18.8505 2.99241L19.4028 3.50051L18.298 4.51688L17.7457 4.00879Z" fill="url(#paint14_linear)"/>
<path d="M15.134 2.56494L15.7325 1.23661L16.4544 1.51189L15.8559 2.84022L15.134 2.56494Z" fill="url(#paint15_linear)"/>
<defs>
<linearGradient id="paint0_linear" x1="12.4993" y1="3.59375" x2="12.4993" y2="16.8907" gradientUnits="userSpaceOnUse">
<stop stop-color="#EB7070"/>
<stop offset="1" stop-color="#2B5878"/>
</linearGradient>
<linearGradient id="paint1_linear" x1="14.4536" y1="16.1719" x2="14.4536" y2="22.2813" gradientUnits="userSpaceOnUse">
<stop stop-color="#EB7070"/>
<stop offset="1" stop-color="#2B5878"/>
</linearGradient>
<linearGradient id="paint2_linear" x1="21.4844" y1="20.125" x2="21.4844" y2="20.8438" gradientUnits="userSpaceOnUse">
<stop stop-color="#EB7070"/>
<stop offset="1" stop-color="#2B5878"/>
</linearGradient>
<linearGradient id="paint3_linear" x1="12.5" y1="0.71875" x2="12.5" y2="2.15625" gradientUnits="userSpaceOnUse">
<stop stop-color="#EB7070"/>
<stop offset="1" stop-color="#2B5878"/>
</linearGradient>
<linearGradient id="paint4_linear" x1="8.91404" y1="1.37383" x2="9.43226" y2="2.73277" gradientUnits="userSpaceOnUse">
<stop stop-color="#EB7070"/>
<stop offset="1" stop-color="#2B5878"/>
</linearGradient>
<linearGradient id="paint5_linear" x1="5.86977" y1="3.24522" x2="6.88262" y2="4.34615" gradientUnits="userSpaceOnUse">
<stop stop-color="#EB7070"/>
<stop offset="1" stop-color="#2B5878"/>
</linearGradient>
<linearGradient id="paint6_linear" x1="18.0205" y1="14.4264" x2="19.0334" y2="15.5273" gradientUnits="userSpaceOnUse">
<stop stop-color="#EB7070"/>
<stop offset="1" stop-color="#2B5878"/>
</linearGradient>
<linearGradient id="paint7_linear" x1="3.84041" y1="6.04318" x2="5.24682" y2="6.67684" gradientUnits="userSpaceOnUse">
<stop stop-color="#EB7070"/>
<stop offset="1" stop-color="#2B5878"/>
</linearGradient>
<linearGradient id="paint8_linear" x1="19.7238" y1="12.0932" x2="21.1302" y2="12.7269" gradientUnits="userSpaceOnUse">
<stop stop-color="#EB7070"/>
<stop offset="1" stop-color="#2B5878"/>
</linearGradient>
<linearGradient id="paint9_linear" x1="3.90625" y1="8.98438" x2="3.90625" y2="9.70312" gradientUnits="userSpaceOnUse">
<stop stop-color="#EB7070"/>
<stop offset="1" stop-color="#2B5878"/>
</linearGradient>
<linearGradient id="paint10_linear" x1="21.0938" y1="8.98438" x2="21.0938" y2="9.70312" gradientUnits="userSpaceOnUse">
<stop stop-color="#EB7070"/>
<stop offset="1" stop-color="#2B5878"/>
</linearGradient>
<linearGradient id="paint11_linear" x1="4.41406" y1="12.0387" x2="4.67315" y2="12.7181" gradientUnits="userSpaceOnUse">
<stop stop-color="#EB7070"/>
<stop offset="1" stop-color="#2B5878"/>
</linearGradient>
<linearGradient id="paint12_linear" x1="20.2948" y1="5.98349" x2="20.5539" y2="6.66292" gradientUnits="userSpaceOnUse">
<stop stop-color="#EB7070"/>
<stop offset="1" stop-color="#2B5878"/>
</linearGradient>
<linearGradient id="paint13_linear" x1="6.14466" y1="14.6793" x2="6.651" y2="15.2297" gradientUnits="userSpaceOnUse">
<stop stop-color="#EB7070"/>
<stop offset="1" stop-color="#2B5878"/>
</linearGradient>
<linearGradient id="paint14_linear" x1="18.2981" y1="3.5006" x2="18.8044" y2="4.05096" gradientUnits="userSpaceOnUse">
<stop stop-color="#EB7070"/>
<stop offset="1" stop-color="#2B5878"/>
</linearGradient>
<linearGradient id="paint15_linear" x1="15.4333" y1="1.90077" x2="16.1364" y2="2.21758" gradientUnits="userSpaceOnUse">
<stop stop-color="#EB7070"/>
<stop offset="1" stop-color="#2B5878"/>
</linearGradient>
</defs>
</svg>
