<svg width="22" height="22" viewBox="0 0 22 22" fill="none" xmlns="http://www.w3.org/2000/svg">
<path d="M14.0989 17.231C12.7714 17.231 11.6914 18.2363 11.6914 19.4721C11.6914 20.0589 12.0372 20.4093 12.6165 20.4093C12.8825 20.4093 13.1744 20.3417 13.4567 20.2763C13.6903 20.2222 13.9318 20.1662 14.0989 20.1662C14.2443 20.1662 14.4738 20.2197 14.6958 20.2714C14.9864 20.3392 15.287 20.4093 15.5642 20.4093C16.1542 20.4092 16.5065 20.0589 16.5065 19.4721C16.5065 18.2363 15.4265 17.231 14.0989 17.231ZM15.714 19.6161C15.7137 19.6164 15.6811 19.6398 15.5642 19.6398C15.3755 19.6398 15.1188 19.5799 14.8705 19.522C14.5941 19.4575 14.3329 19.3966 14.0989 19.3966C13.8439 19.3966 13.5588 19.4627 13.2831 19.5266C13.0429 19.5822 12.7946 19.6397 12.6165 19.6397C12.5161 19.6397 12.4853 19.6207 12.4846 19.6221C12.4829 19.6194 12.461 19.5833 12.461 19.4721C12.461 18.6606 13.1958 18.0005 14.099 18.0005C15.0022 18.0005 15.737 18.6606 15.737 19.4721C15.737 19.5664 15.7194 19.6094 15.714 19.6161Z" fill="url(#paint0_linear)"/>
<path d="M12.901 16.4962C12.901 15.8189 12.4311 15.2678 11.8536 15.2678C11.276 15.2678 10.8062 15.8189 10.8062 16.4962C10.8062 17.1735 11.276 17.7246 11.8536 17.7246C12.4311 17.7246 12.901 17.1735 12.901 16.4962ZM11.5757 16.4962C11.5757 16.2336 11.7224 16.0374 11.8536 16.0374C11.9847 16.0374 12.1314 16.2336 12.1314 16.4962C12.1314 16.7588 11.9847 16.955 11.8536 16.955C11.7225 16.955 11.5757 16.7588 11.5757 16.4962Z" fill="url(#paint1_linear)"/>
<path d="M14.1687 16.9646C14.7463 16.9646 15.2161 16.4135 15.2161 15.7362C15.2161 15.0589 14.7463 14.5078 14.1687 14.5078C13.5912 14.5078 13.1213 15.0589 13.1213 15.7362C13.1213 16.4135 13.5912 16.9646 14.1687 16.9646ZM14.1687 15.2774C14.2998 15.2774 14.4466 15.4736 14.4466 15.7362C14.4466 15.9988 14.2999 16.195 14.1687 16.195C14.0376 16.195 13.8909 15.9988 13.8909 15.7362C13.8909 15.4736 14.0376 15.2774 14.1687 15.2774Z" fill="url(#paint2_linear)"/>
<path d="M16.484 15.2678C15.9064 15.2678 15.4365 15.8189 15.4365 16.4962C15.4365 17.1735 15.9064 17.7246 16.484 17.7246C17.0615 17.7246 17.5314 17.1735 17.5314 16.4962C17.5314 15.8189 17.0615 15.2678 16.484 15.2678ZM16.484 16.955C16.3528 16.955 16.2061 16.7588 16.2061 16.4962C16.2061 16.2336 16.3528 16.0374 16.484 16.0374C16.6151 16.0374 16.7619 16.2336 16.7619 16.4962C16.7619 16.7588 16.6152 16.955 16.484 16.955Z" fill="url(#paint3_linear)"/>
<path d="M17.4054 5.97534H16.998V4.86629C16.998 4.35459 16.5817 3.93831 16.07 3.93831H14.5536V2.85189H15.1873C15.699 2.85189 16.1153 2.43561 16.1153 1.92391V0.928027C16.1153 0.416324 15.699 4.52674e-05 15.1873 4.52674e-05H11.3848L11.3002 0C10.7571 0 9.93641 0 9.24441 0.512246C8.45599 1.09583 8.07275 2.15477 8.07275 3.74968C8.07275 3.96216 8.24504 4.13445 8.45753 4.13445H9.80047C10.013 4.13445 10.1852 3.96216 10.1852 3.74968C10.1852 3.37043 10.318 3.12599 10.6029 2.98031C10.8514 2.85329 11.1244 2.85185 11.1348 2.8518C11.1377 2.85185 11.1406 2.85189 11.1434 2.85189H13.784V3.93831H12.2675C11.7558 3.93831 11.3396 4.35459 11.3396 4.86629V5.97534H10.9322C9.3971 5.97534 8.14821 7.22422 8.14821 8.75929V21.6152C8.14821 21.8277 8.3205 22 8.53299 22H19.8046C20.0171 22 20.1893 21.8277 20.1893 21.6152V8.75929C20.1893 7.22422 18.9405 5.97534 17.4054 5.97534ZM11.1359 2.0823C10.6035 2.0823 9.6467 2.36137 9.45119 3.36491H8.85081C8.9695 0.769636 10.3097 0.769546 11.3002 0.769546L15.1873 0.769591C15.2747 0.769591 15.3457 0.840661 15.3457 0.928027V1.92391C15.3457 2.01128 15.2747 2.08235 15.1873 2.08235H11.1434L11.1359 2.0823ZM12.1091 4.86629C12.1091 4.77892 12.1802 4.70785 12.2675 4.70785H16.07C16.1574 4.70785 16.2284 4.77892 16.2284 4.86629V5.97534H12.1091V4.86629ZM10.9322 6.74489H17.4054C18.5162 6.74489 19.4198 7.64856 19.4198 8.75929V9.81424C18.634 9.75888 16.6229 9.79514 14.8671 11.3204C13.8018 12.2458 12.566 12.6804 11.3875 12.5443C10.3988 12.4301 9.52213 11.9084 8.91781 11.0753V8.75929C8.91781 7.64856 9.82143 6.74489 10.9322 6.74489ZM8.91781 21.2305V12.2246C9.58079 12.8275 10.4014 13.205 11.2991 13.3087C11.4708 13.3285 11.6434 13.3384 11.8161 13.3384C13.0476 13.3384 14.2928 12.8387 15.3718 11.9014C16.9476 10.5325 18.8064 10.541 19.4198 10.5876V21.2305H8.91781V21.2305Z" fill="url(#paint4_linear)"/>
<path d="M4.64008 7.37855C5.37645 7.37855 5.97547 6.77952 5.97547 6.04316C5.97547 5.30679 5.37645 4.70776 4.64008 4.70776C3.90371 4.70776 3.30469 5.30679 3.30469 6.04316C3.30469 6.77952 3.90371 7.37855 4.64008 7.37855ZM4.64008 5.47731C4.95211 5.47731 5.20592 5.73113 5.20592 6.04316C5.20592 6.35518 4.95211 6.609 4.64008 6.609C4.32805 6.609 4.07424 6.35518 4.07424 6.04316C4.07424 5.73113 4.32805 5.47731 4.64008 5.47731Z" fill="url(#paint5_linear)"/>
<path d="M4.9796 10.8416C3.71909 10.8416 2.6936 11.867 2.6936 13.1276C2.6936 14.3881 3.71909 15.4136 4.9796 15.4136C6.24012 15.4136 7.2656 14.3881 7.2656 13.1276C7.2656 11.867 6.24007 10.8416 4.9796 10.8416ZM4.9796 14.644C4.14343 14.644 3.46315 13.9637 3.46315 13.1276C3.46315 12.2914 4.14343 11.6111 4.9796 11.6111C5.81578 11.6111 6.49606 12.2914 6.49606 13.1276C6.49606 13.9637 5.81574 14.644 4.9796 14.644Z" fill="url(#paint6_linear)"/>
<path d="M3.10091 17.5864C2.38953 17.5864 1.81079 18.1652 1.81079 18.8765C1.81079 19.5879 2.38953 20.1667 3.10091 20.1667C3.81229 20.1667 4.39103 19.5879 4.39103 18.8765C4.39103 18.1652 3.81224 17.5864 3.10091 17.5864ZM3.10091 19.3971C2.81387 19.3971 2.58034 19.1636 2.58034 18.8765C2.58034 18.5895 2.81387 18.356 3.10091 18.356C3.38795 18.356 3.62149 18.5895 3.62149 18.8765C3.62149 19.1636 3.38791 19.3971 3.10091 19.3971Z" fill="url(#paint7_linear)"/>
<defs>
<linearGradient id="paint0_linear" x1="14.0989" y1="17.231" x2="14.0989" y2="20.4093" gradientUnits="userSpaceOnUse">
<stop stop-color="#EB7070"/>
<stop offset="1" stop-color="#2B5878"/>
</linearGradient>
<linearGradient id="paint1_linear" x1="11.8536" y1="15.2678" x2="11.8536" y2="17.7246" gradientUnits="userSpaceOnUse">
<stop stop-color="#EB7070"/>
<stop offset="1" stop-color="#2B5878"/>
</linearGradient>
<linearGradient id="paint2_linear" x1="14.1687" y1="14.5078" x2="14.1687" y2="16.9646" gradientUnits="userSpaceOnUse">
<stop stop-color="#EB7070"/>
<stop offset="1" stop-color="#2B5878"/>
</linearGradient>
<linearGradient id="paint3_linear" x1="16.484" y1="15.2678" x2="16.484" y2="17.7246" gradientUnits="userSpaceOnUse">
<stop stop-color="#EB7070"/>
<stop offset="1" stop-color="#2B5878"/>
</linearGradient>
<linearGradient id="paint4_linear" x1="14.131" y1="0" x2="14.131" y2="22" gradientUnits="userSpaceOnUse">
<stop stop-color="#EB7070"/>
<stop offset="1" stop-color="#2B5878"/>
</linearGradient>
<linearGradient id="paint5_linear" x1="4.64008" y1="4.70776" x2="4.64008" y2="7.37855" gradientUnits="userSpaceOnUse">
<stop stop-color="#EB7070"/>
<stop offset="1" stop-color="#2B5878"/>
</linearGradient>
<linearGradient id="paint6_linear" x1="4.9796" y1="10.8416" x2="4.9796" y2="15.4136" gradientUnits="userSpaceOnUse">
<stop stop-color="#EB7070"/>
<stop offset="1" stop-color="#2B5878"/>
</linearGradient>
<linearGradient id="paint7_linear" x1="3.10091" y1="17.5864" x2="3.10091" y2="20.1667" gradientUnits="userSpaceOnUse">
<stop stop-color="#EB7070"/>
<stop offset="1" stop-color="#2B5878"/>
</linearGradient>
</defs>
</svg>
