<svg width="22" height="22" viewBox="0 0 22 22" fill="none" xmlns="http://www.w3.org/2000/svg">
<path d="M21.6777 5.15625C21.4998 5.15625 21.3554 5.30059 21.3554 5.47851V19.25H20.7109V3.24414C20.7109 3.06622 20.5665 2.92188 20.3886 2.92188H1.61132C1.43341 2.92188 1.28906 3.06622 1.28906 3.24414V19.25H0.64453V17.8535C0.64453 17.6756 0.500182 17.5312 0.322265 17.5312C0.144348 17.5312 0 17.6756 0 17.8535V19.5722C0 19.7503 0.144348 19.8945 0.322265 19.8945H1.28906V20.0019C1.28906 20.18 1.43341 20.3242 1.61132 20.3242H4.88936C4.98218 20.3242 5.07064 20.2842 5.13173 20.2144C5.193 20.1446 5.22103 20.0518 5.20894 19.9596L5.20038 19.8945H15.125C15.3029 19.8945 15.4472 19.7501 15.4472 19.5722C15.4472 19.3941 15.3029 19.25 15.125 19.25H5.11512L5.03002 18.6054H16.9699L16.8848 19.25H16.5C16.322 19.25 16.1777 19.3941 16.1777 19.5722C16.1777 19.7501 16.322 19.8945 16.5 19.8945H16.7997L16.791 19.9596C16.7789 20.0518 16.8071 20.1446 16.8682 20.2144C16.9295 20.2842 17.0178 20.3242 17.1106 20.3242H20.3886C20.5667 20.3242 20.7109 20.18 20.7109 20.0019V19.8945H21.6777C21.8558 19.8945 22 19.7503 22 19.5722V5.47851C22 5.30059 21.8556 5.15625 21.6777 5.15625ZM18.0254 12.2392C17.8476 12.2392 17.7031 12.0947 17.7031 11.9169C17.7031 11.7392 17.8476 11.5947 18.0254 11.5947H20.0664V12.2392H18.0254ZM17.1282 3.5664L18.5411 9.31749C18.5772 9.46453 18.709 9.56288 18.8538 9.56288C18.8792 9.56288 18.9052 9.55986 18.9309 9.55348C19.1038 9.51102 19.2095 9.33646 19.167 9.16374L17.7919 3.5664H18.7181L18.9933 6.75246C19.0079 6.92031 19.1486 7.04687 19.3141 7.04687C19.3233 7.04687 19.3327 7.04653 19.3421 7.04569C19.5195 7.03042 19.6508 6.87432 19.6355 6.69691L19.3649 3.5664H20.0664V10.9501H18.3167L16.5028 3.5664H17.1282ZM2.63502 3.5664L2.36445 6.69691C2.34918 6.87415 2.48043 7.03042 2.65785 7.04569C2.66725 7.04653 2.67665 7.04687 2.68588 7.04687C2.85137 7.04687 2.99203 6.92014 3.00663 6.7523L3.2819 3.5664H4.20808L2.83291 9.16374C2.79045 9.33646 2.89619 9.51102 3.06907 9.55348C3.09492 9.55986 3.12077 9.56288 3.14611 9.56288C3.29096 9.56288 3.42272 9.46453 3.45881 9.31749L4.87174 3.5664H5.49714L3.68322 10.9501H1.93359V3.5664H2.63502ZM3.9746 12.2392H1.93359V11.5947H3.9746C4.15235 11.5947 4.29687 11.7392 4.29687 11.9169C4.29687 12.0947 4.15235 12.2392 3.9746 12.2392ZM1.93359 19.6797V12.8837H3.62414L4.52178 19.6797H1.93359ZM4.26833 12.8379C4.65824 12.7134 4.9414 12.3476 4.9414 11.9169C4.9414 11.5094 4.68778 11.1601 4.33027 11.0181L6.16097 3.5664H10.6777V17.9609H4.94492L4.26833 12.8379ZM11.3222 17.9609V3.5664H15.839L17.6697 11.0181C17.3122 11.1601 17.0586 11.5094 17.0586 11.9169C17.0586 12.3476 17.3417 12.7134 17.7316 12.8379L17.055 17.9609H11.3222ZM20.0664 19.6797H17.4782L18.3758 12.8837H20.0664V19.6797Z" fill="url(#paint0_linear)"/>
<path d="M21.6777 1.63281H0.322265C0.144348 1.63281 0 1.77716 0 1.95508V16.4785C0 16.6566 0.144348 16.8008 0.322265 16.8008C0.500182 16.8008 0.64453 16.6566 0.64453 16.4785V2.27734H21.3554V4.10351C21.3554 4.2816 21.4998 4.42578 21.6777 4.42578C21.8556 4.42578 22 4.2816 22 4.10351V1.95508C22 1.77716 21.8556 1.63281 21.6777 1.63281Z" fill="url(#paint1_linear)"/>
<defs>
<linearGradient id="paint0_linear" x1="11" y1="2.92187" x2="11" y2="20.3242" gradientUnits="userSpaceOnUse">
<stop stop-color="#EB7070"/>
<stop offset="1" stop-color="#2B5878"/>
</linearGradient>
<linearGradient id="paint1_linear" x1="11" y1="1.63281" x2="11" y2="16.8008" gradientUnits="userSpaceOnUse">
<stop stop-color="#EB7070"/>
<stop offset="1" stop-color="#2B5878"/>
</linearGradient>
</defs>
</svg>
