<svg width="23" height="23" viewBox="0 0 23 23" fill="none" xmlns="http://www.w3.org/2000/svg">
<g clip-path="url(#clip0)">
<path d="M5.47486 9.26905C5.47204 9.83282 5.01275 10.2875 4.44886 10.2849C3.88498 10.2822 3.43023 9.82305 3.433 9.25941C3.43576 8.69571 3.89511 8.24096 4.459 8.24366C5.02276 8.24631 5.47763 8.70535 5.47486 9.26905Z" fill="url(#paint0_linear)"/>
<path d="M10.3218 20.2455C10.7253 20.2455 11.0523 19.9184 11.0523 19.5149C11.0523 19.1115 10.7253 18.7844 10.3218 18.7844C9.91837 18.7844 9.59131 19.1115 9.59131 19.5149C9.59131 19.9184 9.91837 20.2455 10.3218 20.2455Z" fill="url(#paint1_linear)"/>
<path d="M1.89299 20.1065C2.39352 20.1065 2.79929 19.7008 2.79929 19.2002C2.79929 18.6997 2.39352 18.2939 1.89299 18.2939C1.39246 18.2939 0.986694 18.6997 0.986694 19.2002C0.986694 19.7008 1.39246 20.1065 1.89299 20.1065Z" fill="url(#paint2_linear)"/>
<path d="M19.6722 10.186H14.2822C12.9914 10.186 11.9413 11.2363 11.9413 12.5271V20.2966L15.8684 20.2965L18.1165 14.2318C18.1871 14.0409 18.3992 13.9435 18.5901 14.0143C18.7809 14.085 18.8782 14.297 18.8075 14.4879L16.4703 20.7931C16.4167 20.9376 16.2789 21.0335 16.1248 21.0335L9.51247 21.0338C9.02567 21.0337 8.6297 21.4299 8.62964 21.9168C8.62964 22.1525 8.7214 22.374 8.88809 22.5407C9.05484 22.7075 9.2765 22.8159 9.51241 22.8159H21.6448C21.8483 22.8159 22.0133 22.6509 22.0133 22.4474V12.5271C22.0133 11.2362 20.9631 10.186 19.6722 10.186Z" fill="url(#paint3_linear)"/>
<path d="M16.9772 9.18801C19.5103 9.18801 21.5713 7.12716 21.5713 4.59401C21.5713 2.06085 19.5103 0 16.9772 0C14.4441 0 12.3833 2.06085 12.3833 4.59401C12.3833 7.12716 14.4441 9.18801 16.9772 9.18801Z" fill="url(#paint4_linear)"/>
<path d="M5.39773 22.1173C5.39571 22.5794 5.01933 22.9519 4.55709 22.9492C4.09492 22.9467 3.7218 22.57 3.72389 22.1079C3.72591 21.6458 4.10229 21.2733 4.56446 21.2759C5.0267 21.2785 5.39976 21.6552 5.39773 22.1173Z" fill="url(#paint5_linear)"/>
<path d="M10.2999 11.3614C10.1476 11.3122 9.98125 11.3669 9.88777 11.4965L9.00223 12.7245L8.5898 11.7211C8.5341 11.5857 8.4034 11.496 8.25685 11.4928C8.25421 11.4927 8.25157 11.4927 8.24887 11.4927C8.10551 11.4927 7.97482 11.5761 7.91444 11.7066L7.29749 13.041C7.21249 13.0282 7.12656 13.0217 7.04021 13.0217C6.39807 13.0217 5.8125 13.3793 5.51297 13.9335L3.06794 14.024C2.96494 14.0279 2.86833 14.0746 2.80138 14.153C2.73444 14.2312 2.70336 14.334 2.71564 14.4363C2.92422 16.1723 4.11532 17.4828 5.72719 17.7977L4.76366 20.6309C5.49472 20.731 6.0583 21.3609 6.05474 22.1184C6.05321 22.4481 5.94376 22.753 5.76036 22.9999H8.30838C8.03961 22.702 7.89251 22.3206 7.89251 21.9164C7.89258 21.1312 8.45407 20.475 9.19644 20.3276C9.0244 20.0905 8.93086 19.8068 8.93227 19.5082C8.93602 18.746 9.55936 18.1258 10.3218 18.1258C10.3224 18.1258 10.328 18.1258 10.3285 18.1258C10.4053 18.1261 10.4808 18.1342 10.555 18.1467V11.7121C10.5552 11.5522 10.4521 11.4106 10.2999 11.3614Z" fill="url(#paint6_linear)"/>
<path d="M1.8761 22.9937L3.19974 23C3.07113 22.7674 2.82373 22.609 2.53961 22.6077C2.25481 22.6077 2.00674 22.7635 1.8761 22.9937Z" fill="url(#paint7_linear)"/>
</g>
<defs>
<linearGradient id="paint0_linear" x1="4.45393" y1="8.24365" x2="4.45393" y2="10.2849" gradientUnits="userSpaceOnUse">
<stop stop-color="#EB7070"/>
<stop offset="1" stop-color="#2B5878"/>
</linearGradient>
<linearGradient id="paint1_linear" x1="10.3218" y1="18.7844" x2="10.3218" y2="20.2455" gradientUnits="userSpaceOnUse">
<stop stop-color="#EB7070"/>
<stop offset="1" stop-color="#2B5878"/>
</linearGradient>
<linearGradient id="paint2_linear" x1="1.89299" y1="18.2939" x2="1.89299" y2="20.1065" gradientUnits="userSpaceOnUse">
<stop stop-color="#EB7070"/>
<stop offset="1" stop-color="#2B5878"/>
</linearGradient>
<linearGradient id="paint3_linear" x1="15.3215" y1="10.186" x2="15.3215" y2="22.8159" gradientUnits="userSpaceOnUse">
<stop stop-color="#EB7070"/>
<stop offset="1" stop-color="#2B5878"/>
</linearGradient>
<linearGradient id="paint4_linear" x1="16.9773" y1="0" x2="16.9773" y2="9.18801" gradientUnits="userSpaceOnUse">
<stop stop-color="#EB7070"/>
<stop offset="1" stop-color="#2B5878"/>
</linearGradient>
<linearGradient id="paint5_linear" x1="4.56081" y1="21.2759" x2="4.56081" y2="22.9493" gradientUnits="userSpaceOnUse">
<stop stop-color="#EB7070"/>
<stop offset="1" stop-color="#2B5878"/>
</linearGradient>
<linearGradient id="paint6_linear" x1="6.63402" y1="11.3435" x2="6.63402" y2="22.9999" gradientUnits="userSpaceOnUse">
<stop stop-color="#EB7070"/>
<stop offset="1" stop-color="#2B5878"/>
</linearGradient>
<linearGradient id="paint7_linear" x1="2.53792" y1="22.6077" x2="2.53792" y2="23" gradientUnits="userSpaceOnUse">
<stop stop-color="#EB7070"/>
<stop offset="1" stop-color="#2B5878"/>
</linearGradient>
<clipPath id="clip0">
<rect width="23" height="23" fill="white"/>
</clipPath>
</defs>
</svg>
