<svg width="25" height="24" viewBox="0 0 25 24" fill="none" xmlns="http://www.w3.org/2000/svg">
<g clip-path="url(#clip0)">
<path d="M4.58725 1.61157C3.89724 1.61157 3.33789 2.14855 3.33789 2.81095C3.33789 3.47336 3.89724 4.01034 4.58725 4.01034C5.27726 4.01034 5.83661 3.47336 5.83661 2.81095C5.83661 2.14855 5.27726 1.61157 4.58725 1.61157ZM4.58725 3.21075C4.35726 3.21075 4.1708 3.03174 4.1708 2.81095C4.1708 2.59017 4.35726 2.41116 4.58725 2.41116C4.81723 2.41116 5.0037 2.59017 5.0037 2.81095C5.0037 3.03174 4.81729 3.21075 4.58725 3.21075Z" fill="url(#paint0_linear)"/>
<path d="M20.4127 1.61157C19.7227 1.61157 19.1633 2.14855 19.1633 2.81095C19.1633 3.47336 19.7227 4.01034 20.4127 4.01034C21.1027 4.01034 21.662 3.47336 21.662 2.81095C21.662 2.14855 21.1027 1.61157 20.4127 1.61157ZM20.4127 3.21075C20.1827 3.21075 19.9962 3.03174 19.9962 2.81095C19.9962 2.59017 20.1827 2.41116 20.4127 2.41116C20.6427 2.41116 20.8291 2.59017 20.8291 2.81095C20.8291 3.03174 20.6427 3.21075 20.4127 3.21075Z" fill="url(#paint1_linear)"/>
<path d="M24.9739 10.6868L22.8604 4.30931C23.1634 3.86349 23.3256 3.34316 23.3277 2.81088C23.3348 1.26528 22.0354 0.00682414 20.4254 2.76416e-05C18.8154 -0.00676886 17.5045 1.24064 17.4974 2.78624C17.492 3.95589 18.2449 5.00535 19.3851 5.41759L20.1397 9.40274C19.8316 9.2741 19.4992 9.20774 19.1632 9.20764C18.2712 9.20839 17.4473 9.66545 17.0014 10.407H14.6963C15.4172 9.80193 15.831 8.92758 15.8315 8.00826V6.40908C15.8315 4.64269 14.3399 3.21072 12.4999 3.21072C10.6599 3.21072 9.1683 4.64269 9.1683 6.40908V8.00826C9.16882 8.92758 9.58262 9.80193 10.3035 10.407H7.99848C7.55252 9.66545 6.72862 9.20839 5.83668 9.20764C5.50066 9.20774 5.16827 9.2741 4.8601 9.40274L5.61471 5.41759C7.11706 4.87002 7.87261 3.2569 7.30218 1.81464C6.73174 0.372386 5.05151 -0.352991 3.54911 0.194577C2.4175 0.607015 1.67007 1.64888 1.67216 2.81088C1.67419 3.34316 1.83645 3.86349 2.13942 4.30931L0.0259209 10.6868C0.013063 10.7256 0.00645177 10.7661 0.00634766 10.8068V14.8047C0.00634766 15.0255 0.192814 15.2045 0.4228 15.2045H5.90581L7.50915 23.6717C7.54518 23.8618 7.71769 24 7.91894 24H17.0809C17.2821 24 17.4547 23.8618 17.4907 23.6717L19.094 15.2045H24.577C24.807 15.2045 24.9935 15.0255 24.9935 14.8047V10.8068C24.9934 10.766 24.9868 10.7256 24.9739 10.6868ZM19.8615 4.73669C18.9585 4.49781 18.3321 3.71012 18.3302 2.81088C18.3302 1.7069 19.2625 0.81191 20.4125 0.81191C21.5625 0.81191 22.4948 1.7069 22.4948 2.81088C22.5078 3.90267 21.5964 4.79786 20.4592 4.81035C20.36 4.81145 20.2609 4.80565 20.1627 4.79306C20.061 4.78117 19.9604 4.76233 19.8615 4.73669ZM10.0012 8.00821V6.40903C10.0012 5.08421 11.1199 4.01026 12.4999 4.01026C13.8799 4.01026 14.9986 5.08421 14.9986 6.40903V8.00821C14.9986 9.33302 13.8799 10.407 12.4999 10.407C11.12 10.407 10.0012 9.33297 10.0012 8.00821ZM4.58732 0.81191C5.7373 0.816357 6.66578 1.71494 6.66115 2.81893C6.6574 3.71357 6.03486 4.49686 5.13704 4.73669C4.02605 5.02684 2.88039 4.39741 2.57815 3.33081C2.5301 3.16135 2.50553 2.98649 2.50506 2.81088C2.50647 1.7074 3.43791 0.813209 4.58732 0.81191ZM12.0835 23.2004H10.8341C10.4891 23.2004 10.2094 22.9319 10.2094 22.6007C10.2094 22.2695 10.4891 22.001 10.8341 22.001H12.0835V23.2004ZM12.0835 21.2014H10.2094C9.86445 21.2014 9.58475 20.9329 9.58475 20.6017C9.58475 20.2705 9.86445 20.002 10.2094 20.002H12.0835V21.2014ZM12.0835 19.2024H10.2094C9.86445 19.2024 9.58475 18.9339 9.58475 18.6028C9.58475 18.2716 9.86445 18.0031 10.2094 18.0031H12.0835V19.2024ZM14.1657 23.2004H12.9164V22.001H14.1657C14.5107 22.001 14.7904 22.2695 14.7904 22.6007C14.7904 22.9319 14.5108 23.2004 14.1657 23.2004ZM14.7904 21.2014H12.9164V20.002H14.7904C15.1354 20.002 15.4151 20.2705 15.4151 20.6017C15.4151 20.9329 15.1354 21.2014 14.7904 21.2014ZM12.9164 19.2024V18.0031H14.7904C15.1354 18.0031 15.4151 18.2716 15.4151 18.6028C15.4151 18.9339 15.1354 19.2024 14.7904 19.2024H12.9164ZM24.1606 14.4049H18.7467C18.5455 14.4049 18.3729 14.543 18.3369 14.7331L16.7336 23.2004H15.4771C15.6965 22.7741 15.6679 22.2688 15.4018 21.8679C16.1301 21.5476 16.45 20.7211 16.1163 20.022C16.0414 19.8649 15.9366 19.7225 15.8074 19.6022C16.2683 19.1778 16.3807 18.5114 16.0827 17.9691C16.6771 17.8672 17.1864 17.5013 17.4557 16.9824L16.7103 16.625C16.5266 16.9813 16.1474 17.2059 15.7333 17.2035H12.9164V13.5334L16.7477 12.7977L16.5812 12.0141L12.4945 12.7985L7.99349 12.0125L7.8444 12.7993L12.0835 13.5394V17.2035H9.26658C8.85398 17.2043 8.47673 16.98 8.29375 16.625L7.5483 16.9824C7.81707 17.5006 8.32503 17.8664 8.91843 17.9691C8.62009 18.5112 8.73191 19.1775 9.19245 19.6022C8.61733 20.1376 8.60322 21.0192 9.16085 21.5713C9.28615 21.6953 9.43441 21.7959 9.59808 21.8679C9.33191 22.2688 9.30333 22.7741 9.5227 23.2004H8.26626L6.66292 14.7331C6.6269 14.543 6.45438 14.4049 6.25313 14.4049H0.839252V10.8687L2.782 5.00735C2.85197 5.06092 2.92401 5.1105 2.99856 5.15727L3.0123 5.16527C3.09455 5.21619 3.17951 5.26307 3.26675 5.3056C3.28674 5.31559 3.3084 5.32439 3.32755 5.33398C3.40501 5.36956 3.48414 5.40235 3.56452 5.43153C3.58159 5.43753 3.59825 5.44392 3.61532 5.44952C3.81819 5.51894 4.0286 5.56601 4.2425 5.58985H4.25791C4.3538 5.5997 4.4501 5.60489 4.54651 5.60544C4.56025 5.60544 4.57358 5.60784 4.58816 5.60784C4.60273 5.60784 4.61731 5.60504 4.63188 5.60504C4.66603 5.60504 4.69935 5.60504 4.7335 5.60504L3.85562 10.2367C3.8148 10.4539 3.9652 10.6619 4.19159 10.7011C4.33651 10.7262 4.48446 10.6759 4.58066 10.5689C5.17114 9.89998 6.21471 9.81727 6.91144 10.3842C7.1066 10.543 7.26074 10.743 7.36173 10.9687C7.42794 11.1143 7.57766 11.2085 7.7432 11.2086H17.2566C17.4221 11.2085 17.5719 11.1143 17.6381 10.9687C17.9986 10.1631 18.9711 9.79054 19.8103 10.1366C20.0454 10.2336 20.2538 10.3815 20.4192 10.5689C20.5695 10.736 20.8325 10.7545 21.0065 10.6102C21.118 10.5178 21.1703 10.3757 21.1442 10.2367L20.2672 5.60584C20.3026 5.60784 20.3376 5.60584 20.3729 5.60584C20.3859 5.60584 20.3992 5.60864 20.4125 5.60864C20.4258 5.60864 20.4354 5.60864 20.4467 5.60664C20.7705 5.60604 21.0919 5.55192 21.3966 5.44672L21.4187 5.43913C21.5086 5.40674 21.5969 5.37076 21.6831 5.32998L21.7277 5.30959C21.8193 5.26497 21.9084 5.21569 21.9946 5.16207L22.0004 5.15887C22.0748 5.11195 22.1473 5.06172 22.2178 5.00815L24.1606 10.8687V14.4049V14.4049Z" fill="url(#paint2_linear)"/>
<path d="M5.51858 12.4059C5.10598 12.4067 4.72872 12.1824 4.54574 11.8274L3.80029 12.1848C4.12393 12.8113 4.7901 13.207 5.51858 13.2055H6.66965V12.4059H5.51858V12.4059Z" fill="url(#paint3_linear)"/>
<path d="M20.4584 11.8274C20.2747 12.1837 19.8955 12.4083 19.4814 12.4059H18.3303V13.2055H19.4814C20.2114 13.2086 20.8795 12.8126 21.2038 12.1848L20.4584 11.8274Z" fill="url(#paint4_linear)"/>
</g>
<defs>
<linearGradient id="paint0_linear" x1="4.58725" y1="1.61157" x2="4.58725" y2="4.01034" gradientUnits="userSpaceOnUse">
<stop stop-color="#EB7070"/>
<stop offset="1" stop-color="#2B5878"/>
</linearGradient>
<linearGradient id="paint1_linear" x1="20.4127" y1="1.61157" x2="20.4127" y2="4.01034" gradientUnits="userSpaceOnUse">
<stop stop-color="#EB7070"/>
<stop offset="1" stop-color="#2B5878"/>
</linearGradient>
<linearGradient id="paint2_linear" x1="12.4999" y1="0" x2="12.4999" y2="24" gradientUnits="userSpaceOnUse">
<stop stop-color="#EB7070"/>
<stop offset="1" stop-color="#2B5878"/>
</linearGradient>
<linearGradient id="paint3_linear" x1="5.23497" y1="11.8274" x2="5.23497" y2="13.2055" gradientUnits="userSpaceOnUse">
<stop stop-color="#EB7070"/>
<stop offset="1" stop-color="#2B5878"/>
</linearGradient>
<linearGradient id="paint4_linear" x1="19.7671" y1="11.8274" x2="19.7671" y2="13.2055" gradientUnits="userSpaceOnUse">
<stop stop-color="#EB7070"/>
<stop offset="1" stop-color="#2B5878"/>
</linearGradient>
<clipPath id="clip0">
<rect width="25" height="24" fill="white"/>
</clipPath>
</defs>
</svg>
