<svg width="15" height="24" viewBox="0 0 15 24" fill="none" xmlns="http://www.w3.org/2000/svg">
<path d="M0.0841516 9.414C0.236028 9.772 0.569781 10 0.937283 10L4.68731 10L4.68731 23C4.68731 23.552 5.10731 24 5.62482 24L9.37484 24C9.89235 24 10.3124 23.552 10.3124 23L10.3124 10L14.0624 10C14.4299 10 14.7636 9.77 14.9155 9.414C15.0693 9.056 15.0093 8.638 14.7674 8.342L8.20484 0.342C8.02671 0.124 7.76983 1.27527e-06 7.49983 1.25166e-06C7.22983 1.22806e-06 6.97295 0.126001 6.79483 0.342L0.232277 8.342C-0.0114742 8.636 -0.0677239 9.056 0.0841516 9.414Z" fill="url(#paint0_linear)"/>
<defs>
<linearGradient id="paint0_linear" x1="7.5" y1="24" x2="7.5" y2="1.25168e-06" gradientUnits="userSpaceOnUse">
<stop stop-color="#EB7070"/>
<stop offset="1" stop-color="#2B5878"/>
</linearGradient>
</defs>
</svg>
