<svg width="24" height="24" viewBox="0 0 24 24" fill="none" xmlns="http://www.w3.org/2000/svg">
<path d="M0.500015 0H23.5C23.7764 0 24 0.223641 24 0.500016V2.50003C24 2.77636 23.7764 3 23.5 3H23V23.5C23 23.7764 22.7764 24 22.5 24C21.8355 24 21.4961 23.6123 21.2481 23.3296C21.0298 23.0805 20.9429 23 20.7476 23C20.5528 23 20.4659 23.0806 20.2476 23.3296C19.9995 23.6123 19.6602 24 18.9951 24C18.3306 24 17.9775 23.5962 17.7436 23.3291C17.5264 23.0805 17.4394 23 17.2456 23C17.0527 23 16.9663 23.0805 16.749 23.3291C16.5161 23.5962 16.1635 24 15.5 24C15.3266 24 15.166 23.9101 15.0747 23.7627C14.9834 23.6152 14.9751 23.4311 15.0527 23.2763L18.4463 16.4892C18.1965 16.4612 18 16.2573 18 16C18 15.7237 18.2236 15.5 18.5 15.5C18.5503 15.5 18.6061 15.4962 18.6578 15.4954C16.9453 14.1449 15.7548 12.1969 15.3633 10.042L14.0829 3H9.91706L8.63672 10.042C8.24517 12.197 7.05464 14.1451 5.34234 15.4951C5.39475 15.4959 5.44786 15.4999 5.49998 15.5C5.77636 15.5 6 15.7241 6 16C6 16.2567 5.80397 16.4601 5.55534 16.4888L8.94919 23.2582C8.99461 23.3486 9.00923 23.4687 8.99508 23.5688C8.96091 23.8159 8.74945 24 8.49994 24C7.83539 24 7.49602 23.6122 7.248 23.3295C7.02975 23.0805 6.94284 23 6.74751 23C6.5527 23 6.4658 23.0805 6.2475 23.3295C5.99953 23.6123 5.66016 24 4.99509 24C4.33055 24 3.97753 23.5962 3.74363 23.3291C3.52636 23.0805 3.43941 23 3.24558 23C3.05269 23 2.9663 23.0805 2.74898 23.3291C2.51611 23.5962 2.16356 24 1.5 24C1.22363 24 0.999985 23.7764 0.999985 23.5V3H0.499968C0.22364 3 0 2.77636 0 2.49998V0.500016C0 0.223641 0.22364 0 0.500015 0Z" fill="url(#paint0_linear)"/>
<defs>
<linearGradient id="paint0_linear" x1="12" y1="0" x2="12" y2="24" gradientUnits="userSpaceOnUse">
<stop stop-color="#EB7070"/>
<stop offset="1" stop-color="#2B5878"/>
</linearGradient>
</defs>
</svg>
