<svg width="22" height="22" viewBox="0 0 22 22" fill="none" xmlns="http://www.w3.org/2000/svg">
<path d="M22 6.05859V2.19141H19.2371C18.9626 1.32062 18.1478 0.6875 17.1875 0.6875C16.6024 0.6875 16.0715 0.922821 15.6836 1.30367C15.2957 0.922821 14.7648 0.6875 14.1797 0.6875C13.5946 0.6875 13.0637 0.922821 12.6758 1.30367C12.2879 0.922821 11.757 0.6875 11.1719 0.6875C10.5868 0.6875 10.0559 0.922821 9.66797 1.30367C9.28008 0.922821 8.74918 0.6875 8.16406 0.6875C7.57895 0.6875 7.04805 0.922821 6.66016 1.30367C6.27226 0.922821 5.74136 0.6875 5.15625 0.6875C4.57114 0.6875 4.04024 0.922821 3.65234 1.30367C3.26445 0.922821 2.73355 0.6875 2.14844 0.6875C0.963776 0.6875 0 1.65128 0 2.83594V19.1641C0 20.3487 0.963776 21.3125 2.14844 21.3125C2.72801 21.3125 3.25287 21.0933 3.64764 20.692C4.03587 21.0753 4.56879 21.3125 5.15625 21.3125C5.74136 21.3125 6.27226 21.0772 6.66016 20.6963C7.04805 21.0772 7.57895 21.3125 8.16406 21.3125C8.74918 21.3125 9.28008 21.0772 9.66797 20.6963C10.0559 21.0772 10.5868 21.3125 11.1719 21.3125C11.757 21.3125 12.2879 21.0772 12.6758 20.6963C13.0637 21.0772 13.5946 21.3125 14.1797 21.3125C14.7648 21.3125 15.2957 21.0772 15.6836 20.6963C16.0715 21.0772 16.6024 21.3125 17.1875 21.3125C18.1478 21.3125 18.9626 20.6794 19.2371 19.8086H22V15.9414H19.3359V6.05859H22ZM20.7109 4.76953H19.3359V3.48047H20.7109V4.76953ZM2.14844 20.0234C1.67461 20.0234 1.28906 19.6379 1.28906 19.1641V2.83594C1.28906 2.36211 1.67461 1.97656 2.14844 1.97656C2.62227 1.97656 3.00781 2.36211 3.00781 2.83594V19.1641C3.00781 19.3843 2.79616 20.0234 2.14844 20.0234ZM5.15625 20.0234C4.68242 20.0234 4.29688 19.6379 4.29688 19.1641V2.83594C4.29688 2.36211 4.68242 1.97656 5.15625 1.97656C5.63008 1.97656 6.01562 2.36211 6.01562 2.83594V19.1641C6.01562 19.6379 5.63008 20.0234 5.15625 20.0234ZM8.16406 20.0234C7.69023 20.0234 7.30469 19.6379 7.30469 19.1641V2.83594C7.30469 2.36211 7.69023 1.97656 8.16406 1.97656C8.63789 1.97656 9.02344 2.36211 9.02344 2.83594V19.1641C9.02344 19.6379 8.63789 20.0234 8.16406 20.0234ZM11.1719 20.0234C10.698 20.0234 10.3125 19.6379 10.3125 19.1641V2.83594C10.3125 2.36211 10.698 1.97656 11.1719 1.97656C11.6457 1.97656 12.0312 2.36211 12.0312 2.83594V19.1641C12.0312 19.6379 11.6457 20.0234 11.1719 20.0234ZM14.1797 20.0234C13.7059 20.0234 13.3203 19.6379 13.3203 19.1641V2.83594C13.3203 2.36211 13.7059 1.97656 14.1797 1.97656C14.6535 1.97656 15.0391 2.36211 15.0391 2.83594V19.1641C15.0391 19.6379 14.6535 20.0234 14.1797 20.0234ZM18.0469 19.1641C18.0469 19.6379 17.6613 20.0234 17.1875 20.0234C16.7137 20.0234 16.3281 19.6379 16.3281 19.1641V2.83594C16.3281 2.36211 16.7137 1.97656 17.1875 1.97656C17.6613 1.97656 18.0469 2.36211 18.0469 2.83594V19.1641ZM20.7109 17.2305V18.5195H19.3359V17.2305H20.7109Z" fill="url(#paint0_linear)"/>
<defs>
<linearGradient id="paint0_linear" x1="11" y1="0.6875" x2="11" y2="21.3125" gradientUnits="userSpaceOnUse">
<stop stop-color="#EB7070"/>
<stop offset="1" stop-color="#2B5878"/>
</linearGradient>
</defs>
</svg>
