<svg width="29" height="29" viewBox="0 0 29 29" fill="none" xmlns="http://www.w3.org/2000/svg">
<path d="M9.85547 4.87109H2.32227V7.88755L4.14802 6.5237C4.20634 6.48109 4.27631 6.45737 4.34852 6.45572C4.42073 6.45407 4.49171 6.47457 4.55192 6.51447L7.46354 8.49921L9.85547 7.38413V4.87109ZM7.27118 7.46325C7.04473 7.46326 6.82336 7.39612 6.63507 7.27032C6.44678 7.14452 6.30002 6.9657 6.21336 6.75649C6.12669 6.54728 6.10401 6.31707 6.14819 6.09497C6.19237 5.87287 6.30141 5.66885 6.46154 5.50873C6.62166 5.3486 6.82567 5.23956 7.04778 5.19538C7.26988 5.15121 7.50009 5.17388 7.7093 5.26055C7.91851 5.34721 8.09733 5.49397 8.22313 5.68226C8.34893 5.87055 8.41607 6.09192 8.41606 6.31838C8.4157 6.62191 8.29496 6.9129 8.08034 7.12753C7.86571 7.34216 7.57471 7.46289 7.27118 7.46325Z" fill="url(#paint0_linear)"/>
<path d="M7.27115 5.85327C7.17913 5.85326 7.08917 5.88054 7.01266 5.93165C6.93614 5.98277 6.8765 6.05543 6.84128 6.14044C6.80606 6.22545 6.79683 6.319 6.81478 6.40925C6.83273 6.4995 6.87703 6.58241 6.94209 6.64748C7.00716 6.71255 7.09006 6.75686 7.18031 6.77482C7.27056 6.79278 7.36411 6.78357 7.44912 6.74836C7.53414 6.71314 7.6068 6.65351 7.65793 6.577C7.70905 6.50049 7.73634 6.41054 7.73634 6.31852C7.73619 6.19518 7.68713 6.07694 7.59993 5.98972C7.51272 5.90251 7.39448 5.85344 7.27115 5.85327Z" fill="url(#paint1_linear)"/>
<path d="M6.11895 1.1814L4.46838 2.83196H7.76957L6.11895 1.1814Z" fill="url(#paint2_linear)"/>
<path d="M10.5352 9.89976L11.4414 10.6936V3.89404L10.5352 4.68135V9.89976Z" fill="url(#paint3_linear)"/>
<path d="M10.0911 4.19141L10.9034 3.51172H1.31677L2.135 4.19141H10.0911Z" fill="url(#paint4_linear)"/>
<path d="M7.247 9.16937L4.36484 7.21289L2.32227 8.7372V9.742H9.85547V8.13341L7.57319 9.19695C7.53226 9.21766 7.48704 9.22847 7.44116 9.2285C7.37201 9.22846 7.30443 9.20788 7.247 9.16937Z" fill="url(#paint5_linear)"/>
<path d="M10.0902 10.4219H2.13571L1.35022 11.1016H10.8699L10.0902 10.4219Z" fill="url(#paint6_linear)"/>
<path d="M1.64258 4.68192L0.792969 3.91064V10.6766L1.64258 9.89892V4.68192Z" fill="url(#paint7_linear)"/>
<path d="M22.3515 5.60742H19.5627L18.5813 8.89258H23.3329L22.3515 5.60742Z" fill="url(#paint8_linear)"/>
<path d="M20.6172 9.23242H21.2969V13.5371H20.6172V9.23242Z" fill="url(#paint9_linear)"/>
<path d="M8.38842 18.5775C8.52145 18.5775 8.65035 18.5314 8.75317 18.4469C8.85599 18.3625 8.92636 18.2451 8.95229 18.1146C8.97822 17.9841 8.95811 17.8487 8.89539 17.7314C8.83266 17.6141 8.7312 17.5221 8.60829 17.4712C8.48538 17.4203 8.34863 17.4136 8.22133 17.4523C8.09403 17.4909 7.98407 17.5725 7.91017 17.6831C7.83627 17.7937 7.80302 17.9265 7.81607 18.0589C7.82912 18.1913 7.88767 18.3151 7.98174 18.4091C8.03502 18.4627 8.09841 18.5052 8.16821 18.5341C8.23802 18.563 8.31286 18.5777 8.38842 18.5775Z" fill="url(#paint10_linear)"/>
<path d="M14.6189 18.5775C14.7519 18.5775 14.8808 18.5314 14.9836 18.4469C15.0865 18.3625 15.1568 18.2451 15.1828 18.1146C15.2087 17.9841 15.1886 17.8487 15.1259 17.7314C15.0631 17.6141 14.9617 17.5221 14.8388 17.4712C14.7159 17.4203 14.5791 17.4136 14.4518 17.4523C14.3245 17.4909 14.2145 17.5725 14.1406 17.6831C14.0667 17.7937 14.0335 17.9265 14.0465 18.0589C14.0596 18.1913 14.1181 18.3151 14.2122 18.4091C14.2655 18.4627 14.3289 18.5052 14.3987 18.5341C14.4685 18.563 14.5433 18.5777 14.6189 18.5775Z" fill="url(#paint11_linear)"/>
<path d="M3.45508 15.4188V18.7776C3.94019 18.9014 4.37038 19.1829 4.67798 19.5779C4.98558 19.973 5.15314 20.459 5.1543 20.9597V22.0333H24.4121V20.9595C24.4133 20.4589 24.5808 19.9728 24.8884 19.5778C25.196 19.1828 25.6262 18.9012 26.1113 18.7774V15.4186C26.1105 15.2142 26.0692 15.012 25.9898 14.8237C25.9104 14.6354 25.7945 14.4647 25.6488 14.3213C25.5031 14.178 25.3304 14.065 25.1408 13.9887C24.9512 13.9125 24.7483 13.8745 24.544 13.8771H5.02261C4.81822 13.8745 4.61536 13.9125 4.42571 13.9887C4.23607 14.065 4.0634 14.178 3.91767 14.3214C3.77195 14.4647 3.65604 14.6355 3.57664 14.8238C3.49725 15.0122 3.45593 15.2144 3.45508 15.4188ZM19.2752 16.4286C19.3389 16.3648 19.4254 16.329 19.5155 16.329C19.6056 16.329 19.6921 16.3648 19.7558 16.4286L20.2361 16.9088C20.4234 16.8035 20.6347 16.7481 20.8496 16.7481C21.0644 16.7481 21.2757 16.8035 21.463 16.9088L21.9432 16.4286C22.0069 16.3648 22.0934 16.329 22.1835 16.329C22.2736 16.329 22.3601 16.3648 22.4238 16.4285C22.4876 16.4923 22.5234 16.5787 22.5234 16.6688C22.5234 16.759 22.4876 16.8454 22.4239 16.9092L21.9431 17.3899C22.0477 17.5773 22.1026 17.7883 22.1026 18.0029C22.1026 18.2175 22.0477 18.4285 21.9431 18.6159L22.4239 19.0966C22.4554 19.1281 22.4804 19.1656 22.4975 19.2068C22.5146 19.2481 22.5234 19.2922 22.5234 19.3369C22.5234 19.3815 22.5146 19.4257 22.4975 19.4669C22.4804 19.5082 22.4554 19.5456 22.4238 19.5772C22.3923 19.6087 22.3548 19.6338 22.3136 19.6508C22.2723 19.6679 22.2281 19.6767 22.1835 19.6767C22.1389 19.6767 22.0947 19.6679 22.0535 19.6508C22.0122 19.6338 21.9748 19.6087 21.9432 19.5772L21.463 19.0969C21.2757 19.2022 21.0644 19.2576 20.8495 19.2576C20.6346 19.2576 20.4234 19.2022 20.2361 19.0969L19.7558 19.5772C19.7244 19.6094 19.6869 19.6351 19.6455 19.6528C19.6041 19.6704 19.5596 19.6796 19.5146 19.68C19.4695 19.6803 19.4249 19.6716 19.3833 19.6545C19.3416 19.6374 19.3038 19.6122 19.2719 19.5804C19.2401 19.5486 19.2149 19.5107 19.1978 19.4691C19.1808 19.4274 19.1721 19.3828 19.1724 19.3378C19.1727 19.2928 19.182 19.2483 19.1996 19.2069C19.2173 19.1654 19.243 19.128 19.2753 19.0966L19.7555 18.6163C19.6501 18.429 19.5948 18.2178 19.5948 18.0029C19.5948 17.788 19.6501 17.5767 19.7555 17.3894L19.2753 16.9092C19.2115 16.8454 19.1757 16.759 19.1757 16.6689C19.1757 16.5787 19.2115 16.4923 19.2752 16.4286ZM13.0447 16.4286C13.1085 16.3648 13.1949 16.329 13.285 16.329C13.3752 16.329 13.4616 16.3648 13.5253 16.4286L14.0056 16.9088C14.1929 16.8035 14.4042 16.7481 14.6191 16.7481C14.834 16.7481 15.0452 16.8035 15.2325 16.9088L15.7127 16.4286C15.7765 16.3648 15.8629 16.329 15.953 16.329C16.0432 16.329 16.1296 16.3648 16.1934 16.4285C16.2571 16.4923 16.2929 16.5787 16.2929 16.6688C16.2929 16.759 16.2571 16.8454 16.1934 16.9092L15.7127 17.3899C15.8172 17.5773 15.8721 17.7883 15.8721 18.0029C15.8721 18.2175 15.8172 18.4285 15.7127 18.6159L16.1934 19.0966C16.2249 19.1281 16.25 19.1656 16.267 19.2068C16.2841 19.2481 16.2929 19.2922 16.2929 19.3369C16.2929 19.3815 16.2841 19.4257 16.267 19.4669C16.25 19.5082 16.2249 19.5456 16.1934 19.5772C16.1618 19.6087 16.1243 19.6338 16.0831 19.6508C16.0419 19.6679 15.9977 19.6767 15.953 19.6767C15.9084 19.6767 15.8642 19.6679 15.823 19.6508C15.7818 19.6338 15.7443 19.6087 15.7127 19.5772L15.2325 19.0969C15.0452 19.2022 14.834 19.2576 14.6191 19.2576C14.4042 19.2576 14.1929 19.2022 14.0056 19.0969L13.5253 19.5772C13.4613 19.6395 13.3753 19.674 13.286 19.6734C13.1967 19.6728 13.1112 19.6371 13.048 19.5739C12.9848 19.5107 12.9491 19.4252 12.9485 19.3359C12.9479 19.2465 12.9825 19.1606 13.0448 19.0966L13.525 18.6163C13.4197 18.429 13.3643 18.2178 13.3643 18.0029C13.3643 17.788 13.4197 17.5767 13.525 17.3894L13.0448 16.9092C12.9811 16.8454 12.9452 16.759 12.9452 16.6689C12.9452 16.5787 12.981 16.4923 13.0447 16.4286ZM6.81426 16.4286C6.878 16.3648 6.96443 16.329 7.05456 16.329C7.14469 16.329 7.23113 16.3648 7.29486 16.4286L7.77517 16.9088C7.96246 16.8035 8.17373 16.7481 8.38862 16.7481C8.60351 16.7481 8.81477 16.8035 9.00206 16.9088L9.48226 16.4286C9.54599 16.3648 9.63243 16.329 9.72257 16.329C9.8127 16.329 9.89915 16.3648 9.96289 16.4285C10.0266 16.4923 10.0624 16.5787 10.0624 16.6688C10.0624 16.759 10.0266 16.8454 9.96292 16.9092L9.48221 17.3899C9.58676 17.5773 9.64164 17.7883 9.64164 18.0029C9.64164 18.2175 9.58676 18.4285 9.48221 18.6159L9.96292 19.0966C9.99447 19.1281 10.0195 19.1656 10.0366 19.2068C10.0537 19.2481 10.0624 19.2922 10.0624 19.3369C10.0624 19.3815 10.0536 19.4257 10.0366 19.4669C10.0195 19.5082 9.99445 19.5456 9.96289 19.5772C9.93133 19.6087 9.89386 19.6338 9.85263 19.6508C9.81139 19.6679 9.7672 19.6767 9.72257 19.6767C9.67794 19.6767 9.63375 19.6679 9.59252 19.6508C9.55128 19.6338 9.51382 19.6087 9.48226 19.5772L9.00206 19.0969C8.81476 19.2022 8.60349 19.2576 8.38859 19.2576C8.17369 19.2576 7.96242 19.2022 7.77512 19.0969L7.29486 19.5772C7.23084 19.6395 7.14486 19.674 7.05553 19.6734C6.96619 19.6728 6.8807 19.6371 6.81753 19.5739C6.75437 19.5107 6.71862 19.4252 6.71801 19.3359C6.71741 19.2465 6.75201 19.1606 6.81432 19.0966L7.29458 18.6163C7.18919 18.429 7.13383 18.2178 7.13383 18.0029C7.13383 17.788 7.18919 17.5767 7.29458 17.3894L6.81432 16.9092C6.75058 16.8454 6.71477 16.759 6.71476 16.6689C6.71475 16.5787 6.75054 16.4923 6.81426 16.4286Z" fill="url(#paint12_linear)"/>
<path d="M20.8494 18.5775C20.9824 18.5775 21.1113 18.5314 21.2141 18.4469C21.3169 18.3625 21.3873 18.2451 21.4132 18.1146C21.4392 17.9841 21.4191 17.8487 21.3563 17.7314C21.2936 17.6141 21.1921 17.5221 21.0692 17.4712C20.9463 17.4203 20.8096 17.4136 20.6823 17.4523C20.555 17.4909 20.445 17.5725 20.3711 17.6831C20.2972 17.7937 20.264 17.9265 20.277 18.0589C20.2901 18.1913 20.3486 18.3151 20.4427 18.4091C20.496 18.4627 20.5593 18.5052 20.6292 18.5341C20.699 18.563 20.7738 18.5777 20.8494 18.5775Z" fill="url(#paint13_linear)"/>
<path d="M23.7324 26.5078H26.9043V27.8672H23.7324V26.5078Z" fill="url(#paint14_linear)"/>
<path d="M26.6494 19.3931C26.4442 19.3935 26.2412 19.4343 26.0518 19.5133C25.8624 19.5922 25.6905 19.7078 25.5458 19.8532C25.4012 19.9987 25.2866 20.1713 25.2087 20.3611C25.1308 20.5509 25.0911 20.7542 25.0918 20.9593V22.3371C25.0918 22.5248 24.9223 22.7128 24.7346 22.7128H4.83201C4.64453 22.7128 4.47461 22.5248 4.47461 22.3371V20.9593C4.47461 20.5462 4.3105 20.1501 4.01839 19.8579C3.72628 19.5658 3.3301 19.4017 2.91699 19.4017C2.50389 19.4017 2.1077 19.5658 1.81559 19.8579C1.52348 20.1501 1.35938 20.5462 1.35938 20.9593V25.8281H28.207V20.9593C28.2078 20.7542 28.168 20.5509 28.0901 20.3611C28.0122 20.1713 27.8977 19.9987 27.753 19.8532C27.6083 19.7078 27.4364 19.5922 27.247 19.5133C27.0577 19.4343 26.8546 19.3935 26.6494 19.3931Z" fill="url(#paint15_linear)"/>
<path d="M2.66211 26.5078H5.83398V27.8672H2.66211V26.5078Z" fill="url(#paint16_linear)"/>
<defs>
<linearGradient id="paint0_linear" x1="6.08887" y1="4.87109" x2="6.08887" y2="8.49921" gradientUnits="userSpaceOnUse">
<stop stop-color="#EB7070"/>
<stop offset="1" stop-color="#2B5878"/>
</linearGradient>
<linearGradient id="paint1_linear" x1="7.27109" y1="5.85327" x2="7.27109" y2="6.78376" gradientUnits="userSpaceOnUse">
<stop stop-color="#EB7070"/>
<stop offset="1" stop-color="#2B5878"/>
</linearGradient>
<linearGradient id="paint2_linear" x1="6.11898" y1="1.1814" x2="6.11898" y2="2.83196" gradientUnits="userSpaceOnUse">
<stop stop-color="#EB7070"/>
<stop offset="1" stop-color="#2B5878"/>
</linearGradient>
<linearGradient id="paint3_linear" x1="10.9883" y1="3.89404" x2="10.9883" y2="10.6936" gradientUnits="userSpaceOnUse">
<stop stop-color="#EB7070"/>
<stop offset="1" stop-color="#2B5878"/>
</linearGradient>
<linearGradient id="paint4_linear" x1="6.11007" y1="3.51172" x2="6.11007" y2="4.19141" gradientUnits="userSpaceOnUse">
<stop stop-color="#EB7070"/>
<stop offset="1" stop-color="#2B5878"/>
</linearGradient>
<linearGradient id="paint5_linear" x1="6.08887" y1="7.21289" x2="6.08887" y2="9.742" gradientUnits="userSpaceOnUse">
<stop stop-color="#EB7070"/>
<stop offset="1" stop-color="#2B5878"/>
</linearGradient>
<linearGradient id="paint6_linear" x1="6.11007" y1="10.4219" x2="6.11007" y2="11.1016" gradientUnits="userSpaceOnUse">
<stop stop-color="#EB7070"/>
<stop offset="1" stop-color="#2B5878"/>
</linearGradient>
<linearGradient id="paint7_linear" x1="1.21777" y1="3.91064" x2="1.21777" y2="10.6766" gradientUnits="userSpaceOnUse">
<stop stop-color="#EB7070"/>
<stop offset="1" stop-color="#2B5878"/>
</linearGradient>
<linearGradient id="paint8_linear" x1="20.9571" y1="5.60742" x2="20.9571" y2="8.89258" gradientUnits="userSpaceOnUse">
<stop stop-color="#EB7070"/>
<stop offset="1" stop-color="#2B5878"/>
</linearGradient>
<linearGradient id="paint9_linear" x1="20.957" y1="9.23242" x2="20.957" y2="13.5371" gradientUnits="userSpaceOnUse">
<stop stop-color="#EB7070"/>
<stop offset="1" stop-color="#2B5878"/>
</linearGradient>
<linearGradient id="paint10_linear" x1="8.38831" y1="17.4275" x2="8.38831" y2="18.5775" gradientUnits="userSpaceOnUse">
<stop stop-color="#EB7070"/>
<stop offset="1" stop-color="#2B5878"/>
</linearGradient>
<linearGradient id="paint11_linear" x1="14.6188" y1="17.4275" x2="14.6188" y2="18.5775" gradientUnits="userSpaceOnUse">
<stop stop-color="#EB7070"/>
<stop offset="1" stop-color="#2B5878"/>
</linearGradient>
<linearGradient id="paint12_linear" x1="14.7832" y1="13.877" x2="14.7832" y2="22.0333" gradientUnits="userSpaceOnUse">
<stop stop-color="#EB7070"/>
<stop offset="1" stop-color="#2B5878"/>
</linearGradient>
<linearGradient id="paint13_linear" x1="20.8492" y1="17.4275" x2="20.8492" y2="18.5775" gradientUnits="userSpaceOnUse">
<stop stop-color="#EB7070"/>
<stop offset="1" stop-color="#2B5878"/>
</linearGradient>
<linearGradient id="paint14_linear" x1="25.3184" y1="26.5078" x2="25.3184" y2="27.8672" gradientUnits="userSpaceOnUse">
<stop stop-color="#EB7070"/>
<stop offset="1" stop-color="#2B5878"/>
</linearGradient>
<linearGradient id="paint15_linear" x1="14.7832" y1="19.3931" x2="14.7832" y2="25.8281" gradientUnits="userSpaceOnUse">
<stop stop-color="#EB7070"/>
<stop offset="1" stop-color="#2B5878"/>
</linearGradient>
<linearGradient id="paint16_linear" x1="4.24805" y1="26.5078" x2="4.24805" y2="27.8672" gradientUnits="userSpaceOnUse">
<stop stop-color="#EB7070"/>
<stop offset="1" stop-color="#2B5878"/>
</linearGradient>
</defs>
</svg>
