<svg width="26" height="26" viewBox="0 0 26 26" fill="none" xmlns="http://www.w3.org/2000/svg">
<path d="M24.6789 5.12598H19.9293C19.1995 5.12598 18.6081 5.71694 18.6081 6.44693V9.87599H15.1791C14.4491 9.87599 13.8577 10.4667 13.8577 11.1968V14.6261H10.4287C9.69867 14.6261 9.10749 15.2177 9.10749 15.9469V19.5414H5.51384C5.16319 19.5414 4.82716 19.6804 4.57951 19.9278C4.33165 20.1754 4.19263 20.5129 4.19263 20.8622L4.19306 23.6259C4.19306 24.3566 4.78466 24.9475 5.51422 24.9475H24.6789C25.4089 24.9475 26 24.3566 26 23.6259V6.44687C26.0001 5.71694 25.4089 5.12598 24.6789 5.12598Z" fill="url(#paint0_linear)"/>
<path d="M17.7261 1.31876C17.3861 0.970192 16.8291 0.963493 16.4808 1.30263C10.8309 6.80637 5.45594 12.182 0.258102 17.3793C0.0927151 17.5447 0 17.7694 0 18.0026V24.0301C0 24.5159 0.394173 24.9111 0.88074 24.9111C1.36682 24.9111 1.76169 24.516 1.76169 24.0301V18.367C6.87517 13.2533 12.1618 7.96943 17.7097 2.56414C18.0579 2.22506 18.065 1.66711 17.7261 1.31876Z" fill="url(#paint1_linear)"/>
<defs>
<linearGradient id="paint0_linear" x1="15.0963" y1="5.12598" x2="15.0963" y2="24.9475" gradientUnits="userSpaceOnUse">
<stop stop-color="#EB7070"/>
<stop offset="1" stop-color="#2B5878"/>
</linearGradient>
<linearGradient id="paint1_linear" x1="8.9878" y1="1.05273" x2="8.9878" y2="24.9111" gradientUnits="userSpaceOnUse">
<stop stop-color="#EB7070"/>
<stop offset="1" stop-color="#2B5878"/>
</linearGradient>
</defs>
</svg>
