<svg width="24" height="24" viewBox="0 0 24 24" fill="none" xmlns="http://www.w3.org/2000/svg">
<path d="M23.8725 2.36616L17.9613 16.9248C17.6767 17.6259 17.0028 18.0791 16.2448 18.0791C15.7524 18.0791 15.2886 17.8866 14.939 17.537L11.8245 14.4226L9.23613 17.0109C9.37821 17.1773 9.45755 17.389 9.45755 17.6093C9.45755 17.854 9.36037 18.0886 9.18729 18.2618L4.06773 23.3814C3.66892 23.7802 3.13861 23.9999 2.57447 23.9999C2.01046 23.9999 1.48015 23.7802 1.08122 23.3814L0.619426 22.9196C0.220494 22.5206 0.000915527 21.9903 0.000915527 21.4262C0.000915527 20.8621 0.220617 20.3319 0.619549 19.9329L5.73899 14.8134C6.08195 14.4705 6.62739 14.4548 6.98979 14.7647L9.57823 12.1762L6.4639 9.06177C6.02426 8.62212 5.83543 7.99574 5.95881 7.38633C6.0822 6.77692 6.49983 6.27343 7.07602 6.03946L21.6346 0.128303C21.8442 0.0431776 22.0631 0 22.285 0C22.8543 0 23.3866 0.285514 23.7088 0.764035C24.0267 1.23653 24.088 1.83536 23.8725 2.36616Z" fill="url(#paint0_linear)"/>
<defs>
<linearGradient id="paint0_linear" x1="12.0002" y1="0" x2="12.0002" y2="23.9999" gradientUnits="userSpaceOnUse">
<stop stop-color="#EB7070"/>
<stop offset="1" stop-color="#2B5878"/>
</linearGradient>
</defs>
</svg>
