<svg width="10" height="32" fill="none" xmlns="http://www.w3.org/2000/svg"><path d="M2.626 12.943V1.078L1.313 0v14.25l1.313-1.307zm5.26-5.216V5.362l-1.32-1.085v4.765l1.32-1.315zm-2.633 2.601V3.213L3.939 2.135v9.507l1.314-1.314zm1.313 8.722v11.886L7.886 32V17.735l-1.32 1.315zM1.32 24.315v2.336l1.313 1.072v-4.758l-1.313 1.35zm2.626-2.657v7.129l1.314 1.07v-9.514l-1.314 1.315zm5.253-5.223V6.413L7.886 7.727v10.03l1.313-1.322z" fill="#fff"/><path d="M6.566 19.05V9.035l-1.313 1.307v10.022l1.313-1.314zm-2.62 2.615V11.629l-1.313 1.314V22.98l1.313-1.315zm-2.633 2.657V14.244L0 15.56v10.07l1.313-1.307z" fill="#fff"/></svg>