<svg width="237" height="154" fill="none" xmlns="http://www.w3.org/2000/svg"><path d="M204.232 79.26l-24.208 45.018 11.836-6.594 16.652-30.894 16.451 30.66L237 124.278l-24.208-45.019h-8.56zM98.438 83.075c-2.697-2.544-6.342-3.816-10.934-3.816H51.86v39.128l7.457 7.464v-18.744h26.75c5.35 0 9.417-1.183 12.204-3.548 2.786-2.365 4.179-5.78 4.179-10.242 0-4.262-1.348-7.676-4.046-10.242h.034zM86.2 100.413H59.317V85.987h26.381c6.086 0 9.129 2.488 9.129 7.464 0 4.641-2.876 6.962-8.627 6.962zm32.267 22.928V79.259h-7.423v36.651l7.423 7.431zm22.502-5.791v-13.288h19.327l6.687-6.728h-26.014V85.987h30.528l6.688-6.728h-44.672v45.019h38.218l6.688-6.728h-37.45z" fill="#fff"/><path d="M12.64 62.29V5.188L6.32 0v68.582l6.32-6.292zm25.31-25.104v-11.38l-6.352-5.222v22.928l6.353-6.326zM25.278 49.704v-34.24l-6.32-5.189V56.03l6.32-6.326zm6.32 41.973v57.202L37.95 154V85.351l-6.353 6.326zM6.353 117.014v11.247l6.32 5.154v-22.894l-6.32 6.493zm12.639-12.785v34.308l6.32 5.154V97.903l-6.32 6.326z" fill="#84BC35"/><path d="M44.27 79.092V30.86l-6.32 6.326v48.265l6.32-6.359zM31.598 91.677V43.48l-6.32 6.293v48.231l6.32-6.326zm-12.606 12.585V55.963l-6.32 6.326v48.299l6.32-6.326zM6.32 117.048v-48.5L0 74.876v48.466l6.32-6.293z" fill="#00B8EB"/></svg>