<svg width="22" height="22" viewBox="0 0 22 22" fill="none" xmlns="http://www.w3.org/2000/svg">
<path fill-rule="evenodd" clip-rule="evenodd" d="M10.3917 0.285017C10.012 0.664714 10.012 1.28032 10.3917 1.66002L19.3292 10.5975L10.3917 19.535C10.012 19.9147 10.012 20.5303 10.3917 20.91C10.7714 21.2897 11.387 21.2897 11.7667 20.91L21.3847 11.292C21.3871 11.2897 21.3894 11.2874 21.3918 11.2851C21.5579 11.1189 21.6513 10.9077 21.6721 10.6907C21.6849 10.5573 21.6701 10.4217 21.6279 10.2931C21.5818 10.1531 21.5031 10.0214 21.3918 9.90998C21.3896 9.90787 21.3875 9.90577 21.3854 9.90367L11.7667 0.285017C11.387 -0.0946801 10.7714 -0.0946801 10.3917 0.285017ZM1.70422 11.5975C1.15194 11.5975 0.704224 11.1498 0.704224 10.5975C0.704224 10.0452 1.15194 9.59752 1.70422 9.59752L13.7042 9.59752C14.2565 9.59752 14.7042 10.0452 14.7042 10.5975C14.7042 11.1498 14.2565 11.5975 13.7042 11.5975L1.70422 11.5975Z" fill="white"/>
</svg>
