<svg width="420" height="69" viewBox="0 0 420 69" fill="none" xmlns="http://www.w3.org/2000/svg">
<path opacity="0.25" fill-rule="evenodd" clip-rule="evenodd" d="M23.3611 10.5481C53.2542 6.67843 78.3817 8.82822 102.209 13.5578L100.043 0.229004L102.21 13.5577C114.908 16.0504 127.202 19.2122 139.583 22.3966L139.583 22.3967C165.642 29.0989 192.09 35.9009 223.515 36.7753C274.203 38.0652 301.497 26.8864 301.497 26.8864C301.497 26.8864 259.906 30.756 220.482 21.2969C211.719 19.1944 203.513 17.007 195.501 14.8715L195.501 14.8714L195.501 14.8713C167.469 7.39931 141.824 0.563391 103.076 0.229004H100.043C52.3877 0.229004 23.3611 10.5481 23.3611 10.5481ZM-55.9203 32.0443C-55.9203 32.0443 -19.0955 16.9959 32.4592 18.2858C64.5184 19.1457 83.5807 23.0153 104.376 28.6047L104.376 28.6054C108.934 29.6972 113.605 30.9021 118.556 32.1792L118.558 32.1795L118.558 32.1797L118.56 32.1801L118.56 32.1803C127.257 34.4233 136.815 36.8888 148.132 39.3542C171.728 44.695 197.302 45.7177 216.916 45.7981L219.616 45.3733C237.378 44.9434 249.509 43.6535 249.509 43.6535C249.509 43.6535 229.58 50.5329 202.286 53.9726C189.289 55.6924 174.559 57.4123 154.631 56.5524H148.565C132.536 55.6924 118.672 53.5427 107.842 51.3929L107.841 51.3922C104.11 50.3822 100.644 49.6359 97.4442 48.9467L97.4435 48.9466L97.4369 48.9452L97.4332 48.9444C96.5502 48.7542 95.6873 48.5684 94.8447 48.3825C90.7075 47.3487 86.7175 46.3432 82.8542 45.3697C30.4836 32.1727 1.37228 24.8368 -55.9203 32.0443ZM182.791 64.2909C182.791 64.2909 125.171 71.1701 69.284 57.8416C61.1951 55.9302 53.7772 54.116 46.8536 52.4226C-0.733765 40.7839 -24.9701 34.8563 -83.2139 42.3632C-125.237 47.5226 -143 58.7015 -143 58.7015C-72.4001 47.0689 -30.0992 56.5426 9.3699 65.3821C32.6307 70.5916 54.9079 75.5807 81.4145 75.8996C143.8 76.3296 182.791 64.2909 182.791 64.2909ZM485.62 13.1263C514.214 14.8461 528.51 18.2858 527.211 18.2858C497.317 16.9959 476.522 18.2858 458.327 21.2955C406.668 28.2959 365.938 41.3106 325.004 54.3907C280.458 68.6249 235.67 82.9364 176.292 89.6582C143.8 93.0979 125.171 93.9578 102.21 93.9578C60.186 94.3878 38.9576 85.7887 38.9576 85.7887C45.5592 86.1335 50.4889 86.4092 54.3681 86.6261L54.3686 86.6262C60.9297 86.9931 64.4861 87.192 68.0452 87.2731C72.2575 87.3692 76.4736 87.3003 85.6798 87.1499H85.68L85.686 87.1498C87.0376 87.1277 88.4966 87.1039 90.079 87.0786C129.936 86.2187 160.263 82.349 200.986 71.1702C220.765 65.6604 237.069 59.7368 253.6 53.7309L253.601 53.7308L253.601 53.7307C278.349 44.7394 303.606 35.5635 341.787 27.3148L341.794 27.3137C349.59 25.5944 357.82 23.8751 366.915 22.1558C388.574 18.2866 409.801 15.2771 430.594 13.987L430.6 13.9863C449.662 12.2664 468.291 11.8364 485.62 13.1263ZM453.994 31.6153C481.721 26.4558 510.748 23.4461 537.175 21.7263C577.899 19.1466 582.664 21.7263 582.664 21.7263C582.664 21.7263 556.67 25.166 536.308 27.7457C489.444 33.9471 461.055 44.6206 432.78 55.2511C421.848 59.3613 410.933 63.4651 398.974 67.3014C359.549 80.2 317.093 90.089 259.906 93.0986C252.541 93.5286 220.915 93.5286 207.918 88.7991C226.114 89.2291 236.945 88.7991 261.639 85.3595C300.93 79.5911 332.237 68.7461 364.195 57.6751C391.789 48.1161 419.869 38.3888 453.994 31.6153Z" fill="#0C2537"/>
</svg>
