<svg width="12" height="8" viewBox="0 0 12 8" fill="none" xmlns="http://www.w3.org/2000/svg">
<path d="M0.382668 0.857333L5.38267 3.54333C5.55067 3.63333 5.768 3.676 5.98667 3.676C6.20533 3.676 6.42267 3.63333 6.59067 3.54333L11.5907 0.857333C11.9167 0.682 12.2247 0 11.6267 0H0.347334C-0.250666 0 0.0573344 0.682 0.382668 0.857333ZM11.742 2.326L6.59067 5.01067C6.364 5.12933 6.20533 5.14333 5.98667 5.14333C5.768 5.14333 5.60933 5.12933 5.38267 5.01067C5.156 4.892 0.627334 2.518 0.257334 2.32533C-0.00266556 2.18933 1.07737e-06 2.34867 1.07737e-06 2.47133V7.33333C1.07737e-06 7.61333 0.377334 8 0.666668 8H11.3333C11.6227 8 12 7.61333 12 7.33333V2.472C12 2.34933 12.0027 2.19 11.742 2.326Z" fill="url(#paint0_linear)"/>
<defs>
<linearGradient id="paint0_linear" x1="6" y1="0" x2="6" y2="8" gradientUnits="userSpaceOnUse">
<stop stop-color="#EB7070"/>
<stop offset="1" stop-color="#2B5878"/>
</linearGradient>
</defs>
</svg>
