<svg width="128" height="113" viewBox="0 0 128 113" fill="none" xmlns="http://www.w3.org/2000/svg">
<path d="M89.9254 22.853H88.5575V15.8387C85.1376 11.0117 76.7779 0.0754225 72.294 0C67.9621 0.150845 46.3029 10.182 44.0989 15.1599L43.8709 94.429C44.3269 94.429 44.7829 94.3535 45.1629 94.3535C47.8228 90.8087 67.5062 87.2638 72.066 87.2638C76.4739 87.0376 81.6417 89.1494 83.6936 91.4875C81.1857 89.8282 76.5499 88.546 72.37 88.7723C67.9621 88.7723 48.1268 91.4121 45.1629 94.3535H45.3149C47.8228 94.2781 50.1787 94.429 52.6107 94.7307C58.2345 93.4485 69.1021 92.3926 72.902 92.2417C75.9419 92.0909 81.8697 93.7502 83.6936 95.4849C82.2497 94.8061 76.0939 93.5993 72.75 93.7502C65.5302 94.0519 63.9343 94.3535 54.2826 95.0323C55.0426 95.1832 56.1065 95.4095 56.9425 95.5603C61.5784 96.6916 68.4181 98.8789 72.826 98.8789C80.5777 99.6331 86.9615 98.3509 94.4853 97.3704L94.4093 94.9569C91.5974 91.5629 89.3174 91.8646 88.5575 91.94V90.0545C89.6974 90.4316 92.0533 91.1858 94.4093 94.8815L94.4853 90.2053C91.6734 86.8113 89.4694 86.7359 88.6335 86.585V84.6995C89.7734 85.0766 92.2053 86.3588 94.4853 90.0545V85.0766C91.6734 81.6826 89.3174 81.6071 88.5575 81.23V79.3445C90.0014 80.4004 92.1293 81.3055 94.4853 85.0012V80.1741C91.6734 76.7801 89.3174 76.1767 88.5575 75.875V73.9895C90.0014 75.0454 92.2053 76.403 94.4853 80.0987V74.8191C91.6734 71.4251 89.3174 70.8971 88.5575 70.52V68.6345C90.0014 69.6904 92.2053 70.9726 94.4853 74.6683V69.3887C91.6734 65.9947 89.3174 65.4667 88.5575 65.0896V63.2041C90.0014 64.26 92.1293 65.5422 94.4853 69.2379V63.8829C91.6734 60.4888 89.3174 60.0363 88.5575 59.6592V57.7736C90.0014 58.8296 92.2053 60.0363 94.4853 63.8074V58.905C91.6734 55.511 89.3174 54.6813 88.5575 54.3042V52.4186C90.0014 53.4746 92.2053 55.0584 94.4853 58.7541V54.0025C91.6734 50.6085 89.3174 49.2509 88.5575 48.8738V46.9882C90.0014 48.0441 92.2053 50.156 94.4853 53.8517V48.5721C91.6734 45.1781 89.3174 43.8205 88.5575 43.4434V41.6332C90.0014 42.6891 92.2053 44.801 94.4853 48.4967V43.2171C91.6734 39.8231 89.3174 38.4655 88.5575 38.0884V36.2028C90.0014 37.2587 92.2053 39.3705 94.4853 43.0662V37.7867C91.6734 34.3927 89.3174 33.0351 88.5575 32.6579V30.7724C90.0014 31.8283 92.2053 33.9401 94.4853 37.6358V32.3563C91.6734 28.9622 89.3174 27.6046 88.5575 27.2275V25.342C90.0014 26.3979 92.2053 28.5097 94.4853 32.2054V26.9258C92.6613 24.9648 91.0654 23.6072 89.9254 22.853ZM72.598 83.3419C68.1901 83.3419 48.1268 87.3393 45.3149 90.2807C47.8228 86.7359 67.9621 81.6071 72.598 81.6071C76.3979 81.6071 80.6537 84.0961 83.0096 86.6604C80.2737 84.7749 76.7779 83.3419 72.598 83.3419ZM72.446 78.0623C68.0381 78.0623 47.9748 83.4173 45.2389 86.3588C47.7468 82.8139 67.8861 76.3276 72.446 76.3276C76.2459 76.3276 79.8937 77.9869 83.4656 82.5122C80.8817 80.2495 76.6259 78.0623 72.446 78.0623ZM72.37 72.481C67.9621 72.481 47.8228 79.2691 45.0869 82.2105C47.5948 78.6657 67.7341 70.7463 72.37 70.7463C76.1699 70.7463 81.0337 74.97 84.5296 79.4953C81.0337 75.4979 76.5499 72.481 72.37 72.481ZM72.37 67.8802C67.9621 67.8802 47.8228 74.6683 45.0869 77.6097C47.5948 74.0649 67.7341 66.1455 72.37 66.1455C76.1699 66.1455 81.0337 70.3692 84.5296 74.8945C81.0337 70.8971 76.5499 67.8802 72.37 67.8802ZM72.37 63.3549C67.9621 63.3549 47.8228 70.1429 45.0869 73.0844C47.5948 69.5395 67.7341 61.6202 72.37 61.6202C76.1699 61.6202 81.0337 65.8438 84.5296 70.3692C81.0337 66.2964 76.5499 63.3549 72.37 63.3549ZM72.37 57.8491C67.9621 57.8491 47.8228 65.5422 45.0869 68.4836C47.5948 64.9388 67.7341 56.1143 72.37 56.1143C76.1699 56.1143 81.0337 61.1676 84.5296 65.693C81.0337 61.771 76.5499 57.8491 72.37 57.8491ZM72.37 53.2483C67.9621 53.2483 47.8228 60.9414 45.0869 63.8829C47.5948 60.338 67.7341 51.5136 72.37 51.5136C76.1699 51.5136 81.0337 56.5669 84.5296 61.0922C81.0337 57.1703 76.5499 53.2483 72.37 53.2483ZM72.37 48.6475C67.9621 48.6475 47.8228 56.3406 45.0869 59.2821C47.5948 55.7372 67.7341 46.9128 72.37 46.9128C76.1699 46.9128 81.0337 51.9661 84.5296 56.4914C81.0337 52.5695 76.5499 48.6475 72.37 48.6475ZM72.37 44.1222C67.9621 44.1222 47.8228 51.8153 45.0869 54.7567C47.5948 51.2119 67.7341 42.3874 72.37 42.3874C76.1699 42.3874 81.0337 47.4408 84.5296 51.9661C81.0337 47.9687 76.5499 44.1222 72.37 44.1222ZM72.37 39.5214C67.9621 39.5214 47.8228 47.2145 45.0869 50.156C47.5948 46.6111 67.7341 37.7867 72.37 37.7867C76.1699 37.7867 81.0337 42.84 84.5296 47.3653C81.0337 43.3679 76.5499 39.5214 72.37 39.5214ZM72.37 34.9206C67.9621 34.9206 47.8228 42.6137 45.0869 45.5552C47.5948 42.0103 67.7341 33.1859 72.37 33.1859C76.1699 33.1859 81.0337 38.2392 84.5296 42.7646C81.0337 38.7672 76.5499 34.9206 72.37 34.9206ZM72.37 30.3198C67.9621 30.3198 47.8228 38.0129 45.0869 40.9544C47.5948 37.4096 67.7341 28.5851 72.37 28.5851C76.1699 28.5851 81.0337 33.6384 84.5296 38.1638C81.0337 34.1664 76.5499 30.3198 72.37 30.3198ZM72.37 25.7191C67.9621 25.7191 47.8228 33.4122 45.0869 36.3536C47.5948 32.8088 67.7341 23.9844 72.37 23.9844C76.1699 23.9844 81.0337 29.0377 84.5296 33.563C81.0337 29.641 76.5499 25.7191 72.37 25.7191ZM72.37 21.1183C67.9621 21.1183 47.8228 28.8114 45.0869 31.7529C47.5948 28.208 67.7341 19.3836 72.37 19.3836C76.1699 19.3836 81.0337 24.4369 84.5296 28.9622C81.0337 25.0403 76.5499 21.1183 72.37 21.1183ZM72.37 16.3667C67.9621 16.3667 47.8228 24.2106 45.0109 27.2275C47.5188 23.6827 67.6582 14.8582 72.294 14.8582C76.0939 14.8582 80.9577 19.9115 84.4536 24.4369C81.0337 20.4395 76.6259 16.3667 72.37 16.3667ZM72.294 10.7854C67.8861 10.7854 47.8228 19.6099 45.0869 22.5513C47.5948 19.0065 67.6582 9.20154 72.294 9.20154C76.0939 9.20154 81.0337 15.2353 84.6056 19.7607C81.0337 15.8387 76.4739 10.7854 72.294 10.7854ZM71.99 5.95838C67.5822 5.95838 47.8228 15.0845 45.0109 18.026C47.5188 14.4811 67.3542 4.44993 71.99 4.44993C75.7899 4.44993 81.0337 10.7854 84.5296 15.3108C81.0337 11.238 76.2459 5.95838 71.99 5.95838Z" fill="white"/>
<path d="M29.8874 98.0492C35.1312 97.3704 39.5391 97.7475 43.7189 98.5771L43.3389 96.239C34.9792 96.239 29.8874 98.0492 29.8874 98.0492Z" fill="white"/>
<path d="M78.6778 100.915C78.6778 100.915 71.3821 101.594 64.4663 99.9347C57.5505 98.2754 52.6107 96.3144 43.871 96.239C43.719 96.239 43.491 96.239 43.339 96.239L43.719 98.5771C50.6347 99.9347 56.8665 102.424 64.9983 102.65C73.89 102.876 78.6778 100.915 78.6778 100.915Z" fill="white"/>
<path d="M31.4834 99.4068C22.4397 99.1806 15.9799 101.82 15.9799 101.82C26.7715 100.463 31.8634 102.047 42.427 104.686C43.111 104.837 43.871 104.988 44.7069 105.214L44.099 101.217C40.4511 100.236 37.1072 99.5577 31.4834 99.4068Z" fill="white"/>
<path d="M52.9147 106.119C56.4106 106.27 58.9945 105.969 61.2744 105.667C66.0623 105.063 69.5581 103.857 69.5581 103.857C69.5581 103.857 67.4302 104.083 64.3143 104.158L51.8507 106.119C52.2307 106.119 52.5347 106.119 52.9147 106.119Z" fill="white"/>
<path d="M51.7747 103.103C48.6588 102.424 46.3029 101.745 44.099 101.217L44.7069 105.214C46.6069 105.592 49.0388 105.969 51.8507 106.119L64.3143 104.234C60.8184 104.234 56.1066 104.083 51.7747 103.103Z" fill="white"/>
<path d="M57.8545 107.477C57.8545 107.477 47.7469 108.684 37.9432 106.346C26.7716 103.706 22.8957 102.122 11.1921 103.63C3.8203 104.535 0.704407 106.496 0.704407 106.496C20.3878 103.253 27.5315 109.362 40.0711 109.513C51.0148 109.589 57.8545 107.477 57.8545 107.477Z" fill="white"/>
<path d="M118.272 99.4068C118.5 99.4068 115.993 98.8034 110.977 98.5017C107.937 98.2754 104.669 98.3508 101.325 98.6525L85.7455 100.991C74.5739 103.404 69.7101 106.27 61.0464 108.684C53.9026 110.645 48.5828 111.324 41.591 111.474C36.8792 111.55 38.3991 111.55 32.6233 111.248C32.6233 111.248 36.3472 112.757 43.7189 112.681C47.7468 112.681 51.0147 112.53 56.7145 111.927C76.7018 109.664 87.2655 102.499 106.189 99.9347C109.381 99.4068 113.029 99.1805 118.272 99.4068Z" fill="white"/>
<path d="M90.1535 100.086C88.5575 100.387 87.1136 100.689 85.7456 100.991L101.325 98.6526C97.6772 98.8789 93.9534 99.4068 90.1535 100.086Z" fill="white"/>
<path d="M120.02 100.01C115.385 100.312 110.293 100.84 105.429 101.745C92.5093 104.309 84.5296 109.287 71.686 111.173C67.3542 111.776 65.4542 111.852 62.2623 111.776C64.5423 112.606 70.0901 112.606 71.382 112.53C81.4137 112.002 88.8615 110.268 95.7772 108.005C103.301 105.591 108.469 102.575 119.868 101.066C123.44 100.614 128 100.01 128 100.01C128 100.01 127.164 99.5577 120.02 100.01Z" fill="white"/>
</svg>
