<svg viewBox="0 0 29 28" xmlns="http://www.w3.org/2000/svg">
<path  d="M28.0138 1.5851L18.4558 11.1431H25.5001C26.0132 11.1431 26.4287 11.5591 26.4287 12.0717C26.4287 12.5842 26.0132 13.0002 25.5001 13.0002H16.2142C16.1534 13.0002 16.0926 12.9937 16.0327 12.9817C16.0044 12.9761 15.9788 12.9659 15.9519 12.958C15.9208 12.9487 15.8897 12.9417 15.859 12.9292C15.8275 12.9162 15.7982 12.8981 15.7685 12.8814C15.7453 12.8688 15.7216 12.8586 15.6993 12.8438C15.5976 12.776 15.5099 12.6882 15.4421 12.5866C15.4268 12.5638 15.4166 12.5392 15.4036 12.5155C15.3873 12.4863 15.3697 12.4579 15.3567 12.4268C15.3441 12.3962 15.3367 12.3642 15.3274 12.3331C15.3195 12.3066 15.3093 12.2811 15.3042 12.2537C15.2921 12.1933 15.2856 12.1325 15.2856 12.0717V2.78577C15.2856 2.27319 15.7017 1.85718 16.2142 1.85718C16.7268 1.85718 17.1428 2.27319 17.1428 2.78577V9.83004L26.7008 0.272077C26.8823 0.0905374 27.1196 0 27.3573 0C27.595 0 27.8323 0.0905374 28.0138 0.272077C28.3764 0.63469 28.3764 1.22249 28.0138 1.5851Z"/>
<path  d="M12.4999 26.0005C11.9873 26.0005 11.5713 25.5845 11.5713 25.0719V18.0276L2.01333 27.5856C1.65072 27.9482 1.06292 27.9482 0.700305 27.5856C0.337691 27.223 0.337691 26.6352 0.700305 26.2726L10.2583 16.7146H3.21399C2.70141 16.7146 2.28541 16.2986 2.28541 15.786C2.28541 15.273 2.70141 14.8574 3.21399 14.8574H12.4999C12.5607 14.8574 12.6215 14.8639 12.6814 14.8755C12.7097 14.8811 12.7353 14.8918 12.7622 14.8997C12.7933 14.9085 12.8244 14.9159 12.8551 14.9285C12.8866 14.9415 12.9159 14.9596 12.9456 14.9763C12.9688 14.9888 12.9925 14.999 13.0148 15.0134C13.1165 15.0817 13.2042 15.169 13.272 15.2711C13.2873 15.2939 13.2975 15.3185 13.3105 15.3417C13.3268 15.3714 13.3444 15.3997 13.3574 15.4308C13.37 15.4615 13.3774 15.493 13.3867 15.5246C13.3946 15.5511 13.4048 15.5766 13.4099 15.604C13.422 15.6644 13.4285 15.7252 13.4285 15.786V25.0719C13.4285 25.5845 13.0125 26.0005 12.4999 26.0005Z"/>
</svg>
