<svg width="32" height="30" viewBox="0 0 32 30" fill="none" xmlns="http://www.w3.org/2000/svg">
<path d="M30.9657 10.5639L21.3727 9.19515L17.0844 0.660254C16.9673 0.426573 16.7746 0.237403 16.5366 0.122418C15.9396 -0.166901 15.2142 0.074198 14.9157 0.660254L10.6274 9.19515L1.03443 10.5639C0.769949 10.6009 0.52814 10.7233 0.343006 10.9088C0.119189 11.1347 -0.00414439 11.4385 0.000106342 11.7536C0.00435708 12.0686 0.135844 12.3691 0.365676 12.5891L7.30632 19.2323L5.66656 28.6129C5.62811 28.8311 5.6527 29.0555 5.73756 29.2607C5.82242 29.4659 5.96414 29.6436 6.14666 29.7738C6.32917 29.9039 6.54518 29.9812 6.77019 29.997C6.99519 30.0127 7.22019 29.9663 7.41967 29.8629L16.0001 25.4341L24.5805 29.8629C24.8147 29.9853 25.0868 30.0261 25.3475 29.9816C26.0049 29.8703 26.4469 29.2583 26.3336 28.6129L24.6938 19.2323L31.6345 12.5891C31.8234 12.4073 31.9481 12.1699 31.9859 11.9103C32.0879 11.2612 31.6269 10.6603 30.9657 10.5639ZM21.7732 18.2976L23.1372 26.098L16.0001 22.4185L8.86296 26.1017L10.2269 18.3013L4.45374 12.7745L12.4334 11.6358L16.0001 4.54009L19.5667 11.6358L27.5464 12.7745L21.7732 18.2976Z" fill="white"/>
</svg>
