<svg width="21" height="18" viewBox="0 0 21 18" fill="none" xmlns="http://www.w3.org/2000/svg">
<path d="M20.0769 1.72973C20.5641 1.72973 20.9744 2.16216 20.9744 2.67568C20.9744 3.18919 20.5641 3.62162 20.0769 3.62162H18.4103C18.1026 3.62162 17.8205 3.78378 17.6667 4.05405C17.2308 4.83784 16.4103 5.35135 15.4872 5.35135C14.5641 5.35135 13.7692 4.83784 13.3077 4.05405C13.1538 3.78378 12.8462 3.62162 12.5641 3.62162H0.897436C0.410256 3.62162 0 3.18919 0 2.67568C0 2.16216 0.410256 1.72973 0.897436 1.72973H12.5897C12.8974 1.72973 13.1795 1.56757 13.3333 1.2973C13.7692 0.513514 14.5897 0 15.5128 0C16.4359 0 17.2308 0.513514 17.6923 1.2973C17.8462 1.56757 18.1538 1.72973 18.4359 1.72973H20.0769ZM15.5128 12.6487C14.5897 12.6487 13.7949 13.1622 13.3333 13.9459C13.1795 14.2162 12.8718 14.3784 12.5897 14.3784H0.897436C0.410256 14.3784 0 14.8108 0 15.3243C0 15.8378 0.410256 16.2703 0.897436 16.2703H12.5897C12.8974 16.2703 13.1795 16.4324 13.3333 16.7027C13.7692 17.4865 14.5897 18 15.5128 18C16.4359 18 17.2308 17.4865 17.6923 16.7027C17.8462 16.4324 18.1538 16.2703 18.4359 16.2703H20.1026C20.5897 16.2703 21 15.8378 21 15.3243C21 14.8108 20.5897 14.3784 20.1026 14.3784H18.4359C18.1282 14.3784 17.8462 14.2162 17.6923 13.9459C17.2308 13.1622 16.4359 12.6487 15.5128 12.6487ZM5.71795 6.32432C4.79487 6.32432 4 6.83784 3.53846 7.62162C3.38462 7.89189 3.07692 8.05406 2.79487 8.05406H0.897436C0.410256 8.05406 0 8.48649 0 9C0 9.51351 0.410256 9.94595 0.897436 9.94595H2.79487C3.10256 9.94595 3.38462 10.1081 3.53846 10.3784C3.97436 11.1622 4.79487 11.6757 5.71795 11.6757C6.64103 11.6757 7.4359 11.1622 7.89744 10.3784C8.05128 10.1081 8.35897 9.94595 8.64102 9.94595H20.1026C20.5897 9.94595 21 9.51351 21 9C21 8.48649 20.5897 8.05406 20.1026 8.05406H8.64102C8.33333 8.05406 8.05128 7.89189 7.89744 7.62162C7.4359 6.83784 6.64103 6.32432 5.71795 6.32432Z" fill="white"/>
</svg>
