<svg  viewBox="0 0 16 16" xmlns="http://www.w3.org/2000/svg">
<path d="M12.6795 8.70662V1.35851C12.6795 1.10842 12.4768 0.905674 12.2267 0.905674V0C12.9564 0 13.5518 0.575444 13.5838 1.29734L14.4908 0.390313L14.7043 0.603783L13.5852 1.72293V2.20166L15.2514 0.535462L15.4648 0.748931L13.5852 2.6286V3.10733L15.2514 1.44114L15.4648 1.65461L13.5852 3.53427V4.01301L15.2514 2.34681L15.4648 2.56028L13.5852 4.43995V4.91868L15.2514 3.25248L15.4648 3.46595L13.5852 5.34562V5.82436L15.2514 4.15816L15.4648 4.37163L13.5852 6.2513V6.73003L15.2514 5.06383L15.4648 5.2773L13.5852 7.15697V7.6357L15.2514 5.96951L15.4648 6.18297L13.5852 8.06264V8.54138L15.2514 6.87518L15.4648 7.08865L13.5852 8.96832V9.44705L15.2514 7.78085L15.4648 7.99432L13.5852 9.87399V10.3527L15.2514 8.68653L15.4648 8.9L13.5852 10.7797V11.2584L15.2514 9.5922L15.4648 9.80567L13.5852 11.6853V12.1641L15.2514 10.4979L15.4648 10.7113L13.5852 12.591V13.0697L15.2514 11.4035L15.4648 11.617L13.5852 13.4967V13.9754L15.2514 12.3092L15.4648 12.5227L13.5852 14.4024V14.6417C13.5852 14.7325 13.5763 14.8212 13.5593 14.907L15.2514 13.2149L15.4648 13.4284L13.2833 15.6099L13.2305 15.5571C12.982 15.8294 12.6243 16.0002 12.2267 16.0002V15.0946C12.4768 15.0946 12.6795 14.8918 12.6795 14.6417V9.93988L9.34765 6.86045L5.28884 12.2235C5.13951 12.4208 4.85945 12.4617 4.65993 12.3153L3.02333 11.1149L0.835573 14.5728C0.701857 14.7842 0.422128 14.8471 0.210781 14.7134C-0.000565627 14.5797 -0.0634983 14.2999 0.0702176 14.0886L2.51734 10.2207C2.6576 9.99905 2.95631 9.94256 3.16784 10.0977L4.83588 11.3212L8.927 5.9155C9.08851 5.70208 9.39889 5.67456 9.59544 5.85622L12.6795 8.70662Z" />
<path d="M4.52817 7.54706C3.19433 7.54706 2.11304 6.46577 2.11304 5.13193C2.11304 3.79809 3.19433 2.7168 4.52817 2.7168C5.86201 2.7168 6.9433 3.79809 6.9433 5.13193C6.9433 6.46577 5.86201 7.54706 4.52817 7.54706ZM4.52817 6.64138C5.36182 6.64138 6.03762 5.96558 6.03762 5.13193C6.03762 4.29828 5.36182 3.62247 4.52817 3.62247C3.69452 3.62247 3.01871 4.29828 3.01871 5.13193C3.01871 5.96558 3.69452 6.64138 4.52817 6.64138Z"/>
<path d="M15.2511 14.1203L15.4646 14.3338L13.8868 15.9115L13.6733 15.6981L15.2511 14.1203Z"/>
<path d="M1.35876 0.905674C1.10866 0.905674 0.905918 1.10842 0.905918 1.35851V14.6417C0.905918 14.8918 1.10866 15.0946 1.35876 15.0946H14.642C14.8921 15.0946 15.0948 14.8918 15.0948 14.6417V1.35851C15.0948 1.10842 14.8921 0.905674 14.642 0.905674H1.35876ZM1.35876 0H14.642C15.3923 0 16.0005 0.608226 16.0005 1.35851V14.6417C16.0005 15.392 15.3923 16.0002 14.642 16.0002H1.35876C0.60847 16.0002 0.000244141 15.392 0.000244141 14.6417V1.35851C0.000244141 0.608226 0.60847 0 1.35876 0Z" />
</svg>
