<svg width="220" height="103" viewBox="0 0 220 103" fill="none" xmlns="http://www.w3.org/2000/svg">
<path d="M81.5535 20.8891H80.3031V14.4776C77.1772 10.0654 69.5358 0.0689408 65.4373 0C61.4777 0.137882 41.6798 9.307 39.6653 13.8571L39.4569 86.3139C39.8737 86.3139 40.2905 86.2449 40.6378 86.2449C43.0692 83.0047 61.0609 79.7645 65.2289 79.7645C69.258 79.5577 73.9817 81.488 75.8573 83.6252C73.5649 82.1085 69.3274 80.9365 65.5068 81.1433C61.4777 81.1433 43.347 83.5562 40.6378 86.2449H40.7768C43.0692 86.176 45.2226 86.3139 47.4455 86.5896C52.5861 85.4176 62.5197 84.4525 65.9931 84.3146C68.7717 84.1767 74.1901 85.6934 75.8573 87.279C74.5374 86.6586 68.9107 85.5555 65.8541 85.6934C59.2548 85.9692 57.796 86.2449 48.9738 86.8654C49.6685 87.0033 50.641 87.2101 51.4051 87.348C55.6426 88.3821 61.8945 90.3814 65.9236 90.3814C73.0092 91.0708 78.8443 89.8988 85.7215 89.0025L85.652 86.7964C83.0818 83.6941 80.9978 83.9699 80.3031 84.0388V82.3153C81.3451 82.66 83.4986 83.3494 85.652 86.7275L85.7215 82.4532C83.1513 79.3508 81.1367 79.2819 80.3726 79.144V77.4205C81.4146 77.7652 83.6375 78.9372 85.7215 82.3153V77.7652C83.1513 74.6629 80.9978 74.5939 80.3031 74.2492V72.5257C81.623 73.4909 83.5681 74.3182 85.7215 77.6963V73.284C83.1513 70.1817 80.9978 69.6302 80.3031 69.3544V67.6309C81.623 68.5961 83.6375 69.837 85.7215 73.2151V68.3893C83.1513 65.2869 80.9978 64.8043 80.3031 64.4596V62.7361C81.623 63.7013 83.6375 64.8733 85.7215 68.2514V63.4255C83.1513 60.3232 80.9978 59.8406 80.3031 59.4959V57.7724C81.623 58.7375 83.5681 59.9095 85.7215 63.2876V58.3928C83.1513 55.2905 80.9978 54.8769 80.3031 54.5322V52.8086C81.623 53.7738 83.6375 54.8769 85.7215 58.3239V53.8428C83.1513 50.7404 80.9978 49.9821 80.3031 49.6374V47.9138C81.623 48.879 83.6375 50.3268 85.7215 53.7049V49.3616C83.1513 46.2593 80.9978 45.0183 80.3031 44.6736V42.9501C81.623 43.9153 83.6375 45.8456 85.7215 49.2237V44.3979C83.1513 41.2955 80.9978 40.0546 80.3031 39.7099V38.0553C81.623 39.0205 83.6375 40.9508 85.7215 44.3289V39.5031C83.1513 36.4007 80.9978 35.1598 80.3031 34.8151V33.0916C81.623 34.0567 83.6375 35.9871 85.7215 39.3652V34.5393C83.1513 31.437 80.9978 30.1961 80.3031 29.8514V28.1278C81.623 29.093 83.6375 31.0234 85.7215 34.4015V29.5756C83.1513 26.4733 80.9978 25.2323 80.3031 24.8876V23.1641C81.623 24.1293 83.6375 26.0596 85.7215 29.4377V24.6119C84.0543 22.8194 82.5955 21.5785 81.5535 20.8891ZM65.7152 76.1796C61.6861 76.1796 43.347 79.8334 40.7768 82.5221C43.0692 79.2819 61.4778 74.5939 65.7152 74.5939C69.1885 74.5939 73.0786 76.869 75.2321 79.213C72.7313 77.4894 69.5359 76.1796 65.7152 76.1796ZM65.5763 71.3537C61.5472 71.3537 43.2081 76.2485 40.7073 78.9372C42.9997 75.697 61.4083 69.7681 65.5763 69.7681C69.0496 69.7681 72.384 71.2848 75.6489 75.4212C73.287 73.353 69.3969 71.3537 65.5763 71.3537ZM65.5068 66.2521C61.4777 66.2521 43.0692 72.4568 40.5684 75.1455C42.8608 71.9052 61.2694 64.6665 65.5068 64.6665C68.9801 64.6665 73.426 68.5271 76.6214 72.6636C73.426 69.0097 69.3274 66.2521 65.5068 66.2521ZM65.5068 62.0467C61.4777 62.0467 43.0692 68.2514 40.5684 70.9401C42.8608 67.6998 61.2694 60.4611 65.5068 60.4611C68.9801 60.4611 73.426 64.3217 76.6214 68.4582C73.426 64.8043 69.3274 62.0467 65.5068 62.0467ZM65.5068 57.9103C61.4777 57.9103 43.0692 64.1149 40.5684 66.8036C42.8608 63.5634 61.2694 56.3246 65.5068 56.3246C68.9801 56.3246 73.426 60.1853 76.6214 64.3217C73.426 60.5989 69.3274 57.9103 65.5068 57.9103ZM65.5068 52.8776C61.4777 52.8776 43.0692 59.9095 40.5684 62.5982C42.8608 59.358 61.2694 51.2919 65.5068 51.2919C68.9801 51.2919 73.426 55.911 76.6214 60.0474C73.426 56.4625 69.3274 52.8776 65.5068 52.8776ZM65.5068 48.6722C61.4777 48.6722 43.0692 55.7042 40.5684 58.3928C42.8608 55.1526 61.2694 47.0866 65.5068 47.0866C68.9801 47.0866 73.426 51.7056 76.6214 55.842C73.426 52.2571 69.3274 48.6722 65.5068 48.6722ZM65.5068 44.4668C61.4777 44.4668 43.0692 51.4988 40.5684 54.1875C42.8608 50.9472 61.2694 42.8812 65.5068 42.8812C68.9801 42.8812 73.426 47.5002 76.6214 51.6366C73.426 48.0517 69.3274 44.4668 65.5068 44.4668ZM65.5068 40.3304C61.4777 40.3304 43.0692 47.3623 40.5684 50.051C42.8608 46.8108 61.2694 38.7447 65.5068 38.7447C68.9801 38.7447 73.426 43.3637 76.6214 47.5002C73.426 43.8463 69.3274 40.3304 65.5068 40.3304ZM65.5068 36.125C61.4777 36.125 43.0692 43.1569 40.5684 45.8456C42.8608 42.6054 61.2694 34.5393 65.5068 34.5393C68.9801 34.5393 73.426 39.1584 76.6214 43.2948C73.426 39.6409 69.3274 36.125 65.5068 36.125ZM65.5068 31.9196C61.4777 31.9196 43.0692 38.9515 40.5684 41.6402C42.8608 38.4 61.2694 30.3339 65.5068 30.3339C68.9801 30.3339 73.426 34.953 76.6214 39.0894C73.426 35.4356 69.3274 31.9196 65.5068 31.9196ZM65.5068 27.7142C61.4777 27.7142 43.0692 34.7462 40.5684 37.4348C42.8608 34.1946 61.2694 26.1286 65.5068 26.1286C68.9801 26.1286 73.426 30.7476 76.6214 34.884C73.426 31.2302 69.3274 27.7142 65.5068 27.7142ZM65.5068 23.5088C61.4777 23.5088 43.0692 30.5408 40.5684 33.2295C42.8608 29.9892 61.2694 21.9232 65.5068 21.9232C68.9801 21.9232 73.426 26.5422 76.6214 30.6786C73.426 27.0937 69.3274 23.5088 65.5068 23.5088ZM65.5068 19.3034C61.4777 19.3034 43.0692 26.3354 40.5684 29.0241C42.8608 25.7839 61.2694 17.7178 65.5068 17.7178C68.9801 17.7178 73.426 22.3368 76.6214 26.4733C73.426 22.8883 69.3274 19.3034 65.5068 19.3034ZM65.5068 14.9602C61.4777 14.9602 43.0692 22.13 40.4989 24.8876C42.7913 21.6474 61.1999 13.5813 65.4373 13.5813C68.9107 13.5813 73.3565 18.2004 76.552 22.3368C73.426 18.683 69.3969 14.9602 65.5068 14.9602ZM65.4373 9.85853C61.4083 9.85853 43.0692 17.9246 40.5684 20.6133C42.8608 17.3731 61.1999 8.41078 65.4373 8.41078C68.9107 8.41078 73.426 13.926 76.6909 18.0625C73.426 14.4776 69.258 9.85853 65.4373 9.85853ZM65.1595 5.44632C61.1304 5.44632 43.0692 13.7882 40.4989 16.4768C42.7913 13.2366 60.922 4.06751 65.1595 4.06751C68.6328 4.06751 73.426 9.85853 76.6214 13.995C73.426 10.2722 69.0496 5.44632 65.1595 5.44632Z" fill="white"/>
<path d="M26.675 89.623C31.4682 89.0025 35.4973 89.3472 39.3179 90.1056L38.9706 87.9684C31.3293 87.9684 26.675 89.623 26.675 89.623Z" fill="white"/>
<path d="M71.2726 92.2427C71.2726 92.2427 64.6038 92.8632 58.2824 91.3465C51.9609 89.8298 47.4456 88.0373 39.457 87.9684C39.318 87.9684 39.1096 87.9684 38.9707 87.9684L39.318 90.1056C45.6395 91.3465 51.3357 93.6216 58.7686 93.8284C66.8962 94.0352 71.2726 92.2427 71.2726 92.2427Z" fill="white"/>
<path d="M28.1339 90.8639C19.8674 90.6571 13.9628 93.07 13.9628 93.07C23.827 91.8291 28.4812 93.2768 38.1371 95.6897C38.7623 95.8276 39.4569 95.9655 40.2211 96.1723L39.6653 92.5185C36.3309 91.6222 33.2744 91.0018 28.1339 90.8639Z" fill="white"/>
<path d="M47.7234 96.9997C50.9188 97.1375 53.2807 96.8618 55.3647 96.586C59.7411 96.0345 62.9365 94.9314 62.9365 94.9314C62.9365 94.9314 60.9915 95.1382 58.1433 95.2072L46.7509 96.9997C47.0982 96.9997 47.3761 96.9997 47.7234 96.9997Z" fill="white"/>
<path d="M46.6814 94.2421C43.8333 93.6216 41.6798 93.0011 39.6653 92.5186L40.221 96.1724C41.9577 96.5171 44.1806 96.8618 46.7508 96.9997L58.1433 95.2762C54.9479 95.2762 50.641 95.1383 46.6814 94.2421Z" fill="white"/>
<path d="M52.2387 98.2407C52.2387 98.2407 42.9997 99.3437 34.0385 97.2065C23.827 94.7936 20.2842 93.3459 9.58636 94.7247C2.84812 95.552 0 97.3444 0 97.3444C17.9918 94.38 24.5216 99.9642 35.9836 100.102C45.9867 100.171 52.2387 98.2407 52.2387 98.2407Z" fill="white"/>
<path d="M107.464 90.8639C107.673 90.8639 105.38 90.3124 100.796 90.0366C98.0171 89.8298 95.03 89.8988 91.9735 90.1745L77.7329 92.3117C67.5213 94.5178 63.0755 97.1375 55.1563 99.3436C48.6265 101.136 43.7638 101.757 37.3729 101.894C33.066 101.963 34.4553 101.963 29.1759 101.688C29.1759 101.688 32.5798 103.066 39.318 102.998C42.9997 102.998 45.9868 102.86 51.1967 102.308C69.4664 100.24 79.1222 93.6905 96.4193 91.3465C99.3369 90.8639 102.671 90.6571 107.464 90.8639Z" fill="white"/>
<path d="M81.762 91.4844C80.3032 91.7602 78.9833 92.036 77.7329 92.3117L91.9735 90.1746C88.6391 90.3814 85.2353 90.864 81.762 91.4844Z" fill="white"/>
<path d="M109.062 91.4155C104.825 91.6913 100.17 92.1739 95.7246 93.0012C83.9153 95.3451 76.6214 99.8952 64.8815 101.619C60.9219 102.17 59.1853 102.239 56.2677 102.17C58.3517 102.929 63.4227 102.929 64.6037 102.86C73.7732 102.377 80.5809 100.791 86.9024 98.7232C93.7796 96.5171 98.5033 93.7595 108.923 92.3807C112.188 91.9671 116.356 91.4155 116.356 91.4155C116.356 91.4155 115.592 91.0019 109.062 91.4155Z" fill="white"/>
<path d="M116.773 38.6068C117.746 37.5727 118.232 36.056 118.232 34.0567C118.232 33.0916 118.162 32.2643 117.954 31.5059C117.746 30.7476 117.468 30.0582 117.051 29.5067C116.634 28.9551 116.009 28.4725 115.245 28.1968C114.481 27.921 113.508 27.7142 112.258 27.7142H103.713V20.4754H115.8V18.614H101.421V40.1235H112.605C114.481 40.1235 115.87 39.6409 116.773 38.6068ZM103.783 38.2621V29.5067H112.466C113.23 29.5067 113.855 29.7135 114.342 30.1271C114.828 30.5408 115.175 31.0234 115.384 31.7128C115.592 32.4022 115.731 33.1605 115.731 34.0567C115.731 34.884 115.662 35.6424 115.453 36.2629C115.245 36.8833 114.897 37.3659 114.481 37.7795C113.994 38.1243 113.369 38.3311 112.605 38.3311H103.783V38.2621Z" fill="white"/>
<path d="M138.099 38.2621H125.039V29.5756H134.278V27.7142H125.039V20.4754H138.099V18.614H122.678V40.1235H138.099V38.2621Z" fill="white"/>
<path d="M159.148 25.5771C159.148 24.6119 159.078 23.7846 158.87 22.9573C158.661 22.13 158.314 21.3717 157.828 20.7512C157.341 20.1307 156.716 19.5792 155.883 19.2345C155.049 18.8898 154.007 18.683 152.757 18.683H142.684V40.1236H145.046V32.1954H152.965C154.146 32.1954 155.118 31.9886 155.883 31.6438C156.647 31.2991 157.341 30.7476 157.828 30.1272C158.314 29.5067 158.661 28.8173 158.87 27.99C159.078 27.2316 159.148 26.4733 159.148 25.5771ZM156.16 27.99C155.883 28.6794 155.466 29.2309 154.91 29.6446C154.354 30.0582 153.59 30.265 152.757 30.265H145.046V20.4754H152.896C153.729 20.4754 154.354 20.6823 154.91 21.0959C155.466 21.5096 155.883 22.0611 156.16 22.8194C156.438 23.5778 156.577 24.474 156.577 25.5771C156.577 26.4733 156.438 27.3006 156.16 27.99Z" fill="white"/>
<path d="M179.432 38.2621H166.303V29.5756H175.611V27.7142H166.303V20.4754H179.432V18.614H164.01V40.1235H179.432V38.2621Z" fill="white"/>
<path d="M187.003 20.4754H198.604V18.614H184.642V40.1235H187.003V20.4754Z" fill="white"/>
<path d="M122.052 74.456L122.678 67.8377H118.51V48.1896H105.172C105.033 50.8093 104.825 53.2912 104.547 55.5662C104.269 57.9102 103.852 60.0474 103.297 62.1156C102.741 64.1838 102.116 66.0452 101.351 67.8377H98.0171L98.6423 74.456H100.657V69.6991H120.038V74.456H122.052ZM116.217 67.8377H103.991C104.477 66.4589 104.964 65.0801 105.311 63.6323C105.658 62.1845 106.006 60.6679 106.284 59.1512C106.561 57.6345 106.77 56.1178 106.909 54.6011C107.048 53.0844 107.187 51.5677 107.256 50.051H116.217V67.8377Z" fill="white"/>
<path d="M140.253 57.1519H128.235V48.1896H125.943V69.6991H128.235V59.1512H140.253V69.6991H142.545V48.1896H140.253V57.1519Z" fill="white"/>
<path d="M152.062 48.1896H149.7V69.6991H152.062V48.1896Z" fill="white"/>
<path d="M158.522 69.6991H160.884V50.051H172.832V69.6991H175.125V48.1896H158.522V69.6991Z" fill="white"/>
<path d="M196.381 59.7027C196.868 59.0822 197.215 58.3928 197.423 57.5655C197.632 56.8072 197.771 55.9799 197.771 55.0837C197.771 54.1185 197.701 53.2912 197.493 52.4639C197.284 51.6366 196.937 50.8783 196.451 50.2578C195.965 49.6373 195.339 49.0858 194.506 48.7411C193.672 48.3964 192.63 48.1896 191.38 48.1896H181.307V69.6991H183.669V61.7709H191.588C192.769 61.7709 193.742 61.5641 194.506 61.2194C195.27 60.8747 195.895 60.3921 196.381 59.7027ZM193.533 59.2201C192.978 59.6337 192.213 59.8406 191.38 59.8406H183.669V50.051H191.519C192.352 50.051 192.978 50.2578 193.533 50.6714C194.089 51.0851 194.506 51.6366 194.784 52.395C195.062 53.1533 195.2 54.0495 195.2 55.1526C195.2 56.0488 195.062 56.8761 194.784 57.5655C194.506 58.2549 194.089 58.8065 193.533 59.2201Z" fill="white"/>
<path d="M218.819 69.6991C218.263 68.5271 217.708 67.2173 217.152 65.9074C216.596 64.5286 215.971 63.1498 215.415 61.702C214.859 60.2542 214.234 58.7375 213.679 57.2208C213.123 55.7042 212.498 54.1874 211.942 52.6708C211.386 51.1541 210.83 49.7063 210.344 48.2585H206.385C204.787 51.8435 203.328 55.4284 201.939 59.0133C200.549 62.5982 199.16 66.1831 197.91 69.7681H200.202C200.549 68.665 200.966 67.562 201.314 66.4589C201.73 65.3559 202.078 64.2528 202.494 63.1498H213.47C213.956 64.3217 214.373 65.4937 214.859 66.5968C215.346 67.6998 215.763 68.8029 216.179 69.837H218.819V69.6991ZM203.189 61.2194C203.884 59.358 204.648 57.4966 205.412 55.6352C206.176 53.7738 206.94 51.8435 207.774 49.9821H208.746C209.372 51.8435 210.066 53.7738 210.691 55.7041C211.386 57.6345 212.081 59.4959 212.775 61.2884H203.189V61.2194Z" fill="white"/>
<path d="M98.9895 83.2115C99.1284 82.8668 99.2674 82.66 99.4063 82.4531C99.5452 82.2463 99.6842 82.1084 99.8231 81.9706C99.962 81.8327 100.17 81.7637 100.309 81.6948C100.518 81.6259 100.657 81.6259 100.865 81.5569V84.3146H101.421V81.5569C101.629 81.5569 101.838 81.6259 101.977 81.6259C102.185 81.6948 102.324 81.7637 102.463 81.9016C102.602 82.0395 102.741 82.1774 102.88 82.3842C103.019 82.591 103.157 82.8668 103.296 83.1426C103.435 83.4873 103.644 83.832 103.783 84.3146H104.408C104.199 83.9009 104.061 83.4873 103.922 83.2115C103.783 82.8668 103.644 82.66 103.505 82.4531C103.366 82.2463 103.227 82.0395 103.157 81.9016C103.019 81.7637 102.949 81.6259 102.81 81.5569C102.671 81.488 102.602 81.419 102.463 81.3501C102.324 81.2812 102.254 81.2812 102.116 81.2122C102.185 81.1433 102.393 81.0054 102.602 80.7986C102.81 80.5917 103.088 80.316 103.366 79.9713C103.644 79.6266 103.991 79.2129 104.338 78.7303H103.644C103.435 79.0751 103.227 79.3508 102.949 79.6266C102.741 79.9023 102.532 80.1781 102.324 80.3849C102.116 80.5917 101.907 80.7986 101.768 81.0054C101.629 81.1433 101.421 81.2812 101.351 81.419V78.7993H100.935V81.419C100.796 81.3501 100.657 81.2122 100.518 81.0054C100.379 80.8675 100.17 80.6607 99.962 80.3849C99.7536 80.1781 99.5452 79.9023 99.3368 79.6266C99.1284 79.3508 98.92 79.0751 98.6422 78.7303H97.9475C98.2948 79.2129 98.6422 79.6266 98.92 79.9713C99.1979 80.316 99.4758 80.5917 99.6842 80.7986C99.8926 81.0054 100.032 81.1433 100.17 81.2122C100.032 81.2122 99.962 81.2812 99.8231 81.3501C99.6842 81.419 99.6147 81.488 99.4758 81.5569C99.3368 81.6259 99.2674 81.7637 99.1284 81.9016C98.9895 82.0395 98.92 82.1774 98.7811 82.4531C98.7116 82.591 98.6422 82.7289 98.5032 82.8668L98.6422 83.832C98.7811 83.6251 98.8506 83.4183 98.9895 83.2115Z" fill="white"/>
<path d="M97.8782 84.3146H98.5034C98.5728 84.1078 98.6423 83.9699 98.7118 83.832L98.5728 82.8668C98.5034 83.0047 98.4339 83.0736 98.4339 83.2115C98.2255 83.5562 98.0171 83.9009 97.8782 84.3146Z" fill="white"/>
<path d="M107.395 78.7993V84.3835H108.159C108.506 83.9009 108.854 83.4183 109.132 82.8668C109.479 82.3153 109.757 81.8327 110.104 81.2812C110.452 80.7297 110.729 80.1781 111.007 79.6955V84.4525H111.563V78.8683H110.868C110.452 79.6955 109.965 80.5228 109.479 81.3501C108.993 82.1774 108.437 83.0047 107.951 83.832V78.8683H107.395V78.7993Z" fill="white"/>
<path d="M114.481 79.2819H116.426V84.3146H117.051V79.2819H118.926V78.7993H114.481V79.2819Z" fill="white"/>
<path d="M122.261 80.7297C122.122 81.3501 121.983 81.9706 121.844 82.5911C121.705 83.2115 121.497 83.7631 121.358 84.3146H121.983C122.122 84.0388 122.191 83.6941 122.261 83.3494C122.33 83.0047 122.469 82.66 122.539 82.3153C122.608 81.9706 122.678 81.6259 122.747 81.2812C122.817 80.9365 122.886 80.5918 122.886 80.2471C122.956 79.9024 122.956 79.5577 122.956 79.2819H125.317V84.3835H125.873V78.7993H122.4C122.4 79.4887 122.33 80.1092 122.261 80.7297Z" fill="white"/>
<path d="M133.862 79.5576C133.723 79.3508 133.584 79.144 133.375 79.0061C133.167 78.8682 132.959 78.7993 132.681 78.7303C132.403 78.6614 132.125 78.6614 131.778 78.6614C131.43 78.6614 131.153 78.6614 130.875 78.7303C130.597 78.7993 130.388 78.8682 130.18 79.0061C129.972 79.144 129.833 79.2818 129.694 79.5576C129.555 79.7644 129.485 80.0402 129.416 80.3849C129.346 80.7296 129.346 81.0743 129.346 81.5569C129.346 82.0395 129.346 82.3842 129.416 82.7289C129.485 83.0736 129.555 83.3493 129.694 83.5562C129.833 83.763 129.972 83.9698 130.18 84.1077C130.388 84.2456 130.597 84.3145 130.875 84.3835C131.153 84.4524 131.43 84.4524 131.778 84.4524C132.125 84.4524 132.472 84.4524 132.681 84.3835C132.959 84.3145 133.167 84.2456 133.375 84.1077C133.584 83.9698 133.723 83.8319 133.862 83.5562C134.001 83.3493 134.07 83.0736 134.14 82.7289C134.209 82.3842 134.209 81.9705 134.209 81.5569C134.209 81.0743 134.209 80.7296 134.14 80.3849C134.14 80.0402 134.001 79.7644 133.862 79.5576ZM133.584 82.5221C133.514 82.7978 133.445 83.0046 133.375 83.2115C133.306 83.4183 133.167 83.5562 133.028 83.6251C132.889 83.763 132.681 83.8319 132.472 83.8319C132.264 83.9009 131.986 83.9009 131.708 83.9009C131.43 83.9009 131.153 83.9009 130.944 83.8319C130.736 83.763 130.527 83.694 130.388 83.6251C130.249 83.4872 130.111 83.3493 130.041 83.2115C129.972 83.0046 129.902 82.7978 129.833 82.5221C129.763 82.2463 129.763 81.9016 129.763 81.5569C129.763 81.1432 129.763 80.7985 129.833 80.5228C129.902 80.247 129.972 80.0402 130.041 79.8334C130.111 79.6265 130.249 79.4887 130.388 79.4197C130.527 79.3508 130.736 79.2818 130.944 79.2129C131.153 79.144 131.43 79.144 131.708 79.144C131.986 79.144 132.264 79.144 132.472 79.2129C132.681 79.2818 132.889 79.3508 133.028 79.4197C133.167 79.4887 133.306 79.6265 133.375 79.8334C133.445 80.0402 133.514 80.247 133.584 80.5228C133.653 80.7985 133.653 81.1432 133.653 81.5569C133.653 81.9705 133.653 82.2463 133.584 82.5221Z" fill="white"/>
<path d="M141.503 81.8326C141.434 81.6947 141.295 81.6258 141.086 81.5569C140.947 81.4879 140.739 81.419 140.461 81.419C140.739 81.419 140.878 81.35 141.086 81.2811C141.225 81.2121 141.364 81.1432 141.434 81.0053C141.503 80.8675 141.572 80.7985 141.572 80.6606C141.572 80.5227 141.642 80.3849 141.572 80.178C141.572 79.9712 141.572 79.8333 141.503 79.6955C141.434 79.5576 141.434 79.4197 141.295 79.2818C141.225 79.1439 141.086 79.075 140.878 79.006C140.669 78.9371 140.461 78.8682 140.183 78.8682H137.474V84.4524H140.253C140.739 84.4524 141.017 84.3145 141.295 84.0387C141.503 83.763 141.642 83.3493 141.642 82.8667C141.642 82.6599 141.642 82.522 141.572 82.3152C141.642 82.0394 141.572 81.9016 141.503 81.8326ZM138.169 79.2818H140.253C140.461 79.2818 140.6 79.3508 140.739 79.4197C140.878 79.4886 140.947 79.6265 140.947 79.7644C141.017 79.9023 141.017 80.0402 141.017 80.247C141.017 80.3849 141.017 80.5227 141.017 80.5917C141.017 80.7296 140.947 80.7985 140.878 80.8674C140.808 80.9364 140.739 81.0053 140.669 81.0743C140.6 81.1432 140.461 81.1432 140.322 81.1432H138.238V79.2818H138.169ZM141.017 83.3493C140.947 83.4872 140.878 83.6251 140.739 83.763C140.6 83.8319 140.461 83.9008 140.253 83.9008H138.03V81.6258H140.183C140.392 81.6258 140.531 81.6947 140.669 81.7637C140.808 81.8326 140.878 81.9705 140.947 82.1773C141.017 82.3841 141.017 82.522 141.017 82.7978C141.156 83.0046 141.086 83.1425 141.017 83.3493Z" fill="white"/>
<path d="M147.199 81.2812C146.713 82.1085 146.157 82.9358 145.671 83.763V78.7993H145.115V84.3835H145.879C146.227 83.9009 146.574 83.4183 146.852 82.8668C147.199 82.3153 147.477 81.8327 147.824 81.2812C148.172 80.7297 148.45 80.1781 148.727 79.6955V84.4525H149.283V78.8683H148.589C148.172 79.6266 147.685 80.4539 147.199 81.2812Z" fill="white"/>
<path d="M155.883 78.1789C156.091 78.041 156.16 77.7652 156.16 77.4205H155.744C155.744 77.5584 155.744 77.6963 155.674 77.7652C155.605 77.8342 155.535 77.9031 155.466 77.9031C155.396 77.9031 155.257 77.9721 155.118 77.9721C154.979 77.9721 154.841 77.9721 154.771 77.9031C154.702 77.9031 154.632 77.8342 154.563 77.7652C154.493 77.6963 154.493 77.5584 154.493 77.4205H154.076C154.076 77.7652 154.146 78.041 154.354 78.1789C154.563 78.3168 154.771 78.4546 155.118 78.4546C155.396 78.3857 155.674 78.3168 155.883 78.1789Z" fill="white"/>
<path d="M155.049 81.2812C154.563 82.1085 154.007 82.9358 153.521 83.763V78.7993H152.965V84.3835H153.729C154.076 83.9009 154.424 83.4183 154.702 82.8668C155.049 82.3153 155.327 81.8327 155.674 81.2812C156.021 80.7297 156.299 80.1781 156.577 79.6955V84.4525H157.133V78.8683H156.438C156.021 79.6266 155.535 80.4539 155.049 81.2812Z" fill="white"/>
<path d="M166.094 82.4531C165.955 82.2463 165.816 82.0395 165.677 81.9016C165.538 81.7637 165.399 81.6259 165.33 81.5569C165.191 81.488 165.052 81.419 164.983 81.3501C164.844 81.2812 164.705 81.2812 164.566 81.2122C164.705 81.1433 164.844 81.0054 165.122 80.7986C165.33 80.5917 165.608 80.316 165.955 79.9713C166.303 79.6266 166.65 79.2129 167.067 78.7303H166.233C165.955 79.0751 165.677 79.3508 165.469 79.6266C165.191 79.9023 164.983 80.1781 164.705 80.3849C164.496 80.5917 164.288 80.7986 164.08 81.0054C163.871 81.2122 163.732 81.2812 163.593 81.419V78.7303H163.038V84.3146H163.593V81.5569C163.802 81.5569 164.08 81.6259 164.288 81.6259C164.496 81.6948 164.705 81.7637 164.844 81.9016C165.052 82.0395 165.191 82.1774 165.33 82.3842C165.469 82.591 165.677 82.8668 165.816 83.1426C166.025 83.4873 166.164 83.832 166.372 84.3146H167.067C166.858 83.9009 166.65 83.4873 166.511 83.2115C166.372 82.9357 166.233 82.66 166.094 82.4531Z" fill="white"/>
<path d="M174.361 79.5576C174.222 79.3508 174.083 79.144 173.874 79.0061C173.666 78.8682 173.457 78.7993 173.18 78.7303C172.902 78.6614 172.624 78.6614 172.277 78.6614C171.929 78.6614 171.651 78.6614 171.373 78.7303C171.096 78.7993 170.887 78.8682 170.679 79.0061C170.47 79.144 170.331 79.2818 170.193 79.5576C170.054 79.7644 169.984 80.0402 169.915 80.3849C169.845 80.7296 169.845 81.0743 169.845 81.5569C169.845 82.0395 169.845 82.3842 169.915 82.7289C169.984 83.0736 170.054 83.3493 170.193 83.5562C170.331 83.763 170.47 83.9698 170.679 84.1077C170.887 84.2456 171.096 84.3145 171.373 84.3835C171.651 84.4524 171.929 84.4524 172.277 84.4524C172.624 84.4524 172.971 84.4524 173.18 84.3835C173.457 84.3145 173.666 84.2456 173.874 84.1077C174.083 83.9698 174.222 83.8319 174.361 83.5562C174.499 83.3493 174.569 83.0736 174.638 82.7289C174.708 82.3842 174.708 81.9705 174.708 81.5569C174.708 81.0743 174.708 80.7296 174.638 80.3849C174.569 80.0402 174.499 79.7644 174.361 79.5576ZM174.083 82.5221C174.013 82.7978 173.944 83.0046 173.874 83.2115C173.805 83.4183 173.666 83.5562 173.527 83.6251C173.388 83.763 173.18 83.8319 172.971 83.8319C172.763 83.9009 172.485 83.9009 172.207 83.9009C171.929 83.9009 171.651 83.9009 171.443 83.8319C171.235 83.763 171.026 83.694 170.887 83.6251C170.748 83.4872 170.609 83.3493 170.54 83.2115C170.47 83.0046 170.401 82.7978 170.331 82.5221C170.262 82.2463 170.262 81.9016 170.262 81.5569C170.262 81.1432 170.262 80.7985 170.331 80.5228C170.401 80.247 170.47 80.0402 170.54 79.8334C170.609 79.6265 170.748 79.4887 170.887 79.4197C171.026 79.3508 171.235 79.2818 171.443 79.2129C171.651 79.144 171.929 79.144 172.207 79.144C172.485 79.144 172.763 79.144 172.971 79.2129C173.18 79.2818 173.388 79.3508 173.527 79.4197C173.666 79.4887 173.805 79.6265 173.874 79.8334C173.944 80.0402 174.013 80.247 174.083 80.5228C174.152 80.7985 174.152 81.1432 174.152 81.5569C174.152 81.9705 174.083 82.2463 174.083 82.5221Z" fill="white"/>
<path d="M181.585 80.8675C181.238 81.5569 180.96 82.2463 180.682 82.9357C180.404 82.2463 180.126 81.5569 179.779 80.8675C179.501 80.1781 179.154 79.4887 178.806 78.7993H178.042V84.3835H178.598V79.4197C178.945 80.1091 179.223 80.8675 179.571 81.5569C179.918 82.2463 180.196 83.0047 180.474 83.6941H180.89C181.168 83.0047 181.516 82.3152 181.793 81.5569C182.141 80.8675 182.419 80.1091 182.766 79.3508V84.2456H183.322V78.6614H182.488C182.21 79.4887 181.932 80.1781 181.585 80.8675Z" fill="white"/>
<path d="M187.004 84.3146H187.559V79.2819H190.546V84.3146H191.102V78.7993H187.004V84.3146Z" fill="white"/>
<path d="M195.131 80.7297C194.992 81.3501 194.853 81.9706 194.714 82.5911C194.575 83.2115 194.367 83.7631 194.228 84.3146H194.853C194.992 84.0388 195.062 83.6941 195.131 83.3494C195.2 83.0047 195.339 82.66 195.409 82.3153C195.478 81.9706 195.548 81.6259 195.617 81.2812C195.687 80.9365 195.756 80.5918 195.756 80.2471C195.826 79.9024 195.826 79.5577 195.826 79.2819H198.188V84.3835H198.743V78.7993H195.27C195.339 79.4887 195.27 80.1092 195.131 80.7297Z" fill="white"/>
<path d="M202.356 84.3146H206.246V83.9009H202.981V81.6259H205.273V81.1433H202.981V79.2819H206.246V78.7993H202.356V84.3146Z" fill="white"/>
<path d="M212.289 82.4531C212.15 82.2463 212.011 82.0395 211.872 81.9016C211.734 81.7637 211.595 81.6259 211.525 81.5569C211.386 81.488 211.247 81.419 211.178 81.3501C211.039 81.2812 210.9 81.2812 210.761 81.2122C210.9 81.1433 211.039 81.0054 211.317 80.7986C211.525 80.5917 211.803 80.316 212.15 79.9713C212.498 79.6266 212.845 79.2129 213.262 78.7303H212.498C212.22 79.0751 211.942 79.3508 211.734 79.6266C211.456 79.9023 211.247 80.1781 210.969 80.3849C210.761 80.5917 210.553 80.7986 210.344 81.0054C210.136 81.2122 209.997 81.2812 209.858 81.419V78.7303H209.302V84.3146H209.858V81.5569C210.066 81.5569 210.344 81.6259 210.553 81.6259C210.761 81.6948 210.969 81.7637 211.108 81.9016C211.317 82.0395 211.456 82.1774 211.595 82.3842C211.734 82.591 211.942 82.8668 212.081 83.1426C212.289 83.4873 212.428 83.832 212.637 84.3146H213.331C213.123 83.9009 212.914 83.4873 212.776 83.2115C212.637 82.9357 212.498 82.66 212.289 82.4531Z" fill="white"/>
<path d="M219.514 83.832C219.375 83.832 219.305 83.901 219.166 83.901C219.027 83.901 218.889 83.901 218.819 83.9699C218.68 83.9699 218.611 83.9699 218.472 83.9699C218.194 83.9699 217.916 83.9699 217.708 83.901C217.499 83.832 217.291 83.7631 217.152 83.6941C217.013 83.6252 216.874 83.4184 216.805 83.2805C216.735 83.0737 216.666 82.8669 216.596 82.5911C216.527 82.3153 216.527 81.9706 216.527 81.557C216.527 81.1433 216.527 80.7986 216.596 80.5229C216.666 80.2471 216.735 80.0403 216.805 79.8335C216.874 79.6266 217.013 79.5577 217.152 79.4198C217.291 79.3509 217.499 79.2819 217.708 79.213C217.916 79.1441 218.194 79.1441 218.472 79.1441C218.611 79.1441 218.68 79.1441 218.819 79.1441C218.958 79.1441 219.097 79.1441 219.166 79.213C219.305 79.213 219.375 79.2819 219.514 79.2819C219.653 79.2819 219.722 79.3509 219.792 79.3509L220 78.7993C219.861 78.7304 219.722 78.7304 219.514 78.6615C219.305 78.6615 219.166 78.5925 218.958 78.5925C218.75 78.5925 218.611 78.5925 218.402 78.5925C218.055 78.5925 217.777 78.5925 217.499 78.6615C217.221 78.7304 217.013 78.7994 216.805 78.9372C216.596 79.0751 216.457 79.213 216.318 79.4888C216.179 79.6956 216.11 79.9713 216.04 80.316C215.971 80.6608 215.971 81.0055 215.971 81.488C215.971 81.9706 215.971 82.3153 216.04 82.66C216.11 83.0047 216.179 83.2805 216.318 83.4873C216.457 83.6941 216.596 83.901 216.805 84.0388C217.013 84.1767 217.221 84.2457 217.499 84.3146C217.777 84.3836 218.055 84.3835 218.402 84.3835C218.541 84.3835 218.75 84.3835 218.958 84.3835C219.166 84.3835 219.305 84.3146 219.514 84.3146C219.722 84.3146 219.861 84.2457 220 84.1767L219.792 83.6941C219.722 83.7631 219.653 83.7631 219.514 83.832Z" fill="white"/>
</svg>
