<svg  viewBox="0 0 27 27" fill="none" xmlns="http://www.w3.org/2000/svg">
<g clip-path="url(#clip0)">
<path d="M26.6236 22.4524L22.8169 26.2286C22.2549 26.8049 21.5101 27.0001 20.7847 27.001C17.5769 26.9049 14.5448 25.3291 12.0552 23.7111C7.96867 20.7382 4.21914 17.0519 1.86586 12.5972C0.963298 10.7292 -0.0957327 8.34573 0.00544981 6.26068C0.0144723 5.47633 0.225837 4.70653 0.778235 4.20096L4.58492 0.396186C5.37539 -0.276182 6.13983 -0.0437116 6.64567 0.739468L9.70817 6.54676C10.0305 7.23475 9.8456 7.97189 9.36469 8.46349L7.96222 9.86524C7.87564 9.98384 7.82051 10.1188 7.81912 10.2658C8.35691 12.3475 9.98616 14.2662 11.4254 15.5867C12.8647 16.9072 14.4118 18.6962 16.4199 19.1197C16.6681 19.1889 16.9722 19.2132 17.1498 19.0481L18.7813 17.3889C19.3437 16.9627 20.1557 16.7543 20.7561 17.1029H20.7847L26.3087 20.3641C27.1196 20.8724 27.2042 21.8548 26.6236 22.4524Z" fill="white"/>
</g>
<defs>
<clipPath id="clip0">
<rect width="27" height="27" fill="white"/>
</clipPath>
</defs>
</svg>
