<svg viewBox="0 0 18 18"  xmlns="http://www.w3.org/2000/svg">
<path d="M0.43335 7.10759C0.43335 10.7938 3.42143 13.7819 7.10767 13.7819C8.65111 13.7819 10.0716 13.2572 11.2023 12.379L12.1046 13.2813L10.7368 14.6491C10.7041 14.6826 10.6858 14.7275 10.6858 14.7743C10.6858 14.8211 10.7041 14.866 10.7368 14.8994L11.6106 15.7732C11.6441 15.806 11.689 15.8243 11.7358 15.8243C11.7826 15.8243 11.8275 15.806 11.8609 15.7732L13.2287 14.4054L14.2145 15.3912L12.8467 16.759C12.814 16.7925 12.7957 16.8374 12.7957 16.8842C12.7957 16.9309 12.814 16.9759 12.8467 17.0093L13.7205 17.8831C13.754 17.9158 13.7989 17.9342 13.8457 17.9342C13.8925 17.9342 13.9374 17.9158 13.9708 17.8831L15.3386 16.5153L16.7723 17.949C16.8053 17.9817 16.8499 18 16.8963 18C16.9428 18 16.9874 17.9817 17.0204 17.949L17.9491 17.0203C18.0171 16.9522 18.0171 16.8402 17.9491 16.7722L12.3813 11.2044C13.2904 10.0323 13.7832 8.59089 13.782 7.10759C13.782 3.42135 10.7939 0.433268 7.10767 0.433268C3.42143 0.433268 0.433351 3.42135 0.43335 7.10759ZM10.6468 3.56844C11.5931 4.51251 12.1134 5.77053 12.1134 7.10759C12.1134 8.44465 11.5931 9.70268 10.6468 10.6467C9.70276 11.593 8.44473 12.1133 7.10767 12.1133C5.77061 12.1133 4.51259 11.593 3.56853 10.6467C2.62227 9.70268 2.10193 8.44465 2.10193 7.10759C2.10193 5.77053 2.62227 4.51251 3.56853 3.56844C4.51259 2.62218 5.77061 2.10185 7.10767 2.10185C8.44473 2.10185 9.70276 2.62218 10.6468 3.56844Z" />
</svg>
