<svg width="15" height="28" fill="none" xmlns="http://www.w3.org/2000/svg"><path fill-rule="evenodd" clip-rule="evenodd" d="M6.566 3.17v21.583l-4.98-4.982a.929.929 0 00-1.314 1.314l6.566 6.566a.932.932 0 00.191.143l.024.012.023.013c.02.012.042.024.064.033.023.01.048.016.073.023a.942.942 0 01.05.015.93.93 0 00.414.014c.017-.003.034-.009.051-.014a.903.903 0 01.024-.008l.02-.006a.643.643 0 00.078-.024.578.578 0 00.086-.046l.025-.012a.925.925 0 00.19-.143l6.566-6.566a.929.929 0 10-1.313-1.314l-4.98 4.982V3.17l4.98 4.98a.929.929 0 001.313-1.312L8.151.27A.927.927 0 008.01.156a.39.39 0 00-.049-.028.92.92 0 01-.023-.012L7.913.103A.613.613 0 007.85.07C7.826.06 7.8.054 7.777.047L7.754.041a.407.407 0 00-.077-.023.93.93 0 00-.364 0 .38.38 0 00-.051.015.898.898 0 01-.045.013C7.191.053 7.165.06 7.14.07c-.021.009-.041.02-.061.031l-.025.014a.92.92 0 00-.215.156L.272 6.837A.929.929 0 001.585 8.15l4.981-4.98z" fill="#fff"/></svg>