<svg width="57" height="69" viewBox="0 0 57 69" fill="none" xmlns="http://www.w3.org/2000/svg">
<path d="M56.3805 28.1339C56.3805 50.0158 28.1902 68.7718 28.1902 68.7718C28.1902 68.7718 0 50.0158 0 28.1339C1.11409e-07 20.6723 2.97003 13.5164 8.25673 8.24023C13.5434 2.9641 20.7137 0 28.1902 0C35.6668 0 42.837 2.9641 48.1237 8.24023C53.4104 13.5164 56.3805 20.6723 56.3805 28.1339Z" fill="#2B5878"/>
<path d="M33.5528 29.3672L30.1486 25.9381L38.5928 17.4443C39.494 18.3546 40 19.5877 40 20.8733C40 22.1589 39.494 23.392 38.5928 24.3024L33.5528 29.3672V29.3672ZM25.3972 27.174C23.5568 28.0343 20.9706 27.4285 19.058 25.5019C16.7605 23.1876 16.3155 19.8676 18.0837 18.0865C19.8399 16.3174 23.1358 16.7536 25.4453 19.0679C27.3579 20.9945 27.9594 23.5996 27.1053 25.4535L38.8454 37.2794L37.1494 38.9879L28.8615 30.6637L20.5857 39L18.8896 37.2915L27.1655 28.9552L25.3972 27.174V27.174Z" fill="white"/>
</svg>
