<svg width="57" height="69" viewBox="0 0 57 69" fill="none" xmlns="http://www.w3.org/2000/svg">
<path d="M56.3805 28.1339C56.3805 50.0158 28.1902 68.7718 28.1902 68.7718C28.1902 68.7718 0 50.0158 0 28.1339C1.11409e-07 20.6723 2.97003 13.5164 8.25673 8.24023C13.5434 2.9641 20.7137 0 28.1902 0C35.6668 0 42.837 2.9641 48.1237 8.24023C53.4104 13.5164 56.3805 20.6723 56.3805 28.1339Z" fill="#2B5878"/>
<path d="M42.5439 23.626C42.0449 24.1306 41.4161 24.4636 40.6576 24.625C41.3762 26.2194 41.7355 27.8845 41.7355 29.6201C41.7355 31.9007 41.1367 34.0098 39.9391 35.9473C38.7414 37.8848 37.1147 39.4136 35.0587 40.5337C33.0028 41.6538 30.7573 42.2139 28.3221 42.2139C25.8869 42.2139 23.6414 41.6538 21.5855 40.5337C19.5295 39.4136 17.9028 37.8848 16.7051 35.9473C15.5075 34.0098 14.9087 31.9007 14.9087 29.6201C14.9087 27.8845 15.268 26.2194 15.9866 24.625C15.2281 24.4636 14.5993 24.1306 14.1003 23.626C13.262 22.7783 12.9027 21.6885 13.0225 20.3565C13.1422 19.0244 13.7061 17.8438 14.7141 16.8145C15.7221 15.7852 16.8848 15.21 18.2022 15.0889C19.5196 14.9678 20.6074 15.3412 21.4657 16.209C22.0046 16.7539 22.344 17.4401 22.4837 18.2676C24.34 17.4401 26.2861 17.0264 28.3221 17.0264C30.3581 17.0264 32.3042 17.4401 34.1605 18.2676C34.3202 17.4401 34.6595 16.7539 35.1785 16.209C36.0368 15.3412 37.1246 14.9678 38.442 15.0889C39.7594 15.21 40.9221 15.7852 41.9301 16.8145C42.9381 17.8438 43.502 19.0244 43.6218 20.3565C43.7415 21.6885 43.3822 22.7783 42.5439 23.626ZM19.9687 17.6924C19.4697 17.1677 18.8259 16.9457 18.0375 17.0264C17.2491 17.1071 16.5505 17.4553 15.9417 18.0708C15.3329 18.6864 14.9935 19.3928 14.9237 20.19C14.8538 20.9872 15.0684 21.638 15.5674 22.1426C15.9467 22.5462 16.4357 22.7683 17.0345 22.8086C17.9926 21.416 19.1902 20.2455 20.6274 19.2969C20.6074 18.6309 20.3878 18.0961 19.9687 17.6924ZM22.5585 24.7764C22.0296 24.7764 21.5805 24.9631 21.2112 25.3365C20.8419 25.7098 20.6573 26.1639 20.6573 26.6988C20.6573 27.2336 20.8419 27.6927 21.2112 28.0762C21.5805 28.4597 22.0296 28.6514 22.5585 28.6514C23.0875 28.6514 23.5416 28.4597 23.9208 28.0762C24.3001 27.6927 24.4897 27.2336 24.4897 26.6988C24.4897 26.1639 24.3001 25.7098 23.9208 25.3365C23.5416 24.9631 23.0875 24.7764 22.5585 24.7764ZM34.0857 24.7764C33.5567 24.7764 33.1026 24.9631 32.7234 25.3365C32.3441 25.7098 32.1545 26.1639 32.1545 26.6988C32.1545 27.2336 32.3441 27.6927 32.7234 28.0762C33.1026 28.4597 33.5567 28.6514 34.0857 28.6514C34.6146 28.6514 35.0637 28.4597 35.433 28.0762C35.8023 27.6927 35.9869 27.2336 35.9869 26.6988C35.9869 26.1639 35.8023 25.7098 35.433 25.3365C35.0637 24.9631 34.6146 24.7764 34.0857 24.7764ZM28.3221 30.5889C26.2063 30.5889 24.3999 31.0632 22.9029 32.0117C21.4058 32.9603 20.6573 34.1006 20.6573 35.4326C20.6573 36.7647 21.4058 37.905 22.9029 38.8535C24.3999 39.8021 26.2063 40.2764 28.3221 40.2764C30.4379 40.2764 32.2443 39.8021 33.7414 38.8535C35.2384 37.905 35.9869 36.7647 35.9869 35.4326C35.9869 34.1006 35.2384 32.9603 33.7414 32.0117C32.2443 31.0632 30.4379 30.5889 28.3221 30.5889ZM40.7025 18.0708C40.0938 17.4553 39.3951 17.1122 38.6067 17.0415C37.8183 16.9709 37.1745 17.1879 36.6755 17.6924C36.2564 18.1162 36.0368 18.6511 36.0168 19.2969C37.454 20.2455 38.6516 21.416 39.6097 22.8086C40.2085 22.7683 40.6976 22.5462 41.0768 22.1426C41.5758 21.638 41.7904 20.9872 41.7205 20.19C41.6507 19.3928 41.3113 18.6864 40.7025 18.0708ZM28.3221 36.4014C27.6834 36.4014 26.885 36.1895 25.9269 35.7657C24.9688 35.3418 24.4897 34.9079 24.4897 34.4639C24.4897 33.4951 24.6494 32.93 24.9688 32.7686C25.2881 32.6071 26.4059 32.5264 28.3221 32.5264C30.2383 32.5264 31.3561 32.6071 31.6755 32.7686C31.9948 32.93 32.1545 33.4951 32.1545 34.4639C32.1545 34.9281 31.6755 35.3671 30.7174 35.7808C29.7593 36.1945 28.9608 36.4014 28.3221 36.4014Z" fill="white"/>
</svg>
