<svg width="32" height="39" viewBox="0 0 32 39" fill="none" xmlns="http://www.w3.org/2000/svg">
<path d="M31.9729 15.9546C31.9729 28.3637 15.9864 39 15.9864 39C15.9864 39 0 28.3637 0 15.9546C6.31789e-08 11.7232 1.68428 7.66513 4.68232 4.67308C7.68036 1.68104 11.7466 0.00012207 15.9864 0.00012207C20.2263 0.00012207 24.2925 1.68104 27.2905 4.67308C30.2886 7.66513 31.9729 11.7232 31.9729 15.9546Z" fill="#E86D6F"/>
<path fill-rule="evenodd" clip-rule="evenodd" d="M20.5962 7.83802H20.8568C21.0739 7.98166 21.3778 8.24021 21.7252 8.61368V9.61916C21.291 8.91532 20.8712 8.51313 20.5962 8.31203V8.67113C20.741 8.74295 21.1897 9.00151 21.7252 9.64789V10.6534C21.291 9.94953 20.8712 9.54734 20.5962 9.34624V9.70534C20.741 9.77716 21.1897 10.0357 21.7252 10.6821V11.6876C21.291 10.9837 20.8712 10.5815 20.5962 10.3805V10.7396C20.741 10.8114 21.1897 11.0699 21.7252 11.7163V12.7218C21.291 12.018 20.8712 11.6158 20.5962 11.4147V11.7594C20.741 11.8312 21.1897 12.0898 21.7252 12.7362V13.7416C21.291 13.0378 20.8712 12.6356 20.5962 12.4345V12.7936C20.741 12.8654 21.1897 13.124 21.7252 13.7704V14.6753C21.2967 13.9808 20.8824 13.6779 20.6073 13.4768L20.5962 13.4687V13.8278C20.6115 13.8354 20.6301 13.8439 20.6519 13.8539L20.6519 13.8539C20.8366 13.9384 21.2462 14.1258 21.7252 14.704V15.6377C21.3479 15.0136 20.9815 14.7583 20.7115 14.5701C20.6708 14.5418 20.6323 14.5149 20.5962 14.4886V14.8477C20.6197 14.8593 20.6511 14.8713 20.6895 14.886C20.8886 14.9621 21.2764 15.1103 21.7252 15.6521V16.6719C21.3231 16.0412 20.9559 15.7796 20.6861 15.5873C20.6548 15.565 20.6248 15.5437 20.5962 15.5228V15.8819C20.6184 15.8929 20.6477 15.9045 20.6833 15.9187C20.8804 15.9973 21.2716 16.1532 21.7252 16.7006V17.7061C21.3415 17.0841 20.969 16.8211 20.6978 16.6295L20.6978 16.6295C20.6621 16.6043 20.6282 16.5804 20.5962 16.557V16.9161C20.6184 16.9271 20.6477 16.9387 20.6833 16.9529C20.8804 17.0315 21.2716 17.1874 21.7252 17.7348V18.7403C21.3326 18.1039 20.9518 17.8315 20.6791 17.6365L20.679 17.6364C20.6502 17.6158 20.6225 17.5961 20.5962 17.5768V17.9359C20.61 17.9414 20.6265 17.9474 20.6456 17.9543L20.6457 17.9543L20.6457 17.9543C20.8273 18.0201 21.2407 18.1699 21.7252 18.7547V19.674C21.3594 19.1002 21.0225 18.8796 20.7615 18.7087C20.7023 18.67 20.6471 18.6338 20.5962 18.5967V18.9558C20.6246 18.9698 20.6646 18.9817 20.7146 18.9965C20.92 19.0574 21.2945 19.1685 21.7252 19.6883V20.6364C21.291 19.9325 20.8278 19.6883 20.6107 19.6165V19.9756C20.6236 19.978 20.6382 19.9802 20.6545 19.9827C20.8387 20.0108 21.2331 20.0711 21.7252 20.6651L21.7107 21.5557C21.2658 20.8577 20.8209 20.7106 20.6018 20.6382L20.5962 20.6364V20.9955L20.6048 20.9946C20.7575 20.9792 21.1854 20.9359 21.7107 21.57L21.7252 22.0297C21.4792 22.0617 21.2396 22.0955 21.0039 22.1287L21.0036 22.1287H21.0036H21.0036H21.0036H21.0036H21.0035H21.0035H21.0035H21.0035C19.8669 22.2889 18.8229 22.4359 17.6002 22.317C16.9562 22.317 16.0396 22.0718 15.2491 21.8604L15.249 21.8603C15.0091 21.7962 14.7808 21.7351 14.5752 21.6849C14.4664 21.6653 14.3373 21.639 14.2203 21.6151C14.1661 21.604 14.1145 21.5935 14.0687 21.5844C14.7623 21.5356 15.2374 21.4971 15.6341 21.4649C16.2887 21.4118 16.7296 21.376 17.5857 21.3402C18.2226 21.3115 19.3949 21.5413 19.6699 21.6706C19.3226 21.3402 18.1936 21.0242 17.6147 21.0529C16.891 21.0817 14.8213 21.2827 13.7503 21.5269C13.2871 21.4695 12.8384 21.4408 12.3608 21.4551H12.3319C12.8963 20.8949 16.6739 20.3922 17.5134 20.3922C18.3094 20.3491 19.1923 20.5933 19.6699 20.9093C19.2791 20.464 18.2949 20.0618 17.4555 20.1049C16.5871 20.1049 12.8384 20.78 12.3319 21.4551C12.2973 21.4551 12.2595 21.4584 12.2199 21.4618H12.2199H12.2199H12.2199H12.2199C12.1766 21.4656 12.1312 21.4695 12.0858 21.4695L12.1292 6.37289C12.549 5.42486 16.6739 3.51445 17.4989 3.48572C18.3528 3.50008 19.9449 5.58287 20.5962 6.50216V7.83802ZM12.3608 20.6795C12.8963 20.1193 16.7173 19.358 17.5568 19.358C18.3528 19.358 19.0186 19.6309 19.5397 19.99C19.091 19.5016 18.2805 19.0276 17.5568 19.0276C16.6739 19.0276 12.8384 20.0044 12.3608 20.6795ZM12.3463 19.9325C12.8674 19.3723 16.6884 18.3525 17.5279 18.3525C18.3239 18.3525 19.1344 18.769 19.6265 19.2C18.9463 18.3381 18.2515 18.0221 17.5279 18.0221C16.6594 18.0221 12.824 19.2574 12.3463 19.9325ZM12.3174 19.1425C12.8384 18.5823 16.6739 17.2895 17.5134 17.2895C18.3094 17.2895 19.1634 17.8641 19.8291 18.6254C19.1634 17.7636 18.2371 16.9592 17.5134 16.9592C16.6305 16.9592 12.795 18.4674 12.3174 19.1425ZM12.3174 18.2663C12.8384 17.7061 16.6739 16.4133 17.5134 16.4133C18.3094 16.4133 19.1634 16.9879 19.8291 17.7492C19.1634 16.8874 18.2371 16.083 17.5134 16.083C16.6305 16.083 12.795 17.5912 12.3174 18.2663ZM12.3174 17.4045C12.8384 16.8443 16.6739 15.5515 17.5134 15.5515C18.3094 15.5515 19.1634 16.1117 19.8291 16.8874C19.1634 16.0255 18.2371 15.2211 17.5134 15.2211C16.6305 15.2211 12.795 16.7294 12.3174 17.4045ZM12.3174 16.5283C12.8384 15.9681 16.6739 14.5029 17.5134 14.5029C18.3094 14.5029 19.1634 15.2499 19.8291 15.9968C19.1634 15.1349 18.2371 14.1726 17.5134 14.1726C16.6305 14.1726 12.795 15.8531 12.3174 16.5283ZM12.3174 15.6521C12.8384 15.0919 16.6739 13.6267 17.5134 13.6267C18.3094 13.6267 19.1634 14.3737 19.8291 15.1206C19.1634 14.2587 18.2371 13.2963 17.5134 13.2963C16.6305 13.2963 12.795 14.9769 12.3174 15.6521ZM12.3174 14.7758C12.8384 14.2156 16.6739 12.7505 17.5134 12.7505C18.3094 12.7505 19.1634 13.4974 19.8291 14.2444C19.1634 13.3825 18.2371 12.4201 17.5134 12.4201C16.6305 12.4201 12.795 14.1007 12.3174 14.7758ZM12.3174 13.914C12.8384 13.3538 16.6739 11.8887 17.5134 11.8887C18.3094 11.8887 19.1634 12.6212 19.8291 13.3825C19.1634 12.5207 18.2371 11.5583 17.5134 11.5583C16.6305 11.5583 12.795 13.2389 12.3174 13.914ZM12.3174 13.0378C12.8384 12.4776 16.6739 11.0125 17.5134 11.0125C18.3094 11.0125 19.1634 11.745 19.8291 12.5063C19.1634 11.6445 18.2371 10.6821 17.5134 10.6821C16.6305 10.6821 12.795 12.3627 12.3174 13.0378ZM12.3174 12.1616C12.8384 11.6014 16.6739 10.1363 17.5134 10.1363C18.3094 10.1363 19.1634 10.8688 19.8291 11.6301C19.1634 10.7683 18.2371 9.80589 17.5134 9.80589C16.6305 9.80589 12.795 11.4865 12.3174 12.1616ZM12.3174 11.2854C12.8384 10.7252 16.6739 9.26006 17.5134 9.26006C18.3094 9.26006 19.1634 9.99262 19.8291 10.7539C19.1634 9.89208 18.2371 8.92969 17.5134 8.92969C16.6305 8.92969 12.795 10.6103 12.3174 11.2854ZM12.3174 10.4092C12.8384 9.84898 16.6739 8.38385 17.5134 8.38385C18.3094 8.38385 19.1634 9.13078 19.8291 9.87771C19.1634 9.01587 18.2371 8.05348 17.5134 8.05348C16.6305 8.05348 12.795 9.73407 12.3174 10.4092ZM12.3174 9.53297C12.8384 8.97278 16.6739 7.50765 17.5134 7.50765C18.3094 7.50765 19.1634 8.25458 19.8291 9.00151C19.1634 8.13966 18.2371 7.17727 17.5134 7.17727C16.6305 7.17727 12.795 8.85787 12.3174 9.53297ZM12.3029 8.67113C12.8384 8.09657 16.6739 6.60271 17.5134 6.60271C18.3239 6.60271 19.1634 7.37837 19.8147 8.13966C19.1489 7.27782 18.2226 6.31543 17.4989 6.31543C16.616 6.31543 12.7805 7.99602 12.3029 8.67113ZM12.3174 7.78056C12.8384 7.22037 16.6594 5.53977 17.4989 5.53977C18.2871 5.53977 19.1462 6.48318 19.8233 7.22682L19.8436 7.24909C19.1634 6.38725 18.2226 5.23813 17.4989 5.23813C16.616 5.23813 12.795 7.10545 12.3174 7.78056ZM12.3029 6.91872C12.8384 6.35852 16.6015 4.62048 17.441 4.62048C18.2515 4.62048 19.1634 5.62596 19.8291 6.40162C19.1634 5.53977 18.1647 4.3332 17.441 4.3332C16.5581 4.3332 12.7805 6.24361 12.3029 6.91872ZM12.0568 22.2596C11.2607 22.1016 10.4213 22.0298 9.42259 22.1591C9.42259 22.1591 10.3923 21.8143 11.9844 21.8143L12.0568 22.2596ZM18.7147 22.7049C18.7147 22.7049 17.3252 22.8342 16.0081 22.5182C15.7157 22.448 15.4417 22.375 15.1743 22.3037L15.1742 22.3037L15.1741 22.3037L15.1741 22.3037L15.1739 22.3036L15.1737 22.3036L15.1735 22.3035C14.2371 22.0539 13.3803 21.8255 12.0858 21.8143H11.9845L12.0569 22.2596C12.4811 22.3429 12.8918 22.4485 13.3054 22.5549L13.3055 22.5549C14.176 22.7788 15.0596 23.0061 16.1095 23.0353C17.8029 23.0784 18.7147 22.7049 18.7147 22.7049ZM6.77401 22.8773C6.77401 22.8773 8.00426 22.3745 9.72661 22.4176C10.7977 22.4464 11.4345 22.5756 12.1292 22.7624L12.1292 22.7622C12.2814 22.7987 12.4375 22.8389 12.6029 22.8816L12.603 22.8816L12.6031 22.8816C12.8936 22.9566 13.2129 23.0389 13.591 23.1213C14.3794 23.2997 15.2339 23.3339 15.8892 23.3366L15.9791 23.3224C16.5725 23.3081 16.9778 23.265 16.9778 23.265C16.9778 23.265 16.312 23.4948 15.4002 23.6097C14.966 23.6672 14.4739 23.7246 13.8081 23.6959H13.6055L13.613 23.6947L13.6055 23.6958C13.07 23.6671 12.6068 23.5953 12.245 23.5235L12.245 23.5237C12.1203 23.4899 12.0046 23.465 11.8977 23.442L11.8108 23.4231C11.673 23.3887 11.54 23.3552 11.4113 23.3227L11.4109 23.3226L11.4102 23.3225C9.66061 22.8816 8.68805 22.6365 6.77401 22.8773ZM14.7489 23.9545C14.7489 23.9545 12.8239 24.1843 10.9568 23.7391C10.6866 23.6752 10.4388 23.6146 10.2075 23.558C8.61767 23.1692 7.80798 22.9712 5.86216 23.222C4.45822 23.3943 3.86481 23.7678 3.86481 23.7678C6.22343 23.3792 7.63662 23.6957 8.95522 23.991C9.73232 24.165 10.4766 24.3317 11.3621 24.3424C13.4463 24.3567 14.7489 23.9545 14.7489 23.9545ZM24.8659 22.2452C25.8212 22.3027 26.2988 22.4176 26.2554 22.4176C25.2567 22.3745 24.562 22.4176 23.9541 22.5181C22.2283 22.752 20.8676 23.1868 19.5 23.6238L19.5 23.6238C18.0118 24.0993 16.5155 24.5775 14.5318 24.802C13.4463 24.9169 12.8239 24.9457 12.0568 24.9457C10.6529 24.96 9.94371 24.6727 9.94371 24.6727C10.1643 24.6843 10.329 24.6935 10.4586 24.7007L10.4588 24.7007C10.6779 24.713 10.7966 24.7196 10.9155 24.7223C11.0562 24.7255 11.197 24.7232 11.5045 24.7182H11.5046L11.6516 24.7158C12.9832 24.6871 13.9963 24.5578 15.3568 24.1844C16.0176 24.0003 16.5623 23.8024 17.1146 23.6017L17.1146 23.6017C17.9414 23.3014 18.7851 22.9948 20.0607 22.7192L23.0278 22.274C23.6646 22.2165 24.287 22.2021 24.8659 22.2452ZM20.9002 22.5466C20.5962 22.6041 20.3212 22.6615 20.0607 22.719L23.0278 22.2737C22.333 22.3168 21.6238 22.4173 20.9002 22.5466ZM23.8093 22.8629C24.7356 22.6905 25.7053 22.59 26.5882 22.5325C27.9487 22.4463 28.1079 22.5325 28.1079 22.5325C28.1079 22.5325 27.2395 22.6474 26.5592 22.7336C24.9936 22.9408 24.0451 23.2974 23.1005 23.6525C22.7353 23.7898 22.3707 23.9269 21.9711 24.0551C20.654 24.486 19.2356 24.8164 17.3251 24.9169C17.0791 24.9313 16.0225 24.9313 15.5883 24.7733C16.1962 24.7876 16.558 24.7733 17.383 24.6584C18.6957 24.4657 19.7416 24.1033 20.8092 23.7335C21.7311 23.4141 22.6692 23.0892 23.8093 22.8629Z" fill="white"/>
</svg>
