<svg width="91" height="111" viewBox="0 0 91 111" fill="none" xmlns="http://www.w3.org/2000/svg">
<path d="M91 45.4091C91 80.7273 45.5 111 45.5 111C45.5 111 0 80.7273 0 45.4091C1.79818e-07 33.3659 4.79374 21.8159 13.3266 13.3C21.8595 4.78416 33.4326 0 45.5 0C57.5673 0 69.1404 4.78416 77.6734 13.3C86.2063 21.8159 91 33.3659 91 45.4091Z" fill="#E86D6F"/>
<path fill-rule="evenodd" clip-rule="evenodd" d="M58.6203 22.3078H59.3618C59.9797 22.7166 60.8448 23.4525 61.8335 24.5154V27.3772C60.5976 25.3739 59.403 24.2292 58.6203 23.6569V24.6789C59.0323 24.8834 60.3093 25.6192 61.8335 27.4589V30.3207C60.5976 28.3175 59.403 27.1728 58.6203 26.6004V27.6225C59.0323 27.8269 60.3093 28.5628 61.8335 30.4025V33.2642C60.5976 31.261 59.403 30.1163 58.6203 29.5439V30.566C59.0323 30.7704 60.3093 31.5063 61.8335 33.346V36.2078C60.5976 34.2045 59.403 33.0598 58.6203 32.4875V33.4687C59.0323 33.6731 60.3093 34.4089 61.8335 36.2487V39.1104C60.5976 37.1072 59.403 35.9625 58.6203 35.3901V36.4122C59.0323 36.6166 60.3093 37.3525 61.8335 39.1922V41.7678C60.614 39.7911 59.4347 38.9289 58.6516 38.3565L58.6203 38.3337V39.3557C58.6637 39.3773 58.7168 39.4015 58.7787 39.4299L58.7789 39.4299C59.3045 39.6705 60.4701 40.2039 61.8335 41.8495V44.5069C60.7596 42.7307 59.7168 42.004 58.9484 41.4685C58.8325 41.3877 58.7229 41.3113 58.6203 41.2363V42.2584C58.687 42.2915 58.7764 42.3256 58.8858 42.3674L58.8859 42.3675C59.4523 42.584 60.5561 43.006 61.8335 44.5478V47.4504C60.6891 45.6554 59.6441 44.9108 58.876 44.3636C58.787 44.3001 58.7016 44.2393 58.6203 44.1798V45.2019C58.6834 45.2332 58.7667 45.2664 58.8681 45.3068C59.429 45.5303 60.5426 45.9741 61.8335 47.5322V50.394C60.7413 48.6236 59.6814 47.875 58.9094 47.3298C58.8079 47.2581 58.7113 47.1899 58.6203 47.1234V48.1454C58.6833 48.1767 58.7665 48.2099 58.8678 48.2502L58.8678 48.2502L58.868 48.2503L58.8681 48.2503C59.429 48.4738 60.5426 48.9176 61.8335 50.4757V53.3375C60.716 51.5261 59.6322 50.7509 58.8562 50.1959C58.774 50.1371 58.6953 50.0808 58.6203 50.026V51.0481C58.6593 51.0636 58.7061 51.0805 58.7601 51.1001L58.7608 51.1003L58.7611 51.1004C59.2779 51.2877 60.4545 51.714 61.8335 53.3784V55.9948C60.7924 54.3617 59.8334 53.7339 59.0905 53.2476C58.9222 53.1374 58.7649 53.0344 58.6203 52.9287V53.9507C58.701 53.9907 58.8148 54.0245 58.9571 54.0667C59.5418 54.2401 60.6077 54.5562 61.8335 56.0357V58.734C60.5976 56.7307 59.2794 56.0357 58.6615 55.8313V56.8534C58.6982 56.86 58.7398 56.8664 58.7861 56.8734C59.3105 56.9536 60.4328 57.1251 61.8335 58.8157L61.7923 61.3504C60.526 59.364 59.2597 58.9453 58.636 58.7392L58.6203 58.734V59.756L58.6447 59.7536C59.0793 59.7096 60.2971 59.5866 61.7923 61.3913L61.8335 62.6995C61.1331 62.7908 60.4509 62.8869 59.78 62.9814H59.78L59.7798 62.9815C56.5447 63.4372 53.5732 63.8558 50.0931 63.5172C48.2602 63.5172 45.6515 62.8194 43.4014 62.2176C42.7185 62.035 42.0687 61.8612 41.4836 61.7184C41.1739 61.6625 40.8065 61.5875 40.4735 61.5196L40.4733 61.5195L40.4731 61.5195C40.3189 61.488 40.1721 61.4581 40.0418 61.4322C42.0151 61.2934 43.3672 61.1837 44.4959 61.0921L44.4963 61.0921L44.4971 61.092L44.4973 61.092C46.3603 60.9408 47.6152 60.839 50.052 60.7372C51.8645 60.6554 55.2012 61.3095 55.9839 61.6775C54.9952 60.7372 51.7821 59.8378 50.1343 59.9195C48.0746 60.0013 42.1839 60.5737 39.1355 61.2687C37.8173 61.1051 36.5403 61.0234 35.1809 61.0642H35.0985C36.7051 59.4698 47.4567 58.039 49.846 58.039C52.1117 57.9163 54.6245 58.6113 55.9839 59.5107C54.8717 58.2434 52.0705 57.0987 49.6812 57.2213C47.2096 57.2213 36.5403 59.1428 35.0985 61.0642C35.0002 61.0642 34.8925 61.0736 34.78 61.0833C34.6566 61.094 34.5274 61.1051 34.3982 61.1051L34.5218 18.1378C35.7164 15.4395 47.4567 10.0022 49.8048 9.92041C52.2352 9.96129 56.7666 15.8892 58.6203 18.5057V22.3078ZM35.1809 58.8566C36.7051 57.2622 47.5803 55.0954 49.9696 55.0954C52.2352 55.0954 54.1302 55.8722 55.6131 56.8942C54.3361 55.5042 52.0293 54.1551 49.9696 54.1551C47.4567 54.1551 36.5403 56.9351 35.1809 58.8566ZM35.1397 56.7307C36.6227 55.1363 47.4979 52.2337 49.8872 52.2337C52.1528 52.2337 54.4597 53.4192 55.8603 54.6457C53.9242 52.1928 51.9469 51.2934 49.8872 51.2934C47.4155 51.2934 36.4991 54.8092 35.1397 56.7307ZM35.0573 54.4822C36.5403 52.8878 47.4567 49.2084 49.846 49.2084C52.1117 49.2084 54.5421 50.8437 56.437 53.0104C54.5421 50.5575 51.9057 48.2681 49.846 48.2681C47.3331 48.2681 36.4167 52.5607 35.0573 54.4822ZM35.0573 51.9884C36.5403 50.394 47.4567 46.7145 49.846 46.7145C52.1117 46.7145 54.5421 48.3498 56.437 50.5166C54.5421 48.0637 51.9057 45.7742 49.846 45.7742C47.3331 45.7742 36.4167 50.0669 35.0573 51.9884ZM35.0573 49.5354C36.5403 47.941 47.4567 44.2616 49.846 44.2616C52.1117 44.2616 54.5421 45.856 56.437 48.0637C54.5421 45.6107 51.9057 43.3213 49.846 43.3213C47.3331 43.3213 36.4167 47.6139 35.0573 49.5354ZM35.0573 47.0416C36.5403 45.4472 47.4567 41.2772 49.846 41.2772C52.1117 41.2772 54.5421 43.4031 56.437 45.5289C54.5421 43.076 51.9057 40.3369 49.846 40.3369C47.3331 40.3369 36.4167 45.1201 35.0573 47.0416ZM35.0573 44.5478C36.5403 42.9534 47.4567 38.7834 49.846 38.7834C52.1117 38.7834 54.5421 40.9092 56.437 43.0351C54.5421 40.5822 51.9057 37.8431 49.846 37.8431C47.3331 37.8431 36.4167 42.6263 35.0573 44.5478ZM35.0573 42.054C36.5403 40.4595 47.4567 36.2895 49.846 36.2895C52.1117 36.2895 54.5421 38.4154 56.437 40.5413C54.5421 38.0884 51.9057 35.3492 49.846 35.3492C47.3331 35.3492 36.4167 40.1325 35.0573 42.054ZM35.0573 39.601C36.5403 38.0066 47.4567 33.8366 49.846 33.8366C52.1117 33.8366 54.5421 35.9216 56.437 38.0884C54.5421 35.6354 51.9057 32.8963 49.846 32.8963C47.3331 32.8963 36.4167 37.6795 35.0573 39.601ZM35.0573 37.1072C36.5403 35.5128 47.4567 31.3428 49.846 31.3428C52.1117 31.3428 54.5421 33.4278 56.437 35.5945C54.5421 33.1416 51.9057 30.4025 49.846 30.4025C47.3331 30.4025 36.4167 35.1857 35.0573 37.1072ZM35.0573 34.6134C36.5403 33.0189 47.4567 28.8489 49.846 28.8489C52.1117 28.8489 54.5421 30.9339 56.437 33.1007C54.5421 30.6478 51.9057 27.9087 49.846 27.9087C47.3331 27.9087 36.4167 32.6919 35.0573 34.6134ZM35.0573 32.1195C36.5403 30.5251 47.4567 26.3551 49.846 26.3551C52.1117 26.3551 54.5421 28.4401 56.437 30.6069C54.5421 28.1539 51.9057 25.4148 49.846 25.4148C47.3331 25.4148 36.4167 30.1981 35.0573 32.1195ZM35.0573 29.6257C36.5403 28.0313 47.4567 23.8613 49.846 23.8613C52.1117 23.8613 54.5421 25.9872 56.437 28.1131C54.5421 25.6601 51.9057 22.921 49.846 22.921C47.3331 22.921 36.4167 27.7042 35.0573 29.6257ZM35.0573 27.1319C36.5403 25.5375 47.4567 21.3675 49.846 21.3675C52.1117 21.3675 54.5421 23.4934 56.437 25.6192C54.5421 23.1663 51.9057 20.4272 49.846 20.4272C47.3331 20.4272 36.4167 25.2104 35.0573 27.1319ZM35.0161 24.6789C36.5403 23.0437 47.4567 18.7919 49.846 18.7919C52.1528 18.7919 54.5421 20.9995 56.3958 23.1663C54.5009 20.7134 51.8645 17.9742 49.8048 17.9742C47.292 17.9742 36.3755 22.7575 35.0161 24.6789ZM35.0573 22.1442C36.5403 20.5498 47.4155 15.7666 49.8048 15.7666C52.048 15.7666 54.4931 18.4517 56.4205 20.5682L56.4782 20.6316C54.5421 18.1786 51.8645 14.9081 49.8048 14.9081C47.292 14.9081 36.4167 20.2228 35.0573 22.1442ZM35.0161 19.6913C36.5403 18.0969 47.2508 13.1501 49.64 13.1501C51.9469 13.1501 54.5421 16.0119 56.437 18.2195C54.5421 15.7666 51.6997 12.3325 49.64 12.3325C47.1272 12.3325 36.3755 17.7698 35.0161 19.6913ZM34.3158 63.3536C32.0501 62.9039 29.6609 62.6995 26.8185 63.0674C26.8185 63.0674 29.5785 62.0863 34.1098 62.0863L34.3158 63.3536ZM53.2652 64.621C53.2652 64.621 49.3105 64.9889 45.5619 64.0895C44.7286 63.8896 43.9483 63.6816 43.1865 63.4785C40.5211 62.768 38.0826 62.1181 34.3983 62.0863H34.1099L34.3159 63.3536C35.5233 63.5906 36.6923 63.8913 37.8696 64.1941C40.3474 64.8314 42.8622 65.4781 45.8502 65.5613C50.6699 65.6839 53.2652 64.621 53.2652 64.621ZM19.28 65.1115C19.28 65.1115 22.7815 63.6807 27.6836 63.8033C30.7319 63.8851 32.5445 64.253 34.5218 64.7845L34.5218 64.7845C34.9552 64.8884 35.3995 65.0029 35.8703 65.1244L35.8706 65.1245L35.8707 65.1245L35.8708 65.1245L35.8711 65.1246C36.6978 65.3378 37.6065 65.5722 38.6824 65.8066C40.9257 66.3144 43.3571 66.4116 45.2221 66.4193L45.4794 66.3788C47.1684 66.3379 48.3218 66.2153 48.3218 66.2153C48.3218 66.2153 46.4269 66.8694 43.8317 67.1965C42.5958 67.36 41.1952 67.5235 39.3003 67.4418H38.7243L38.7236 67.4419C37.1994 67.3601 35.8812 67.1557 34.8513 66.9513L34.8513 66.9512C34.4966 66.8552 34.1671 66.7843 33.8628 66.7188L33.8627 66.7187L33.8616 66.7185C33.7777 66.7004 33.6956 66.6827 33.6155 66.6651C33.2282 66.5683 32.8544 66.4741 32.4924 66.3829L32.4877 66.3817L32.4803 66.3798L32.4754 66.3786C27.4957 65.1238 24.7277 64.4262 19.28 65.1115ZM41.9779 68.1778C41.9779 68.1778 36.4991 68.8319 31.1851 67.5646C30.4159 67.3828 29.7106 67.2103 29.0523 67.0493C24.5274 65.9427 22.2229 65.379 16.6848 66.0928C12.689 66.5834 11 67.6464 11 67.6464C17.713 66.5403 21.7352 67.4411 25.4881 68.2816C27.6999 68.7769 29.8181 69.2513 32.3385 69.2816C38.2705 69.3225 41.9779 68.1778 41.9779 68.1778ZM70.7726 63.3128C73.4914 63.4764 74.8508 63.8034 74.7272 63.8034C71.8848 63.6808 69.9075 63.8034 68.1774 64.0896C63.2654 64.7552 59.3926 65.9928 55.5004 67.2365C51.2647 68.5899 47.006 69.9508 41.3601 70.5899C38.2705 70.917 36.4992 70.9987 34.3159 70.9987C30.3201 71.0396 28.3016 70.222 28.3016 70.222C28.9293 70.2548 29.3981 70.281 29.767 70.3016L29.7676 70.3016C30.391 70.3365 30.7291 70.3554 31.0674 70.3631C31.4679 70.3723 31.8688 70.3657 32.7442 70.3514H32.7444L33.1625 70.3446C36.9523 70.2629 39.8359 69.8949 43.7081 68.832C45.5888 68.3081 47.1391 67.7448 48.711 67.1737C51.0642 66.3188 53.4657 65.4463 57.0962 64.662L65.541 63.3946C67.3535 63.2311 69.1248 63.1902 70.7726 63.3128ZM59.4854 64.1712C58.6203 64.3347 57.8377 64.4983 57.0962 64.6618L65.5409 63.3945C63.5636 63.5171 61.5451 63.8033 59.4854 64.1712ZM67.7653 65.0707C70.4018 64.5802 73.1618 64.294 75.6746 64.1305C79.5468 63.8852 80 64.1305 80 64.1305C80 64.1305 77.5283 64.4575 75.5922 64.7028C71.1361 65.2925 68.4367 66.3074 65.7482 67.3182C64.7087 67.709 63.6708 68.0992 62.5337 68.464C58.785 69.6904 54.748 70.6307 49.3104 70.9169C48.6101 70.9578 45.6029 70.9578 44.3671 70.5081C46.0973 70.549 47.1271 70.5081 49.4752 70.181C53.2112 69.6325 56.188 68.6013 59.2268 67.5487C61.8505 66.6397 64.5205 65.7148 67.7653 65.0707Z" fill="white"/>
</svg>
