<svg width="57" height="69" viewBox="0 0 57 69" fill="none" xmlns="http://www.w3.org/2000/svg">
<path d="M56.3805 28.1339C56.3805 50.0158 28.1902 68.7718 28.1902 68.7718C28.1902 68.7718 0 50.0158 0 28.1339C1.11409e-07 20.6723 2.97003 13.5164 8.25673 8.24023C13.5434 2.9641 20.7137 0 28.1902 0C35.6668 0 42.837 2.9641 48.1237 8.24023C53.4104 13.5164 56.3805 20.6723 56.3805 28.1339Z" fill="#2B5878"/>
<g clip-path="url(#clip0)">
<path d="M39.4 39.6C40.7255 39.6 41.8 38.5255 41.8 37.2C41.8 35.8746 40.7255 34.8 39.4 34.8C38.0745 34.8 37 35.8746 37 37.2C37 38.5255 38.0745 39.6 39.4 39.6Z" fill="white"/>
<path d="M22 39.6C23.3255 39.6 24.4 38.5255 24.4 37.2C24.4 35.8746 23.3255 34.8 22 34.8C20.6745 34.8 19.6 35.8746 19.6 37.2C19.6 38.5255 20.6745 39.6 22 39.6Z" fill="white"/>
<path d="M41.2 31.8H22.4626L22.8628 31.1508C23.0344 30.8724 23.0848 30.5358 23.0026 30.219L22.612 28.7154L40.0018 27.8118C40.6612 27.7782 41.2 27.21 41.2 26.55V18.6C41.2 17.94 40.66 17.4 40 17.4H19.6714L19.4368 16.4982C19.37 16.241 19.2196 16.0132 19.0094 15.8507C18.7992 15.6881 18.5409 15.5999 18.2752 15.6H14.2C13.8817 15.6 13.5765 15.7264 13.3515 15.9514C13.1264 16.1765 13 16.4817 13 16.8C13 17.1182 13.1264 17.4235 13.3515 17.6485C13.5765 17.8735 13.8817 18 14.2 18H17.3476L20.5516 30.327L19.2916 32.37C19.1795 32.5518 19.118 32.7602 19.1135 32.9737C19.109 33.1872 19.1615 33.398 19.2658 33.5844C19.3696 33.771 19.5214 33.9264 19.7055 34.0347C19.8896 34.1429 20.0993 34.2 20.3128 34.2H41.2C41.5183 34.2 41.8235 34.0735 42.0485 33.8485C42.2736 33.6235 42.4 33.3182 42.4 33C42.4 32.6817 42.2736 32.3765 42.0485 32.1514C41.8235 31.9264 41.5183 31.8 41.2 31.8Z" fill="white"/>
</g>
<defs>
<clipPath id="clip0">
<rect width="30" height="30" fill="white" transform="translate(13 12)"/>
</clipPath>
</defs>
</svg>
