<svg width="57" height="69" viewBox="0 0 57 69" fill="none" xmlns="http://www.w3.org/2000/svg">
<path d="M56.3805 28.1339C56.3805 50.0158 28.1902 68.7718 28.1902 68.7718C28.1902 68.7718 0 50.0158 0 28.1339C1.11409e-07 20.6723 2.97003 13.5164 8.25673 8.24023C13.5434 2.9641 20.7137 0 28.1902 0C35.6668 0 42.837 2.9641 48.1237 8.24023C53.4104 13.5164 56.3805 20.6723 56.3805 28.1339Z" fill="#2B5878"/>
<path d="M35.8828 20H20.1183C17.3032 20 15 22.1412 15 25C15 27.8588 17.3032 30 20.1183 30H35.8828C38.6968 30 41 27.8582 41 25C41 22.1412 38.6968 20 35.8828 20V20ZM35.8844 28.8235H28.0681V21.1765H35.8844C37.96 21.1765 39.66 22.8912 39.66 25C39.66 27.1088 37.9606 28.8235 35.8844 28.8235Z" fill="white"/>
</svg>
