<svg width="57" height="69" viewBox="0 0 57 69" fill="none" xmlns="http://www.w3.org/2000/svg">
<path d="M56.3805 28.1339C56.3805 50.0158 28.1902 68.7718 28.1902 68.7718C28.1902 68.7718 0 50.0158 0 28.1339C1.11409e-07 20.6723 2.97003 13.5164 8.25673 8.24023C13.5434 2.9641 20.7137 0 28.1902 0C35.6668 0 42.837 2.9641 48.1237 8.24023C53.4104 13.5164 56.3805 20.6723 56.3805 28.1339Z" fill="#2B5878"/>
<g clip-path="url(#clip0)">
<path fill-rule="evenodd" clip-rule="evenodd" d="M37.2081 38.406V33.85C40.1587 33.172 42.9676 29.946 42.9676 26.058C42.9676 21.678 39.7685 10.094 36.2686 10.094C32.7687 10.094 29.5618 21.678 29.5618 26.058C29.5618 29.86 32.4988 33.036 35.3543 33.806V38.226C33.4074 38.1295 31.4586 38.0815 29.5094 38.082C27.5188 38.0825 25.5302 38.2141 23.5558 38.476V33.132C25.6096 32.51 27.3799 30.296 27.3799 27.632C27.3799 24.492 25.2544 16.07 22.6396 16.07C20.019 16.07 17.8992 24.492 17.8992 27.632C17.8992 30.34 19.656 32.592 21.768 33.17V38.756C17.1189 39.582 13.9839 40.982 13.9839 41.89H45.0427C45.0408 40.978 41.8844 38.828 37.2081 38.406Z" fill="white"/>
</g>
<defs>
<clipPath id="clip0">
<rect width="33" height="32" fill="white" transform="translate(12 10)"/>
</clipPath>
</defs>
</svg>
