<svg width="57" height="69" viewBox="0 0 57 69" fill="none" xmlns="http://www.w3.org/2000/svg">
<path d="M56.3805 28.1339C56.3805 50.0158 28.1902 68.7718 28.1902 68.7718C28.1902 68.7718 0 50.0158 0 28.1339C1.11409e-07 20.6723 2.97003 13.5164 8.25673 8.24023C13.5434 2.9641 20.7137 0 28.1902 0C35.6668 0 42.837 2.9641 48.1237 8.24023C53.4104 13.5164 56.3805 20.6723 56.3805 28.1339Z" fill="#2B5878"/>
<path d="M22.3184 22.6496C21.8256 20.7791 22.2879 20.4101 22.7353 20.4134C22.8386 20.414 22.8553 20.4124 22.9449 20.4388L22.9463 20.3978C22.9463 20.3978 21.6209 16.0264 24.8092 14.1041C24.8092 14.1041 24.2488 13.6554 24.2923 13.0091C24.2923 13.0091 25.754 13.173 27.1549 13.1759C27.7915 13.1772 28.4157 13.1452 28.8838 13.0497C29.071 13.0114 29.2603 12.9962 29.4482 13.0008C30.7638 13.0335 32.0246 14.0469 32.2462 15.0253C32.2462 15.0253 32.2656 15.0236 32.3011 15.0236C32.717 15.023 35.3295 15.2205 34.0757 20.415C34.0757 20.415 34.0747 20.422 34.0727 20.4345C34.1333 20.422 34.1971 20.4137 34.261 20.4127C34.7097 20.4071 35.1761 20.7729 34.6819 22.6486C34.287 24.1474 33.9213 24.5333 33.6498 24.5323C33.5592 24.532 33.4793 24.4887 33.4121 24.4296C33.2218 25.6082 32.722 27.0429 31.4843 28.0622C28.4281 30.3817 25.5267 28.1081 25.5267 28.1081C24.2595 27.0957 23.7457 25.6518 23.5484 24.462C23.4886 24.5056 23.4197 24.534 23.3441 24.5327C23.073 24.5277 22.7099 24.1358 22.3184 22.6496ZM28.5331 42.9283L30.6394 40.6461L29.1014 33.9327C29.1014 33.9327 31.5538 30.6028 28.5 30.6414C25.4461 30.6028 27.8985 33.9327 27.8985 33.9327L26.3605 40.6461L28.4669 42.9283V43L28.5 42.9643L28.5331 43V42.9283ZM39.9798 35.6684C40.0664 34.4554 39.9638 32.0011 37.8133 31.4609C34.93 30.7363 32.5869 29.1063 32.5869 29.1063L30.6494 35.1619L31.844 40.3768C31.8551 40.4254 31.8631 40.4743 31.8681 40.5232C36.8571 39.8885 39.7398 38.0368 39.7398 38.0368C40.0143 37.3525 39.9895 35.6661 39.9895 35.6661L39.9798 35.6684ZM25.1559 40.3768L26.3505 35.1619L26.2408 34.8195L24.413 29.1063C24.413 29.1063 22.0703 30.7366 19.1866 31.4609C17.0375 32.0008 16.9335 34.4524 17.0201 35.6661C17.0201 35.6661 16.9953 37.3525 17.2698 38.0368C17.2698 38.0368 20.1488 39.8862 25.1322 40.5219C25.1368 40.4733 25.1449 40.4247 25.1559 40.3768Z" fill="white"/>
</svg>
