<svg width="57" height="69" viewBox="0 0 57 69" fill="none" xmlns="http://www.w3.org/2000/svg">
<path d="M56.3805 28.1339C56.3805 50.0158 28.1902 68.7718 28.1902 68.7718C28.1902 68.7718 0 50.0158 0 28.1339C1.11409e-07 20.6723 2.97003 13.5164 8.25673 8.24023C13.5434 2.9641 20.7137 0 28.1902 0C35.6668 0 42.837 2.9641 48.1237 8.24023C53.4104 13.5164 56.3805 20.6723 56.3805 28.1339Z" fill="#2B5878"/>
<g clip-path="url(#clip0)">
<path d="M14 23.6249V35.3124C14 35.6922 14.3132 35.9999 14.7 35.9999H18.2V22.2499H15.4C14.6269 22.2499 14 22.8656 14 23.6249ZM29.75 21.5624H28.7V19.8436C28.7 19.6537 28.5434 19.4999 28.35 19.4999H27.65C27.4566 19.4999 27.3 19.6537 27.3 19.8436V22.5936C27.3 22.7836 27.4566 22.9374 27.65 22.9374H29.75C29.9434 22.9374 30.1 22.7836 30.1 22.5936V21.9061C30.1 21.7162 29.9434 21.5624 29.75 21.5624ZM35.7766 18.8141L28.7766 14.2306C28.5465 14.0802 28.2764 13.9999 28 13.9999C27.7236 13.9999 27.4535 14.0802 27.2234 14.2306L20.2234 18.8141C20.0317 18.9396 19.8745 19.1097 19.7657 19.3093C19.657 19.5088 19.6 19.7316 19.6 19.9579V35.9999H25.2V29.8124C25.2 29.4325 25.5132 29.1249 25.9 29.1249H30.1C30.4867 29.1249 30.8 29.4325 30.8 29.8124V35.9999H36.4V19.9584C36.4 19.4986 36.1659 19.0689 35.7766 18.8141ZM28 24.9999C26.0671 24.9999 24.5 23.4607 24.5 21.5624C24.5 19.664 26.0671 18.1249 28 18.1249C29.9329 18.1249 31.5 19.664 31.5 21.5624C31.5 23.4607 29.9329 24.9999 28 24.9999ZM40.6 22.2499H37.8V35.9999H41.3C41.6868 35.9999 42 35.6922 42 35.3124V23.6249C42 22.8656 41.3731 22.2499 40.6 22.2499Z" fill="white"/>
</g>
<defs>
<clipPath id="clip0">
<rect width="28" height="22" fill="white" transform="translate(14 14)"/>
</clipPath>
</defs>
</svg>
