<svg width="57" height="69" viewBox="0 0 57 69" fill="none" xmlns="http://www.w3.org/2000/svg">
<path d="M56.3805 28.1339C56.3805 50.0158 28.1902 68.7718 28.1902 68.7718C28.1902 68.7718 0 50.0158 0 28.1339C1.11409e-07 20.6723 2.97003 13.5164 8.25673 8.24023C13.5434 2.9641 20.7137 0 28.1902 0C35.6668 0 42.837 2.9641 48.1237 8.24023C53.4104 13.5164 56.3805 20.6723 56.3805 28.1339Z" fill="#2B5878"/>
<path d="M36.4209 18.1759L32.2745 18.622C31.767 16.3536 30.4308 14.6242 28.7997 14.1877C28.1875 13.5835 27.4766 13.1818 26.697 13.0494V13H26.1636V13.0398C23.5376 13.4012 21.4721 16.277 21.401 19.7922L18 20.1579L20.1046 37.4166L32.2614 40L35.1578 38.1071L38 20.7101L36.4209 18.1759ZM31.6888 18.685L30.8469 18.7756C30.6989 17.5344 30.3265 16.4051 29.7934 15.4808C30.6669 16.1518 31.3501 17.2964 31.6888 18.685ZM28.5696 14.8956C29.4426 15.8141 30.0696 17.2162 30.2727 18.8374L24.1665 19.4943C24.5643 16.954 26.2242 15.0103 28.2457 14.8451C28.355 14.8552 28.463 14.8725 28.5696 14.8956ZM26.419 13.767C26.8577 13.8076 27.2783 13.9491 27.6704 14.176C25.5814 14.6477 23.9294 16.8169 23.5728 19.5581L21.9742 19.7301C22.0706 16.5428 24.0028 13.9638 26.419 13.767ZM32.4421 39.0043L32.21 38.9267L36.1317 18.7333L36.3638 18.8108L32.4421 39.0043Z" fill="white"/>
</svg>
