<svg width="57" height="69" viewBox="0 0 57 69" fill="none" xmlns="http://www.w3.org/2000/svg">
<path d="M56.3805 28.1339C56.3805 50.0158 28.1902 68.7718 28.1902 68.7718C28.1902 68.7718 0 50.0158 0 28.1339C1.11409e-07 20.6723 2.97003 13.5164 8.25673 8.24023C13.5434 2.9641 20.7137 0 28.1902 0C35.6668 0 42.837 2.9641 48.1237 8.24023C53.4104 13.5164 56.3805 20.6723 56.3805 28.1339Z" fill="#2B5878"/>
<path d="M24.1364 38.8219C24.248 38.9428 24.3073 39.1029 24.3015 39.2673C24.2956 39.4316 24.2252 39.5871 24.1054 39.6998L22.7588 40.9591C22.6385 41.0708 22.4789 41.1302 22.3148 41.1243C22.1508 41.1183 21.9958 41.0475 21.884 40.9274L14.0416 32.4756C13.9301 32.3546 13.8709 32.1945 13.8769 32.0301C13.8828 31.8657 13.9533 31.7103 14.0732 31.5977L15.4217 30.3403C15.4812 30.2849 15.551 30.2418 15.6272 30.2134C15.7034 30.185 15.7844 30.1719 15.8657 30.1749C15.9469 30.1778 16.0268 30.1967 16.1007 30.2305C16.1746 30.2643 16.2412 30.3124 16.2965 30.3719L24.1364 38.8219ZM34.1432 22.9189C34.2547 23.0399 34.3139 23.2 34.3079 23.3644C34.302 23.5288 34.2315 23.6842 34.1116 23.7968L25.6362 31.7142C25.516 31.826 25.3563 31.8854 25.1923 31.8795C25.0282 31.8735 24.8733 31.8027 24.7614 31.6826L22.7383 29.4996C22.6269 29.3786 22.5677 29.2185 22.5736 29.0541C22.5795 28.8897 22.6501 28.7343 22.7699 28.6217L31.2435 20.7043C31.3029 20.6489 31.3727 20.6058 31.4489 20.5774C31.525 20.549 31.606 20.5359 31.6871 20.5389C31.7683 20.5418 31.8482 20.5607 31.922 20.5945C31.9959 20.6283 32.0624 20.6764 32.1177 20.7359L34.1432 22.9189ZM27.0201 36.1268C27.2519 36.3766 27.2377 36.7716 26.9884 37.0047L25.6399 38.2633C25.5804 38.3187 25.5106 38.3618 25.4344 38.3902C25.3582 38.4186 25.2772 38.4317 25.196 38.4288C25.1147 38.4258 25.0349 38.4069 24.9609 38.3731C24.887 38.3393 24.8205 38.2912 24.7651 38.2317L16.9271 29.7798C16.8155 29.6589 16.7562 29.4989 16.762 29.3345C16.7679 29.1701 16.8383 29.0147 16.9581 28.9019L18.3041 27.6439C18.4243 27.5322 18.584 27.4728 18.748 27.4787C18.9121 27.4847 19.067 27.5555 19.1789 27.6756L27.0201 36.1268ZM40.0791 23.2221C40.1905 23.3432 40.2496 23.5033 40.2435 23.6677C40.2375 23.8321 40.1668 23.9874 40.0469 24.1L38.699 25.3586C38.5787 25.4705 38.419 25.53 38.2549 25.5242C38.0907 25.5184 37.9356 25.4477 37.8235 25.3276L29.9843 16.8776C29.8726 16.7568 29.8132 16.5967 29.819 16.4323C29.8248 16.2679 29.8953 16.1124 30.0153 15.9997L31.3669 14.738C31.4263 14.6826 31.4961 14.6395 31.5722 14.6111C31.6484 14.5828 31.7293 14.5697 31.8105 14.5726C31.8917 14.5755 31.9715 14.5945 32.0454 14.6283C32.1193 14.6621 32.1858 14.7101 32.2411 14.7696L40.0791 23.2221ZM42.9584 20.5313C43.0697 20.6525 43.1288 20.8126 43.1229 20.9771C43.117 21.1415 43.0465 21.297 42.9268 21.4098L41.5814 22.6678C41.522 22.7232 41.4522 22.7664 41.3761 22.7948C41.3 22.8233 41.219 22.8364 41.1378 22.8335C41.0567 22.8307 40.9768 22.8118 40.9029 22.778C40.829 22.7443 40.7625 22.6963 40.7072 22.6368L32.8691 14.1831C32.7577 14.062 32.6985 13.9019 32.7043 13.7375C32.7101 13.573 32.7805 13.4175 32.9001 13.3046L34.2468 12.0441C34.3061 11.9886 34.3758 11.9454 34.4518 11.917C34.5279 11.8885 34.6088 11.8753 34.69 11.8782C34.7712 11.8811 34.851 11.9 34.9248 11.9337C34.9987 11.9675 35.0651 12.0156 35.1203 12.0751L42.9584 20.5313Z" fill="white"/>
</svg>
