<svg width="24" height="29" viewBox="0 0 24 29" fill="none" xmlns="http://www.w3.org/2000/svg">
<path d="M23.8738 11.8501C23.8738 21.0669 12 28.967 12 28.967C12 28.967 0.126099 21.0669 0.126099 11.8501C0.126099 8.70729 1.37709 5.69316 3.60388 3.47083C5.83066 1.24849 8.85083 0 12 0C15.1491 0 18.1693 1.24849 20.3961 3.47083C22.6229 5.69316 23.8738 8.70729 23.8738 11.8501Z" fill="#2B5878"/>
<path d="M7.12499 12.2374V13.9937C7.12499 14.4499 7.37499 14.8749 7.77499 15.0937L10.9 16.7999C11.275 17.0062 11.725 17.0062 12.1 16.7999L15.225 15.0937C15.625 14.8749 15.875 14.4499 15.875 13.9937V12.2374L12.1 14.2999C11.725 14.5062 11.275 14.5062 10.9 14.2999L7.12499 12.2374ZM10.9 6.19993L5.63124 9.07493C5.19999 9.31243 5.19999 9.93743 5.63124 10.1749L10.9 13.0499C11.275 13.2562 11.725 13.2562 12.1 13.0499L17.125 10.3062V13.9999C17.125 14.3437 17.4062 14.6249 17.75 14.6249C18.0937 14.6249 18.375 14.3437 18.375 13.9999V9.99368C18.375 9.76243 18.25 9.55618 18.05 9.44368L12.1 6.19993C11.9153 6.10144 11.7093 6.04993 11.5 6.04993C11.2907 6.04993 11.0846 6.10144 10.9 6.19993Z" fill="white"/>
</svg>
