<svg width="57" height="69" viewBox="0 0 57 69" fill="none" xmlns="http://www.w3.org/2000/svg">
<path d="M56.3805 28.1339C56.3805 50.0158 28.1902 68.7718 28.1902 68.7718C28.1902 68.7718 0 50.0158 0 28.1339C1.11409e-07 20.6723 2.97003 13.5164 8.25673 8.24023C13.5434 2.9641 20.7137 0 28.1902 0C35.6668 0 42.837 2.9641 48.1237 8.24023C53.4104 13.5164 56.3805 20.6723 56.3805 28.1339Z" fill="#2B5878"/>
<path d="M41.9333 34.8H39.35H32.1167V34.2834H38.8333C38.8369 34.2828 38.8406 34.2828 38.8437 34.2834C39.1289 34.2834 39.3603 34.0524 39.3603 33.7667C39.3603 33.6535 39.3242 33.5492 39.2627 33.4644L34.0516 22.2156C31.7385 26.2781 28.4359 30.5143 22.982 34.2834H31.0833V34.8H18.1667C17.9853 34.8 17.8169 34.8956 17.7239 35.0506L16.3242 37.3834H39.4549C39.6538 36.8781 39.7861 36.3542 39.8398 35.8334H41.9333C42.2185 35.8334 42.45 35.6024 42.45 35.3167C42.45 35.031 42.2185 34.8 41.9333 34.8Z" fill="white"/>
<path d="M17.65 32.2167H21.2594L28.6152 14.2201C28.7852 13.8042 29.1241 13.4927 29.5333 13.3475V12.5833C29.5333 12.3508 29.3778 12.1468 29.1536 12.0853C28.9294 12.0228 28.6912 12.1194 28.5723 12.3193L17.2057 31.436C17.1106 31.5956 17.1085 31.7935 17.2005 31.9552C17.2925 32.117 17.4645 32.2167 17.65 32.2167Z" fill="white"/>
<path d="M21.7896 33.8338C27.7395 29.8762 31.1645 25.346 33.5127 21.052L31.5711 16.8608C31.5845 16.8143 31.6 16.7678 31.6 16.7167V10.5167C31.6 10.231 31.3686 10 31.0834 10C30.7982 10 30.5667 10.231 30.5667 10.5167V14.6929L30.5187 14.5896C30.4324 14.4036 30.2572 14.278 30.0382 14.2899C29.833 14.2951 29.6496 14.4206 29.5716 14.6112L21.8216 33.5714C21.787 33.6556 21.7777 33.746 21.7896 33.8338Z" fill="white"/>
<path d="M14.6239 40.2172C14.5278 40.3769 14.5257 40.5753 14.6172 40.738C14.7086 40.9002 14.8807 41 15.0667 41H34.7C36.4975 41 38.0155 39.8886 38.932 38.4166H15.7042L14.6239 40.2172Z" fill="white"/>
</svg>
