<svg width="20" height="20" viewBox="0 0 20 20" fill="none" xmlns="http://www.w3.org/2000/svg">
<path d="M12.4594 10.9167C12.8886 11.2549 13.4348 11.619 14.0981 12.0092C14.8654 11.9181 15.6262 11.8726 16.3805 11.8726C18.2923 11.8726 19.4433 12.1912 19.8335 12.8285C20.0416 13.1146 20.0546 13.4528 19.8725 13.8429C19.8725 13.8559 19.866 13.8689 19.853 13.8819L19.814 13.921V13.9405C19.7359 14.4347 19.2742 14.6818 18.4289 14.6818C17.8046 14.6818 17.0568 14.5517 16.1855 14.2916C15.3141 14.0315 14.4688 13.6869 13.6494 13.2577C10.7752 13.5698 8.22617 14.1095 6.00226 14.8769C4.01244 18.2843 2.43879 19.988 1.28131 19.988C1.08623 19.988 0.904153 19.9424 0.735083 19.8514L0.26689 19.6173C0.253884 19.6043 0.214868 19.5718 0.149841 19.5198C0.0197876 19.3897 -0.0192285 19.1556 0.032793 18.8175C0.149841 18.2973 0.513992 17.7023 1.12524 17.0325C1.7365 16.3627 2.59485 15.7352 3.70031 15.15C3.88238 15.0329 4.03194 15.0719 4.14899 15.267C4.175 15.293 4.18801 15.319 4.18801 15.345C4.86429 14.2396 5.56007 12.9586 6.27537 11.502C7.15973 9.73323 7.83601 8.02953 8.30421 6.39085C7.99208 5.32441 7.79375 4.28723 7.70921 3.27932C7.62468 2.2714 7.66694 1.44231 7.83601 0.792041C7.97907 0.271826 8.25218 0.0117188 8.65535 0.0117188H9.08453C9.38365 0.0117188 9.61125 0.109259 9.76731 0.304339C10.0014 0.577452 10.0599 1.01963 9.94288 1.63089C9.91687 1.70892 9.89086 1.76094 9.86485 1.78695C9.87786 1.82597 9.88436 1.87799 9.88436 1.94302V2.52826C9.85835 4.12792 9.76731 5.37643 9.61125 6.2738C10.3265 8.40668 11.2759 9.95432 12.4594 10.9167ZM1.22278 18.9345C1.89906 18.6224 2.78993 17.595 3.89539 15.8523C3.23211 16.3725 2.66313 16.9187 2.18843 17.4909C1.71374 18.0632 1.39185 18.5444 1.22278 18.9345ZM8.98699 0.987121C8.79191 1.53335 8.7789 2.3917 8.94797 3.56218C8.96098 3.47115 9.0065 3.18503 9.08453 2.70383C9.08453 2.66481 9.13005 2.3852 9.22108 1.86498C9.23409 1.81296 9.2601 1.76094 9.29912 1.70892C9.28611 1.69591 9.27961 1.68291 9.27961 1.6699C9.2666 1.64389 9.2601 1.62438 9.2601 1.61138C9.2471 1.32526 9.16256 1.09116 9.0065 0.909089C9.0065 0.922094 8.99999 0.9351 8.98699 0.948105V0.987121ZM6.56799 13.8819C8.32371 13.1797 10.1705 12.6529 12.1083 12.3018C12.0823 12.2888 11.9977 12.227 11.8547 12.1165C11.7116 12.0059 11.6076 11.9181 11.5425 11.8531C10.5541 10.9817 9.72829 9.83727 9.06502 8.41969C8.71388 9.53815 8.17415 10.8192 7.44585 12.2628C7.05569 12.9911 6.76307 13.5308 6.56799 13.8819ZM19.1702 13.5698C18.8581 13.2577 17.9477 13.1016 16.4391 13.1016C17.4275 13.4658 18.2338 13.6478 18.8581 13.6478C19.0401 13.6478 19.1572 13.6413 19.2092 13.6283C19.2092 13.6153 19.1962 13.5958 19.1702 13.5698Z" fill="white"/>
</svg>
