<svg width="57" height="69" fill="none" xmlns="http://www.w3.org/2000/svg"><path d="M56.38 28.134c0 21.882-28.19 40.638-28.19 40.638S0 50.016 0 28.134C0 20.672 2.97 13.516 8.257 8.24A28.219 28.219 0 0128.19 0a28.219 28.219 0 0119.934 8.24 28.106 28.106 0 018.256 19.894z" fill="#2B5878"/><path d="M33.553 29.367l-3.404-3.429 8.444-8.494A4.874 4.874 0 0140 20.874a4.874 4.874 0 01-1.407 3.428l-5.04 5.065zm-8.156-2.193c-1.84.86-4.426.255-6.339-1.672-2.297-2.314-2.742-5.634-.974-7.415 1.756-1.77 5.052-1.333 7.361.98 1.913 1.927 2.514 4.533 1.66 6.386l11.74 11.826-1.696 1.709-8.288-8.324L20.587 39l-1.696-1.709 8.276-8.336-1.769-1.781z" fill="#fff"/></svg>