<svg width="57" height="69" fill="none" xmlns="http://www.w3.org/2000/svg"><path d="M56.38 28.134c0 21.882-28.19 40.638-28.19 40.638S0 50.016 0 28.134C0 20.672 2.97 13.516 8.257 8.24A28.219 28.219 0 0128.19 0a28.219 28.219 0 0119.934 8.24 28.106 28.106 0 018.256 19.894z" fill="#2B5878"/><g clip-path="url(#clip0)"><path d="M14 23.625v11.687c0 .38.313.688.7.688h3.5V22.25h-2.8c-.773 0-1.4.616-1.4 1.375zm15.75-2.063H28.7v-1.718a.347.347 0 00-.35-.344h-.7a.347.347 0 00-.35.344v2.75c0 .19.157.343.35.343h2.1c.193 0 .35-.153.35-.343v-.688a.347.347 0 00-.35-.344zm6.027-2.748l-7-4.583a1.42 1.42 0 00-1.554 0l-7 4.583a1.384 1.384 0 00-.457.495c-.109.2-.166.423-.166.649V36h5.6v-6.188c0-.38.313-.687.7-.687h4.2c.387 0 .7.308.7.687V36h5.6V19.958c0-.46-.234-.89-.623-1.144zM28 25c-1.933 0-3.5-1.54-3.5-3.438 0-1.898 1.567-3.437 3.5-3.437s3.5 1.539 3.5 3.437C31.5 23.461 29.933 25 28 25zm12.6-2.75h-2.8V36h3.5c.387 0 .7-.308.7-.688V23.625c0-.76-.627-1.375-1.4-1.375z" fill="#fff"/></g><defs><clipPath id="clip0"><path fill="#fff" transform="translate(14 14)" d="M0 0h28v22H0z"/></clipPath></defs></svg>