<svg width="57" height="69" fill="none" xmlns="http://www.w3.org/2000/svg"><path d="M56.38 28.134c0 21.882-28.19 40.638-28.19 40.638S0 50.016 0 28.134C0 20.672 2.97 13.516 8.257 8.24A28.219 28.219 0 0128.19 0a28.219 28.219 0 0119.934 8.24 28.106 28.106 0 018.256 19.894z" fill="#2B5878"/><path d="M42.544 23.626c-.5.505-1.128.838-1.886.999a12.025 12.025 0 011.078 4.995c0 2.28-.6 4.39-1.797 6.327-1.198 1.938-2.824 3.467-4.88 4.587-2.056 1.12-4.302 1.68-6.737 1.68-2.435 0-4.68-.56-6.736-1.68-2.056-1.12-3.683-2.65-4.88-4.587a11.809 11.809 0 01-1.797-6.327c0-1.736.359-3.4 1.078-4.995-.759-.161-1.388-.494-1.887-.999-.838-.848-1.197-1.938-1.077-3.27.12-1.332.683-2.512 1.691-3.542 1.008-1.029 2.17-1.604 3.488-1.725s2.405.252 3.264 1.12c.539.545.878 1.231 1.018 2.059a14.183 14.183 0 015.838-1.242c2.036 0 3.982.414 5.838 1.242.16-.828.5-1.514 1.019-2.059.858-.868 1.946-1.241 3.263-1.12s2.48.696 3.488 1.725c1.008 1.03 1.572 2.21 1.692 3.543.12 1.332-.24 2.421-1.078 3.269zm-22.575-5.934c-.5-.524-1.143-.746-1.931-.666-.789.081-1.488.43-2.096 1.045-.61.615-.949 1.322-1.018 2.119-.07.797.144 1.448.643 1.953.38.403.869.625 1.468.666a13.018 13.018 0 013.592-3.512c-.02-.666-.24-1.2-.658-1.605zm2.59 7.084c-.53 0-.979.187-1.348.56-.37.374-.554.828-.554 1.363s.185.994.554 1.377a1.8 1.8 0 001.348.575c.528 0 .983-.191 1.362-.575a1.89 1.89 0 00.569-1.377c0-.535-.19-.99-.57-1.363a1.873 1.873 0 00-1.362-.56zm11.527 0c-.53 0-.983.187-1.363.56a1.84 1.84 0 00-.569 1.363c0 .535.19.994.57 1.377.379.384.833.575 1.362.575a1.8 1.8 0 001.347-.575c.37-.383.554-.842.554-1.377s-.185-.99-.554-1.363a1.824 1.824 0 00-1.347-.56zm-5.764 5.813c-2.116 0-3.922.474-5.42 1.423-1.496.948-2.245 2.089-2.245 3.42 0 1.333.749 2.473 2.246 3.421 1.497.95 3.303 1.423 5.42 1.423 2.115 0 3.921-.474 5.418-1.423 1.497-.948 2.246-2.088 2.246-3.42 0-1.332-.749-2.473-2.246-3.421-1.497-.949-3.303-1.423-5.419-1.423zm12.38-12.518c-.608-.616-1.307-.959-2.095-1.03-.789-.07-1.432.147-1.931.651-.42.424-.64.96-.66 1.605a13.018 13.018 0 013.594 3.512c.599-.04 1.088-.263 1.467-.666.499-.505.713-1.156.644-1.953-.07-.797-.41-1.504-1.018-2.12zM28.322 36.4c-.639 0-1.437-.212-2.395-.635-.958-.424-1.437-.858-1.437-1.302 0-.969.16-1.534.479-1.695.32-.162 1.437-.243 3.353-.243 1.916 0 3.034.081 3.354.243.319.161.479.726.479 1.695 0 .464-.48.903-1.438 1.317-.958.413-1.756.62-2.395.62z" fill="#fff"/></svg>