<svg width="32" height="39" fill="none" xmlns="http://www.w3.org/2000/svg"><path d="M31.973 15.955C31.973 28.364 15.986 39 15.986 39S0 28.364 0 15.955c0-4.232 1.684-8.29 4.682-11.282A16.003 16.003 0 0115.986 0c4.24 0 8.306 1.681 11.305 4.673a15.938 15.938 0 014.682 11.282z" fill="#E86D6F"/><path fill-rule="evenodd" clip-rule="evenodd" d="M20.596 7.838h.26c.218.144.522.402.87.776v1.005c-.435-.704-.855-1.106-1.13-1.307v.36c.145.07.594.33 1.13.976v1.005c-.435-.703-.855-1.106-1.13-1.307v.36c.145.071.594.33 1.13.976v1.006c-.435-.704-.855-1.107-1.13-1.308v.36c.145.071.594.33 1.13.976v1.006c-.435-.704-.855-1.106-1.13-1.307v.344c.145.072.594.33 1.13.977v1.006c-.435-.704-.855-1.106-1.13-1.308v.36c.145.071.594.33 1.13.976v.905a3.856 3.856 0 00-1.119-1.198l-.01-.008v.359l.055.026c.185.084.594.272 1.073.85v.934a3.165 3.165 0 00-1.014-1.068 6.498 6.498 0 01-.115-.081v.359c.024.011.055.023.093.038.2.076.587.224 1.036.766v1.02c-.402-.63-.77-.892-1.039-1.085l-.09-.064v.359l.087.037c.197.078.589.234 1.042.782v1.005a3.329 3.329 0 00-1.027-1.076l-.102-.073v.36l.087.036c.197.079.589.234 1.042.782v1.005a3.462 3.462 0 00-1.046-1.103l-.083-.06v.359l.05.018c.181.066.595.216 1.08.8v.92a2.874 2.874 0 00-.964-.965 3.987 3.987 0 01-.166-.112v.359a.822.822 0 00.119.04c.205.061.58.173 1.01.692v.948c-.434-.703-.897-.948-1.114-1.02v.36l.043.007c.185.028.58.088 1.071.682l-.014.89c-.445-.697-.89-.844-1.11-.917l-.005-.002v.36l.009-.001c.152-.016.58-.06 1.106.575l.014.46c-.246.032-.485.066-.721.099-1.137.16-2.181.307-3.404.188-.644 0-1.56-.245-2.35-.457h-.001c-.24-.064-.468-.125-.674-.175a16.534 16.534 0 01-.506-.1c.693-.05 1.168-.088 1.565-.12.655-.053 1.096-.089 1.952-.125.637-.029 1.809.201 2.084.33-.347-.33-1.476-.646-2.055-.617-.724.029-2.794.23-3.865.474a8.933 8.933 0 00-1.39-.072h-.028c.564-.56 4.342-1.063 5.181-1.063.796-.043 1.68.201 2.157.517-.39-.445-1.375-.847-2.215-.804-.868 0-4.617.675-5.123 1.35-.035 0-.073.003-.112.007a1.537 1.537 0 01-.134.008l.043-15.097c.42-.948 4.545-2.859 5.37-2.887.854.014 2.446 2.097 3.097 3.016v1.336zm-8.235 12.841c.535-.56 4.356-1.321 5.196-1.321.796 0 1.462.273 1.983.632-.449-.488-1.26-.962-1.983-.962-.883 0-4.719.976-5.196 1.652zm-.015-.746c.521-.56 4.342-1.58 5.182-1.58.796 0 1.606.416 2.099.847-.68-.862-1.375-1.178-2.1-1.178-.868 0-4.703 1.235-5.18 1.91zm-.029-.79c.521-.56 4.357-1.854 5.196-1.854.796 0 1.65.575 2.316 1.336-.666-.861-1.592-1.666-2.316-1.666-.883 0-4.718 1.508-5.196 2.183zm0-.877c.521-.56 4.357-1.853 5.196-1.853.796 0 1.65.575 2.316 1.336-.666-.862-1.592-1.666-2.316-1.666-.883 0-4.718 1.508-5.196 2.183zm0-.861c.521-.56 4.357-1.854 5.196-1.854.796 0 1.65.56 2.316 1.336-.666-.861-1.592-1.666-2.316-1.666-.883 0-4.718 1.508-5.196 2.183zm0-.877c.521-.56 4.357-2.025 5.196-2.025.796 0 1.65.747 2.316 1.494-.666-.862-1.592-1.824-2.316-1.824-.883 0-4.718 1.68-5.196 2.355zm0-.876c.521-.56 4.357-2.025 5.196-2.025.796 0 1.65.747 2.316 1.494-.666-.862-1.592-1.825-2.316-1.825-.883 0-4.718 1.68-5.196 2.356zm0-.876c.521-.56 4.357-2.025 5.196-2.025.796 0 1.65.746 2.316 1.493-.666-.861-1.592-1.824-2.316-1.824-.883 0-4.718 1.68-5.196 2.356zm0-.862c.521-.56 4.357-2.025 5.196-2.025.796 0 1.65.732 2.316 1.494-.666-.862-1.592-1.825-2.316-1.825-.883 0-4.718 1.68-5.196 2.356zm0-.876c.521-.56 4.357-2.026 5.196-2.026.796 0 1.65.733 2.316 1.494-.666-.861-1.592-1.824-2.316-1.824-.883 0-4.718 1.68-5.196 2.356zm0-.876c.521-.56 4.357-2.026 5.196-2.026.796 0 1.65.733 2.316 1.494-.666-.862-1.592-1.824-2.316-1.824-.883 0-4.718 1.68-5.196 2.356zm0-.877c.521-.56 4.357-2.025 5.196-2.025.796 0 1.65.733 2.316 1.494-.666-.862-1.592-1.824-2.316-1.824-.883 0-4.718 1.68-5.196 2.355zm0-.876c.521-.56 4.357-2.025 5.196-2.025.796 0 1.65.747 2.316 1.494-.666-.862-1.592-1.825-2.316-1.825-.883 0-4.718 1.681-5.196 2.356zm0-.876c.521-.56 4.357-2.025 5.196-2.025.796 0 1.65.747 2.316 1.494-.666-.862-1.592-1.825-2.316-1.825-.883 0-4.718 1.68-5.196 2.356zm-.014-.862c.535-.574 4.37-2.068 5.21-2.068.81 0 1.65.775 2.302 1.537-.666-.862-1.592-1.825-2.316-1.825-.883 0-4.718 1.681-5.196 2.356zm.014-.89c.521-.56 4.342-2.241 5.182-2.241.788 0 1.647.943 2.324 1.687l.02.022c-.68-.862-1.62-2.01-2.344-2.01-.883 0-4.704 1.866-5.182 2.542zm-.014-.862c.535-.56 4.299-2.299 5.138-2.299.81 0 1.722 1.006 2.388 1.782-.666-.862-1.664-2.069-2.388-2.069-.883 0-4.66 1.91-5.138 2.586zm-.246 15.34a7.89 7.89 0 00-2.634-.1s.97-.345 2.561-.345l.073.446zm6.658.446s-1.39.13-2.707-.187c-.292-.07-.566-.143-.834-.214-.937-.25-1.794-.478-3.088-.49h-.101l.072.446c.424.083.835.188 1.248.295.871.224 1.755.451 2.805.48 1.693.043 2.605-.33 2.605-.33zm-11.941.172s1.23-.502 2.953-.46c1.07.03 1.707.159 2.402.345.152.037.309.077.474.12.29.075.61.157.988.24.788.178 1.643.212 2.298.215l.09-.015c.594-.014.999-.057.999-.057s-.666.23-1.578.345a8.516 8.516 0 01-1.592.086h-.203l.008-.001h-.008a9.638 9.638 0 01-1.36-.172 6.582 6.582 0 00-.347-.081l-.087-.019-.4-.1c-1.75-.441-2.723-.686-4.637-.446zm7.975 1.078s-1.925.23-3.792-.216c-.27-.064-.518-.124-.75-.181-1.59-.389-2.399-.587-4.345-.336-1.404.172-1.997.546-1.997.546 2.358-.389 3.772-.072 5.09.223.777.174 1.522.34 2.407.351 2.084.015 3.387-.387 3.387-.387zm10.117-1.71c.955.058 1.433.173 1.39.173-1-.043-1.694 0-2.302.1-1.726.234-3.086.669-4.454 1.106-1.488.475-2.985.954-4.968 1.178a21.099 21.099 0 01-2.475.144c-1.404.014-2.113-.273-2.113-.273l.515.028c.219.012.338.019.457.021.14.003.281.001.588-.004l.148-.002c1.331-.029 2.344-.158 3.705-.532.66-.184 1.205-.382 1.758-.582.826-.3 1.67-.607 2.946-.883l2.967-.445a11.268 11.268 0 011.838-.029zm-3.966.302a25.48 25.48 0 00-.84.172l2.968-.445c-.695.043-1.404.143-2.128.273zm2.91.316a23.97 23.97 0 012.778-.33c1.36-.087 1.52 0 1.52 0s-.869.114-1.549.2c-1.565.208-2.514.564-3.459.92-.365.137-.73.274-1.129.402a17.15 17.15 0 01-4.646.862c-.246.014-1.302.014-1.737-.144.608.015.97 0 1.795-.115 1.313-.192 2.359-.555 3.426-.925.922-.319 1.86-.644 3-.87z" fill="#fff"/></svg>