<svg width="91" height="111" fill="none" xmlns="http://www.w3.org/2000/svg"><path d="M91 45.41C91 80.726 45.5 111 45.5 111S0 80.727 0 45.41A45.364 45.364 0 0113.327 13.3 45.546 45.546 0 0145.5 0a45.547 45.547 0 0132.173 13.3A45.363 45.363 0 0191 45.41z" fill="#E86D6F"/><path fill-rule="evenodd" clip-rule="evenodd" d="M58.62 22.308h.742c.618.409 1.483 1.145 2.471 2.207v2.862c-1.235-2.003-2.43-3.148-3.213-3.72v1.022c.412.204 1.69.94 3.214 2.78v2.862c-1.236-2.004-2.431-3.148-3.214-3.72v1.021c.412.205 1.69.94 3.214 2.78v2.862c-1.236-2.003-2.431-3.148-3.214-3.72v1.022c.412.204 1.69.94 3.214 2.78v2.862c-1.236-2.003-2.431-3.148-3.214-3.72v.98c.412.205 1.69.94 3.214 2.78v2.862c-1.236-2.003-2.431-3.148-3.214-3.72v1.022c.412.205 1.69.94 3.214 2.78v2.576c-1.22-1.977-2.4-2.84-3.182-3.412l-.032-.022v1.022l.159.074c.525.24 1.691.774 3.054 2.42v2.657c-1.073-1.776-2.116-2.503-2.885-3.038-.115-.081-.225-.158-.328-.233v1.022c.067.033.156.068.266.11.566.216 1.67.638 2.947 2.18v2.902c-1.144-1.795-2.189-2.54-2.957-3.086l-.256-.184v1.022c.063.031.147.064.248.105.561.223 1.675.667 2.965 2.225v2.862c-1.092-1.77-2.152-2.519-2.924-3.064-.101-.072-.198-.14-.289-.207v1.022c.063.032.147.065.248.105.561.224 1.675.668 2.965 2.226v2.861c-1.117-1.81-2.2-2.586-2.977-3.141a29.27 29.27 0 01-.236-.17v1.022c.04.016.086.032.14.052h.001c.517.188 1.694.614 3.072 2.278v2.617c-1.04-1.633-2-2.261-2.742-2.747-.169-.11-.326-.214-.47-.32v1.023c.08.04.194.074.336.116.585.173 1.65.49 2.877 1.969v2.698c-1.236-2.003-2.555-2.698-3.173-2.903v1.022c.037.007.079.013.125.02.524.08 1.647.252 3.047 1.943l-.04 2.534c-1.267-1.986-2.533-2.405-3.157-2.61l-.016-.006v1.022l.025-.002c.434-.044 1.652-.167 3.147 1.637l.041 1.309c-.7.09-1.382.187-2.053.281-3.235.456-6.207.875-9.687.536-1.833 0-4.442-.698-6.692-1.3-.683-.182-1.332-.356-1.917-.499-.31-.056-.678-.13-1.01-.198a86.232 86.232 0 00-.432-.088 375.06 375.06 0 004.454-.34h.001c1.863-.151 3.118-.253 5.555-.355 1.813-.082 5.15.572 5.932.94-.989-.94-4.202-1.84-5.85-1.758-2.06.082-7.95.655-10.998 1.35a25.38 25.38 0 00-3.955-.205h-.082c1.606-1.594 12.358-3.025 14.747-3.025 2.266-.123 4.779.572 6.138 1.472-1.112-1.268-3.913-2.412-6.303-2.29-2.471 0-13.14 1.922-14.582 3.843-.099 0-.206.01-.319.02-.123.01-.253.021-.382.021l.124-42.967c1.194-2.699 12.935-8.136 15.283-8.218 2.43.041 6.962 5.97 8.815 8.586v3.802zM35.18 58.857c1.525-1.595 12.4-3.762 14.79-3.762 2.265 0 4.16.777 5.643 1.8-1.277-1.39-3.584-2.74-5.643-2.74-2.513 0-13.43 2.78-14.79 4.702zm-.04-2.126c1.483-1.595 12.358-4.497 14.747-4.497 2.266 0 4.573 1.185 5.973 2.412-1.936-2.453-3.913-3.353-5.973-3.353-2.471 0-13.388 3.516-14.747 5.438zm-.083-2.249c1.483-1.594 12.4-5.274 14.789-5.274 2.266 0 4.696 1.636 6.591 3.802-1.895-2.453-4.531-4.742-6.591-4.742-2.513 0-13.43 4.293-14.789 6.214zm0-2.494c1.483-1.594 12.4-5.273 14.789-5.273 2.266 0 4.696 1.635 6.591 3.802-1.895-2.453-4.531-4.743-6.591-4.743-2.513 0-13.43 4.293-14.789 6.214zm0-2.453c1.483-1.594 12.4-5.273 14.789-5.273 2.266 0 4.696 1.594 6.591 3.802-1.895-2.453-4.531-4.743-6.591-4.743-2.513 0-13.43 4.293-14.789 6.214zm0-2.493c1.483-1.595 12.4-5.765 14.789-5.765 2.266 0 4.696 2.126 6.591 4.252-1.895-2.453-4.531-5.192-6.591-5.192-2.513 0-13.43 4.783-14.789 6.705zm0-2.494c1.483-1.595 12.4-5.765 14.789-5.765 2.266 0 4.696 2.126 6.591 4.252-1.895-2.453-4.531-5.192-6.591-5.192-2.513 0-13.43 4.783-14.789 6.705zm0-2.494c1.483-1.595 12.4-5.765 14.789-5.765 2.266 0 4.696 2.126 6.591 4.252-1.895-2.453-4.531-5.192-6.591-5.192-2.513 0-13.43 4.784-14.789 6.705zm0-2.453c1.483-1.594 12.4-5.764 14.789-5.764 2.266 0 4.696 2.085 6.591 4.251-1.895-2.453-4.531-5.192-6.591-5.192-2.513 0-13.43 4.783-14.789 6.705zm0-2.494c1.483-1.594 12.4-5.764 14.789-5.764 2.266 0 4.696 2.085 6.591 4.251-1.895-2.452-4.531-5.192-6.591-5.192-2.513 0-13.43 4.784-14.789 6.705zm0-2.494c1.483-1.594 12.4-5.764 14.789-5.764 2.266 0 4.696 2.085 6.591 4.252-1.895-2.453-4.531-5.192-6.591-5.192-2.513 0-13.43 4.783-14.789 6.704zm0-2.493c1.483-1.595 12.4-5.765 14.789-5.765 2.266 0 4.696 2.085 6.591 4.252-1.895-2.453-4.531-5.192-6.591-5.192-2.513 0-13.43 4.783-14.789 6.705zm0-2.494c1.483-1.595 12.4-5.765 14.789-5.765 2.266 0 4.696 2.126 6.591 4.252-1.895-2.453-4.531-5.192-6.591-5.192-2.513 0-13.43 4.783-14.789 6.705zm0-2.494c1.483-1.595 12.4-5.765 14.789-5.765 2.266 0 4.696 2.126 6.591 4.252-1.895-2.453-4.531-5.192-6.591-5.192-2.513 0-13.43 4.783-14.789 6.705zm-.04-2.453c1.523-1.635 12.44-5.887 14.829-5.887 2.307 0 4.696 2.207 6.55 4.374-1.895-2.453-4.532-5.192-6.591-5.192-2.513 0-13.43 4.784-14.789 6.705zm.04-2.535c1.483-1.594 12.358-6.377 14.748-6.377 2.243 0 4.688 2.685 6.615 4.801l.058.064c-1.936-2.453-4.614-5.724-6.673-5.724-2.513 0-13.388 5.315-14.748 7.236zm-.04-2.453c1.523-1.594 12.234-6.54 14.623-6.54 2.307 0 4.902 2.86 6.797 5.069-1.895-2.453-4.737-5.887-6.797-5.887-2.513 0-13.264 5.437-14.624 7.358zm-.701 43.663c-2.266-.45-4.655-.654-7.498-.287 0 0 2.76-.98 7.292-.98l.206 1.267zm18.95 1.267s-3.956.368-7.704-.531a95.86 95.86 0 01-2.375-.612c-2.666-.71-5.104-1.36-8.789-1.392h-.288l.206 1.268c1.207.237 2.376.537 3.554.84 2.477.637 4.992 1.284 7.98 1.367 4.82.123 7.415-.94 7.415-.94zm-33.986.49s3.502-1.43 8.404-1.308c3.048.082 4.86.45 6.838.981.433.104.878.219 1.348.34h.001a72.38 72.38 0 002.811.683c2.244.507 4.675.605 6.54.612l.257-.04c1.69-.041 2.843-.164 2.843-.164s-1.895.654-4.49.981c-1.236.164-2.637.328-4.532.246h-.576a27.442 27.442 0 01-3.873-.49 17.437 17.437 0 00-.988-.233h-.001l-.247-.054-1.123-.282-.004-.001-.008-.002-.005-.001c-4.98-1.255-7.747-1.953-13.195-1.267zm22.698 3.067s-5.479.654-10.793-.613c-.77-.182-1.474-.355-2.133-.516-4.525-1.106-6.83-1.67-12.367-.956-3.996.49-5.685 1.553-5.685 1.553 6.713-1.106 10.735-.205 14.488.636 2.212.495 4.33.97 6.85 1 5.932.04 9.64-1.104 9.64-1.104zm28.795-4.865c2.718.163 4.078.49 3.954.49-2.842-.122-4.82 0-6.55.287-4.912.665-8.784 1.903-12.677 3.147-4.235 1.353-8.494 2.714-14.14 3.353-3.09.327-4.86.409-7.044.409-3.996.04-6.014-.777-6.014-.777.627.033 1.096.059 1.465.08.624.034.962.053 1.3.061.4.01.802.003 1.677-.012l.419-.006c3.79-.082 6.673-.45 10.545-1.513 1.88-.524 3.431-1.087 5.003-1.658 2.353-.855 4.755-1.728 8.385-2.512l8.445-1.267c1.813-.164 3.584-.205 5.232-.082zm-11.288.858c-.865.164-1.647.327-2.389.49l8.445-1.267c-1.977.123-3.996.41-6.056.777zm8.28.9c2.637-.49 5.397-.777 7.91-.94 3.872-.246 4.325 0 4.325 0s-2.472.326-4.408.572c-4.456.59-7.155 1.604-9.844 2.615-1.04.391-2.077.781-3.214 1.146-3.749 1.226-7.786 2.167-13.224 2.453-.7.04-3.707.04-4.943-.409 1.73.041 2.76 0 5.108-.327 3.736-.549 6.713-1.58 9.752-2.632 2.623-.91 5.294-1.834 8.538-2.478z" fill="#fff"/></svg>