<svg width="57" height="69" fill="none" xmlns="http://www.w3.org/2000/svg"><path d="M56.38 28.134c0 21.882-28.19 40.638-28.19 40.638S0 50.016 0 28.134C0 20.672 2.97 13.516 8.257 8.24A28.219 28.219 0 0128.19 0a28.219 28.219 0 0119.934 8.24 28.106 28.106 0 018.256 19.894z" fill="#2B5878"/><g clip-path="url(#clip0)" fill="#fff"><path d="M39.4 39.6a2.4 2.4 0 100-4.8 2.4 2.4 0 000 4.8zm-17.4 0a2.4 2.4 0 100-4.8 2.4 2.4 0 000 4.8zm19.2-7.8H22.463l.4-.65c.171-.278.222-.614.14-.931l-.391-1.504 17.39-.903A1.28 1.28 0 0041.2 26.55V18.6c0-.66-.54-1.2-1.2-1.2H19.671l-.234-.902a1.2 1.2 0 00-1.162-.898H14.2a1.2 1.2 0 100 2.4h3.148l3.204 12.327-1.26 2.043a1.198 1.198 0 00.413 1.665c.185.108.394.165.608.165H41.2a1.2 1.2 0 000-2.4z"/></g><defs><clipPath id="clip0"><path fill="#fff" transform="translate(13 12)" d="M0 0h30v30H0z"/></clipPath></defs></svg>