<svg width="57" height="69" fill="none" xmlns="http://www.w3.org/2000/svg"><path d="M56.38 28.134c0 21.882-28.19 40.638-28.19 40.638S0 50.016 0 28.134C0 20.672 2.97 13.516 8.257 8.24A28.219 28.219 0 0128.19 0a28.219 28.219 0 0119.934 8.24 28.106 28.106 0 018.256 19.894z" fill="#2B5878"/><path d="M35.883 20H20.118C17.303 20 15 22.141 15 25s2.303 5 5.118 5h15.765C38.697 30 41 27.858 41 25c0-2.859-2.303-5-5.117-5zm.001 8.823h-7.816v-7.646h7.816c2.076 0 3.776 1.714 3.776 3.823s-1.7 3.823-3.776 3.823z" fill="#fff"/></svg>