<svg width="57" height="69" fill="none" xmlns="http://www.w3.org/2000/svg"><path d="M56.38 28.134c0 21.882-28.19 40.638-28.19 40.638S0 50.016 0 28.134C0 20.672 2.97 13.516 8.257 8.24A28.219 28.219 0 0128.19 0a28.219 28.219 0 0119.934 8.24 28.106 28.106 0 018.256 19.894z" fill="#2B5878"/><g clip-path="url(#clip0)"><path fill-rule="evenodd" clip-rule="evenodd" d="M37.208 38.406V33.85c2.95-.678 5.76-3.904 5.76-7.792 0-4.38-3.2-15.964-6.7-15.964s-6.706 11.584-6.706 15.964c0 3.802 2.937 6.978 5.792 7.748v4.42a117.455 117.455 0 00-5.845-.144c-1.99 0-3.979.132-5.953.394v-5.344c2.054-.622 3.824-2.836 3.824-5.5 0-3.14-2.126-11.562-4.74-11.562-2.621 0-4.74 8.422-4.74 11.562 0 2.708 1.756 4.96 3.868 5.538v5.586c-4.65.826-7.784 2.226-7.784 3.134h31.059c-.002-.912-3.159-3.062-7.835-3.484z" fill="#fff"/></g><defs><clipPath id="clip0"><path fill="#fff" transform="translate(12 10)" d="M0 0h33v32H0z"/></clipPath></defs></svg>