<svg width="57" height="69" fill="none" xmlns="http://www.w3.org/2000/svg"><path d="M56.38 28.134c0 21.882-28.19 40.638-28.19 40.638S0 50.016 0 28.134C0 20.672 2.97 13.516 8.257 8.24A28.219 28.219 0 0128.19 0a28.219 28.219 0 0119.934 8.24 28.106 28.106 0 018.256 19.894z" fill="#2B5878"/><path d="M22.318 22.65c-.492-1.87-.03-2.24.417-2.237.104.001.12 0 .21.026l.001-.041s-1.325-4.372 1.863-6.294c0 0-.56-.449-.517-1.095 0 0 1.462.164 2.863.167.636.001 1.26-.03 1.729-.126.187-.039.376-.054.564-.05 1.316.034 2.577 1.047 2.798 2.025l.055-.001c.416-.001 3.029.197 1.775 5.391l-.003.02a.967.967 0 01.188-.022c.449-.006.915.36.42 2.236-.394 1.498-.76 1.884-1.031 1.883a.365.365 0 01-.238-.102c-.19 1.178-.69 2.613-1.928 3.632-3.056 2.32-5.957.046-5.957.046-1.268-1.012-1.781-2.456-1.979-3.646a.336.336 0 01-.204.07c-.271-.004-.634-.396-1.026-1.882zm6.215 20.278l2.106-2.282-1.538-6.713s2.453-3.33-.601-3.292c-3.054-.038-.602 3.292-.602 3.292l-1.538 6.713 2.107 2.282V43l.033-.036.033.036v-.072zm11.447-7.26c.086-1.213-.016-3.667-2.167-4.207-2.883-.725-5.226-2.355-5.226-2.355l-1.938 6.056 1.195 5.215c.011.048.02.097.024.146 4.99-.635 7.872-2.486 7.872-2.486.274-.684.25-2.37.25-2.37l-.01.001zm-14.824 4.709l1.195-5.215-.11-.343-1.828-5.713s-2.343 1.63-5.226 2.355c-2.15.54-2.254 2.991-2.167 4.205 0 0-.025 1.687.25 2.37 0 0 2.879 1.85 7.862 2.486.005-.049.013-.097.024-.145z" fill="#fff"/></svg>