<svg width="57" height="69" fill="none" xmlns="http://www.w3.org/2000/svg"><path d="M56.38 28.134c0 21.882-28.19 40.638-28.19 40.638S0 50.016 0 28.134C0 20.672 2.97 13.516 8.257 8.24A28.219 28.219 0 0128.19 0a28.219 28.219 0 0119.934 8.24 28.106 28.106 0 018.256 19.894z" fill="#2B5878"/><path d="M36.42 18.176l-4.145.446c-.508-2.268-1.844-3.998-3.475-4.434-.613-.604-1.323-1.006-2.103-1.139V13h-.533v.04c-2.626.361-4.692 3.237-4.763 6.752L18 20.158l2.105 17.259L32.26 40l2.897-1.893L38 20.71l-1.58-2.534zm-4.731.509l-.842.09c-.148-1.24-.52-2.37-1.054-3.294.874.67 1.557 1.815 1.896 3.204zm-3.12-3.79c.874.92 1.5 2.321 1.704 3.942l-6.107.657c.398-2.54 2.058-4.484 4.08-4.649.109.01.217.027.324.05zm-2.15-1.128c.439.04.86.182 1.251.409-2.089.472-3.74 2.64-4.097 5.382l-1.599.172c.097-3.187 2.029-5.766 4.445-5.963zm6.023 25.237l-.232-.077 3.922-20.194.232.078-3.922 20.193z" fill="#fff"/></svg>