<svg width="57" height="69" fill="none" xmlns="http://www.w3.org/2000/svg"><path d="M56.38 28.134c0 21.882-28.19 40.638-28.19 40.638S0 50.016 0 28.134C0 20.672 2.97 13.516 8.257 8.24A28.219 28.219 0 0128.19 0a28.219 28.219 0 0119.934 8.24 28.106 28.106 0 018.256 19.894z" fill="#2B5878"/><path d="M24.136 38.822a.624.624 0 01-.03.878l-1.347 1.26a.62.62 0 01-.875-.033l-7.842-8.451a.624.624 0 01.031-.878l1.349-1.258a.618.618 0 01.875.032l7.84 8.45zm10.007-15.903a.624.624 0 01-.031.878l-8.476 7.917a.62.62 0 01-.875-.031L22.738 29.5a.625.625 0 01.032-.878l8.474-7.918a.617.617 0 01.874.032l2.025 2.183zM27.02 36.127a.625.625 0 01-.032.878l-1.348 1.258a.618.618 0 01-.875-.031l-7.838-8.452a.624.624 0 01.031-.878l1.346-1.258a.62.62 0 01.875.032l7.841 8.45zm13.06-12.905a.624.624 0 01-.033.878l-1.348 1.259a.62.62 0 01-.875-.031l-7.84-8.45a.624.624 0 01.031-.878l1.352-1.262a.618.618 0 01.874.032l7.838 8.452zm2.878-2.69a.626.626 0 01-.031.878l-1.346 1.258a.618.618 0 01-.874-.031l-7.838-8.454a.626.626 0 01.031-.878l1.347-1.26a.615.615 0 01.873.03l7.838 8.456z" fill="#fff"/></svg>