<svg width="24" height="29" fill="none" xmlns="http://www.w3.org/2000/svg"><path d="M23.874 11.85C23.874 21.067 12 28.967 12 28.967S.126 21.067.126 11.85a11.84 11.84 0 013.478-8.38A11.886 11.886 0 0112 0c3.15 0 6.17 1.248 8.396 3.47a11.838 11.838 0 013.478 8.38z" fill="#2B5878"/><path d="M7.125 12.237v1.757c0 .456.25.88.65 1.1L10.9 16.8a1.24 1.24 0 001.2 0l3.125-1.706c.4-.22.65-.644.65-1.1v-1.757L12.1 14.3a1.24 1.24 0 01-1.2 0l-3.775-2.063zM10.9 6.2L5.631 9.075a.63.63 0 000 1.1L10.9 13.05a1.24 1.24 0 001.2 0l5.025-2.744V14c0 .344.281.625.625.625a.627.627 0 00.625-.625V9.994a.628.628 0 00-.325-.55L12.1 6.2a1.275 1.275 0 00-1.2 0z" fill="#fff"/></svg>