<svg width="57" height="69" fill="none" xmlns="http://www.w3.org/2000/svg"><path d="M56.38 28.134c0 21.882-28.19 40.638-28.19 40.638S0 50.016 0 28.134C0 20.672 2.97 13.516 8.257 8.24A28.219 28.219 0 0128.19 0a28.219 28.219 0 0119.934 8.24 28.106 28.106 0 018.256 19.894z" fill="#2B5878"/><path d="M41.933 34.8h-9.816v-.517h6.716a.517.517 0 00.43-.819l-5.211-11.248c-2.314 4.062-5.616 8.298-11.07 12.067h8.101v.517H18.167a.517.517 0 00-.443.25l-1.4 2.333h23.13a5.87 5.87 0 00.386-1.55h2.093a.517.517 0 100-1.033zM17.65 32.217h3.61l7.355-17.997c.17-.416.51-.727.918-.873v-.764a.516.516 0 00-.96-.264L17.205 31.436a.515.515 0 00.444.78z" fill="#fff"/><path d="M21.79 33.834c5.95-3.958 9.375-8.488 11.723-12.782l-1.942-4.191c.013-.047.029-.093.029-.144v-6.2a.517.517 0 10-1.033 0v4.176l-.048-.103a.494.494 0 00-.48-.3.518.518 0 00-.467.321l-7.75 18.96a.509.509 0 00-.032.263zm-7.166 6.383a.517.517 0 00.443.783H34.7c1.797 0 3.316-1.111 4.232-2.583H15.704l-1.08 1.8z" fill="#fff"/></svg>