<svg width="15" height="28" viewBox="0 0 15 28" fill="none" xmlns="http://www.w3.org/2000/svg">
<path fill-rule="evenodd" clip-rule="evenodd" d="M6.56624 3.16971V16.6867C6.56624 16.6915 6.56628 16.6963 6.56635 16.7011L6.56635 24.7525L1.5853 19.7715C1.22285 19.409 0.634526 19.409 0.272076 19.7715C-0.090373 20.1339 -0.0903729 20.7223 0.272077 21.0847L6.83819 27.6508C6.8812 27.6938 6.9288 27.7322 6.98002 27.7664C6.99577 27.7772 7.01259 27.7857 7.02944 27.7942C7.03718 27.7981 7.04493 27.802 7.05257 27.8061C7.06052 27.8104 7.06841 27.8148 7.07632 27.8193C7.09686 27.8309 7.11753 27.8425 7.13958 27.8517C7.1634 27.8615 7.188 27.8682 7.21263 27.875C7.22024 27.877 7.22785 27.8791 7.23544 27.8813C7.24452 27.8839 7.25344 27.8869 7.26235 27.8899C7.27889 27.8954 7.29542 27.9009 7.31292 27.9043C7.43275 27.9282 7.55685 27.9282 7.67668 27.9043C7.69445 27.9007 7.71117 27.8952 7.72795 27.8897C7.73597 27.887 7.74401 27.8844 7.75219 27.8819C7.75892 27.8801 7.76567 27.8782 7.77242 27.8764C7.79866 27.8693 7.82497 27.8622 7.85003 27.8517C7.87172 27.8426 7.8916 27.8314 7.91153 27.8201C7.91965 27.8155 7.92778 27.8109 7.93605 27.8064C7.94425 27.8019 7.95253 27.7978 7.96081 27.7936C7.97738 27.7852 7.99394 27.7768 8.00991 27.7661C8.0608 27.7322 8.10841 27.6938 8.15141 27.6508L14.7175 21.0847C15.0803 20.7219 15.08 20.1339 14.7175 19.7715C14.3551 19.409 13.7671 19.4087 13.4043 19.7715L8.42325 24.7525V11.2355C8.42325 11.2307 8.42321 11.226 8.42314 11.2212L8.42314 3.16971L13.4042 8.15076C13.7666 8.51321 14.355 8.51321 14.7174 8.15076C15.0799 7.78831 15.0799 7.19999 14.7174 6.83754L8.1513 0.271424C8.1083 0.228416 8.06069 0.190005 8.00947 0.155861C7.99373 0.145063 7.9769 0.136577 7.96005 0.128079C7.95231 0.124175 7.94457 0.12027 7.93692 0.116136C7.92898 0.111846 7.92109 0.107403 7.91318 0.10295C7.89264 0.0913851 7.87196 0.0797454 7.84992 0.0705015C7.82608 0.0607169 7.80148 0.0540003 7.77685 0.0472742C7.76925 0.0451987 7.76164 0.0431223 7.75405 0.0409545C7.74498 0.0383117 7.73606 0.0353472 7.72715 0.0323846C7.7106 0.0268827 7.69407 0.0213877 7.67657 0.0179732C7.55674 -0.00599308 7.43264 -0.00599434 7.31281 0.017972C7.29504 0.0215256 7.27833 0.0270329 7.26154 0.0325621C7.25352 0.035206 7.24548 0.0378549 7.2373 0.0402976C7.23057 0.0421813 7.22382 0.0440098 7.21706 0.0458396C7.19083 0.0529398 7.16452 0.0600602 7.13946 0.0705014C7.11777 0.0795999 7.0979 0.0908534 7.07796 0.102142C7.06984 0.106739 7.06171 0.111342 7.05345 0.115808C7.04524 0.120294 7.03696 0.124489 7.02868 0.128684C7.01212 0.137074 6.99556 0.145465 6.97958 0.15619C6.92869 0.190005 6.88109 0.228416 6.83808 0.271424L0.271967 6.83754C-0.0908106 7.20032 -0.0904822 7.78831 0.271967 8.15076C0.634417 8.51321 1.22241 8.51354 1.58519 8.15076L6.56624 3.16971Z" fill="white"/>
</svg>
