<svg width="15" height="24" fill="none" xmlns="http://www.w3.org/2000/svg"><path d="M.084 9.414A.934.934 0 00.937 10h3.75v13c0 .552.42 1 .938 1h3.75c.517 0 .937-.448.937-1V10h3.75c.368 0 .702-.23.854-.586a1.05 1.05 0 00-.149-1.072l-6.562-8A.91.91 0 007.5 0a.917.917 0 00-.705.342l-6.563 8a1.05 1.05 0 00-.148 1.072z" fill="url(#paint0_linear)"/><defs><linearGradient id="paint0_linear" x1="7.5" y1="24" x2="7.5" y2="0" gradientUnits="userSpaceOnUse"><stop stop-color="#EB7070"/><stop offset="1" stop-color="#2B5878"/></linearGradient></defs></svg>