<svg width="26" height="26" fill="none" xmlns="http://www.w3.org/2000/svg"><path d="M0 19.094v5.332h4.57v-3.047h16.86v3.047H26v-5.332H0z" fill="url(#paint0_linear)"/><path d="M26 16.809v.761H0v-.761a2.288 2.288 0 012.285-2.286h21.43A2.288 2.288 0 0126 16.808z" fill="url(#paint1_linear)"/><path d="M12.238 11.477V13H6.094v-1.523c0-.42.342-.762.761-.762h4.622c.42 0 .761.342.761.762z" fill="url(#paint2_linear)"/><path d="M19.906 11.477V13h-6.144v-1.523c0-.42.341-.762.761-.762h4.622c.42 0 .761.342.761.762z" fill="url(#paint3_linear)"/><path d="M24.477 3.86v9.217a3.815 3.815 0 00-.762-.077H21.43v-1.523a2.288 2.288 0 00-2.285-2.286h-4.622c-.584 0-1.119.221-1.523.584a2.274 2.274 0 00-1.523-.584H6.855a2.288 2.288 0 00-2.285 2.286V13H2.285c-.258 0-.513.026-.762.077V3.86A2.288 2.288 0 013.81 1.574c.993 0 1.84.637 2.154 1.524h14.074a2.289 2.289 0 012.154-1.524 2.288 2.288 0 012.286 2.285z" fill="url(#paint4_linear)"/><defs><linearGradient id="paint0_linear" x1="13" y1="19.094" x2="13" y2="24.426" gradientUnits="userSpaceOnUse"><stop stop-color="#EB7070"/><stop offset="1" stop-color="#2B5878"/></linearGradient><linearGradient id="paint1_linear" x1="13" y1="14.523" x2="13" y2="17.57" gradientUnits="userSpaceOnUse"><stop stop-color="#EB7070"/><stop offset="1" stop-color="#2B5878"/></linearGradient><linearGradient id="paint2_linear" x1="9.166" y1="10.715" x2="9.166" y2="13" gradientUnits="userSpaceOnUse"><stop stop-color="#EB7070"/><stop offset="1" stop-color="#2B5878"/></linearGradient><linearGradient id="paint3_linear" x1="16.834" y1="10.715" x2="16.834" y2="13" gradientUnits="userSpaceOnUse"><stop stop-color="#EB7070"/><stop offset="1" stop-color="#2B5878"/></linearGradient><linearGradient id="paint4_linear" x1="13" y1="1.574" x2="13" y2="13.077" gradientUnits="userSpaceOnUse"><stop stop-color="#EB7070"/><stop offset="1" stop-color="#2B5878"/></linearGradient></defs></svg>