<svg width="28" height="28" fill="none" xmlns="http://www.w3.org/2000/svg"><path d="M15.835 21.2H6.508a.665.665 0 00-.665.665v4.663c0 .368.298.666.665.666h9.326a.665.665 0 00.666-.666v-4.663a.666.666 0 00-.665-.665z" fill="url(#paint0_linear)"/><path d="M27.335 21.2h-9.327a.665.665 0 00-.665.665v4.663c0 .368.298.666.665.666h9.327a.665.665 0 00.665-.666v-4.663a.666.666 0 00-.665-.665z" fill="url(#paint1_linear)"/><path d="M6.508 13.598h9.326a.665.665 0 00.666-.666V8.27a.666.666 0 00-.665-.666H6.508a.665.665 0 00-.665.666v4.662c0 .368.298.666.665.666z" fill="url(#paint2_linear)"/><path d="M27.335 7.604h-9.327a.665.665 0 00-.665.666v4.662c0 .368.298.666.665.666h9.327a.665.665 0 00.665-.666V8.27a.666.666 0 00-.665-.666z" fill="url(#paint3_linear)"/><path d="M12.115 6.8h9.326a.665.665 0 00.666-.665V1.472a.665.665 0 00-.666-.666h-9.326a.665.665 0 00-.665.666v4.663c0 .367.298.665.665.665z" fill="url(#paint4_linear)"/><path d="M11.643 15.067v4.663c0 .368.297.666.665.666h9.326a.665.665 0 00.665-.666v-4.663a.665.665 0 00-.665-.665h-9.326a.665.665 0 00-.665.665z" fill="url(#paint5_linear)"/><path d="M10.657 19.73v-4.663a.666.666 0 00-.665-.665H.665a.665.665 0 00-.665.665v4.663c0 .368.298.666.665.666h9.327a.665.665 0 00.665-.666z" fill="url(#paint6_linear)"/><defs><linearGradient id="paint0_linear" x1="11.171" y1="21.2" x2="11.171" y2="27.194" gradientUnits="userSpaceOnUse"><stop stop-color="#EB7070"/><stop offset="1" stop-color="#2B5878"/></linearGradient><linearGradient id="paint1_linear" x1="22.672" y1="21.2" x2="22.672" y2="27.194" gradientUnits="userSpaceOnUse"><stop stop-color="#EB7070"/><stop offset="1" stop-color="#2B5878"/></linearGradient><linearGradient id="paint2_linear" x1="11.171" y1="7.604" x2="11.171" y2="13.598" gradientUnits="userSpaceOnUse"><stop stop-color="#EB7070"/><stop offset="1" stop-color="#2B5878"/></linearGradient><linearGradient id="paint3_linear" x1="22.672" y1="7.604" x2="22.672" y2="13.598" gradientUnits="userSpaceOnUse"><stop stop-color="#EB7070"/><stop offset="1" stop-color="#2B5878"/></linearGradient><linearGradient id="paint4_linear" x1="16.778" y1=".806" x2="16.778" y2="6.8" gradientUnits="userSpaceOnUse"><stop stop-color="#EB7070"/><stop offset="1" stop-color="#2B5878"/></linearGradient><linearGradient id="paint5_linear" x1="16.971" y1="14.402" x2="16.971" y2="20.396" gradientUnits="userSpaceOnUse"><stop stop-color="#EB7070"/><stop offset="1" stop-color="#2B5878"/></linearGradient><linearGradient id="paint6_linear" x1="5.329" y1="14.402" x2="5.329" y2="20.396" gradientUnits="userSpaceOnUse"><stop stop-color="#EB7070"/><stop offset="1" stop-color="#2B5878"/></linearGradient></defs></svg>