<svg width="22" height="27" fill="none" xmlns="http://www.w3.org/2000/svg"><path d="M9.568 11.884L3.667 9.666v1.625l5.9 2.219v-1.626z" fill="url(#paint0_linear)"/><path d="M9.568 14.407l-5.901-2.219v1.626l5.9 2.218v-1.625z" fill="url(#paint1_linear)"/><path d="M9.568 16.929L3.667 14.71v1.626l5.9 2.218V16.93z" fill="url(#paint2_linear)"/><path d="M9.568 9.362L3.667 7.143V8.77l5.9 2.218V9.362z" fill="url(#paint3_linear)"/><path d="M9.568 0H3.667v1.202l5.9 2.218V0z" fill="url(#paint4_linear)"/><path d="M9.568 4.317L3.667 2.098v1.626l5.9 2.218V4.317z" fill="url(#paint5_linear)"/><path d="M9.568 6.84L3.667 4.62v1.626l5.9 2.219V6.839z" fill="url(#paint6_linear)"/><path d="M9.568 21.974l-5.901-2.219v3.026h5.9v-.807z" fill="url(#paint7_linear)"/><path d="M12.203 23.625H1.031V27h11.172v-3.375z" fill="url(#paint8_linear)"/><path d="M22 3.194H10.37v1.567H22V3.194z" fill="url(#paint9_linear)"/><path d="M2.865 3.194H0v1.567h2.865V3.194z" fill="url(#paint10_linear)"/><path d="M9.568 19.451l-5.901-2.218v1.625l5.9 2.219V19.45z" fill="url(#paint11_linear)"/><path d="M20.55 16.125a.391.391 0 00-.284.124.433.433 0 00-.117.298c0 .442-.386.802-.86.802-.476 0-.862-.36-.862-.802 0-.442.396-.802.87-.802a.4.4 0 00.288-.123.441.441 0 00.123-.299v-2.185h-.802v1.812a1.638 1.638 0 00-1.271 1.597c0 .908.741 1.646 1.658 1.646.917 0 1.66-.738 1.66-1.646a.435.435 0 00-.118-.299.393.393 0 00-.285-.123z" fill="url(#paint12_linear)"/><path d="M18.18 12.716h2.217l.606-2.41h-3.43l.606 2.41z" fill="url(#paint13_linear)"/><path d="M19.651 5.183h-.802v4.701h.802v-4.7z" fill="url(#paint14_linear)"/><defs><linearGradient id="paint1_linear" x1="6.617" y1="12.188" x2="6.617" y2="16.032" gradientUnits="userSpaceOnUse"><stop stop-color="#EB7070"/><stop offset="1" stop-color="#2B5878"/></linearGradient><linearGradient id="paint7_linear" x1="6.617" y1="19.755" x2="6.617" y2="22.781" gradientUnits="userSpaceOnUse"><stop stop-color="#EB7070"/><stop offset="1" stop-color="#2B5878"/></linearGradient><linearGradient id="paint2_linear" x1="6.617" y1="14.71" x2="6.617" y2="18.554" gradientUnits="userSpaceOnUse"><stop stop-color="#EB7070"/><stop offset="1" stop-color="#2B5878"/></linearGradient><linearGradient id="paint3_linear" x1="6.617" y1="7.143" x2="6.617" y2="10.987" gradientUnits="userSpaceOnUse"><stop stop-color="#EB7070"/><stop offset="1" stop-color="#2B5878"/></linearGradient><linearGradient id="paint4_linear" x1="6.617" y1="0" x2="6.617" y2="3.42" gradientUnits="userSpaceOnUse"><stop stop-color="#EB7070"/><stop offset="1" stop-color="#2B5878"/></linearGradient><linearGradient id="paint5_linear" x1="6.617" y1="2.098" x2="6.617" y2="5.942" gradientUnits="userSpaceOnUse"><stop stop-color="#EB7070"/><stop offset="1" stop-color="#2B5878"/></linearGradient><linearGradient id="paint6_linear" x1="6.617" y1="4.621" x2="6.617" y2="8.465" gradientUnits="userSpaceOnUse"><stop stop-color="#EB7070"/><stop offset="1" stop-color="#2B5878"/></linearGradient><linearGradient id="paint0_linear" x1="6.617" y1="9.666" x2="6.617" y2="13.51" gradientUnits="userSpaceOnUse"><stop stop-color="#EB7070"/><stop offset="1" stop-color="#2B5878"/></linearGradient><linearGradient id="paint8_linear" x1="6.617" y1="23.625" x2="6.617" y2="27" gradientUnits="userSpaceOnUse"><stop stop-color="#EB7070"/><stop offset="1" stop-color="#2B5878"/></linearGradient><linearGradient id="paint9_linear" x1="16.185" y1="3.194" x2="16.185" y2="4.761" gradientUnits="userSpaceOnUse"><stop stop-color="#EB7070"/><stop offset="1" stop-color="#2B5878"/></linearGradient><linearGradient id="paint10_linear" x1="1.432" y1="3.194" x2="1.432" y2="4.761" gradientUnits="userSpaceOnUse"><stop stop-color="#EB7070"/><stop offset="1" stop-color="#2B5878"/></linearGradient><linearGradient id="paint11_linear" x1="6.617" y1="17.233" x2="6.617" y2="21.077" gradientUnits="userSpaceOnUse"><stop stop-color="#EB7070"/><stop offset="1" stop-color="#2B5878"/></linearGradient><linearGradient id="paint12_linear" x1="19.294" y1="13.138" x2="19.294" y2="18.193" gradientUnits="userSpaceOnUse"><stop stop-color="#EB7070"/><stop offset="1" stop-color="#2B5878"/></linearGradient><linearGradient id="paint13_linear" x1="19.288" y1="10.306" x2="19.288" y2="12.716" gradientUnits="userSpaceOnUse"><stop stop-color="#EB7070"/><stop offset="1" stop-color="#2B5878"/></linearGradient><linearGradient id="paint14_linear" x1="19.25" y1="5.183" x2="19.25" y2="9.884" gradientUnits="userSpaceOnUse"><stop stop-color="#EB7070"/><stop offset="1" stop-color="#2B5878"/></linearGradient></defs></svg>