<svg width="24" height="24" fill="none" xmlns="http://www.w3.org/2000/svg"><path d="M.5 0h23a.5.5 0 01.5.5v2a.5.5 0 01-.5.5H23v20.5a.5.5 0 01-.5.5c-.665 0-1.004-.388-1.252-.67-.218-.25-.305-.33-.5-.33s-.282.08-.5.33c-.248.282-.588.67-1.253.67-.664 0-1.018-.404-1.251-.67-.218-.25-.305-.33-.498-.33s-.28.08-.497.33c-.233.266-.585.67-1.249.67a.5.5 0 01-.447-.724l3.393-6.787a.495.495 0 01.054-.989c.05 0 .106-.004.158-.005a9.039 9.039 0 01-3.295-5.453L14.083 3H9.917l-1.28 7.042a9.037 9.037 0 01-3.295 5.453c.053 0 .106.005.158.005a.495.495 0 01.055.989l3.394 6.77c.046.09.06.21.046.31A.5.5 0 018.5 24c-.665 0-1.004-.388-1.252-.67-.218-.25-.305-.33-.5-.33s-.282.08-.5.33C6 23.611 5.66 24 4.994 24c-.664 0-1.017-.404-1.251-.67-.218-.25-.305-.33-.498-.33s-.28.08-.497.33c-.233.266-.585.67-1.249.67a.5.5 0 01-.5-.5V3H.5a.5.5 0 01-.5-.5v-2A.5.5 0 01.5 0z" fill="url(#paint0_linear)"/><defs><linearGradient id="paint0_linear" x1="12" y1="0" x2="12" y2="24" gradientUnits="userSpaceOnUse"><stop stop-color="#EB7070"/><stop offset="1" stop-color="#2B5878"/></linearGradient></defs></svg>