<svg width="22" height="22" fill="none" xmlns="http://www.w3.org/2000/svg"><path d="M22 6.059V2.19h-2.763a2.152 2.152 0 00-2.05-1.503 2.14 2.14 0 00-1.503.616 2.14 2.14 0 00-3.008 0 2.14 2.14 0 00-3.008 0 2.14 2.14 0 00-3.008 0 2.14 2.14 0 00-3.008 0A2.14 2.14 0 002.148.687 2.15 2.15 0 000 2.837v16.328a2.15 2.15 0 002.148 2.148c.58 0 1.105-.219 1.5-.62a2.142 2.142 0 003.012.004 2.14 2.14 0 003.008 0 2.14 2.14 0 003.008 0 2.14 2.14 0 003.008 0c.388.381.918.616 1.504.616.96 0 1.775-.633 2.05-1.503H22v-3.87h-2.664V6.06H22zm-1.29-1.29h-1.374V3.48h1.375v1.29zM2.149 20.024a.86.86 0 01-.859-.859V2.836a.86.86 0 011.719 0v16.328c0 .22-.212.86-.86.86zm3.008 0a.86.86 0 01-.86-.859V2.836a.86.86 0 011.72 0v16.328a.86.86 0 01-.86.86zm3.008 0a.86.86 0 01-.86-.859V2.836a.86.86 0 011.72 0v16.328a.86.86 0 01-.86.86zm3.008 0a.86.86 0 01-.86-.859V2.836a.86.86 0 011.72 0v16.328a.86.86 0 01-.86.86zm3.008 0a.86.86 0 01-.86-.859V2.836a.86.86 0 011.72 0v16.328a.86.86 0 01-.86.86zm3.867-.859a.86.86 0 01-1.719 0V2.836a.86.86 0 011.719 0v16.328zm2.664-1.934v1.29h-1.375v-1.29h1.375z" fill="url(#paint0_linear)"/><defs><linearGradient id="paint0_linear" x1="11" y1=".688" x2="11" y2="21.313" gradientUnits="userSpaceOnUse"><stop stop-color="#EB7070"/><stop offset="1" stop-color="#2B5878"/></linearGradient></defs></svg>