<svg width="29" height="29" fill="none" xmlns="http://www.w3.org/2000/svg"><path d="M9.855 4.871H2.322v3.017l1.826-1.364a.354.354 0 01.404-.01L7.464 8.5l2.391-1.115V4.871zM7.271 7.463a1.145 1.145 0 110-2.29 1.145 1.145 0 010 2.29z" fill="url(#paint0_linear)"/><path d="M7.271 5.853a.465.465 0 100 .93.465.465 0 000-.93z" fill="url(#paint1_linear)"/><path d="M6.119 1.181l-1.65 1.651h3.3l-1.65-1.65z" fill="url(#paint2_linear)"/><path d="M10.535 9.9l.906.794v-6.8l-.906.787V9.9z" fill="url(#paint3_linear)"/><path d="M10.091 4.191l.812-.68H1.317l.818.68h7.956z" fill="url(#paint4_linear)"/><path d="M7.247 9.17L4.365 7.212 2.322 8.737v1.005h7.533V8.133L7.573 9.197a.293.293 0 01-.132.032.349.349 0 01-.194-.06z" fill="url(#paint5_linear)"/><path d="M10.09 10.422H2.136l-.786.68h9.52l-.78-.68z" fill="url(#paint6_linear)"/><path d="M1.643 4.682l-.85-.771v6.766l.85-.778V4.682z" fill="url(#paint7_linear)"/><path d="M22.352 5.607h-2.79l-.98 3.286h4.75l-.98-3.286z" fill="url(#paint8_linear)"/><path d="M20.617 9.232h.68v4.305h-.68V9.232z" fill="url(#paint9_linear)"/><path d="M8.388 18.578a.574.574 0 100-1.15.574.574 0 000 1.15z" fill="url(#paint10_linear)"/><path d="M14.619 18.578a.574.574 0 100-1.149.574.574 0 000 1.149z" fill="url(#paint11_linear)"/><path d="M3.455 15.419v3.359a2.257 2.257 0 011.7 2.182v1.073h19.257V20.96a2.258 2.258 0 011.7-2.182V15.42a1.547 1.547 0 00-1.568-1.542H5.023a1.548 1.548 0 00-1.568 1.542zm15.82 1.01a.34.34 0 01.48 0l.481.48a1.252 1.252 0 011.227 0l.48-.48a.34.34 0 11.48.48l-.48.48a1.258 1.258 0 010 1.227l.48.48a.34.34 0 01-.48.481l-.48-.48a1.252 1.252 0 01-1.227 0l-.48.48a.342.342 0 01-.484.003.34.34 0 01.003-.483l.48-.48a1.25 1.25 0 010-1.228l-.48-.48a.34.34 0 010-.48zm-6.23 0a.34.34 0 01.48 0l.48.48a1.252 1.252 0 011.227 0l.48-.48a.34.34 0 11.481.48l-.48.48a1.259 1.259 0 010 1.227l.48.48a.339.339 0 01-.24.58.34.34 0 01-.24-.099l-.48-.48a1.252 1.252 0 01-1.227 0l-.48.48a.34.34 0 01-.481-.48l.48-.48a1.252 1.252 0 010-1.228l-.48-.48a.34.34 0 010-.48zm-6.23 0a.34.34 0 01.48 0l.48.48a1.252 1.252 0 011.227 0l.48-.48a.34.34 0 11.48.48l-.48.48a1.258 1.258 0 010 1.227l.48.48a.34.34 0 11-.48.481l-.48-.48a1.252 1.252 0 01-1.227 0l-.48.48a.34.34 0 01-.48-.48l.48-.48a1.25 1.25 0 010-1.228l-.48-.48a.34.34 0 010-.48z" fill="url(#paint12_linear)"/><path d="M20.85 18.578a.574.574 0 100-1.149.574.574 0 000 1.149z" fill="url(#paint13_linear)"/><path d="M23.732 26.508h3.172v1.36h-3.172v-1.36z" fill="url(#paint14_linear)"/><path d="M26.65 19.393a1.56 1.56 0 00-1.558 1.566v1.378c0 .188-.17.376-.357.376H4.832c-.187 0-.357-.188-.357-.376V20.96a1.558 1.558 0 00-3.116 0v4.87h26.848v-4.87a1.56 1.56 0 00-1.558-1.566z" fill="url(#paint15_linear)"/><path d="M2.662 26.508h3.172v1.36H2.662v-1.36z" fill="url(#paint16_linear)"/><defs><linearGradient id="paint1_linear" x1="7.271" y1="5.853" x2="7.271" y2="6.784" gradientUnits="userSpaceOnUse"><stop stop-color="#EB7070"/><stop offset="1" stop-color="#2B5878"/></linearGradient><linearGradient id="paint8_linear" x1="20.957" y1="5.607" x2="20.957" y2="8.893" gradientUnits="userSpaceOnUse"><stop stop-color="#EB7070"/><stop offset="1" stop-color="#2B5878"/></linearGradient><linearGradient id="paint2_linear" x1="6.119" y1="1.181" x2="6.119" y2="2.832" gradientUnits="userSpaceOnUse"><stop stop-color="#EB7070"/><stop offset="1" stop-color="#2B5878"/></linearGradient><linearGradient id="paint3_linear" x1="10.988" y1="3.894" x2="10.988" y2="10.694" gradientUnits="userSpaceOnUse"><stop stop-color="#EB7070"/><stop offset="1" stop-color="#2B5878"/></linearGradient><linearGradient id="paint4_linear" x1="6.11" y1="3.512" x2="6.11" y2="4.191" gradientUnits="userSpaceOnUse"><stop stop-color="#EB7070"/><stop offset="1" stop-color="#2B5878"/></linearGradient><linearGradient id="paint5_linear" x1="6.089" y1="7.213" x2="6.089" y2="9.742" gradientUnits="userSpaceOnUse"><stop stop-color="#EB7070"/><stop offset="1" stop-color="#2B5878"/></linearGradient><linearGradient id="paint6_linear" x1="6.11" y1="10.422" x2="6.11" y2="11.102" gradientUnits="userSpaceOnUse"><stop stop-color="#EB7070"/><stop offset="1" stop-color="#2B5878"/></linearGradient><linearGradient id="paint7_linear" x1="1.218" y1="3.911" x2="1.218" y2="10.677" gradientUnits="userSpaceOnUse"><stop stop-color="#EB7070"/><stop offset="1" stop-color="#2B5878"/></linearGradient><linearGradient id="paint0_linear" x1="6.089" y1="4.871" x2="6.089" y2="8.499" gradientUnits="userSpaceOnUse"><stop stop-color="#EB7070"/><stop offset="1" stop-color="#2B5878"/></linearGradient><linearGradient id="paint9_linear" x1="20.957" y1="9.232" x2="20.957" y2="13.537" gradientUnits="userSpaceOnUse"><stop stop-color="#EB7070"/><stop offset="1" stop-color="#2B5878"/></linearGradient><linearGradient id="paint10_linear" x1="8.388" y1="17.427" x2="8.388" y2="18.578" gradientUnits="userSpaceOnUse"><stop stop-color="#EB7070"/><stop offset="1" stop-color="#2B5878"/></linearGradient><linearGradient id="paint11_linear" x1="14.619" y1="17.427" x2="14.619" y2="18.578" gradientUnits="userSpaceOnUse"><stop stop-color="#EB7070"/><stop offset="1" stop-color="#2B5878"/></linearGradient><linearGradient id="paint12_linear" x1="14.783" y1="13.877" x2="14.783" y2="22.033" gradientUnits="userSpaceOnUse"><stop stop-color="#EB7070"/><stop offset="1" stop-color="#2B5878"/></linearGradient><linearGradient id="paint13_linear" x1="20.849" y1="17.427" x2="20.849" y2="18.578" gradientUnits="userSpaceOnUse"><stop stop-color="#EB7070"/><stop offset="1" stop-color="#2B5878"/></linearGradient><linearGradient id="paint14_linear" x1="25.318" y1="26.508" x2="25.318" y2="27.867" gradientUnits="userSpaceOnUse"><stop stop-color="#EB7070"/><stop offset="1" stop-color="#2B5878"/></linearGradient><linearGradient id="paint15_linear" x1="14.783" y1="19.393" x2="14.783" y2="25.828" gradientUnits="userSpaceOnUse"><stop stop-color="#EB7070"/><stop offset="1" stop-color="#2B5878"/></linearGradient><linearGradient id="paint16_linear" x1="4.248" y1="26.508" x2="4.248" y2="27.867" gradientUnits="userSpaceOnUse"><stop stop-color="#EB7070"/><stop offset="1" stop-color="#2B5878"/></linearGradient></defs></svg>