<svg width="26" height="26" fill="none" xmlns="http://www.w3.org/2000/svg"><path d="M24.679 5.126h-4.75a1.32 1.32 0 00-1.32 1.32v3.43h-3.43c-.73 0-1.321.59-1.321 1.32v3.43h-3.43a1.32 1.32 0 00-1.32 1.32v3.595H5.513a1.322 1.322 0 00-1.321 1.321v2.764c0 .73.592 1.322 1.321 1.322H24.68a1.32 1.32 0 001.321-1.322V6.446c0-.73-.591-1.32-1.321-1.32z" fill="url(#paint0_linear)"/><path d="M17.726 1.319a.88.88 0 00-1.245-.016C10.83 6.806 5.456 12.182.258 17.379a.882.882 0 00-.258.624v6.027a.881.881 0 001.762 0v-5.663c5.113-5.114 10.4-10.398 15.948-15.803a.881.881 0 00.016-1.245z" fill="url(#paint1_linear)"/><defs><linearGradient id="paint0_linear" x1="15.096" y1="5.126" x2="15.096" y2="24.948" gradientUnits="userSpaceOnUse"><stop stop-color="#EB7070"/><stop offset="1" stop-color="#2B5878"/></linearGradient><linearGradient id="paint1_linear" x1="8.988" y1="1.053" x2="8.988" y2="24.911" gradientUnits="userSpaceOnUse"><stop stop-color="#EB7070"/><stop offset="1" stop-color="#2B5878"/></linearGradient></defs></svg>