<svg width="24" height="24" fill="none" xmlns="http://www.w3.org/2000/svg"><path d="M23.872 2.366l-5.91 14.559a1.845 1.845 0 01-1.717 1.154c-.493 0-.956-.192-1.306-.542l-3.114-3.114-2.589 2.588a.922.922 0 01-.049 1.25l-5.12 5.12A2.09 2.09 0 012.574 24c-.564 0-1.094-.22-1.493-.619L.62 22.92a2.098 2.098 0 01-.618-1.494c0-.564.22-1.094.619-1.493l5.119-5.12a.922.922 0 011.25-.048l2.59-2.589-3.115-3.114a1.846 1.846 0 01-.505-1.676A1.846 1.846 0 017.076 6.04L21.635.13c.21-.086.428-.129.65-.129a1.717 1.717 0 011.587 2.366z" fill="url(#paint0_linear)"/><defs><linearGradient id="paint0_linear" x1="12" y1="0" x2="12" y2="24" gradientUnits="userSpaceOnUse"><stop stop-color="#EB7070"/><stop offset="1" stop-color="#2B5878"/></linearGradient></defs></svg>