<svg width="20" height="20" fill="none" xmlns="http://www.w3.org/2000/svg"><path d="M12.46 10.917c.429.338.975.702 1.638 1.092a19.345 19.345 0 012.283-.136c1.911 0 3.062.318 3.453.956.208.286.22.624.038 1.014 0 .013-.006.026-.019.039l-.039.039v.02c-.078.494-.54.74-1.385.74-.624 0-1.372-.13-2.243-.39a14.221 14.221 0 01-2.537-1.033c-2.874.312-5.423.852-7.647 1.619-1.99 3.407-3.563 5.111-4.72 5.111-.196 0-.378-.046-.547-.137l-.468-.234a2.087 2.087 0 00-.117-.097c-.13-.13-.17-.364-.117-.703.117-.52.481-1.115 1.092-1.785.611-.67 1.47-1.297 2.575-1.882.182-.117.332-.078.449.117.026.026.039.052.039.078a47.687 47.687 0 002.087-3.843c.885-1.769 1.561-3.472 2.03-5.111a15.77 15.77 0 01-.596-3.112c-.084-1.008-.042-1.837.127-2.487.143-.52.416-.78.82-.78h.429c.299 0 .526.097.682.292.234.273.293.716.176 1.327a.423.423 0 01-.078.156c.013.039.02.091.02.156v.585c-.027 1.6-.118 2.848-.274 3.746.715 2.133 1.665 3.68 2.848 4.643zM1.222 18.935c.676-.313 1.567-1.34 2.672-3.083a11.122 11.122 0 00-1.707 1.639c-.474.572-.796 1.053-.965 1.444zM8.987.986c-.195.546-.208 1.405-.039 2.575.013-.09.059-.377.137-.858 0-.04.045-.319.136-.839a.44.44 0 01.078-.156c-.013-.013-.02-.026-.02-.04a.15.15 0 01-.019-.058c-.013-.286-.097-.52-.253-.702 0 .013-.007.026-.02.04v.038zM6.568 13.882a28.616 28.616 0 015.54-1.58 2.947 2.947 0 01-.253-.185 3.508 3.508 0 01-.313-.264c-.988-.871-1.814-2.016-2.477-3.433-.351 1.118-.89 2.4-1.62 3.843-.39.728-.682 1.268-.877 1.619zm12.602-.312c-.312-.312-1.222-.468-2.73-.468.987.364 1.794.546 2.418.546.182 0 .3-.007.351-.02 0-.013-.013-.032-.039-.058z" fill="#fff"/></svg>